%TF.GenerationSoftware,KiCad,Pcbnew,(5.1.10)-1*%
%TF.CreationDate,2021-08-11T22:08:48+03:00*%
%TF.ProjectId,ambient,616d6269-656e-4742-9e6b-696361645f70,rev?*%
%TF.SameCoordinates,Original*%
%TF.FileFunction,Legend,Top*%
%TF.FilePolarity,Positive*%
%FSLAX46Y46*%
G04 Gerber Fmt 4.6, Leading zero omitted, Abs format (unit mm)*
G04 Created by KiCad (PCBNEW (5.1.10)-1) date 2021-08-11 22:08:48*
%MOMM*%
%LPD*%
G01*
G04 APERTURE LIST*
%ADD10C,0.150000*%
%ADD11C,0.010000*%
%ADD12C,0.120000*%
G04 APERTURE END LIST*
D10*
X48347619Y-51839761D02*
X48490476Y-51887380D01*
X48728571Y-51887380D01*
X48823809Y-51839761D01*
X48871428Y-51792142D01*
X48919047Y-51696904D01*
X48919047Y-51601666D01*
X48871428Y-51506428D01*
X48823809Y-51458809D01*
X48728571Y-51411190D01*
X48538095Y-51363571D01*
X48442857Y-51315952D01*
X48395238Y-51268333D01*
X48347619Y-51173095D01*
X48347619Y-51077857D01*
X48395238Y-50982619D01*
X48442857Y-50935000D01*
X48538095Y-50887380D01*
X48776190Y-50887380D01*
X48919047Y-50935000D01*
X49252380Y-51220714D02*
X49490476Y-51887380D01*
X49728571Y-51220714D02*
X49490476Y-51887380D01*
X49395238Y-52125476D01*
X49347619Y-52173095D01*
X49252380Y-52220714D01*
X50061904Y-51839761D02*
X50157142Y-51887380D01*
X50347619Y-51887380D01*
X50442857Y-51839761D01*
X50490476Y-51744523D01*
X50490476Y-51696904D01*
X50442857Y-51601666D01*
X50347619Y-51554047D01*
X50204761Y-51554047D01*
X50109523Y-51506428D01*
X50061904Y-51411190D01*
X50061904Y-51363571D01*
X50109523Y-51268333D01*
X50204761Y-51220714D01*
X50347619Y-51220714D01*
X50442857Y-51268333D01*
X50776190Y-51220714D02*
X51157142Y-51220714D01*
X50919047Y-50887380D02*
X50919047Y-51744523D01*
X50966666Y-51839761D01*
X51061904Y-51887380D01*
X51157142Y-51887380D01*
X51871428Y-51839761D02*
X51776190Y-51887380D01*
X51585714Y-51887380D01*
X51490476Y-51839761D01*
X51442857Y-51744523D01*
X51442857Y-51363571D01*
X51490476Y-51268333D01*
X51585714Y-51220714D01*
X51776190Y-51220714D01*
X51871428Y-51268333D01*
X51919047Y-51363571D01*
X51919047Y-51458809D01*
X51442857Y-51554047D01*
X52347619Y-51887380D02*
X52347619Y-51220714D01*
X52347619Y-51315952D02*
X52395238Y-51268333D01*
X52490476Y-51220714D01*
X52633333Y-51220714D01*
X52728571Y-51268333D01*
X52776190Y-51363571D01*
X52776190Y-51887380D01*
X52776190Y-51363571D02*
X52823809Y-51268333D01*
X52919047Y-51220714D01*
X53061904Y-51220714D01*
X53157142Y-51268333D01*
X53204761Y-51363571D01*
X53204761Y-51887380D01*
X30932380Y-36266190D02*
X29932380Y-36266190D01*
X29932380Y-35885238D01*
X29980000Y-35790000D01*
X30027619Y-35742380D01*
X30122857Y-35694761D01*
X30265714Y-35694761D01*
X30360952Y-35742380D01*
X30408571Y-35790000D01*
X30456190Y-35885238D01*
X30456190Y-36266190D01*
X30932380Y-35123333D02*
X30884761Y-35218571D01*
X30837142Y-35266190D01*
X30741904Y-35313809D01*
X30456190Y-35313809D01*
X30360952Y-35266190D01*
X30313333Y-35218571D01*
X30265714Y-35123333D01*
X30265714Y-34980476D01*
X30313333Y-34885238D01*
X30360952Y-34837619D01*
X30456190Y-34790000D01*
X30741904Y-34790000D01*
X30837142Y-34837619D01*
X30884761Y-34885238D01*
X30932380Y-34980476D01*
X30932380Y-35123333D01*
X30265714Y-34456666D02*
X30932380Y-34266190D01*
X30456190Y-34075714D01*
X30932380Y-33885238D01*
X30265714Y-33694761D01*
X30884761Y-32932857D02*
X30932380Y-33028095D01*
X30932380Y-33218571D01*
X30884761Y-33313809D01*
X30789523Y-33361428D01*
X30408571Y-33361428D01*
X30313333Y-33313809D01*
X30265714Y-33218571D01*
X30265714Y-33028095D01*
X30313333Y-32932857D01*
X30408571Y-32885238D01*
X30503809Y-32885238D01*
X30599047Y-33361428D01*
X30932380Y-32456666D02*
X30265714Y-32456666D01*
X30456190Y-32456666D02*
X30360952Y-32409047D01*
X30313333Y-32361428D01*
X30265714Y-32266190D01*
X30265714Y-32170952D01*
D11*
%TO.C,REF\u002A\u002A*%
G36*
X31978600Y-74324054D02*
G01*
X31989465Y-74437993D01*
X32021082Y-74545616D01*
X32071985Y-74644615D01*
X32140707Y-74732684D01*
X32225781Y-74807516D01*
X32322768Y-74865384D01*
X32429036Y-74905005D01*
X32536050Y-74923573D01*
X32641700Y-74922434D01*
X32743875Y-74902930D01*
X32840466Y-74866406D01*
X32929362Y-74814205D01*
X33008454Y-74747673D01*
X33075631Y-74668152D01*
X33128783Y-74576987D01*
X33165801Y-74475523D01*
X33184573Y-74365102D01*
X33186511Y-74315206D01*
X33186511Y-74227267D01*
X33238440Y-74227267D01*
X33274747Y-74230111D01*
X33301645Y-74241911D01*
X33328751Y-74265649D01*
X33367133Y-74304031D01*
X33367133Y-76495602D01*
X33367124Y-76757739D01*
X33367092Y-76998241D01*
X33367028Y-77218048D01*
X33366924Y-77418101D01*
X33366773Y-77599344D01*
X33366566Y-77762716D01*
X33366294Y-77909160D01*
X33365950Y-78039617D01*
X33365526Y-78155029D01*
X33365013Y-78256338D01*
X33364403Y-78344484D01*
X33363688Y-78420410D01*
X33362860Y-78485057D01*
X33361911Y-78539367D01*
X33360833Y-78584280D01*
X33359617Y-78620740D01*
X33358255Y-78649687D01*
X33356739Y-78672063D01*
X33355062Y-78688809D01*
X33353214Y-78700868D01*
X33351187Y-78709180D01*
X33348975Y-78714687D01*
X33347892Y-78716537D01*
X33343729Y-78723549D01*
X33340195Y-78729996D01*
X33336365Y-78735900D01*
X33331318Y-78741286D01*
X33324129Y-78746178D01*
X33313877Y-78750598D01*
X33299636Y-78754572D01*
X33280486Y-78758121D01*
X33255501Y-78761270D01*
X33223760Y-78764042D01*
X33184338Y-78766461D01*
X33136314Y-78768551D01*
X33078763Y-78770335D01*
X33010763Y-78771837D01*
X32931390Y-78773080D01*
X32839721Y-78774089D01*
X32734834Y-78774885D01*
X32615804Y-78775494D01*
X32481710Y-78775939D01*
X32331627Y-78776243D01*
X32164633Y-78776430D01*
X31979804Y-78776524D01*
X31776217Y-78776548D01*
X31552950Y-78776525D01*
X31309078Y-78776480D01*
X31043679Y-78776437D01*
X31005296Y-78776432D01*
X30738318Y-78776389D01*
X30492998Y-78776318D01*
X30268417Y-78776213D01*
X30063655Y-78776066D01*
X29877794Y-78775869D01*
X29709912Y-78775616D01*
X29559092Y-78775300D01*
X29424413Y-78774913D01*
X29304956Y-78774447D01*
X29199801Y-78773897D01*
X29108029Y-78773253D01*
X29028721Y-78772511D01*
X28960957Y-78771661D01*
X28903818Y-78770697D01*
X28856383Y-78769611D01*
X28817734Y-78768397D01*
X28786951Y-78767047D01*
X28763115Y-78765555D01*
X28745306Y-78763911D01*
X28732605Y-78762111D01*
X28724092Y-78760145D01*
X28719734Y-78758477D01*
X28711272Y-78754906D01*
X28703503Y-78752270D01*
X28696398Y-78749634D01*
X28689927Y-78746062D01*
X28684061Y-78740621D01*
X28678771Y-78732375D01*
X28674026Y-78720390D01*
X28669798Y-78703731D01*
X28666057Y-78681463D01*
X28662773Y-78652652D01*
X28659917Y-78616363D01*
X28657460Y-78571661D01*
X28655371Y-78517611D01*
X28653622Y-78453279D01*
X28652183Y-78377730D01*
X28651024Y-78290030D01*
X28650117Y-78189243D01*
X28649431Y-78074434D01*
X28648937Y-77944670D01*
X28648605Y-77799015D01*
X28648407Y-77636535D01*
X28648313Y-77456295D01*
X28648292Y-77257360D01*
X28648315Y-77038796D01*
X28648354Y-76799668D01*
X28648378Y-76539040D01*
X28648378Y-76496889D01*
X28648364Y-76233992D01*
X28648339Y-75992732D01*
X28648329Y-75772165D01*
X28648358Y-75571352D01*
X28648452Y-75389349D01*
X28648638Y-75225216D01*
X28648941Y-75078011D01*
X28649386Y-74946792D01*
X28649966Y-74836867D01*
X28952803Y-74836867D01*
X28992593Y-74894711D01*
X29003764Y-74910479D01*
X29013834Y-74924441D01*
X29022862Y-74937784D01*
X29030903Y-74951693D01*
X29038014Y-74967356D01*
X29044253Y-74985958D01*
X29049675Y-75008686D01*
X29054338Y-75036727D01*
X29058299Y-75071267D01*
X29061615Y-75113492D01*
X29064341Y-75164589D01*
X29066536Y-75225744D01*
X29068255Y-75298144D01*
X29069556Y-75382975D01*
X29070495Y-75481422D01*
X29071130Y-75594674D01*
X29071516Y-75723916D01*
X29071712Y-75870334D01*
X29071773Y-76035116D01*
X29071757Y-76219447D01*
X29071720Y-76424513D01*
X29071711Y-76547133D01*
X29071735Y-76764082D01*
X29071769Y-76959642D01*
X29071757Y-77134999D01*
X29071642Y-77291341D01*
X29071370Y-77429857D01*
X29070882Y-77551734D01*
X29070124Y-77658160D01*
X29069038Y-77750322D01*
X29067569Y-77829409D01*
X29065660Y-77896608D01*
X29063256Y-77953107D01*
X29060299Y-78000093D01*
X29056734Y-78038755D01*
X29052505Y-78070280D01*
X29047554Y-78095855D01*
X29041827Y-78116670D01*
X29035267Y-78133911D01*
X29027817Y-78148765D01*
X29019421Y-78162422D01*
X29010024Y-78176069D01*
X28999568Y-78190893D01*
X28993477Y-78199783D01*
X28954704Y-78257400D01*
X29486268Y-78257400D01*
X29609517Y-78257365D01*
X29712013Y-78257215D01*
X29795580Y-78256878D01*
X29862044Y-78256286D01*
X29913229Y-78255367D01*
X29950959Y-78254051D01*
X29977060Y-78252269D01*
X29993356Y-78249951D01*
X30001672Y-78247026D01*
X30003832Y-78243424D01*
X30001661Y-78239075D01*
X30000465Y-78237645D01*
X29975315Y-78200573D01*
X29949417Y-78147772D01*
X29925808Y-78085770D01*
X29917539Y-78059357D01*
X29912922Y-78041416D01*
X29909021Y-78020355D01*
X29905752Y-77994089D01*
X29903034Y-77960532D01*
X29900785Y-77917599D01*
X29898923Y-77863204D01*
X29897364Y-77795262D01*
X29896028Y-77711688D01*
X29894831Y-77610395D01*
X29893692Y-77489300D01*
X29893315Y-77444600D01*
X29892298Y-77319449D01*
X29891540Y-77215082D01*
X29891097Y-77129707D01*
X29891030Y-77061533D01*
X29891395Y-77008765D01*
X29892252Y-76969614D01*
X29893659Y-76942285D01*
X29895675Y-76924986D01*
X29898357Y-76915926D01*
X29901764Y-76913312D01*
X29905956Y-76915351D01*
X29910429Y-76919667D01*
X29920784Y-76932602D01*
X29942842Y-76961676D01*
X29975043Y-77004759D01*
X30015826Y-77059718D01*
X30063630Y-77124423D01*
X30116895Y-77196742D01*
X30174060Y-77274544D01*
X30233563Y-77355698D01*
X30293845Y-77438072D01*
X30353345Y-77519536D01*
X30410502Y-77597957D01*
X30463755Y-77671204D01*
X30511543Y-77737147D01*
X30552307Y-77793654D01*
X30584484Y-77838593D01*
X30606515Y-77869834D01*
X30611083Y-77876466D01*
X30634004Y-77913369D01*
X30660812Y-77961359D01*
X30686211Y-78010897D01*
X30689432Y-78017577D01*
X30711110Y-78065772D01*
X30723696Y-78103334D01*
X30729426Y-78139160D01*
X30730544Y-78181200D01*
X30729910Y-78257400D01*
X31884349Y-78257400D01*
X31793185Y-78163669D01*
X31746388Y-78113775D01*
X31696101Y-78057295D01*
X31650056Y-78003026D01*
X31629631Y-77977673D01*
X31599193Y-77938128D01*
X31559138Y-77884916D01*
X31510639Y-77819667D01*
X31454865Y-77744011D01*
X31392989Y-77659577D01*
X31326181Y-77567994D01*
X31255613Y-77470892D01*
X31182455Y-77369901D01*
X31107879Y-77266650D01*
X31033056Y-77162768D01*
X30959157Y-77059885D01*
X30887354Y-76959631D01*
X30818816Y-76863636D01*
X30754716Y-76773527D01*
X30696225Y-76690936D01*
X30644514Y-76617492D01*
X30600753Y-76554824D01*
X30566115Y-76504561D01*
X30541770Y-76468334D01*
X30528889Y-76447771D01*
X30527131Y-76443668D01*
X30535090Y-76432342D01*
X30555885Y-76405162D01*
X30588153Y-76363829D01*
X30630530Y-76310044D01*
X30681653Y-76245506D01*
X30740159Y-76171918D01*
X30804686Y-76090978D01*
X30873869Y-76004388D01*
X30946347Y-75913848D01*
X31020754Y-75821060D01*
X31080483Y-75746702D01*
X32091489Y-75746702D01*
X32097398Y-75759659D01*
X32111728Y-75781908D01*
X32112775Y-75783391D01*
X32131562Y-75813544D01*
X32151209Y-75850375D01*
X32155108Y-75858511D01*
X32158644Y-75866940D01*
X32161770Y-75877059D01*
X32164514Y-75890260D01*
X32166908Y-75907938D01*
X32168981Y-75931484D01*
X32170765Y-75962293D01*
X32172288Y-76001757D01*
X32173581Y-76051269D01*
X32174674Y-76112223D01*
X32175597Y-76186011D01*
X32176381Y-76274028D01*
X32177055Y-76377665D01*
X32177650Y-76498316D01*
X32178195Y-76637374D01*
X32178721Y-76796232D01*
X32179255Y-76975089D01*
X32179794Y-77160207D01*
X32180228Y-77324145D01*
X32180491Y-77468303D01*
X32180516Y-77594079D01*
X32180235Y-77702871D01*
X32179581Y-77796077D01*
X32178486Y-77875097D01*
X32176882Y-77941328D01*
X32174703Y-77996170D01*
X32171881Y-78041021D01*
X32168349Y-78077278D01*
X32164039Y-78106341D01*
X32158883Y-78129609D01*
X32152815Y-78148479D01*
X32145767Y-78164351D01*
X32137671Y-78178622D01*
X32128460Y-78192691D01*
X32119960Y-78205158D01*
X32102824Y-78231452D01*
X32092678Y-78249037D01*
X32091489Y-78252257D01*
X32102396Y-78253334D01*
X32133589Y-78254335D01*
X32182777Y-78255235D01*
X32247667Y-78256010D01*
X32325970Y-78256637D01*
X32415393Y-78257091D01*
X32513644Y-78257349D01*
X32582555Y-78257400D01*
X32687548Y-78257180D01*
X32784390Y-78256548D01*
X32870893Y-78255549D01*
X32944868Y-78254227D01*
X33004126Y-78252626D01*
X33046480Y-78250791D01*
X33069740Y-78248765D01*
X33073622Y-78247493D01*
X33065924Y-78232591D01*
X33057926Y-78224560D01*
X33044754Y-78207434D01*
X33027515Y-78177183D01*
X33015593Y-78152622D01*
X32988955Y-78093711D01*
X32985880Y-76916845D01*
X32982805Y-75739978D01*
X32537147Y-75739978D01*
X32439330Y-75740142D01*
X32348936Y-75740611D01*
X32268370Y-75741347D01*
X32200038Y-75742316D01*
X32146344Y-75743480D01*
X32109695Y-75744803D01*
X32092496Y-75746249D01*
X32091489Y-75746702D01*
X31080483Y-75746702D01*
X31095730Y-75727722D01*
X31169910Y-75635537D01*
X31241931Y-75546204D01*
X31310431Y-75461424D01*
X31374045Y-75382898D01*
X31431412Y-75312326D01*
X31481167Y-75251409D01*
X31521948Y-75201847D01*
X31539112Y-75181178D01*
X31625404Y-75080516D01*
X31702003Y-74997259D01*
X31770817Y-74929438D01*
X31833752Y-74875089D01*
X31843133Y-74867722D01*
X31882644Y-74837117D01*
X30750884Y-74836867D01*
X30756173Y-74884844D01*
X30752870Y-74942188D01*
X30731339Y-75010463D01*
X30691365Y-75090212D01*
X30646057Y-75162495D01*
X30629839Y-75185140D01*
X30601786Y-75222696D01*
X30563570Y-75273021D01*
X30516863Y-75333973D01*
X30463339Y-75403411D01*
X30404669Y-75479194D01*
X30342525Y-75559180D01*
X30278579Y-75641228D01*
X30214505Y-75723196D01*
X30151973Y-75802943D01*
X30092657Y-75878327D01*
X30038229Y-75947207D01*
X29990361Y-76007442D01*
X29950725Y-76056889D01*
X29920994Y-76093408D01*
X29902839Y-76114858D01*
X29899780Y-76118156D01*
X29896921Y-76110149D01*
X29894707Y-76079855D01*
X29893143Y-76027556D01*
X29892233Y-75953531D01*
X29891980Y-75858063D01*
X29892387Y-75741434D01*
X29893296Y-75621445D01*
X29894618Y-75489333D01*
X29896143Y-75377594D01*
X29898119Y-75284025D01*
X29900794Y-75206419D01*
X29904418Y-75142574D01*
X29909239Y-75090283D01*
X29915506Y-75047344D01*
X29923468Y-75011551D01*
X29933373Y-74980700D01*
X29945469Y-74952586D01*
X29960007Y-74925005D01*
X29974689Y-74899966D01*
X30012686Y-74836867D01*
X28952803Y-74836867D01*
X28649966Y-74836867D01*
X28649999Y-74830617D01*
X28650805Y-74728544D01*
X28651830Y-74639633D01*
X28653100Y-74562941D01*
X28654640Y-74497527D01*
X28656476Y-74442449D01*
X28658633Y-74396765D01*
X28661137Y-74359534D01*
X28664013Y-74329813D01*
X28667287Y-74306662D01*
X28670985Y-74289139D01*
X28675131Y-74276301D01*
X28679753Y-74267208D01*
X28684874Y-74260918D01*
X28690522Y-74256488D01*
X28696721Y-74252978D01*
X28703496Y-74249445D01*
X28709492Y-74245876D01*
X28714725Y-74243300D01*
X28722901Y-74240972D01*
X28735114Y-74238878D01*
X28752459Y-74237007D01*
X28776031Y-74235347D01*
X28806923Y-74233884D01*
X28846232Y-74232608D01*
X28895050Y-74231504D01*
X28954473Y-74230561D01*
X29025596Y-74229767D01*
X29109512Y-74229109D01*
X29207317Y-74228575D01*
X29320106Y-74228153D01*
X29448971Y-74227829D01*
X29595009Y-74227592D01*
X29759314Y-74227430D01*
X29942980Y-74227330D01*
X30147103Y-74227280D01*
X30358247Y-74227267D01*
X31978600Y-74227267D01*
X31978600Y-74324054D01*
G37*
X31978600Y-74324054D02*
X31989465Y-74437993D01*
X32021082Y-74545616D01*
X32071985Y-74644615D01*
X32140707Y-74732684D01*
X32225781Y-74807516D01*
X32322768Y-74865384D01*
X32429036Y-74905005D01*
X32536050Y-74923573D01*
X32641700Y-74922434D01*
X32743875Y-74902930D01*
X32840466Y-74866406D01*
X32929362Y-74814205D01*
X33008454Y-74747673D01*
X33075631Y-74668152D01*
X33128783Y-74576987D01*
X33165801Y-74475523D01*
X33184573Y-74365102D01*
X33186511Y-74315206D01*
X33186511Y-74227267D01*
X33238440Y-74227267D01*
X33274747Y-74230111D01*
X33301645Y-74241911D01*
X33328751Y-74265649D01*
X33367133Y-74304031D01*
X33367133Y-76495602D01*
X33367124Y-76757739D01*
X33367092Y-76998241D01*
X33367028Y-77218048D01*
X33366924Y-77418101D01*
X33366773Y-77599344D01*
X33366566Y-77762716D01*
X33366294Y-77909160D01*
X33365950Y-78039617D01*
X33365526Y-78155029D01*
X33365013Y-78256338D01*
X33364403Y-78344484D01*
X33363688Y-78420410D01*
X33362860Y-78485057D01*
X33361911Y-78539367D01*
X33360833Y-78584280D01*
X33359617Y-78620740D01*
X33358255Y-78649687D01*
X33356739Y-78672063D01*
X33355062Y-78688809D01*
X33353214Y-78700868D01*
X33351187Y-78709180D01*
X33348975Y-78714687D01*
X33347892Y-78716537D01*
X33343729Y-78723549D01*
X33340195Y-78729996D01*
X33336365Y-78735900D01*
X33331318Y-78741286D01*
X33324129Y-78746178D01*
X33313877Y-78750598D01*
X33299636Y-78754572D01*
X33280486Y-78758121D01*
X33255501Y-78761270D01*
X33223760Y-78764042D01*
X33184338Y-78766461D01*
X33136314Y-78768551D01*
X33078763Y-78770335D01*
X33010763Y-78771837D01*
X32931390Y-78773080D01*
X32839721Y-78774089D01*
X32734834Y-78774885D01*
X32615804Y-78775494D01*
X32481710Y-78775939D01*
X32331627Y-78776243D01*
X32164633Y-78776430D01*
X31979804Y-78776524D01*
X31776217Y-78776548D01*
X31552950Y-78776525D01*
X31309078Y-78776480D01*
X31043679Y-78776437D01*
X31005296Y-78776432D01*
X30738318Y-78776389D01*
X30492998Y-78776318D01*
X30268417Y-78776213D01*
X30063655Y-78776066D01*
X29877794Y-78775869D01*
X29709912Y-78775616D01*
X29559092Y-78775300D01*
X29424413Y-78774913D01*
X29304956Y-78774447D01*
X29199801Y-78773897D01*
X29108029Y-78773253D01*
X29028721Y-78772511D01*
X28960957Y-78771661D01*
X28903818Y-78770697D01*
X28856383Y-78769611D01*
X28817734Y-78768397D01*
X28786951Y-78767047D01*
X28763115Y-78765555D01*
X28745306Y-78763911D01*
X28732605Y-78762111D01*
X28724092Y-78760145D01*
X28719734Y-78758477D01*
X28711272Y-78754906D01*
X28703503Y-78752270D01*
X28696398Y-78749634D01*
X28689927Y-78746062D01*
X28684061Y-78740621D01*
X28678771Y-78732375D01*
X28674026Y-78720390D01*
X28669798Y-78703731D01*
X28666057Y-78681463D01*
X28662773Y-78652652D01*
X28659917Y-78616363D01*
X28657460Y-78571661D01*
X28655371Y-78517611D01*
X28653622Y-78453279D01*
X28652183Y-78377730D01*
X28651024Y-78290030D01*
X28650117Y-78189243D01*
X28649431Y-78074434D01*
X28648937Y-77944670D01*
X28648605Y-77799015D01*
X28648407Y-77636535D01*
X28648313Y-77456295D01*
X28648292Y-77257360D01*
X28648315Y-77038796D01*
X28648354Y-76799668D01*
X28648378Y-76539040D01*
X28648378Y-76496889D01*
X28648364Y-76233992D01*
X28648339Y-75992732D01*
X28648329Y-75772165D01*
X28648358Y-75571352D01*
X28648452Y-75389349D01*
X28648638Y-75225216D01*
X28648941Y-75078011D01*
X28649386Y-74946792D01*
X28649966Y-74836867D01*
X28952803Y-74836867D01*
X28992593Y-74894711D01*
X29003764Y-74910479D01*
X29013834Y-74924441D01*
X29022862Y-74937784D01*
X29030903Y-74951693D01*
X29038014Y-74967356D01*
X29044253Y-74985958D01*
X29049675Y-75008686D01*
X29054338Y-75036727D01*
X29058299Y-75071267D01*
X29061615Y-75113492D01*
X29064341Y-75164589D01*
X29066536Y-75225744D01*
X29068255Y-75298144D01*
X29069556Y-75382975D01*
X29070495Y-75481422D01*
X29071130Y-75594674D01*
X29071516Y-75723916D01*
X29071712Y-75870334D01*
X29071773Y-76035116D01*
X29071757Y-76219447D01*
X29071720Y-76424513D01*
X29071711Y-76547133D01*
X29071735Y-76764082D01*
X29071769Y-76959642D01*
X29071757Y-77134999D01*
X29071642Y-77291341D01*
X29071370Y-77429857D01*
X29070882Y-77551734D01*
X29070124Y-77658160D01*
X29069038Y-77750322D01*
X29067569Y-77829409D01*
X29065660Y-77896608D01*
X29063256Y-77953107D01*
X29060299Y-78000093D01*
X29056734Y-78038755D01*
X29052505Y-78070280D01*
X29047554Y-78095855D01*
X29041827Y-78116670D01*
X29035267Y-78133911D01*
X29027817Y-78148765D01*
X29019421Y-78162422D01*
X29010024Y-78176069D01*
X28999568Y-78190893D01*
X28993477Y-78199783D01*
X28954704Y-78257400D01*
X29486268Y-78257400D01*
X29609517Y-78257365D01*
X29712013Y-78257215D01*
X29795580Y-78256878D01*
X29862044Y-78256286D01*
X29913229Y-78255367D01*
X29950959Y-78254051D01*
X29977060Y-78252269D01*
X29993356Y-78249951D01*
X30001672Y-78247026D01*
X30003832Y-78243424D01*
X30001661Y-78239075D01*
X30000465Y-78237645D01*
X29975315Y-78200573D01*
X29949417Y-78147772D01*
X29925808Y-78085770D01*
X29917539Y-78059357D01*
X29912922Y-78041416D01*
X29909021Y-78020355D01*
X29905752Y-77994089D01*
X29903034Y-77960532D01*
X29900785Y-77917599D01*
X29898923Y-77863204D01*
X29897364Y-77795262D01*
X29896028Y-77711688D01*
X29894831Y-77610395D01*
X29893692Y-77489300D01*
X29893315Y-77444600D01*
X29892298Y-77319449D01*
X29891540Y-77215082D01*
X29891097Y-77129707D01*
X29891030Y-77061533D01*
X29891395Y-77008765D01*
X29892252Y-76969614D01*
X29893659Y-76942285D01*
X29895675Y-76924986D01*
X29898357Y-76915926D01*
X29901764Y-76913312D01*
X29905956Y-76915351D01*
X29910429Y-76919667D01*
X29920784Y-76932602D01*
X29942842Y-76961676D01*
X29975043Y-77004759D01*
X30015826Y-77059718D01*
X30063630Y-77124423D01*
X30116895Y-77196742D01*
X30174060Y-77274544D01*
X30233563Y-77355698D01*
X30293845Y-77438072D01*
X30353345Y-77519536D01*
X30410502Y-77597957D01*
X30463755Y-77671204D01*
X30511543Y-77737147D01*
X30552307Y-77793654D01*
X30584484Y-77838593D01*
X30606515Y-77869834D01*
X30611083Y-77876466D01*
X30634004Y-77913369D01*
X30660812Y-77961359D01*
X30686211Y-78010897D01*
X30689432Y-78017577D01*
X30711110Y-78065772D01*
X30723696Y-78103334D01*
X30729426Y-78139160D01*
X30730544Y-78181200D01*
X30729910Y-78257400D01*
X31884349Y-78257400D01*
X31793185Y-78163669D01*
X31746388Y-78113775D01*
X31696101Y-78057295D01*
X31650056Y-78003026D01*
X31629631Y-77977673D01*
X31599193Y-77938128D01*
X31559138Y-77884916D01*
X31510639Y-77819667D01*
X31454865Y-77744011D01*
X31392989Y-77659577D01*
X31326181Y-77567994D01*
X31255613Y-77470892D01*
X31182455Y-77369901D01*
X31107879Y-77266650D01*
X31033056Y-77162768D01*
X30959157Y-77059885D01*
X30887354Y-76959631D01*
X30818816Y-76863636D01*
X30754716Y-76773527D01*
X30696225Y-76690936D01*
X30644514Y-76617492D01*
X30600753Y-76554824D01*
X30566115Y-76504561D01*
X30541770Y-76468334D01*
X30528889Y-76447771D01*
X30527131Y-76443668D01*
X30535090Y-76432342D01*
X30555885Y-76405162D01*
X30588153Y-76363829D01*
X30630530Y-76310044D01*
X30681653Y-76245506D01*
X30740159Y-76171918D01*
X30804686Y-76090978D01*
X30873869Y-76004388D01*
X30946347Y-75913848D01*
X31020754Y-75821060D01*
X31080483Y-75746702D01*
X32091489Y-75746702D01*
X32097398Y-75759659D01*
X32111728Y-75781908D01*
X32112775Y-75783391D01*
X32131562Y-75813544D01*
X32151209Y-75850375D01*
X32155108Y-75858511D01*
X32158644Y-75866940D01*
X32161770Y-75877059D01*
X32164514Y-75890260D01*
X32166908Y-75907938D01*
X32168981Y-75931484D01*
X32170765Y-75962293D01*
X32172288Y-76001757D01*
X32173581Y-76051269D01*
X32174674Y-76112223D01*
X32175597Y-76186011D01*
X32176381Y-76274028D01*
X32177055Y-76377665D01*
X32177650Y-76498316D01*
X32178195Y-76637374D01*
X32178721Y-76796232D01*
X32179255Y-76975089D01*
X32179794Y-77160207D01*
X32180228Y-77324145D01*
X32180491Y-77468303D01*
X32180516Y-77594079D01*
X32180235Y-77702871D01*
X32179581Y-77796077D01*
X32178486Y-77875097D01*
X32176882Y-77941328D01*
X32174703Y-77996170D01*
X32171881Y-78041021D01*
X32168349Y-78077278D01*
X32164039Y-78106341D01*
X32158883Y-78129609D01*
X32152815Y-78148479D01*
X32145767Y-78164351D01*
X32137671Y-78178622D01*
X32128460Y-78192691D01*
X32119960Y-78205158D01*
X32102824Y-78231452D01*
X32092678Y-78249037D01*
X32091489Y-78252257D01*
X32102396Y-78253334D01*
X32133589Y-78254335D01*
X32182777Y-78255235D01*
X32247667Y-78256010D01*
X32325970Y-78256637D01*
X32415393Y-78257091D01*
X32513644Y-78257349D01*
X32582555Y-78257400D01*
X32687548Y-78257180D01*
X32784390Y-78256548D01*
X32870893Y-78255549D01*
X32944868Y-78254227D01*
X33004126Y-78252626D01*
X33046480Y-78250791D01*
X33069740Y-78248765D01*
X33073622Y-78247493D01*
X33065924Y-78232591D01*
X33057926Y-78224560D01*
X33044754Y-78207434D01*
X33027515Y-78177183D01*
X33015593Y-78152622D01*
X32988955Y-78093711D01*
X32985880Y-76916845D01*
X32982805Y-75739978D01*
X32537147Y-75739978D01*
X32439330Y-75740142D01*
X32348936Y-75740611D01*
X32268370Y-75741347D01*
X32200038Y-75742316D01*
X32146344Y-75743480D01*
X32109695Y-75744803D01*
X32092496Y-75746249D01*
X32091489Y-75746702D01*
X31080483Y-75746702D01*
X31095730Y-75727722D01*
X31169910Y-75635537D01*
X31241931Y-75546204D01*
X31310431Y-75461424D01*
X31374045Y-75382898D01*
X31431412Y-75312326D01*
X31481167Y-75251409D01*
X31521948Y-75201847D01*
X31539112Y-75181178D01*
X31625404Y-75080516D01*
X31702003Y-74997259D01*
X31770817Y-74929438D01*
X31833752Y-74875089D01*
X31843133Y-74867722D01*
X31882644Y-74837117D01*
X30750884Y-74836867D01*
X30756173Y-74884844D01*
X30752870Y-74942188D01*
X30731339Y-75010463D01*
X30691365Y-75090212D01*
X30646057Y-75162495D01*
X30629839Y-75185140D01*
X30601786Y-75222696D01*
X30563570Y-75273021D01*
X30516863Y-75333973D01*
X30463339Y-75403411D01*
X30404669Y-75479194D01*
X30342525Y-75559180D01*
X30278579Y-75641228D01*
X30214505Y-75723196D01*
X30151973Y-75802943D01*
X30092657Y-75878327D01*
X30038229Y-75947207D01*
X29990361Y-76007442D01*
X29950725Y-76056889D01*
X29920994Y-76093408D01*
X29902839Y-76114858D01*
X29899780Y-76118156D01*
X29896921Y-76110149D01*
X29894707Y-76079855D01*
X29893143Y-76027556D01*
X29892233Y-75953531D01*
X29891980Y-75858063D01*
X29892387Y-75741434D01*
X29893296Y-75621445D01*
X29894618Y-75489333D01*
X29896143Y-75377594D01*
X29898119Y-75284025D01*
X29900794Y-75206419D01*
X29904418Y-75142574D01*
X29909239Y-75090283D01*
X29915506Y-75047344D01*
X29923468Y-75011551D01*
X29933373Y-74980700D01*
X29945469Y-74952586D01*
X29960007Y-74925005D01*
X29974689Y-74899966D01*
X30012686Y-74836867D01*
X28952803Y-74836867D01*
X28649966Y-74836867D01*
X28649999Y-74830617D01*
X28650805Y-74728544D01*
X28651830Y-74639633D01*
X28653100Y-74562941D01*
X28654640Y-74497527D01*
X28656476Y-74442449D01*
X28658633Y-74396765D01*
X28661137Y-74359534D01*
X28664013Y-74329813D01*
X28667287Y-74306662D01*
X28670985Y-74289139D01*
X28675131Y-74276301D01*
X28679753Y-74267208D01*
X28684874Y-74260918D01*
X28690522Y-74256488D01*
X28696721Y-74252978D01*
X28703496Y-74249445D01*
X28709492Y-74245876D01*
X28714725Y-74243300D01*
X28722901Y-74240972D01*
X28735114Y-74238878D01*
X28752459Y-74237007D01*
X28776031Y-74235347D01*
X28806923Y-74233884D01*
X28846232Y-74232608D01*
X28895050Y-74231504D01*
X28954473Y-74230561D01*
X29025596Y-74229767D01*
X29109512Y-74229109D01*
X29207317Y-74228575D01*
X29320106Y-74228153D01*
X29448971Y-74227829D01*
X29595009Y-74227592D01*
X29759314Y-74227430D01*
X29942980Y-74227330D01*
X30147103Y-74227280D01*
X30358247Y-74227267D01*
X31978600Y-74227267D01*
X31978600Y-74324054D01*
G36*
X35253429Y-74784071D02*
G01*
X35413570Y-74805245D01*
X35577510Y-74845385D01*
X35747313Y-74904889D01*
X35925043Y-74984154D01*
X35936310Y-74989699D01*
X35994005Y-75017725D01*
X36045552Y-75041802D01*
X36087191Y-75060249D01*
X36115162Y-75071386D01*
X36124733Y-75073933D01*
X36143950Y-75078941D01*
X36148561Y-75083147D01*
X36143458Y-75093580D01*
X36127418Y-75119868D01*
X36102288Y-75159257D01*
X36069914Y-75208991D01*
X36032143Y-75266315D01*
X35990822Y-75328476D01*
X35947798Y-75392718D01*
X35904917Y-75456285D01*
X35864026Y-75516425D01*
X35826971Y-75570380D01*
X35795600Y-75615397D01*
X35771759Y-75648721D01*
X35757294Y-75667597D01*
X35755309Y-75669787D01*
X35745191Y-75665138D01*
X35722850Y-75647962D01*
X35692280Y-75621440D01*
X35676536Y-75606964D01*
X35580047Y-75531682D01*
X35473336Y-75476241D01*
X35357832Y-75441141D01*
X35234962Y-75426880D01*
X35165561Y-75428051D01*
X35044423Y-75445212D01*
X34935205Y-75481094D01*
X34837582Y-75535959D01*
X34751228Y-75610070D01*
X34675815Y-75703688D01*
X34611018Y-75817076D01*
X34573601Y-75903667D01*
X34529748Y-76039366D01*
X34497428Y-76186850D01*
X34476557Y-76342314D01*
X34467051Y-76501956D01*
X34468827Y-76661973D01*
X34481803Y-76818561D01*
X34505894Y-76967918D01*
X34541018Y-77106240D01*
X34587092Y-77229724D01*
X34603373Y-77263978D01*
X34671620Y-77378064D01*
X34752079Y-77474557D01*
X34843570Y-77552670D01*
X34944911Y-77611617D01*
X35054920Y-77650612D01*
X35172415Y-77668868D01*
X35213883Y-77670211D01*
X35335441Y-77659290D01*
X35455878Y-77626474D01*
X35573666Y-77572439D01*
X35687277Y-77497865D01*
X35778685Y-77419539D01*
X35825215Y-77375008D01*
X36006483Y-77672271D01*
X36051580Y-77746433D01*
X36092819Y-77814646D01*
X36128735Y-77874459D01*
X36157866Y-77923420D01*
X36178750Y-77959079D01*
X36189924Y-77978984D01*
X36191375Y-77982079D01*
X36183146Y-77991718D01*
X36157567Y-78008999D01*
X36117873Y-78032283D01*
X36067297Y-78059934D01*
X36009074Y-78090315D01*
X35946437Y-78121790D01*
X35882621Y-78152722D01*
X35820860Y-78181473D01*
X35764388Y-78206408D01*
X35716438Y-78225889D01*
X35692986Y-78234318D01*
X35559221Y-78272133D01*
X35421327Y-78297136D01*
X35273622Y-78310140D01*
X35146833Y-78312468D01*
X35078878Y-78311373D01*
X35013277Y-78309275D01*
X34955847Y-78306434D01*
X34912403Y-78303106D01*
X34898298Y-78301422D01*
X34759284Y-78272587D01*
X34617757Y-78227468D01*
X34480275Y-78168750D01*
X34353394Y-78099120D01*
X34275889Y-78046441D01*
X34148481Y-77938239D01*
X34030178Y-77811671D01*
X33923172Y-77669866D01*
X33829652Y-77515951D01*
X33751810Y-77353053D01*
X33707956Y-77235756D01*
X33657708Y-77052128D01*
X33624209Y-76857581D01*
X33607449Y-76656325D01*
X33607416Y-76452568D01*
X33624101Y-76250521D01*
X33657493Y-76054392D01*
X33707580Y-75868391D01*
X33711397Y-75856803D01*
X33774281Y-75694750D01*
X33851028Y-75546832D01*
X33944242Y-75408865D01*
X34056527Y-75276661D01*
X34100392Y-75231399D01*
X34236534Y-75107457D01*
X34376491Y-75004915D01*
X34522411Y-74922656D01*
X34676442Y-74859564D01*
X34840732Y-74814523D01*
X34936289Y-74797033D01*
X35095023Y-74781466D01*
X35253429Y-74784071D01*
G37*
X35253429Y-74784071D02*
X35413570Y-74805245D01*
X35577510Y-74845385D01*
X35747313Y-74904889D01*
X35925043Y-74984154D01*
X35936310Y-74989699D01*
X35994005Y-75017725D01*
X36045552Y-75041802D01*
X36087191Y-75060249D01*
X36115162Y-75071386D01*
X36124733Y-75073933D01*
X36143950Y-75078941D01*
X36148561Y-75083147D01*
X36143458Y-75093580D01*
X36127418Y-75119868D01*
X36102288Y-75159257D01*
X36069914Y-75208991D01*
X36032143Y-75266315D01*
X35990822Y-75328476D01*
X35947798Y-75392718D01*
X35904917Y-75456285D01*
X35864026Y-75516425D01*
X35826971Y-75570380D01*
X35795600Y-75615397D01*
X35771759Y-75648721D01*
X35757294Y-75667597D01*
X35755309Y-75669787D01*
X35745191Y-75665138D01*
X35722850Y-75647962D01*
X35692280Y-75621440D01*
X35676536Y-75606964D01*
X35580047Y-75531682D01*
X35473336Y-75476241D01*
X35357832Y-75441141D01*
X35234962Y-75426880D01*
X35165561Y-75428051D01*
X35044423Y-75445212D01*
X34935205Y-75481094D01*
X34837582Y-75535959D01*
X34751228Y-75610070D01*
X34675815Y-75703688D01*
X34611018Y-75817076D01*
X34573601Y-75903667D01*
X34529748Y-76039366D01*
X34497428Y-76186850D01*
X34476557Y-76342314D01*
X34467051Y-76501956D01*
X34468827Y-76661973D01*
X34481803Y-76818561D01*
X34505894Y-76967918D01*
X34541018Y-77106240D01*
X34587092Y-77229724D01*
X34603373Y-77263978D01*
X34671620Y-77378064D01*
X34752079Y-77474557D01*
X34843570Y-77552670D01*
X34944911Y-77611617D01*
X35054920Y-77650612D01*
X35172415Y-77668868D01*
X35213883Y-77670211D01*
X35335441Y-77659290D01*
X35455878Y-77626474D01*
X35573666Y-77572439D01*
X35687277Y-77497865D01*
X35778685Y-77419539D01*
X35825215Y-77375008D01*
X36006483Y-77672271D01*
X36051580Y-77746433D01*
X36092819Y-77814646D01*
X36128735Y-77874459D01*
X36157866Y-77923420D01*
X36178750Y-77959079D01*
X36189924Y-77978984D01*
X36191375Y-77982079D01*
X36183146Y-77991718D01*
X36157567Y-78008999D01*
X36117873Y-78032283D01*
X36067297Y-78059934D01*
X36009074Y-78090315D01*
X35946437Y-78121790D01*
X35882621Y-78152722D01*
X35820860Y-78181473D01*
X35764388Y-78206408D01*
X35716438Y-78225889D01*
X35692986Y-78234318D01*
X35559221Y-78272133D01*
X35421327Y-78297136D01*
X35273622Y-78310140D01*
X35146833Y-78312468D01*
X35078878Y-78311373D01*
X35013277Y-78309275D01*
X34955847Y-78306434D01*
X34912403Y-78303106D01*
X34898298Y-78301422D01*
X34759284Y-78272587D01*
X34617757Y-78227468D01*
X34480275Y-78168750D01*
X34353394Y-78099120D01*
X34275889Y-78046441D01*
X34148481Y-77938239D01*
X34030178Y-77811671D01*
X33923172Y-77669866D01*
X33829652Y-77515951D01*
X33751810Y-77353053D01*
X33707956Y-77235756D01*
X33657708Y-77052128D01*
X33624209Y-76857581D01*
X33607449Y-76656325D01*
X33607416Y-76452568D01*
X33624101Y-76250521D01*
X33657493Y-76054392D01*
X33707580Y-75868391D01*
X33711397Y-75856803D01*
X33774281Y-75694750D01*
X33851028Y-75546832D01*
X33944242Y-75408865D01*
X34056527Y-75276661D01*
X34100392Y-75231399D01*
X34236534Y-75107457D01*
X34376491Y-75004915D01*
X34522411Y-74922656D01*
X34676442Y-74859564D01*
X34840732Y-74814523D01*
X34936289Y-74797033D01*
X35095023Y-74781466D01*
X35253429Y-74784071D01*
G36*
X37598574Y-75701552D02*
G01*
X37750492Y-75721567D01*
X37885756Y-75755202D01*
X38005239Y-75802725D01*
X38109815Y-75864405D01*
X38187424Y-75927965D01*
X38256265Y-76002099D01*
X38310006Y-76081871D01*
X38352910Y-76174091D01*
X38368384Y-76217161D01*
X38381244Y-76256142D01*
X38392446Y-76292289D01*
X38402120Y-76327434D01*
X38410396Y-76363410D01*
X38417403Y-76402050D01*
X38423272Y-76445185D01*
X38428131Y-76494649D01*
X38432110Y-76552273D01*
X38435340Y-76619891D01*
X38437949Y-76699334D01*
X38440067Y-76792436D01*
X38441824Y-76901027D01*
X38443349Y-77026942D01*
X38444772Y-77172012D01*
X38446025Y-77314778D01*
X38447351Y-77470968D01*
X38448556Y-77606239D01*
X38449766Y-77722246D01*
X38451106Y-77820645D01*
X38452700Y-77903093D01*
X38454675Y-77971246D01*
X38457156Y-78026760D01*
X38460269Y-78071292D01*
X38464138Y-78106498D01*
X38468889Y-78134034D01*
X38474648Y-78155556D01*
X38481539Y-78172722D01*
X38489689Y-78187186D01*
X38499223Y-78200606D01*
X38510266Y-78214638D01*
X38514566Y-78220071D01*
X38530386Y-78242910D01*
X38537422Y-78258463D01*
X38537444Y-78258922D01*
X38526567Y-78261121D01*
X38495582Y-78263147D01*
X38446957Y-78264942D01*
X38383163Y-78266451D01*
X38306669Y-78267616D01*
X38219944Y-78268380D01*
X38125457Y-78268686D01*
X38114550Y-78268689D01*
X37691657Y-78268689D01*
X37688395Y-78172622D01*
X37685133Y-78076556D01*
X37623044Y-78127543D01*
X37525714Y-78195057D01*
X37415813Y-78249749D01*
X37329349Y-78279978D01*
X37260278Y-78294666D01*
X37176925Y-78304659D01*
X37087159Y-78309646D01*
X36998845Y-78309313D01*
X36919851Y-78303351D01*
X36883622Y-78297638D01*
X36743603Y-78259776D01*
X36617178Y-78204932D01*
X36505260Y-78133924D01*
X36408762Y-78047568D01*
X36328600Y-77946679D01*
X36265687Y-77832076D01*
X36221312Y-77705984D01*
X36208978Y-77649401D01*
X36201368Y-77587202D01*
X36197739Y-77512363D01*
X36197245Y-77478467D01*
X36197310Y-77475282D01*
X36957248Y-77475282D01*
X36966541Y-77550333D01*
X36994728Y-77614160D01*
X37043197Y-77669798D01*
X37048254Y-77674211D01*
X37096548Y-77709037D01*
X37148257Y-77731620D01*
X37208989Y-77743540D01*
X37284352Y-77746383D01*
X37302459Y-77745978D01*
X37356278Y-77743325D01*
X37396308Y-77737909D01*
X37431324Y-77727745D01*
X37470103Y-77710850D01*
X37480745Y-77705672D01*
X37541396Y-77669844D01*
X37588215Y-77627212D01*
X37600952Y-77611973D01*
X37645622Y-77555462D01*
X37645622Y-77359586D01*
X37645086Y-77280939D01*
X37643396Y-77222988D01*
X37640428Y-77183875D01*
X37636057Y-77161741D01*
X37631972Y-77155274D01*
X37616047Y-77152111D01*
X37582264Y-77149488D01*
X37535340Y-77147655D01*
X37479993Y-77146857D01*
X37471106Y-77146842D01*
X37350330Y-77152096D01*
X37247660Y-77168263D01*
X37161106Y-77195961D01*
X37088681Y-77235808D01*
X37033751Y-77282758D01*
X36989204Y-77340645D01*
X36964480Y-77403693D01*
X36957248Y-77475282D01*
X36197310Y-77475282D01*
X36199178Y-77384712D01*
X36207522Y-77305812D01*
X36223768Y-77234590D01*
X36249405Y-77163864D01*
X36273401Y-77111493D01*
X36332020Y-77016196D01*
X36410117Y-76928170D01*
X36505315Y-76849017D01*
X36615238Y-76780340D01*
X36737510Y-76723741D01*
X36869755Y-76680821D01*
X36934422Y-76665882D01*
X37070604Y-76643777D01*
X37219049Y-76629194D01*
X37370505Y-76622813D01*
X37497064Y-76624445D01*
X37658950Y-76631224D01*
X37651530Y-76572245D01*
X37632238Y-76473092D01*
X37601104Y-76392372D01*
X37557269Y-76329466D01*
X37499871Y-76283756D01*
X37428048Y-76254622D01*
X37340941Y-76241447D01*
X37237686Y-76243611D01*
X37199711Y-76247612D01*
X37058520Y-76272780D01*
X36921707Y-76313814D01*
X36827178Y-76351815D01*
X36782018Y-76371190D01*
X36743585Y-76386760D01*
X36717234Y-76396405D01*
X36709546Y-76398452D01*
X36699802Y-76389374D01*
X36683083Y-76360405D01*
X36659232Y-76311217D01*
X36628093Y-76241484D01*
X36589507Y-76150879D01*
X36582910Y-76135089D01*
X36552853Y-76062772D01*
X36525874Y-75997425D01*
X36503136Y-75941906D01*
X36485806Y-75899072D01*
X36475048Y-75871781D01*
X36471941Y-75862942D01*
X36481940Y-75858187D01*
X36508217Y-75852910D01*
X36536489Y-75849231D01*
X36566646Y-75844474D01*
X36614433Y-75835028D01*
X36675612Y-75821820D01*
X36745946Y-75805776D01*
X36821194Y-75787820D01*
X36849755Y-75780797D01*
X36954816Y-75755209D01*
X37042480Y-75735147D01*
X37117068Y-75719969D01*
X37182903Y-75709035D01*
X37244307Y-75701704D01*
X37305602Y-75697335D01*
X37371110Y-75695287D01*
X37429128Y-75694889D01*
X37598574Y-75701552D01*
G37*
X37598574Y-75701552D02*
X37750492Y-75721567D01*
X37885756Y-75755202D01*
X38005239Y-75802725D01*
X38109815Y-75864405D01*
X38187424Y-75927965D01*
X38256265Y-76002099D01*
X38310006Y-76081871D01*
X38352910Y-76174091D01*
X38368384Y-76217161D01*
X38381244Y-76256142D01*
X38392446Y-76292289D01*
X38402120Y-76327434D01*
X38410396Y-76363410D01*
X38417403Y-76402050D01*
X38423272Y-76445185D01*
X38428131Y-76494649D01*
X38432110Y-76552273D01*
X38435340Y-76619891D01*
X38437949Y-76699334D01*
X38440067Y-76792436D01*
X38441824Y-76901027D01*
X38443349Y-77026942D01*
X38444772Y-77172012D01*
X38446025Y-77314778D01*
X38447351Y-77470968D01*
X38448556Y-77606239D01*
X38449766Y-77722246D01*
X38451106Y-77820645D01*
X38452700Y-77903093D01*
X38454675Y-77971246D01*
X38457156Y-78026760D01*
X38460269Y-78071292D01*
X38464138Y-78106498D01*
X38468889Y-78134034D01*
X38474648Y-78155556D01*
X38481539Y-78172722D01*
X38489689Y-78187186D01*
X38499223Y-78200606D01*
X38510266Y-78214638D01*
X38514566Y-78220071D01*
X38530386Y-78242910D01*
X38537422Y-78258463D01*
X38537444Y-78258922D01*
X38526567Y-78261121D01*
X38495582Y-78263147D01*
X38446957Y-78264942D01*
X38383163Y-78266451D01*
X38306669Y-78267616D01*
X38219944Y-78268380D01*
X38125457Y-78268686D01*
X38114550Y-78268689D01*
X37691657Y-78268689D01*
X37688395Y-78172622D01*
X37685133Y-78076556D01*
X37623044Y-78127543D01*
X37525714Y-78195057D01*
X37415813Y-78249749D01*
X37329349Y-78279978D01*
X37260278Y-78294666D01*
X37176925Y-78304659D01*
X37087159Y-78309646D01*
X36998845Y-78309313D01*
X36919851Y-78303351D01*
X36883622Y-78297638D01*
X36743603Y-78259776D01*
X36617178Y-78204932D01*
X36505260Y-78133924D01*
X36408762Y-78047568D01*
X36328600Y-77946679D01*
X36265687Y-77832076D01*
X36221312Y-77705984D01*
X36208978Y-77649401D01*
X36201368Y-77587202D01*
X36197739Y-77512363D01*
X36197245Y-77478467D01*
X36197310Y-77475282D01*
X36957248Y-77475282D01*
X36966541Y-77550333D01*
X36994728Y-77614160D01*
X37043197Y-77669798D01*
X37048254Y-77674211D01*
X37096548Y-77709037D01*
X37148257Y-77731620D01*
X37208989Y-77743540D01*
X37284352Y-77746383D01*
X37302459Y-77745978D01*
X37356278Y-77743325D01*
X37396308Y-77737909D01*
X37431324Y-77727745D01*
X37470103Y-77710850D01*
X37480745Y-77705672D01*
X37541396Y-77669844D01*
X37588215Y-77627212D01*
X37600952Y-77611973D01*
X37645622Y-77555462D01*
X37645622Y-77359586D01*
X37645086Y-77280939D01*
X37643396Y-77222988D01*
X37640428Y-77183875D01*
X37636057Y-77161741D01*
X37631972Y-77155274D01*
X37616047Y-77152111D01*
X37582264Y-77149488D01*
X37535340Y-77147655D01*
X37479993Y-77146857D01*
X37471106Y-77146842D01*
X37350330Y-77152096D01*
X37247660Y-77168263D01*
X37161106Y-77195961D01*
X37088681Y-77235808D01*
X37033751Y-77282758D01*
X36989204Y-77340645D01*
X36964480Y-77403693D01*
X36957248Y-77475282D01*
X36197310Y-77475282D01*
X36199178Y-77384712D01*
X36207522Y-77305812D01*
X36223768Y-77234590D01*
X36249405Y-77163864D01*
X36273401Y-77111493D01*
X36332020Y-77016196D01*
X36410117Y-76928170D01*
X36505315Y-76849017D01*
X36615238Y-76780340D01*
X36737510Y-76723741D01*
X36869755Y-76680821D01*
X36934422Y-76665882D01*
X37070604Y-76643777D01*
X37219049Y-76629194D01*
X37370505Y-76622813D01*
X37497064Y-76624445D01*
X37658950Y-76631224D01*
X37651530Y-76572245D01*
X37632238Y-76473092D01*
X37601104Y-76392372D01*
X37557269Y-76329466D01*
X37499871Y-76283756D01*
X37428048Y-76254622D01*
X37340941Y-76241447D01*
X37237686Y-76243611D01*
X37199711Y-76247612D01*
X37058520Y-76272780D01*
X36921707Y-76313814D01*
X36827178Y-76351815D01*
X36782018Y-76371190D01*
X36743585Y-76386760D01*
X36717234Y-76396405D01*
X36709546Y-76398452D01*
X36699802Y-76389374D01*
X36683083Y-76360405D01*
X36659232Y-76311217D01*
X36628093Y-76241484D01*
X36589507Y-76150879D01*
X36582910Y-76135089D01*
X36552853Y-76062772D01*
X36525874Y-75997425D01*
X36503136Y-75941906D01*
X36485806Y-75899072D01*
X36475048Y-75871781D01*
X36471941Y-75862942D01*
X36481940Y-75858187D01*
X36508217Y-75852910D01*
X36536489Y-75849231D01*
X36566646Y-75844474D01*
X36614433Y-75835028D01*
X36675612Y-75821820D01*
X36745946Y-75805776D01*
X36821194Y-75787820D01*
X36849755Y-75780797D01*
X36954816Y-75755209D01*
X37042480Y-75735147D01*
X37117068Y-75719969D01*
X37182903Y-75709035D01*
X37244307Y-75701704D01*
X37305602Y-75697335D01*
X37371110Y-75695287D01*
X37429128Y-75694889D01*
X37598574Y-75701552D01*
G36*
X41111507Y-76307245D02*
G01*
X41111526Y-76541662D01*
X41111552Y-76754603D01*
X41111625Y-76947168D01*
X41111782Y-77120459D01*
X41112064Y-77275576D01*
X41112509Y-77413620D01*
X41113156Y-77535692D01*
X41114045Y-77642894D01*
X41115213Y-77736326D01*
X41116701Y-77817090D01*
X41118546Y-77886286D01*
X41120789Y-77945015D01*
X41123469Y-77994379D01*
X41126623Y-78035478D01*
X41130292Y-78069413D01*
X41134513Y-78097286D01*
X41139327Y-78120198D01*
X41144773Y-78139249D01*
X41150888Y-78155540D01*
X41157712Y-78170173D01*
X41165285Y-78184249D01*
X41173645Y-78198868D01*
X41178839Y-78207974D01*
X41213104Y-78268689D01*
X40354955Y-78268689D01*
X40354955Y-78172733D01*
X40354224Y-78129370D01*
X40352272Y-78096205D01*
X40349463Y-78078424D01*
X40348221Y-78076778D01*
X40336799Y-78083662D01*
X40314084Y-78101505D01*
X40291385Y-78120879D01*
X40236800Y-78161614D01*
X40167321Y-78202617D01*
X40090270Y-78240123D01*
X40012965Y-78270364D01*
X39982113Y-78280012D01*
X39913616Y-78294578D01*
X39830764Y-78304539D01*
X39741371Y-78309583D01*
X39653248Y-78309396D01*
X39574207Y-78303666D01*
X39536511Y-78297858D01*
X39398414Y-78259797D01*
X39271113Y-78202073D01*
X39155292Y-78125211D01*
X39051637Y-78029739D01*
X38960833Y-77916179D01*
X38894031Y-77805381D01*
X38839164Y-77688625D01*
X38797163Y-77569276D01*
X38767167Y-77443283D01*
X38748311Y-77306594D01*
X38739732Y-77155158D01*
X38739006Y-77077711D01*
X38741100Y-77020934D01*
X39570217Y-77020934D01*
X39570424Y-77114002D01*
X39573337Y-77201692D01*
X39579000Y-77278772D01*
X39587455Y-77340009D01*
X39590038Y-77352350D01*
X39621840Y-77459633D01*
X39663498Y-77546658D01*
X39715363Y-77613642D01*
X39777781Y-77660805D01*
X39851100Y-77688365D01*
X39935669Y-77696541D01*
X40031835Y-77685551D01*
X40095311Y-77669829D01*
X40144454Y-77651639D01*
X40198583Y-77625791D01*
X40239244Y-77602089D01*
X40309800Y-77555721D01*
X40309800Y-76405530D01*
X40242392Y-76361962D01*
X40163867Y-76321040D01*
X40079681Y-76294389D01*
X39994557Y-76282465D01*
X39913216Y-76285722D01*
X39840380Y-76304615D01*
X39808426Y-76320184D01*
X39750501Y-76363181D01*
X39701544Y-76419953D01*
X39660390Y-76492575D01*
X39625874Y-76583121D01*
X39596833Y-76693666D01*
X39595552Y-76699533D01*
X39585381Y-76761788D01*
X39577739Y-76839594D01*
X39572670Y-76927720D01*
X39570217Y-77020934D01*
X38741100Y-77020934D01*
X38746857Y-76864895D01*
X38768802Y-76669059D01*
X38804786Y-76490332D01*
X38854759Y-76328845D01*
X38918668Y-76184726D01*
X38996462Y-76058106D01*
X39088089Y-75949115D01*
X39193497Y-75857883D01*
X39238662Y-75826932D01*
X39339611Y-75770785D01*
X39442901Y-75731174D01*
X39552989Y-75707014D01*
X39674330Y-75697219D01*
X39766836Y-75698265D01*
X39896490Y-75709231D01*
X40009084Y-75731046D01*
X40107875Y-75764714D01*
X40196121Y-75811236D01*
X40244986Y-75845448D01*
X40274353Y-75867362D01*
X40296043Y-75882333D01*
X40304253Y-75886733D01*
X40305868Y-75875904D01*
X40307159Y-75845251D01*
X40308138Y-75797526D01*
X40308817Y-75735479D01*
X40309210Y-75661862D01*
X40309330Y-75579427D01*
X40309188Y-75490925D01*
X40308797Y-75399107D01*
X40308171Y-75306724D01*
X40307320Y-75216528D01*
X40306260Y-75131271D01*
X40305001Y-75053703D01*
X40303556Y-74986576D01*
X40301938Y-74932641D01*
X40300161Y-74894650D01*
X40299669Y-74887667D01*
X40292092Y-74817251D01*
X40280531Y-74762102D01*
X40262792Y-74714981D01*
X40236682Y-74668647D01*
X40230415Y-74659067D01*
X40205983Y-74622378D01*
X41111311Y-74622378D01*
X41111507Y-76307245D01*
G37*
X41111507Y-76307245D02*
X41111526Y-76541662D01*
X41111552Y-76754603D01*
X41111625Y-76947168D01*
X41111782Y-77120459D01*
X41112064Y-77275576D01*
X41112509Y-77413620D01*
X41113156Y-77535692D01*
X41114045Y-77642894D01*
X41115213Y-77736326D01*
X41116701Y-77817090D01*
X41118546Y-77886286D01*
X41120789Y-77945015D01*
X41123469Y-77994379D01*
X41126623Y-78035478D01*
X41130292Y-78069413D01*
X41134513Y-78097286D01*
X41139327Y-78120198D01*
X41144773Y-78139249D01*
X41150888Y-78155540D01*
X41157712Y-78170173D01*
X41165285Y-78184249D01*
X41173645Y-78198868D01*
X41178839Y-78207974D01*
X41213104Y-78268689D01*
X40354955Y-78268689D01*
X40354955Y-78172733D01*
X40354224Y-78129370D01*
X40352272Y-78096205D01*
X40349463Y-78078424D01*
X40348221Y-78076778D01*
X40336799Y-78083662D01*
X40314084Y-78101505D01*
X40291385Y-78120879D01*
X40236800Y-78161614D01*
X40167321Y-78202617D01*
X40090270Y-78240123D01*
X40012965Y-78270364D01*
X39982113Y-78280012D01*
X39913616Y-78294578D01*
X39830764Y-78304539D01*
X39741371Y-78309583D01*
X39653248Y-78309396D01*
X39574207Y-78303666D01*
X39536511Y-78297858D01*
X39398414Y-78259797D01*
X39271113Y-78202073D01*
X39155292Y-78125211D01*
X39051637Y-78029739D01*
X38960833Y-77916179D01*
X38894031Y-77805381D01*
X38839164Y-77688625D01*
X38797163Y-77569276D01*
X38767167Y-77443283D01*
X38748311Y-77306594D01*
X38739732Y-77155158D01*
X38739006Y-77077711D01*
X38741100Y-77020934D01*
X39570217Y-77020934D01*
X39570424Y-77114002D01*
X39573337Y-77201692D01*
X39579000Y-77278772D01*
X39587455Y-77340009D01*
X39590038Y-77352350D01*
X39621840Y-77459633D01*
X39663498Y-77546658D01*
X39715363Y-77613642D01*
X39777781Y-77660805D01*
X39851100Y-77688365D01*
X39935669Y-77696541D01*
X40031835Y-77685551D01*
X40095311Y-77669829D01*
X40144454Y-77651639D01*
X40198583Y-77625791D01*
X40239244Y-77602089D01*
X40309800Y-77555721D01*
X40309800Y-76405530D01*
X40242392Y-76361962D01*
X40163867Y-76321040D01*
X40079681Y-76294389D01*
X39994557Y-76282465D01*
X39913216Y-76285722D01*
X39840380Y-76304615D01*
X39808426Y-76320184D01*
X39750501Y-76363181D01*
X39701544Y-76419953D01*
X39660390Y-76492575D01*
X39625874Y-76583121D01*
X39596833Y-76693666D01*
X39595552Y-76699533D01*
X39585381Y-76761788D01*
X39577739Y-76839594D01*
X39572670Y-76927720D01*
X39570217Y-77020934D01*
X38741100Y-77020934D01*
X38746857Y-76864895D01*
X38768802Y-76669059D01*
X38804786Y-76490332D01*
X38854759Y-76328845D01*
X38918668Y-76184726D01*
X38996462Y-76058106D01*
X39088089Y-75949115D01*
X39193497Y-75857883D01*
X39238662Y-75826932D01*
X39339611Y-75770785D01*
X39442901Y-75731174D01*
X39552989Y-75707014D01*
X39674330Y-75697219D01*
X39766836Y-75698265D01*
X39896490Y-75709231D01*
X40009084Y-75731046D01*
X40107875Y-75764714D01*
X40196121Y-75811236D01*
X40244986Y-75845448D01*
X40274353Y-75867362D01*
X40296043Y-75882333D01*
X40304253Y-75886733D01*
X40305868Y-75875904D01*
X40307159Y-75845251D01*
X40308138Y-75797526D01*
X40308817Y-75735479D01*
X40309210Y-75661862D01*
X40309330Y-75579427D01*
X40309188Y-75490925D01*
X40308797Y-75399107D01*
X40308171Y-75306724D01*
X40307320Y-75216528D01*
X40306260Y-75131271D01*
X40305001Y-75053703D01*
X40303556Y-74986576D01*
X40301938Y-74932641D01*
X40300161Y-74894650D01*
X40299669Y-74887667D01*
X40292092Y-74817251D01*
X40280531Y-74762102D01*
X40262792Y-74714981D01*
X40236682Y-74668647D01*
X40230415Y-74659067D01*
X40205983Y-74622378D01*
X41111311Y-74622378D01*
X41111507Y-76307245D01*
G36*
X32651957Y-73861571D02*
G01*
X32748232Y-73885809D01*
X32834816Y-73928641D01*
X32909627Y-73988419D01*
X32970582Y-74063494D01*
X33015601Y-74152220D01*
X33041864Y-74248530D01*
X33047714Y-74345795D01*
X33032860Y-74439654D01*
X32999160Y-74527511D01*
X32948472Y-74606770D01*
X32882655Y-74674836D01*
X32803566Y-74729112D01*
X32713066Y-74767002D01*
X32661800Y-74779426D01*
X32617302Y-74786947D01*
X32583001Y-74789919D01*
X32550040Y-74788094D01*
X32509566Y-74781225D01*
X32476469Y-74774250D01*
X32383053Y-74742741D01*
X32299381Y-74691617D01*
X32227335Y-74622429D01*
X32168800Y-74536728D01*
X32154852Y-74509489D01*
X32138414Y-74473122D01*
X32128106Y-74442582D01*
X32122540Y-74410450D01*
X32120331Y-74369307D01*
X32120052Y-74323222D01*
X32124139Y-74238865D01*
X32137554Y-74169586D01*
X32162744Y-74108961D01*
X32202154Y-74050567D01*
X32240702Y-74006302D01*
X32312594Y-73940484D01*
X32387687Y-73895053D01*
X32470438Y-73867850D01*
X32548072Y-73857576D01*
X32651957Y-73861571D01*
G37*
X32651957Y-73861571D02*
X32748232Y-73885809D01*
X32834816Y-73928641D01*
X32909627Y-73988419D01*
X32970582Y-74063494D01*
X33015601Y-74152220D01*
X33041864Y-74248530D01*
X33047714Y-74345795D01*
X33032860Y-74439654D01*
X32999160Y-74527511D01*
X32948472Y-74606770D01*
X32882655Y-74674836D01*
X32803566Y-74729112D01*
X32713066Y-74767002D01*
X32661800Y-74779426D01*
X32617302Y-74786947D01*
X32583001Y-74789919D01*
X32550040Y-74788094D01*
X32509566Y-74781225D01*
X32476469Y-74774250D01*
X32383053Y-74742741D01*
X32299381Y-74691617D01*
X32227335Y-74622429D01*
X32168800Y-74536728D01*
X32154852Y-74509489D01*
X32138414Y-74473122D01*
X32128106Y-74442582D01*
X32122540Y-74410450D01*
X32120331Y-74369307D01*
X32120052Y-74323222D01*
X32124139Y-74238865D01*
X32137554Y-74169586D01*
X32162744Y-74108961D01*
X32202154Y-74050567D01*
X32240702Y-74006302D01*
X32312594Y-73940484D01*
X32387687Y-73895053D01*
X32470438Y-73867850D01*
X32548072Y-73857576D01*
X32651957Y-73861571D01*
G36*
X28803629Y-79104066D02*
G01*
X28843111Y-79104467D01*
X28958800Y-79107259D01*
X29055689Y-79115550D01*
X29137081Y-79130232D01*
X29206277Y-79152193D01*
X29266580Y-79182322D01*
X29321292Y-79221510D01*
X29340833Y-79238532D01*
X29373250Y-79278363D01*
X29402480Y-79332413D01*
X29425009Y-79392323D01*
X29437321Y-79449739D01*
X29438600Y-79470956D01*
X29430583Y-79529769D01*
X29409101Y-79594013D01*
X29378001Y-79654821D01*
X29341134Y-79703330D01*
X29335146Y-79709182D01*
X29284421Y-79750321D01*
X29228875Y-79782435D01*
X29165304Y-79806365D01*
X29090506Y-79822953D01*
X29001278Y-79833041D01*
X28894418Y-79837469D01*
X28845472Y-79837845D01*
X28783238Y-79837545D01*
X28739472Y-79836292D01*
X28710069Y-79833554D01*
X28690921Y-79828801D01*
X28677923Y-79821501D01*
X28670955Y-79815267D01*
X28664374Y-79807694D01*
X28659212Y-79797924D01*
X28655297Y-79783340D01*
X28652457Y-79761326D01*
X28650520Y-79729264D01*
X28649316Y-79684536D01*
X28648672Y-79624526D01*
X28648417Y-79546617D01*
X28648378Y-79470956D01*
X28648130Y-79370041D01*
X28648183Y-79289427D01*
X28649143Y-79250822D01*
X28795133Y-79250822D01*
X28795133Y-79691089D01*
X28888266Y-79691004D01*
X28944307Y-79689396D01*
X29003001Y-79685256D01*
X29051972Y-79679464D01*
X29053462Y-79679226D01*
X29132608Y-79660090D01*
X29193998Y-79630287D01*
X29240695Y-79587878D01*
X29270365Y-79541961D01*
X29288647Y-79491026D01*
X29287229Y-79443200D01*
X29266012Y-79391933D01*
X29224511Y-79338899D01*
X29167002Y-79299600D01*
X29092250Y-79273331D01*
X29042292Y-79264035D01*
X28985584Y-79257507D01*
X28925481Y-79252782D01*
X28874361Y-79250817D01*
X28871333Y-79250808D01*
X28795133Y-79250822D01*
X28649143Y-79250822D01*
X28649740Y-79226851D01*
X28654002Y-79180055D01*
X28662170Y-79146778D01*
X28675444Y-79124759D01*
X28695026Y-79111739D01*
X28722117Y-79105457D01*
X28757918Y-79103653D01*
X28803629Y-79104066D01*
G37*
X28803629Y-79104066D02*
X28843111Y-79104467D01*
X28958800Y-79107259D01*
X29055689Y-79115550D01*
X29137081Y-79130232D01*
X29206277Y-79152193D01*
X29266580Y-79182322D01*
X29321292Y-79221510D01*
X29340833Y-79238532D01*
X29373250Y-79278363D01*
X29402480Y-79332413D01*
X29425009Y-79392323D01*
X29437321Y-79449739D01*
X29438600Y-79470956D01*
X29430583Y-79529769D01*
X29409101Y-79594013D01*
X29378001Y-79654821D01*
X29341134Y-79703330D01*
X29335146Y-79709182D01*
X29284421Y-79750321D01*
X29228875Y-79782435D01*
X29165304Y-79806365D01*
X29090506Y-79822953D01*
X29001278Y-79833041D01*
X28894418Y-79837469D01*
X28845472Y-79837845D01*
X28783238Y-79837545D01*
X28739472Y-79836292D01*
X28710069Y-79833554D01*
X28690921Y-79828801D01*
X28677923Y-79821501D01*
X28670955Y-79815267D01*
X28664374Y-79807694D01*
X28659212Y-79797924D01*
X28655297Y-79783340D01*
X28652457Y-79761326D01*
X28650520Y-79729264D01*
X28649316Y-79684536D01*
X28648672Y-79624526D01*
X28648417Y-79546617D01*
X28648378Y-79470956D01*
X28648130Y-79370041D01*
X28648183Y-79289427D01*
X28649143Y-79250822D01*
X28795133Y-79250822D01*
X28795133Y-79691089D01*
X28888266Y-79691004D01*
X28944307Y-79689396D01*
X29003001Y-79685256D01*
X29051972Y-79679464D01*
X29053462Y-79679226D01*
X29132608Y-79660090D01*
X29193998Y-79630287D01*
X29240695Y-79587878D01*
X29270365Y-79541961D01*
X29288647Y-79491026D01*
X29287229Y-79443200D01*
X29266012Y-79391933D01*
X29224511Y-79338899D01*
X29167002Y-79299600D01*
X29092250Y-79273331D01*
X29042292Y-79264035D01*
X28985584Y-79257507D01*
X28925481Y-79252782D01*
X28874361Y-79250817D01*
X28871333Y-79250808D01*
X28795133Y-79250822D01*
X28649143Y-79250822D01*
X28649740Y-79226851D01*
X28654002Y-79180055D01*
X28662170Y-79146778D01*
X28675444Y-79124759D01*
X28695026Y-79111739D01*
X28722117Y-79105457D01*
X28757918Y-79103653D01*
X28803629Y-79104066D01*
G36*
X30212206Y-79104146D02*
G01*
X30281614Y-79104518D01*
X30334003Y-79105385D01*
X30372153Y-79106946D01*
X30398841Y-79109403D01*
X30416847Y-79112957D01*
X30428951Y-79117810D01*
X30437931Y-79124161D01*
X30441182Y-79127084D01*
X30460957Y-79158142D01*
X30464518Y-79193828D01*
X30451509Y-79225510D01*
X30445494Y-79231913D01*
X30435765Y-79238121D01*
X30420099Y-79242910D01*
X30395592Y-79246514D01*
X30359339Y-79249164D01*
X30308435Y-79251095D01*
X30239974Y-79252539D01*
X30177383Y-79253418D01*
X29929666Y-79256467D01*
X29926281Y-79321378D01*
X29922895Y-79386289D01*
X30091042Y-79386289D01*
X30164041Y-79386919D01*
X30217483Y-79389553D01*
X30254372Y-79395309D01*
X30277712Y-79405304D01*
X30290506Y-79420656D01*
X30295758Y-79442482D01*
X30296555Y-79462738D01*
X30294077Y-79487592D01*
X30284723Y-79505906D01*
X30265617Y-79518637D01*
X30233882Y-79526741D01*
X30186641Y-79531176D01*
X30121017Y-79532899D01*
X30085199Y-79533045D01*
X29924022Y-79533045D01*
X29924022Y-79691089D01*
X30172378Y-79691089D01*
X30253787Y-79691202D01*
X30315658Y-79691712D01*
X30361032Y-79692870D01*
X30392946Y-79694930D01*
X30414441Y-79698146D01*
X30428557Y-79702772D01*
X30438332Y-79709059D01*
X30443311Y-79713667D01*
X30460390Y-79740560D01*
X30465889Y-79764467D01*
X30458037Y-79793667D01*
X30443311Y-79815267D01*
X30435454Y-79822066D01*
X30425312Y-79827346D01*
X30410156Y-79831298D01*
X30387259Y-79834113D01*
X30353891Y-79835982D01*
X30307325Y-79837098D01*
X30244833Y-79837651D01*
X30163686Y-79837833D01*
X30121578Y-79837845D01*
X30031402Y-79837765D01*
X29961076Y-79837398D01*
X29907871Y-79836552D01*
X29869060Y-79835036D01*
X29841913Y-79832659D01*
X29823702Y-79829229D01*
X29811700Y-79824554D01*
X29803178Y-79818444D01*
X29799844Y-79815267D01*
X29793245Y-79807670D01*
X29788073Y-79797870D01*
X29784154Y-79783239D01*
X29781316Y-79761152D01*
X29779385Y-79728982D01*
X29778188Y-79684103D01*
X29777552Y-79623889D01*
X29777303Y-79545713D01*
X29777266Y-79472923D01*
X29777300Y-79379707D01*
X29777535Y-79306431D01*
X29778170Y-79250458D01*
X29779406Y-79209151D01*
X29781444Y-79179872D01*
X29784483Y-79159984D01*
X29788723Y-79146850D01*
X29794365Y-79137832D01*
X29801609Y-79130293D01*
X29803394Y-79128612D01*
X29812055Y-79121172D01*
X29822118Y-79115409D01*
X29836375Y-79111112D01*
X29857617Y-79108064D01*
X29888636Y-79106051D01*
X29932223Y-79104860D01*
X29991169Y-79104275D01*
X30068266Y-79104083D01*
X30122999Y-79104067D01*
X30212206Y-79104146D01*
G37*
X30212206Y-79104146D02*
X30281614Y-79104518D01*
X30334003Y-79105385D01*
X30372153Y-79106946D01*
X30398841Y-79109403D01*
X30416847Y-79112957D01*
X30428951Y-79117810D01*
X30437931Y-79124161D01*
X30441182Y-79127084D01*
X30460957Y-79158142D01*
X30464518Y-79193828D01*
X30451509Y-79225510D01*
X30445494Y-79231913D01*
X30435765Y-79238121D01*
X30420099Y-79242910D01*
X30395592Y-79246514D01*
X30359339Y-79249164D01*
X30308435Y-79251095D01*
X30239974Y-79252539D01*
X30177383Y-79253418D01*
X29929666Y-79256467D01*
X29926281Y-79321378D01*
X29922895Y-79386289D01*
X30091042Y-79386289D01*
X30164041Y-79386919D01*
X30217483Y-79389553D01*
X30254372Y-79395309D01*
X30277712Y-79405304D01*
X30290506Y-79420656D01*
X30295758Y-79442482D01*
X30296555Y-79462738D01*
X30294077Y-79487592D01*
X30284723Y-79505906D01*
X30265617Y-79518637D01*
X30233882Y-79526741D01*
X30186641Y-79531176D01*
X30121017Y-79532899D01*
X30085199Y-79533045D01*
X29924022Y-79533045D01*
X29924022Y-79691089D01*
X30172378Y-79691089D01*
X30253787Y-79691202D01*
X30315658Y-79691712D01*
X30361032Y-79692870D01*
X30392946Y-79694930D01*
X30414441Y-79698146D01*
X30428557Y-79702772D01*
X30438332Y-79709059D01*
X30443311Y-79713667D01*
X30460390Y-79740560D01*
X30465889Y-79764467D01*
X30458037Y-79793667D01*
X30443311Y-79815267D01*
X30435454Y-79822066D01*
X30425312Y-79827346D01*
X30410156Y-79831298D01*
X30387259Y-79834113D01*
X30353891Y-79835982D01*
X30307325Y-79837098D01*
X30244833Y-79837651D01*
X30163686Y-79837833D01*
X30121578Y-79837845D01*
X30031402Y-79837765D01*
X29961076Y-79837398D01*
X29907871Y-79836552D01*
X29869060Y-79835036D01*
X29841913Y-79832659D01*
X29823702Y-79829229D01*
X29811700Y-79824554D01*
X29803178Y-79818444D01*
X29799844Y-79815267D01*
X29793245Y-79807670D01*
X29788073Y-79797870D01*
X29784154Y-79783239D01*
X29781316Y-79761152D01*
X29779385Y-79728982D01*
X29778188Y-79684103D01*
X29777552Y-79623889D01*
X29777303Y-79545713D01*
X29777266Y-79472923D01*
X29777300Y-79379707D01*
X29777535Y-79306431D01*
X29778170Y-79250458D01*
X29779406Y-79209151D01*
X29781444Y-79179872D01*
X29784483Y-79159984D01*
X29788723Y-79146850D01*
X29794365Y-79137832D01*
X29801609Y-79130293D01*
X29803394Y-79128612D01*
X29812055Y-79121172D01*
X29822118Y-79115409D01*
X29836375Y-79111112D01*
X29857617Y-79108064D01*
X29888636Y-79106051D01*
X29932223Y-79104860D01*
X29991169Y-79104275D01*
X30068266Y-79104083D01*
X30122999Y-79104067D01*
X30212206Y-79104146D01*
G36*
X31233297Y-79105351D02*
G01*
X31308112Y-79110581D01*
X31377694Y-79118750D01*
X31437998Y-79129550D01*
X31484980Y-79142673D01*
X31514594Y-79157813D01*
X31519140Y-79162269D01*
X31534946Y-79196850D01*
X31530153Y-79232351D01*
X31505636Y-79262725D01*
X31504466Y-79263596D01*
X31490046Y-79272954D01*
X31474992Y-79277876D01*
X31453995Y-79278473D01*
X31421743Y-79274861D01*
X31372927Y-79267154D01*
X31369000Y-79266505D01*
X31296261Y-79257569D01*
X31217783Y-79253161D01*
X31139073Y-79253119D01*
X31065639Y-79257279D01*
X31002989Y-79265479D01*
X30956630Y-79277557D01*
X30953584Y-79278771D01*
X30919952Y-79297615D01*
X30908136Y-79316685D01*
X30917386Y-79335439D01*
X30946953Y-79353337D01*
X30996089Y-79369837D01*
X31064043Y-79384396D01*
X31109355Y-79391406D01*
X31203544Y-79404889D01*
X31278456Y-79417214D01*
X31337283Y-79429449D01*
X31383215Y-79442661D01*
X31419445Y-79457917D01*
X31449162Y-79476285D01*
X31475558Y-79498831D01*
X31496770Y-79520971D01*
X31521935Y-79551819D01*
X31534319Y-79578345D01*
X31538192Y-79611026D01*
X31538333Y-79622995D01*
X31535424Y-79662712D01*
X31523798Y-79692259D01*
X31503677Y-79718486D01*
X31462784Y-79758576D01*
X31417183Y-79789149D01*
X31363487Y-79811203D01*
X31298308Y-79825735D01*
X31218256Y-79833741D01*
X31119943Y-79836218D01*
X31103711Y-79836177D01*
X31038151Y-79834818D01*
X30973134Y-79831730D01*
X30915748Y-79827356D01*
X30873078Y-79822140D01*
X30869628Y-79821541D01*
X30827204Y-79811491D01*
X30791220Y-79798796D01*
X30770850Y-79787190D01*
X30751893Y-79756572D01*
X30750573Y-79720918D01*
X30766915Y-79689144D01*
X30770571Y-79685551D01*
X30785685Y-79674876D01*
X30804585Y-79670276D01*
X30833838Y-79671059D01*
X30869349Y-79675127D01*
X30909030Y-79678762D01*
X30964655Y-79681828D01*
X31029594Y-79684053D01*
X31097215Y-79685164D01*
X31115000Y-79685237D01*
X31182872Y-79684964D01*
X31232546Y-79683646D01*
X31268390Y-79680827D01*
X31294776Y-79676050D01*
X31316074Y-79668857D01*
X31328874Y-79662867D01*
X31357000Y-79646233D01*
X31374932Y-79631168D01*
X31377553Y-79626897D01*
X31372024Y-79609263D01*
X31345740Y-79592192D01*
X31300522Y-79576458D01*
X31238192Y-79562838D01*
X31219829Y-79559804D01*
X31123910Y-79544738D01*
X31047359Y-79532146D01*
X30987220Y-79521111D01*
X30940540Y-79510720D01*
X30904363Y-79500056D01*
X30875735Y-79488205D01*
X30851702Y-79474251D01*
X30829308Y-79457281D01*
X30805598Y-79436378D01*
X30797620Y-79429049D01*
X30769647Y-79401699D01*
X30754840Y-79380029D01*
X30749048Y-79355232D01*
X30748111Y-79323983D01*
X30758425Y-79262705D01*
X30789248Y-79210640D01*
X30840405Y-79167958D01*
X30911717Y-79134825D01*
X30962600Y-79119964D01*
X31017900Y-79110366D01*
X31084147Y-79104936D01*
X31157294Y-79103367D01*
X31233297Y-79105351D01*
G37*
X31233297Y-79105351D02*
X31308112Y-79110581D01*
X31377694Y-79118750D01*
X31437998Y-79129550D01*
X31484980Y-79142673D01*
X31514594Y-79157813D01*
X31519140Y-79162269D01*
X31534946Y-79196850D01*
X31530153Y-79232351D01*
X31505636Y-79262725D01*
X31504466Y-79263596D01*
X31490046Y-79272954D01*
X31474992Y-79277876D01*
X31453995Y-79278473D01*
X31421743Y-79274861D01*
X31372927Y-79267154D01*
X31369000Y-79266505D01*
X31296261Y-79257569D01*
X31217783Y-79253161D01*
X31139073Y-79253119D01*
X31065639Y-79257279D01*
X31002989Y-79265479D01*
X30956630Y-79277557D01*
X30953584Y-79278771D01*
X30919952Y-79297615D01*
X30908136Y-79316685D01*
X30917386Y-79335439D01*
X30946953Y-79353337D01*
X30996089Y-79369837D01*
X31064043Y-79384396D01*
X31109355Y-79391406D01*
X31203544Y-79404889D01*
X31278456Y-79417214D01*
X31337283Y-79429449D01*
X31383215Y-79442661D01*
X31419445Y-79457917D01*
X31449162Y-79476285D01*
X31475558Y-79498831D01*
X31496770Y-79520971D01*
X31521935Y-79551819D01*
X31534319Y-79578345D01*
X31538192Y-79611026D01*
X31538333Y-79622995D01*
X31535424Y-79662712D01*
X31523798Y-79692259D01*
X31503677Y-79718486D01*
X31462784Y-79758576D01*
X31417183Y-79789149D01*
X31363487Y-79811203D01*
X31298308Y-79825735D01*
X31218256Y-79833741D01*
X31119943Y-79836218D01*
X31103711Y-79836177D01*
X31038151Y-79834818D01*
X30973134Y-79831730D01*
X30915748Y-79827356D01*
X30873078Y-79822140D01*
X30869628Y-79821541D01*
X30827204Y-79811491D01*
X30791220Y-79798796D01*
X30770850Y-79787190D01*
X30751893Y-79756572D01*
X30750573Y-79720918D01*
X30766915Y-79689144D01*
X30770571Y-79685551D01*
X30785685Y-79674876D01*
X30804585Y-79670276D01*
X30833838Y-79671059D01*
X30869349Y-79675127D01*
X30909030Y-79678762D01*
X30964655Y-79681828D01*
X31029594Y-79684053D01*
X31097215Y-79685164D01*
X31115000Y-79685237D01*
X31182872Y-79684964D01*
X31232546Y-79683646D01*
X31268390Y-79680827D01*
X31294776Y-79676050D01*
X31316074Y-79668857D01*
X31328874Y-79662867D01*
X31357000Y-79646233D01*
X31374932Y-79631168D01*
X31377553Y-79626897D01*
X31372024Y-79609263D01*
X31345740Y-79592192D01*
X31300522Y-79576458D01*
X31238192Y-79562838D01*
X31219829Y-79559804D01*
X31123910Y-79544738D01*
X31047359Y-79532146D01*
X30987220Y-79521111D01*
X30940540Y-79510720D01*
X30904363Y-79500056D01*
X30875735Y-79488205D01*
X30851702Y-79474251D01*
X30829308Y-79457281D01*
X30805598Y-79436378D01*
X30797620Y-79429049D01*
X30769647Y-79401699D01*
X30754840Y-79380029D01*
X30749048Y-79355232D01*
X30748111Y-79323983D01*
X30758425Y-79262705D01*
X30789248Y-79210640D01*
X30840405Y-79167958D01*
X30911717Y-79134825D01*
X30962600Y-79119964D01*
X31017900Y-79110366D01*
X31084147Y-79104936D01*
X31157294Y-79103367D01*
X31233297Y-79105351D01*
G36*
X32001178Y-79126645D02*
G01*
X32007758Y-79134218D01*
X32012921Y-79143987D01*
X32016836Y-79158571D01*
X32019676Y-79180585D01*
X32021613Y-79212648D01*
X32022817Y-79257375D01*
X32023461Y-79317385D01*
X32023716Y-79395294D01*
X32023755Y-79470956D01*
X32023686Y-79564802D01*
X32023362Y-79638689D01*
X32022614Y-79695232D01*
X32021268Y-79737049D01*
X32019154Y-79766757D01*
X32016100Y-79786973D01*
X32011934Y-79800314D01*
X32006484Y-79809398D01*
X32001178Y-79815267D01*
X31968174Y-79834947D01*
X31933009Y-79833181D01*
X31901545Y-79811717D01*
X31894316Y-79803337D01*
X31888666Y-79793614D01*
X31884401Y-79779861D01*
X31881327Y-79759389D01*
X31879248Y-79729512D01*
X31877970Y-79687541D01*
X31877299Y-79630789D01*
X31877041Y-79556567D01*
X31877000Y-79472537D01*
X31877000Y-79159485D01*
X31904709Y-79131776D01*
X31938863Y-79108463D01*
X31971994Y-79107623D01*
X32001178Y-79126645D01*
G37*
X32001178Y-79126645D02*
X32007758Y-79134218D01*
X32012921Y-79143987D01*
X32016836Y-79158571D01*
X32019676Y-79180585D01*
X32021613Y-79212648D01*
X32022817Y-79257375D01*
X32023461Y-79317385D01*
X32023716Y-79395294D01*
X32023755Y-79470956D01*
X32023686Y-79564802D01*
X32023362Y-79638689D01*
X32022614Y-79695232D01*
X32021268Y-79737049D01*
X32019154Y-79766757D01*
X32016100Y-79786973D01*
X32011934Y-79800314D01*
X32006484Y-79809398D01*
X32001178Y-79815267D01*
X31968174Y-79834947D01*
X31933009Y-79833181D01*
X31901545Y-79811717D01*
X31894316Y-79803337D01*
X31888666Y-79793614D01*
X31884401Y-79779861D01*
X31881327Y-79759389D01*
X31879248Y-79729512D01*
X31877970Y-79687541D01*
X31877299Y-79630789D01*
X31877041Y-79556567D01*
X31877000Y-79472537D01*
X31877000Y-79159485D01*
X31904709Y-79131776D01*
X31938863Y-79108463D01*
X31971994Y-79107623D01*
X32001178Y-79126645D01*
G36*
X32974919Y-79109599D02*
G01*
X33043435Y-79121095D01*
X33096057Y-79138967D01*
X33130292Y-79162499D01*
X33139621Y-79175924D01*
X33149107Y-79207148D01*
X33142723Y-79235395D01*
X33122570Y-79262182D01*
X33091255Y-79274713D01*
X33045817Y-79273696D01*
X33010674Y-79266906D01*
X32932581Y-79253971D01*
X32852774Y-79252742D01*
X32763445Y-79263241D01*
X32738771Y-79267690D01*
X32655709Y-79291108D01*
X32590727Y-79325945D01*
X32544539Y-79371604D01*
X32517855Y-79427494D01*
X32512337Y-79456388D01*
X32515949Y-79515012D01*
X32539271Y-79566879D01*
X32580176Y-79610978D01*
X32636541Y-79646299D01*
X32706240Y-79671829D01*
X32787148Y-79686559D01*
X32877140Y-79689478D01*
X32974090Y-79679575D01*
X32979564Y-79678641D01*
X33018125Y-79671459D01*
X33039506Y-79664521D01*
X33048773Y-79654227D01*
X33050994Y-79636976D01*
X33051044Y-79627841D01*
X33051044Y-79589489D01*
X32982569Y-79589489D01*
X32922100Y-79585347D01*
X32880835Y-79572147D01*
X32856825Y-79548730D01*
X32848123Y-79513936D01*
X32848017Y-79509394D01*
X32853108Y-79479654D01*
X32870567Y-79458419D01*
X32903061Y-79444366D01*
X32953257Y-79436173D01*
X33001877Y-79433161D01*
X33072544Y-79431433D01*
X33123802Y-79434070D01*
X33158761Y-79443800D01*
X33180530Y-79463353D01*
X33192220Y-79495456D01*
X33196940Y-79542838D01*
X33197800Y-79605071D01*
X33196391Y-79674535D01*
X33192152Y-79721786D01*
X33185064Y-79747012D01*
X33183689Y-79748988D01*
X33144772Y-79780508D01*
X33087714Y-79805470D01*
X33016131Y-79823340D01*
X32933642Y-79833586D01*
X32843861Y-79835673D01*
X32750408Y-79829068D01*
X32695444Y-79820956D01*
X32609234Y-79796554D01*
X32529108Y-79756662D01*
X32462023Y-79704887D01*
X32451827Y-79694539D01*
X32418698Y-79651035D01*
X32388806Y-79597118D01*
X32365643Y-79540592D01*
X32352702Y-79489259D01*
X32351142Y-79469544D01*
X32357782Y-79428419D01*
X32375432Y-79377252D01*
X32400703Y-79323394D01*
X32430211Y-79274195D01*
X32456281Y-79241334D01*
X32517235Y-79192452D01*
X32596031Y-79153545D01*
X32689843Y-79125494D01*
X32795850Y-79109179D01*
X32893000Y-79105192D01*
X32974919Y-79109599D01*
G37*
X32974919Y-79109599D02*
X33043435Y-79121095D01*
X33096057Y-79138967D01*
X33130292Y-79162499D01*
X33139621Y-79175924D01*
X33149107Y-79207148D01*
X33142723Y-79235395D01*
X33122570Y-79262182D01*
X33091255Y-79274713D01*
X33045817Y-79273696D01*
X33010674Y-79266906D01*
X32932581Y-79253971D01*
X32852774Y-79252742D01*
X32763445Y-79263241D01*
X32738771Y-79267690D01*
X32655709Y-79291108D01*
X32590727Y-79325945D01*
X32544539Y-79371604D01*
X32517855Y-79427494D01*
X32512337Y-79456388D01*
X32515949Y-79515012D01*
X32539271Y-79566879D01*
X32580176Y-79610978D01*
X32636541Y-79646299D01*
X32706240Y-79671829D01*
X32787148Y-79686559D01*
X32877140Y-79689478D01*
X32974090Y-79679575D01*
X32979564Y-79678641D01*
X33018125Y-79671459D01*
X33039506Y-79664521D01*
X33048773Y-79654227D01*
X33050994Y-79636976D01*
X33051044Y-79627841D01*
X33051044Y-79589489D01*
X32982569Y-79589489D01*
X32922100Y-79585347D01*
X32880835Y-79572147D01*
X32856825Y-79548730D01*
X32848123Y-79513936D01*
X32848017Y-79509394D01*
X32853108Y-79479654D01*
X32870567Y-79458419D01*
X32903061Y-79444366D01*
X32953257Y-79436173D01*
X33001877Y-79433161D01*
X33072544Y-79431433D01*
X33123802Y-79434070D01*
X33158761Y-79443800D01*
X33180530Y-79463353D01*
X33192220Y-79495456D01*
X33196940Y-79542838D01*
X33197800Y-79605071D01*
X33196391Y-79674535D01*
X33192152Y-79721786D01*
X33185064Y-79747012D01*
X33183689Y-79748988D01*
X33144772Y-79780508D01*
X33087714Y-79805470D01*
X33016131Y-79823340D01*
X32933642Y-79833586D01*
X32843861Y-79835673D01*
X32750408Y-79829068D01*
X32695444Y-79820956D01*
X32609234Y-79796554D01*
X32529108Y-79756662D01*
X32462023Y-79704887D01*
X32451827Y-79694539D01*
X32418698Y-79651035D01*
X32388806Y-79597118D01*
X32365643Y-79540592D01*
X32352702Y-79489259D01*
X32351142Y-79469544D01*
X32357782Y-79428419D01*
X32375432Y-79377252D01*
X32400703Y-79323394D01*
X32430211Y-79274195D01*
X32456281Y-79241334D01*
X32517235Y-79192452D01*
X32596031Y-79153545D01*
X32689843Y-79125494D01*
X32795850Y-79109179D01*
X32893000Y-79105192D01*
X32974919Y-79109599D01*
G36*
X33624886Y-79108448D02*
G01*
X33648452Y-79122273D01*
X33679265Y-79144881D01*
X33718922Y-79177338D01*
X33769020Y-79220708D01*
X33831157Y-79276058D01*
X33906928Y-79344451D01*
X33993666Y-79423084D01*
X34174289Y-79586878D01*
X34179933Y-79367029D01*
X34181971Y-79291351D01*
X34183937Y-79234994D01*
X34186266Y-79194706D01*
X34189394Y-79167235D01*
X34193755Y-79149329D01*
X34199784Y-79137737D01*
X34207916Y-79129208D01*
X34212228Y-79125623D01*
X34246759Y-79106670D01*
X34279617Y-79109441D01*
X34305682Y-79125633D01*
X34332333Y-79147199D01*
X34335648Y-79462151D01*
X34336565Y-79554779D01*
X34337032Y-79627544D01*
X34336887Y-79683161D01*
X34335968Y-79724342D01*
X34334113Y-79753803D01*
X34331161Y-79774255D01*
X34326950Y-79788413D01*
X34321318Y-79798991D01*
X34315073Y-79807474D01*
X34301561Y-79823207D01*
X34288117Y-79833636D01*
X34272876Y-79837639D01*
X34253974Y-79834094D01*
X34229545Y-79821879D01*
X34197727Y-79799871D01*
X34156652Y-79766949D01*
X34104458Y-79721991D01*
X34039278Y-79663875D01*
X33965444Y-79597099D01*
X33700155Y-79356458D01*
X33694511Y-79575589D01*
X33692469Y-79651128D01*
X33690498Y-79707354D01*
X33688161Y-79747524D01*
X33685019Y-79774896D01*
X33680636Y-79792728D01*
X33674576Y-79804279D01*
X33666400Y-79812807D01*
X33662216Y-79816282D01*
X33625235Y-79835372D01*
X33590292Y-79832493D01*
X33559864Y-79808100D01*
X33552903Y-79798286D01*
X33547477Y-79786826D01*
X33543397Y-79770968D01*
X33540471Y-79747963D01*
X33538508Y-79715062D01*
X33537317Y-79669516D01*
X33536708Y-79608573D01*
X33536489Y-79529486D01*
X33536466Y-79470956D01*
X33536540Y-79379407D01*
X33536887Y-79307687D01*
X33537699Y-79253045D01*
X33539167Y-79212732D01*
X33541481Y-79183998D01*
X33544833Y-79164093D01*
X33549412Y-79150268D01*
X33555411Y-79139772D01*
X33559864Y-79133811D01*
X33571150Y-79119691D01*
X33581699Y-79109029D01*
X33593107Y-79102892D01*
X33606970Y-79102343D01*
X33624886Y-79108448D01*
G37*
X33624886Y-79108448D02*
X33648452Y-79122273D01*
X33679265Y-79144881D01*
X33718922Y-79177338D01*
X33769020Y-79220708D01*
X33831157Y-79276058D01*
X33906928Y-79344451D01*
X33993666Y-79423084D01*
X34174289Y-79586878D01*
X34179933Y-79367029D01*
X34181971Y-79291351D01*
X34183937Y-79234994D01*
X34186266Y-79194706D01*
X34189394Y-79167235D01*
X34193755Y-79149329D01*
X34199784Y-79137737D01*
X34207916Y-79129208D01*
X34212228Y-79125623D01*
X34246759Y-79106670D01*
X34279617Y-79109441D01*
X34305682Y-79125633D01*
X34332333Y-79147199D01*
X34335648Y-79462151D01*
X34336565Y-79554779D01*
X34337032Y-79627544D01*
X34336887Y-79683161D01*
X34335968Y-79724342D01*
X34334113Y-79753803D01*
X34331161Y-79774255D01*
X34326950Y-79788413D01*
X34321318Y-79798991D01*
X34315073Y-79807474D01*
X34301561Y-79823207D01*
X34288117Y-79833636D01*
X34272876Y-79837639D01*
X34253974Y-79834094D01*
X34229545Y-79821879D01*
X34197727Y-79799871D01*
X34156652Y-79766949D01*
X34104458Y-79721991D01*
X34039278Y-79663875D01*
X33965444Y-79597099D01*
X33700155Y-79356458D01*
X33694511Y-79575589D01*
X33692469Y-79651128D01*
X33690498Y-79707354D01*
X33688161Y-79747524D01*
X33685019Y-79774896D01*
X33680636Y-79792728D01*
X33674576Y-79804279D01*
X33666400Y-79812807D01*
X33662216Y-79816282D01*
X33625235Y-79835372D01*
X33590292Y-79832493D01*
X33559864Y-79808100D01*
X33552903Y-79798286D01*
X33547477Y-79786826D01*
X33543397Y-79770968D01*
X33540471Y-79747963D01*
X33538508Y-79715062D01*
X33537317Y-79669516D01*
X33536708Y-79608573D01*
X33536489Y-79529486D01*
X33536466Y-79470956D01*
X33536540Y-79379407D01*
X33536887Y-79307687D01*
X33537699Y-79253045D01*
X33539167Y-79212732D01*
X33541481Y-79183998D01*
X33544833Y-79164093D01*
X33549412Y-79150268D01*
X33555411Y-79139772D01*
X33559864Y-79133811D01*
X33571150Y-79119691D01*
X33581699Y-79109029D01*
X33593107Y-79102892D01*
X33606970Y-79102343D01*
X33624886Y-79108448D01*
G36*
X35155343Y-79104260D02*
G01*
X35231701Y-79105174D01*
X35290217Y-79107311D01*
X35333255Y-79111175D01*
X35363183Y-79117267D01*
X35382368Y-79126090D01*
X35393176Y-79138146D01*
X35397973Y-79153939D01*
X35399127Y-79173970D01*
X35399133Y-79176335D01*
X35398131Y-79198992D01*
X35393396Y-79216503D01*
X35382333Y-79229574D01*
X35362348Y-79238913D01*
X35330846Y-79245227D01*
X35285232Y-79249222D01*
X35222913Y-79251606D01*
X35141293Y-79253086D01*
X35116277Y-79253414D01*
X34874200Y-79256467D01*
X34870814Y-79321378D01*
X34867429Y-79386289D01*
X35035576Y-79386289D01*
X35101266Y-79386531D01*
X35148172Y-79387556D01*
X35180083Y-79389811D01*
X35200791Y-79393742D01*
X35214084Y-79399798D01*
X35223755Y-79408424D01*
X35223817Y-79408493D01*
X35241356Y-79442112D01*
X35240722Y-79478448D01*
X35222314Y-79509423D01*
X35218671Y-79512607D01*
X35205741Y-79520812D01*
X35188024Y-79526521D01*
X35161570Y-79530162D01*
X35122432Y-79532167D01*
X35066662Y-79532964D01*
X35030994Y-79533045D01*
X34868555Y-79533045D01*
X34868555Y-79691089D01*
X35115161Y-79691089D01*
X35196580Y-79691231D01*
X35258410Y-79691814D01*
X35303637Y-79693068D01*
X35335248Y-79695227D01*
X35356231Y-79698523D01*
X35369573Y-79703189D01*
X35378261Y-79709457D01*
X35380450Y-79711733D01*
X35396614Y-79743280D01*
X35397797Y-79779168D01*
X35384536Y-79810285D01*
X35374043Y-79820271D01*
X35363129Y-79825769D01*
X35346217Y-79830022D01*
X35320633Y-79833180D01*
X35283701Y-79835392D01*
X35232746Y-79836806D01*
X35165094Y-79837572D01*
X35078069Y-79837838D01*
X35058394Y-79837845D01*
X34969911Y-79837787D01*
X34901227Y-79837467D01*
X34849564Y-79836667D01*
X34812145Y-79835167D01*
X34786190Y-79832749D01*
X34768922Y-79829194D01*
X34757562Y-79824282D01*
X34749332Y-79817795D01*
X34744817Y-79813138D01*
X34738021Y-79804889D01*
X34732712Y-79794669D01*
X34728706Y-79779800D01*
X34725821Y-79757602D01*
X34723874Y-79725393D01*
X34722681Y-79680496D01*
X34722061Y-79620228D01*
X34721829Y-79541911D01*
X34721800Y-79475994D01*
X34721871Y-79383628D01*
X34722208Y-79311117D01*
X34722998Y-79255737D01*
X34724426Y-79214765D01*
X34726679Y-79185478D01*
X34729943Y-79165153D01*
X34734404Y-79151066D01*
X34740248Y-79140495D01*
X34745197Y-79133811D01*
X34768594Y-79104067D01*
X35058774Y-79104067D01*
X35155343Y-79104260D01*
G37*
X35155343Y-79104260D02*
X35231701Y-79105174D01*
X35290217Y-79107311D01*
X35333255Y-79111175D01*
X35363183Y-79117267D01*
X35382368Y-79126090D01*
X35393176Y-79138146D01*
X35397973Y-79153939D01*
X35399127Y-79173970D01*
X35399133Y-79176335D01*
X35398131Y-79198992D01*
X35393396Y-79216503D01*
X35382333Y-79229574D01*
X35362348Y-79238913D01*
X35330846Y-79245227D01*
X35285232Y-79249222D01*
X35222913Y-79251606D01*
X35141293Y-79253086D01*
X35116277Y-79253414D01*
X34874200Y-79256467D01*
X34870814Y-79321378D01*
X34867429Y-79386289D01*
X35035576Y-79386289D01*
X35101266Y-79386531D01*
X35148172Y-79387556D01*
X35180083Y-79389811D01*
X35200791Y-79393742D01*
X35214084Y-79399798D01*
X35223755Y-79408424D01*
X35223817Y-79408493D01*
X35241356Y-79442112D01*
X35240722Y-79478448D01*
X35222314Y-79509423D01*
X35218671Y-79512607D01*
X35205741Y-79520812D01*
X35188024Y-79526521D01*
X35161570Y-79530162D01*
X35122432Y-79532167D01*
X35066662Y-79532964D01*
X35030994Y-79533045D01*
X34868555Y-79533045D01*
X34868555Y-79691089D01*
X35115161Y-79691089D01*
X35196580Y-79691231D01*
X35258410Y-79691814D01*
X35303637Y-79693068D01*
X35335248Y-79695227D01*
X35356231Y-79698523D01*
X35369573Y-79703189D01*
X35378261Y-79709457D01*
X35380450Y-79711733D01*
X35396614Y-79743280D01*
X35397797Y-79779168D01*
X35384536Y-79810285D01*
X35374043Y-79820271D01*
X35363129Y-79825769D01*
X35346217Y-79830022D01*
X35320633Y-79833180D01*
X35283701Y-79835392D01*
X35232746Y-79836806D01*
X35165094Y-79837572D01*
X35078069Y-79837838D01*
X35058394Y-79837845D01*
X34969911Y-79837787D01*
X34901227Y-79837467D01*
X34849564Y-79836667D01*
X34812145Y-79835167D01*
X34786190Y-79832749D01*
X34768922Y-79829194D01*
X34757562Y-79824282D01*
X34749332Y-79817795D01*
X34744817Y-79813138D01*
X34738021Y-79804889D01*
X34732712Y-79794669D01*
X34728706Y-79779800D01*
X34725821Y-79757602D01*
X34723874Y-79725393D01*
X34722681Y-79680496D01*
X34722061Y-79620228D01*
X34721829Y-79541911D01*
X34721800Y-79475994D01*
X34721871Y-79383628D01*
X34722208Y-79311117D01*
X34722998Y-79255737D01*
X34724426Y-79214765D01*
X34726679Y-79185478D01*
X34729943Y-79165153D01*
X34734404Y-79151066D01*
X34740248Y-79140495D01*
X34745197Y-79133811D01*
X34768594Y-79104067D01*
X35058774Y-79104067D01*
X35155343Y-79104260D01*
G36*
X35943309Y-79104275D02*
G01*
X36072288Y-79108636D01*
X36181991Y-79121861D01*
X36274226Y-79144741D01*
X36350802Y-79178070D01*
X36413527Y-79222638D01*
X36464212Y-79279236D01*
X36504663Y-79348658D01*
X36505459Y-79350351D01*
X36529601Y-79412483D01*
X36538203Y-79467509D01*
X36531231Y-79522887D01*
X36508654Y-79586073D01*
X36504372Y-79595689D01*
X36475172Y-79651966D01*
X36442356Y-79695451D01*
X36400002Y-79732417D01*
X36342190Y-79769135D01*
X36338831Y-79771052D01*
X36288504Y-79795227D01*
X36231621Y-79813282D01*
X36164527Y-79825839D01*
X36083565Y-79833522D01*
X35985082Y-79836953D01*
X35950286Y-79837251D01*
X35784594Y-79837845D01*
X35761197Y-79808100D01*
X35754257Y-79798319D01*
X35748842Y-79786897D01*
X35744765Y-79771095D01*
X35741837Y-79748175D01*
X35739867Y-79715396D01*
X35739225Y-79691089D01*
X35895844Y-79691089D01*
X35989726Y-79691089D01*
X36044664Y-79689483D01*
X36101060Y-79685255D01*
X36147345Y-79679292D01*
X36150139Y-79678790D01*
X36232348Y-79656736D01*
X36296114Y-79623600D01*
X36343452Y-79577847D01*
X36376382Y-79517939D01*
X36382108Y-79502061D01*
X36387721Y-79477333D01*
X36385291Y-79452902D01*
X36373467Y-79420400D01*
X36366340Y-79404434D01*
X36343000Y-79362006D01*
X36314880Y-79332240D01*
X36283940Y-79311511D01*
X36221966Y-79284537D01*
X36142651Y-79264998D01*
X36050253Y-79253746D01*
X35983333Y-79251270D01*
X35895844Y-79250822D01*
X35895844Y-79691089D01*
X35739225Y-79691089D01*
X35738668Y-79670021D01*
X35738050Y-79609311D01*
X35737825Y-79530526D01*
X35737800Y-79468920D01*
X35737800Y-79159485D01*
X35765509Y-79131776D01*
X35777806Y-79120544D01*
X35791103Y-79112853D01*
X35809672Y-79108040D01*
X35837786Y-79105446D01*
X35879717Y-79104410D01*
X35939737Y-79104270D01*
X35943309Y-79104275D01*
G37*
X35943309Y-79104275D02*
X36072288Y-79108636D01*
X36181991Y-79121861D01*
X36274226Y-79144741D01*
X36350802Y-79178070D01*
X36413527Y-79222638D01*
X36464212Y-79279236D01*
X36504663Y-79348658D01*
X36505459Y-79350351D01*
X36529601Y-79412483D01*
X36538203Y-79467509D01*
X36531231Y-79522887D01*
X36508654Y-79586073D01*
X36504372Y-79595689D01*
X36475172Y-79651966D01*
X36442356Y-79695451D01*
X36400002Y-79732417D01*
X36342190Y-79769135D01*
X36338831Y-79771052D01*
X36288504Y-79795227D01*
X36231621Y-79813282D01*
X36164527Y-79825839D01*
X36083565Y-79833522D01*
X35985082Y-79836953D01*
X35950286Y-79837251D01*
X35784594Y-79837845D01*
X35761197Y-79808100D01*
X35754257Y-79798319D01*
X35748842Y-79786897D01*
X35744765Y-79771095D01*
X35741837Y-79748175D01*
X35739867Y-79715396D01*
X35739225Y-79691089D01*
X35895844Y-79691089D01*
X35989726Y-79691089D01*
X36044664Y-79689483D01*
X36101060Y-79685255D01*
X36147345Y-79679292D01*
X36150139Y-79678790D01*
X36232348Y-79656736D01*
X36296114Y-79623600D01*
X36343452Y-79577847D01*
X36376382Y-79517939D01*
X36382108Y-79502061D01*
X36387721Y-79477333D01*
X36385291Y-79452902D01*
X36373467Y-79420400D01*
X36366340Y-79404434D01*
X36343000Y-79362006D01*
X36314880Y-79332240D01*
X36283940Y-79311511D01*
X36221966Y-79284537D01*
X36142651Y-79264998D01*
X36050253Y-79253746D01*
X35983333Y-79251270D01*
X35895844Y-79250822D01*
X35895844Y-79691089D01*
X35739225Y-79691089D01*
X35738668Y-79670021D01*
X35738050Y-79609311D01*
X35737825Y-79530526D01*
X35737800Y-79468920D01*
X35737800Y-79159485D01*
X35765509Y-79131776D01*
X35777806Y-79120544D01*
X35791103Y-79112853D01*
X35809672Y-79108040D01*
X35837786Y-79105446D01*
X35879717Y-79104410D01*
X35939737Y-79104270D01*
X35943309Y-79104275D01*
G36*
X38669665Y-79106034D02*
G01*
X38689255Y-79113035D01*
X38690010Y-79113377D01*
X38716613Y-79133678D01*
X38731270Y-79154561D01*
X38734138Y-79164352D01*
X38733996Y-79177361D01*
X38729961Y-79195895D01*
X38721146Y-79222257D01*
X38706669Y-79258752D01*
X38685645Y-79307687D01*
X38657188Y-79371365D01*
X38620415Y-79452093D01*
X38600175Y-79496216D01*
X38563625Y-79574985D01*
X38529315Y-79647423D01*
X38498552Y-79710880D01*
X38472648Y-79762708D01*
X38452910Y-79800259D01*
X38440650Y-79820884D01*
X38438224Y-79823733D01*
X38407183Y-79836302D01*
X38372121Y-79834619D01*
X38344000Y-79819332D01*
X38342854Y-79818089D01*
X38331668Y-79801154D01*
X38312904Y-79768170D01*
X38288875Y-79723380D01*
X38261897Y-79671032D01*
X38252201Y-79651742D01*
X38179014Y-79505150D01*
X38099240Y-79664393D01*
X38070767Y-79719415D01*
X38044350Y-79767132D01*
X38022148Y-79803893D01*
X38006319Y-79826044D01*
X38000954Y-79830741D01*
X37959257Y-79837102D01*
X37924849Y-79823733D01*
X37914728Y-79809446D01*
X37897214Y-79777692D01*
X37873735Y-79731597D01*
X37845720Y-79674285D01*
X37814599Y-79608880D01*
X37781799Y-79538507D01*
X37748750Y-79466291D01*
X37716881Y-79395355D01*
X37687619Y-79328825D01*
X37662395Y-79269826D01*
X37642636Y-79221481D01*
X37629772Y-79186915D01*
X37625231Y-79169253D01*
X37625277Y-79168613D01*
X37636326Y-79146388D01*
X37658410Y-79123753D01*
X37659710Y-79122768D01*
X37686853Y-79107425D01*
X37711958Y-79107574D01*
X37721368Y-79110466D01*
X37732834Y-79116718D01*
X37745010Y-79129014D01*
X37759357Y-79149908D01*
X37777336Y-79181949D01*
X37800407Y-79227688D01*
X37830030Y-79289677D01*
X37856745Y-79346898D01*
X37887480Y-79413226D01*
X37915021Y-79472874D01*
X37937938Y-79522725D01*
X37954798Y-79559664D01*
X37964173Y-79580573D01*
X37965540Y-79583845D01*
X37971689Y-79578497D01*
X37985822Y-79556109D01*
X38006057Y-79519946D01*
X38030515Y-79473277D01*
X38040248Y-79454022D01*
X38073217Y-79389004D01*
X38098643Y-79341654D01*
X38118612Y-79309219D01*
X38135210Y-79288946D01*
X38150524Y-79278082D01*
X38166640Y-79273875D01*
X38177143Y-79273400D01*
X38195670Y-79275042D01*
X38211904Y-79281831D01*
X38228035Y-79296566D01*
X38246251Y-79322044D01*
X38268739Y-79361061D01*
X38297689Y-79416414D01*
X38313662Y-79447903D01*
X38339570Y-79498087D01*
X38362167Y-79539704D01*
X38379458Y-79569242D01*
X38389450Y-79583189D01*
X38390809Y-79583770D01*
X38397261Y-79572793D01*
X38411708Y-79544290D01*
X38432703Y-79501244D01*
X38458797Y-79446638D01*
X38488546Y-79383454D01*
X38503180Y-79352071D01*
X38541250Y-79271078D01*
X38571905Y-79208756D01*
X38596737Y-79163071D01*
X38617337Y-79131989D01*
X38635298Y-79113478D01*
X38652210Y-79105504D01*
X38669665Y-79106034D01*
G37*
X38669665Y-79106034D02*
X38689255Y-79113035D01*
X38690010Y-79113377D01*
X38716613Y-79133678D01*
X38731270Y-79154561D01*
X38734138Y-79164352D01*
X38733996Y-79177361D01*
X38729961Y-79195895D01*
X38721146Y-79222257D01*
X38706669Y-79258752D01*
X38685645Y-79307687D01*
X38657188Y-79371365D01*
X38620415Y-79452093D01*
X38600175Y-79496216D01*
X38563625Y-79574985D01*
X38529315Y-79647423D01*
X38498552Y-79710880D01*
X38472648Y-79762708D01*
X38452910Y-79800259D01*
X38440650Y-79820884D01*
X38438224Y-79823733D01*
X38407183Y-79836302D01*
X38372121Y-79834619D01*
X38344000Y-79819332D01*
X38342854Y-79818089D01*
X38331668Y-79801154D01*
X38312904Y-79768170D01*
X38288875Y-79723380D01*
X38261897Y-79671032D01*
X38252201Y-79651742D01*
X38179014Y-79505150D01*
X38099240Y-79664393D01*
X38070767Y-79719415D01*
X38044350Y-79767132D01*
X38022148Y-79803893D01*
X38006319Y-79826044D01*
X38000954Y-79830741D01*
X37959257Y-79837102D01*
X37924849Y-79823733D01*
X37914728Y-79809446D01*
X37897214Y-79777692D01*
X37873735Y-79731597D01*
X37845720Y-79674285D01*
X37814599Y-79608880D01*
X37781799Y-79538507D01*
X37748750Y-79466291D01*
X37716881Y-79395355D01*
X37687619Y-79328825D01*
X37662395Y-79269826D01*
X37642636Y-79221481D01*
X37629772Y-79186915D01*
X37625231Y-79169253D01*
X37625277Y-79168613D01*
X37636326Y-79146388D01*
X37658410Y-79123753D01*
X37659710Y-79122768D01*
X37686853Y-79107425D01*
X37711958Y-79107574D01*
X37721368Y-79110466D01*
X37732834Y-79116718D01*
X37745010Y-79129014D01*
X37759357Y-79149908D01*
X37777336Y-79181949D01*
X37800407Y-79227688D01*
X37830030Y-79289677D01*
X37856745Y-79346898D01*
X37887480Y-79413226D01*
X37915021Y-79472874D01*
X37937938Y-79522725D01*
X37954798Y-79559664D01*
X37964173Y-79580573D01*
X37965540Y-79583845D01*
X37971689Y-79578497D01*
X37985822Y-79556109D01*
X38006057Y-79519946D01*
X38030515Y-79473277D01*
X38040248Y-79454022D01*
X38073217Y-79389004D01*
X38098643Y-79341654D01*
X38118612Y-79309219D01*
X38135210Y-79288946D01*
X38150524Y-79278082D01*
X38166640Y-79273875D01*
X38177143Y-79273400D01*
X38195670Y-79275042D01*
X38211904Y-79281831D01*
X38228035Y-79296566D01*
X38246251Y-79322044D01*
X38268739Y-79361061D01*
X38297689Y-79416414D01*
X38313662Y-79447903D01*
X38339570Y-79498087D01*
X38362167Y-79539704D01*
X38379458Y-79569242D01*
X38389450Y-79583189D01*
X38390809Y-79583770D01*
X38397261Y-79572793D01*
X38411708Y-79544290D01*
X38432703Y-79501244D01*
X38458797Y-79446638D01*
X38488546Y-79383454D01*
X38503180Y-79352071D01*
X38541250Y-79271078D01*
X38571905Y-79208756D01*
X38596737Y-79163071D01*
X38617337Y-79131989D01*
X38635298Y-79113478D01*
X38652210Y-79105504D01*
X38669665Y-79106034D01*
G36*
X39113614Y-79110877D02*
G01*
X39137327Y-79125647D01*
X39163978Y-79147227D01*
X39163978Y-79468773D01*
X39163893Y-79562830D01*
X39163529Y-79636932D01*
X39162724Y-79693704D01*
X39161313Y-79735768D01*
X39159133Y-79765748D01*
X39156021Y-79786267D01*
X39151814Y-79799949D01*
X39146348Y-79809416D01*
X39142472Y-79814082D01*
X39111034Y-79834575D01*
X39075233Y-79833739D01*
X39043873Y-79816264D01*
X39017222Y-79794684D01*
X39017222Y-79147227D01*
X39043873Y-79125647D01*
X39069594Y-79109949D01*
X39090600Y-79104067D01*
X39113614Y-79110877D01*
G37*
X39113614Y-79110877D02*
X39137327Y-79125647D01*
X39163978Y-79147227D01*
X39163978Y-79468773D01*
X39163893Y-79562830D01*
X39163529Y-79636932D01*
X39162724Y-79693704D01*
X39161313Y-79735768D01*
X39159133Y-79765748D01*
X39156021Y-79786267D01*
X39151814Y-79799949D01*
X39146348Y-79809416D01*
X39142472Y-79814082D01*
X39111034Y-79834575D01*
X39075233Y-79833739D01*
X39043873Y-79816264D01*
X39017222Y-79794684D01*
X39017222Y-79147227D01*
X39043873Y-79125647D01*
X39069594Y-79109949D01*
X39090600Y-79104067D01*
X39113614Y-79110877D01*
G36*
X39888065Y-79104163D02*
G01*
X39966772Y-79104542D01*
X40027863Y-79105333D01*
X40073817Y-79106670D01*
X40107114Y-79108683D01*
X40130236Y-79111506D01*
X40145662Y-79115269D01*
X40155871Y-79120105D01*
X40160813Y-79123822D01*
X40186457Y-79156358D01*
X40189559Y-79190138D01*
X40173711Y-79220826D01*
X40163348Y-79233089D01*
X40152196Y-79241450D01*
X40136035Y-79246657D01*
X40110642Y-79249457D01*
X40071798Y-79250596D01*
X40015280Y-79250821D01*
X40004180Y-79250822D01*
X39858244Y-79250822D01*
X39858244Y-79521756D01*
X39858148Y-79607154D01*
X39857711Y-79672864D01*
X39856712Y-79721774D01*
X39854928Y-79756773D01*
X39852137Y-79780749D01*
X39848117Y-79796593D01*
X39842645Y-79807191D01*
X39835666Y-79815267D01*
X39802734Y-79835112D01*
X39768354Y-79833548D01*
X39737176Y-79810906D01*
X39734886Y-79808100D01*
X39727429Y-79797492D01*
X39721747Y-79785081D01*
X39717601Y-79767850D01*
X39714750Y-79742784D01*
X39712954Y-79706867D01*
X39711972Y-79657083D01*
X39711564Y-79590417D01*
X39711489Y-79514589D01*
X39711489Y-79250822D01*
X39572127Y-79250822D01*
X39512322Y-79250418D01*
X39470918Y-79248840D01*
X39443748Y-79245547D01*
X39426646Y-79239992D01*
X39415443Y-79231631D01*
X39414083Y-79230178D01*
X39397725Y-79196939D01*
X39399172Y-79159362D01*
X39417978Y-79126645D01*
X39425250Y-79120298D01*
X39434627Y-79115266D01*
X39448609Y-79111396D01*
X39469696Y-79108537D01*
X39500389Y-79106535D01*
X39543189Y-79105239D01*
X39600595Y-79104498D01*
X39675110Y-79104158D01*
X39769233Y-79104068D01*
X39789260Y-79104067D01*
X39888065Y-79104163D01*
G37*
X39888065Y-79104163D02*
X39966772Y-79104542D01*
X40027863Y-79105333D01*
X40073817Y-79106670D01*
X40107114Y-79108683D01*
X40130236Y-79111506D01*
X40145662Y-79115269D01*
X40155871Y-79120105D01*
X40160813Y-79123822D01*
X40186457Y-79156358D01*
X40189559Y-79190138D01*
X40173711Y-79220826D01*
X40163348Y-79233089D01*
X40152196Y-79241450D01*
X40136035Y-79246657D01*
X40110642Y-79249457D01*
X40071798Y-79250596D01*
X40015280Y-79250821D01*
X40004180Y-79250822D01*
X39858244Y-79250822D01*
X39858244Y-79521756D01*
X39858148Y-79607154D01*
X39857711Y-79672864D01*
X39856712Y-79721774D01*
X39854928Y-79756773D01*
X39852137Y-79780749D01*
X39848117Y-79796593D01*
X39842645Y-79807191D01*
X39835666Y-79815267D01*
X39802734Y-79835112D01*
X39768354Y-79833548D01*
X39737176Y-79810906D01*
X39734886Y-79808100D01*
X39727429Y-79797492D01*
X39721747Y-79785081D01*
X39717601Y-79767850D01*
X39714750Y-79742784D01*
X39712954Y-79706867D01*
X39711972Y-79657083D01*
X39711564Y-79590417D01*
X39711489Y-79514589D01*
X39711489Y-79250822D01*
X39572127Y-79250822D01*
X39512322Y-79250418D01*
X39470918Y-79248840D01*
X39443748Y-79245547D01*
X39426646Y-79239992D01*
X39415443Y-79231631D01*
X39414083Y-79230178D01*
X39397725Y-79196939D01*
X39399172Y-79159362D01*
X39417978Y-79126645D01*
X39425250Y-79120298D01*
X39434627Y-79115266D01*
X39448609Y-79111396D01*
X39469696Y-79108537D01*
X39500389Y-79106535D01*
X39543189Y-79105239D01*
X39600595Y-79104498D01*
X39675110Y-79104158D01*
X39769233Y-79104068D01*
X39789260Y-79104067D01*
X39888065Y-79104163D01*
G36*
X41153823Y-79109533D02*
G01*
X41185202Y-79131776D01*
X41212911Y-79159485D01*
X41212911Y-79468920D01*
X41212838Y-79560799D01*
X41212495Y-79632840D01*
X41211692Y-79687780D01*
X41210241Y-79728360D01*
X41207952Y-79757317D01*
X41204636Y-79777391D01*
X41200105Y-79791321D01*
X41194169Y-79801845D01*
X41189514Y-79808100D01*
X41158783Y-79832673D01*
X41123496Y-79835341D01*
X41091245Y-79820271D01*
X41080588Y-79811374D01*
X41073464Y-79799557D01*
X41069167Y-79780526D01*
X41066991Y-79749992D01*
X41066228Y-79703662D01*
X41066155Y-79667871D01*
X41066155Y-79533045D01*
X40569444Y-79533045D01*
X40569444Y-79655700D01*
X40568931Y-79711787D01*
X40566876Y-79750333D01*
X40562508Y-79776361D01*
X40555056Y-79794897D01*
X40546047Y-79808100D01*
X40515144Y-79832604D01*
X40480196Y-79835506D01*
X40446738Y-79818089D01*
X40437604Y-79808959D01*
X40431152Y-79796855D01*
X40426897Y-79778001D01*
X40424352Y-79748620D01*
X40423029Y-79704937D01*
X40422443Y-79643175D01*
X40422375Y-79629000D01*
X40421891Y-79512631D01*
X40421641Y-79416727D01*
X40421723Y-79339177D01*
X40422231Y-79277869D01*
X40423262Y-79230690D01*
X40424913Y-79195530D01*
X40427279Y-79170276D01*
X40430457Y-79152817D01*
X40434544Y-79141041D01*
X40439634Y-79132835D01*
X40445266Y-79126645D01*
X40477128Y-79106844D01*
X40510357Y-79109533D01*
X40541735Y-79131776D01*
X40554433Y-79146126D01*
X40562526Y-79161978D01*
X40567042Y-79184554D01*
X40569006Y-79219078D01*
X40569444Y-79270776D01*
X40569444Y-79386289D01*
X41066155Y-79386289D01*
X41066155Y-79267756D01*
X41066662Y-79213148D01*
X41068698Y-79176275D01*
X41073035Y-79152307D01*
X41080447Y-79136415D01*
X41088733Y-79126645D01*
X41120594Y-79106844D01*
X41153823Y-79109533D01*
G37*
X41153823Y-79109533D02*
X41185202Y-79131776D01*
X41212911Y-79159485D01*
X41212911Y-79468920D01*
X41212838Y-79560799D01*
X41212495Y-79632840D01*
X41211692Y-79687780D01*
X41210241Y-79728360D01*
X41207952Y-79757317D01*
X41204636Y-79777391D01*
X41200105Y-79791321D01*
X41194169Y-79801845D01*
X41189514Y-79808100D01*
X41158783Y-79832673D01*
X41123496Y-79835341D01*
X41091245Y-79820271D01*
X41080588Y-79811374D01*
X41073464Y-79799557D01*
X41069167Y-79780526D01*
X41066991Y-79749992D01*
X41066228Y-79703662D01*
X41066155Y-79667871D01*
X41066155Y-79533045D01*
X40569444Y-79533045D01*
X40569444Y-79655700D01*
X40568931Y-79711787D01*
X40566876Y-79750333D01*
X40562508Y-79776361D01*
X40555056Y-79794897D01*
X40546047Y-79808100D01*
X40515144Y-79832604D01*
X40480196Y-79835506D01*
X40446738Y-79818089D01*
X40437604Y-79808959D01*
X40431152Y-79796855D01*
X40426897Y-79778001D01*
X40424352Y-79748620D01*
X40423029Y-79704937D01*
X40422443Y-79643175D01*
X40422375Y-79629000D01*
X40421891Y-79512631D01*
X40421641Y-79416727D01*
X40421723Y-79339177D01*
X40422231Y-79277869D01*
X40423262Y-79230690D01*
X40424913Y-79195530D01*
X40427279Y-79170276D01*
X40430457Y-79152817D01*
X40434544Y-79141041D01*
X40439634Y-79132835D01*
X40445266Y-79126645D01*
X40477128Y-79106844D01*
X40510357Y-79109533D01*
X40541735Y-79131776D01*
X40554433Y-79146126D01*
X40562526Y-79161978D01*
X40567042Y-79184554D01*
X40569006Y-79219078D01*
X40569444Y-79270776D01*
X40569444Y-79386289D01*
X41066155Y-79386289D01*
X41066155Y-79267756D01*
X41066662Y-79213148D01*
X41068698Y-79176275D01*
X41073035Y-79152307D01*
X41080447Y-79136415D01*
X41088733Y-79126645D01*
X41120594Y-79106844D01*
X41153823Y-79109533D01*
D12*
%TO.C,C1*%
X60883748Y-50440000D02*
X62306252Y-50440000D01*
X60883748Y-48620000D02*
X62306252Y-48620000D01*
%TO.C,C2*%
X61036252Y-36470000D02*
X59613748Y-36470000D01*
X61036252Y-34650000D02*
X59613748Y-34650000D01*
%TO.C,J1*%
X28840000Y-15720000D02*
X28840000Y-18320000D01*
X14140000Y-15720000D02*
X28840000Y-15720000D01*
X28840000Y-24920000D02*
X26940000Y-24920000D01*
X28840000Y-22220000D02*
X28840000Y-24920000D01*
X14140000Y-24920000D02*
X14140000Y-15720000D01*
X22940000Y-24920000D02*
X14140000Y-24920000D01*
X27990000Y-15520000D02*
X29040000Y-15520000D01*
X29040000Y-16570000D02*
X29040000Y-15520000D01*
%TO.C,U1*%
X78165000Y-44795000D02*
X78165000Y-43545000D01*
X42485000Y-44795000D02*
X78165000Y-44795000D01*
X42485000Y-40295000D02*
X42485000Y-44795000D01*
X78165000Y-40295000D02*
X42485000Y-40295000D01*
X78165000Y-41545000D02*
X78165000Y-40295000D01*
X78165000Y-43545000D02*
G75*
G02*
X78165000Y-41545000I0J1000000D01*
G01*
%TO.C,C3*%
X59631252Y-25935000D02*
X59108748Y-25935000D01*
X59631252Y-27405000D02*
X59108748Y-27405000D01*
%TO.C,C4*%
X53713748Y-25935000D02*
X54236252Y-25935000D01*
X53713748Y-27405000D02*
X54236252Y-27405000D01*
%TO.C,R1*%
X54740436Y-36295000D02*
X55194564Y-36295000D01*
X54740436Y-34825000D02*
X55194564Y-34825000D01*
%TO.C,C5*%
X15320000Y-30010000D02*
X15320000Y-31010000D01*
X14820000Y-30510000D02*
X15820000Y-30510000D01*
X16060000Y-36215563D02*
X17124437Y-37280000D01*
X16060000Y-29824437D02*
X17124437Y-28760000D01*
X16060000Y-29824437D02*
X16060000Y-31510000D01*
X16060000Y-36215563D02*
X16060000Y-34530000D01*
X17124437Y-37280000D02*
X24580000Y-37280000D01*
X17124437Y-28760000D02*
X24580000Y-28760000D01*
X24580000Y-28760000D02*
X24580000Y-31510000D01*
X24580000Y-37280000D02*
X24580000Y-34530000D01*
%TO.C,C6*%
X24580000Y-60140000D02*
X24580000Y-57390000D01*
X24580000Y-51620000D02*
X24580000Y-54370000D01*
X17124437Y-51620000D02*
X24580000Y-51620000D01*
X17124437Y-60140000D02*
X24580000Y-60140000D01*
X16060000Y-59075563D02*
X16060000Y-57390000D01*
X16060000Y-52684437D02*
X16060000Y-54370000D01*
X16060000Y-52684437D02*
X17124437Y-51620000D01*
X16060000Y-59075563D02*
X17124437Y-60140000D01*
X14820000Y-53370000D02*
X15820000Y-53370000D01*
X15320000Y-52870000D02*
X15320000Y-53870000D01*
%TO.C,C7*%
X37190000Y-71043748D02*
X37190000Y-72466252D01*
X39010000Y-71043748D02*
X39010000Y-72466252D01*
%TO.C,L1*%
X25620000Y-49750000D02*
X22420000Y-49750000D01*
X25620000Y-39150000D02*
X25620000Y-49750000D01*
X22420000Y-39150000D02*
X25620000Y-39150000D01*
X15020000Y-39150000D02*
X18220000Y-39150000D01*
X15020000Y-49750000D02*
X15020000Y-39150000D01*
X18220000Y-49750000D02*
X15020000Y-49750000D01*
%TO.C,R2*%
X44857936Y-64670000D02*
X45312064Y-64670000D01*
X44857936Y-66140000D02*
X45312064Y-66140000D01*
%TO.C,R3*%
X44857936Y-77570000D02*
X45312064Y-77570000D01*
X44857936Y-76100000D02*
X45312064Y-76100000D01*
%TO.C,C8*%
X79100000Y-71043748D02*
X79100000Y-72466252D01*
X80920000Y-71043748D02*
X80920000Y-72466252D01*
%TO.C,C9*%
X52980000Y-71043748D02*
X52980000Y-72466252D01*
X51160000Y-71043748D02*
X51160000Y-72466252D01*
%TO.C,C10*%
X66950000Y-71043748D02*
X66950000Y-72466252D01*
X65130000Y-71043748D02*
X65130000Y-72466252D01*
%TO.C,C11*%
X31475000Y-18543748D02*
X31475000Y-19966252D01*
X33295000Y-18543748D02*
X33295000Y-19966252D01*
%TO.C,D1*%
X27615000Y-33290000D02*
X27615000Y-35975000D01*
X27615000Y-35975000D02*
X29535000Y-35975000D01*
X29535000Y-35975000D02*
X29535000Y-33290000D01*
%TO.C,D2*%
X49115000Y-50490000D02*
X51800000Y-50490000D01*
X49115000Y-48570000D02*
X49115000Y-50490000D01*
X51800000Y-48570000D02*
X49115000Y-48570000D01*
%TO.C,J2*%
X39385000Y-21865000D02*
X38560000Y-21865000D01*
X49515000Y-21865000D02*
X49515000Y-23665000D01*
X50340000Y-21865000D02*
X49515000Y-21865000D01*
X52495000Y-17355000D02*
X52495000Y-17895000D01*
X53520000Y-17355000D02*
X52495000Y-17355000D01*
X53520000Y-16245000D02*
X53520000Y-17355000D01*
X35380000Y-16245000D02*
X53520000Y-16245000D01*
X35380000Y-17355000D02*
X35380000Y-16245000D01*
X36405000Y-17355000D02*
X35380000Y-17355000D01*
X36405000Y-17895000D02*
X36405000Y-17355000D01*
%TO.C,R4*%
X86767936Y-66140000D02*
X87222064Y-66140000D01*
X86767936Y-64670000D02*
X87222064Y-64670000D01*
%TO.C,R5*%
X86767936Y-76100000D02*
X87222064Y-76100000D01*
X86767936Y-77570000D02*
X87222064Y-77570000D01*
%TO.C,R6*%
X58827936Y-64670000D02*
X59282064Y-64670000D01*
X58827936Y-66140000D02*
X59282064Y-66140000D01*
%TO.C,R7*%
X58827936Y-77570000D02*
X59282064Y-77570000D01*
X58827936Y-76100000D02*
X59282064Y-76100000D01*
%TO.C,R8*%
X72797936Y-64670000D02*
X73252064Y-64670000D01*
X72797936Y-66140000D02*
X73252064Y-66140000D01*
%TO.C,R9*%
X72797936Y-77570000D02*
X73252064Y-77570000D01*
X72797936Y-76100000D02*
X73252064Y-76100000D01*
%TO.C,R10*%
X29310000Y-29437064D02*
X29310000Y-28982936D01*
X27840000Y-29437064D02*
X27840000Y-28982936D01*
%TO.C,R11*%
X55017936Y-48795000D02*
X55472064Y-48795000D01*
X55017936Y-50265000D02*
X55472064Y-50265000D01*
%TO.C,RV1*%
X41700000Y-25595000D02*
X41700000Y-35365000D01*
X31930000Y-25595000D02*
X31930000Y-35365000D01*
X31930000Y-35365000D02*
X41700000Y-35365000D01*
X31930000Y-25595000D02*
X41700000Y-25595000D01*
%TO.C,C12*%
X71831252Y-29485000D02*
X70408748Y-29485000D01*
X71831252Y-27665000D02*
X70408748Y-27665000D01*
%TO.C,C13*%
X87071252Y-27665000D02*
X85648748Y-27665000D01*
X87071252Y-29485000D02*
X85648748Y-29485000D01*
%TO.C,C14*%
X87071252Y-45995000D02*
X85648748Y-45995000D01*
X87071252Y-44175000D02*
X85648748Y-44175000D01*
%TO.C,C15*%
X87071252Y-60050000D02*
X85648748Y-60050000D01*
X87071252Y-61870000D02*
X85648748Y-61870000D01*
%TO.C,R12*%
X76607936Y-29310000D02*
X77062064Y-29310000D01*
X76607936Y-27840000D02*
X77062064Y-27840000D01*
%TO.C,R13*%
X81507064Y-29310000D02*
X81052936Y-29310000D01*
X81507064Y-27840000D02*
X81052936Y-27840000D01*
%TO.C,R14*%
X79475000Y-21182064D02*
X79475000Y-20727936D01*
X78005000Y-21182064D02*
X78005000Y-20727936D01*
%TO.C,R15*%
X81507064Y-44350000D02*
X81052936Y-44350000D01*
X81507064Y-45820000D02*
X81052936Y-45820000D01*
%TO.C,R16*%
X76607936Y-51970000D02*
X77062064Y-51970000D01*
X76607936Y-53440000D02*
X77062064Y-53440000D01*
%TO.C,R17*%
X76607936Y-54510000D02*
X77062064Y-54510000D01*
X76607936Y-55980000D02*
X77062064Y-55980000D01*
%TO.C,U2*%
X73370000Y-16450000D02*
X72120000Y-16450000D01*
X73370000Y-26730000D02*
X73370000Y-16450000D01*
X68870000Y-26730000D02*
X73370000Y-26730000D01*
X68870000Y-16450000D02*
X68870000Y-26730000D01*
X70120000Y-16450000D02*
X68870000Y-16450000D01*
X72120000Y-16450000D02*
G75*
G02*
X70120000Y-16450000I-1000000J0D01*
G01*
%TO.C,U3*%
X85360000Y-16450000D02*
X84110000Y-16450000D01*
X84110000Y-16450000D02*
X84110000Y-26730000D01*
X84110000Y-26730000D02*
X88610000Y-26730000D01*
X88610000Y-26730000D02*
X88610000Y-16450000D01*
X88610000Y-16450000D02*
X87360000Y-16450000D01*
X87360000Y-16450000D02*
G75*
G02*
X85360000Y-16450000I-1000000J0D01*
G01*
%TO.C,U4*%
X88610000Y-32960000D02*
X87360000Y-32960000D01*
X88610000Y-43240000D02*
X88610000Y-32960000D01*
X84110000Y-43240000D02*
X88610000Y-43240000D01*
X84110000Y-32960000D02*
X84110000Y-43240000D01*
X85360000Y-32960000D02*
X84110000Y-32960000D01*
X87360000Y-32960000D02*
G75*
G02*
X85360000Y-32960000I-1000000J0D01*
G01*
%TO.C,U5*%
X85360000Y-48835000D02*
X84110000Y-48835000D01*
X84110000Y-48835000D02*
X84110000Y-59115000D01*
X84110000Y-59115000D02*
X88610000Y-59115000D01*
X88610000Y-59115000D02*
X88610000Y-48835000D01*
X88610000Y-48835000D02*
X87360000Y-48835000D01*
X87360000Y-48835000D02*
G75*
G02*
X85360000Y-48835000I-1000000J0D01*
G01*
%TO.C,SW1*%
X42910000Y-74715000D02*
X47410000Y-74715000D01*
X41660000Y-70715000D02*
X41660000Y-72215000D01*
X47410000Y-68215000D02*
X42910000Y-68215000D01*
X48660000Y-72215000D02*
X48660000Y-70715000D01*
%TO.C,SW2*%
X90570000Y-72215000D02*
X90570000Y-70715000D01*
X89320000Y-68215000D02*
X84820000Y-68215000D01*
X83570000Y-70715000D02*
X83570000Y-72215000D01*
X84820000Y-74715000D02*
X89320000Y-74715000D01*
%TO.C,SW3*%
X56880000Y-74715000D02*
X61380000Y-74715000D01*
X55630000Y-70715000D02*
X55630000Y-72215000D01*
X61380000Y-68215000D02*
X56880000Y-68215000D01*
X62630000Y-72215000D02*
X62630000Y-70715000D01*
%TO.C,SW4*%
X76600000Y-72215000D02*
X76600000Y-70715000D01*
X75350000Y-68215000D02*
X70850000Y-68215000D01*
X69600000Y-70715000D02*
X69600000Y-72215000D01*
X70850000Y-74715000D02*
X75350000Y-74715000D01*
%TO.C,C16*%
X58695000Y-57861252D02*
X58695000Y-56438748D01*
X56875000Y-57861252D02*
X56875000Y-56438748D01*
%TO.C,C17*%
X68855000Y-56438748D02*
X68855000Y-57861252D01*
X67035000Y-56438748D02*
X67035000Y-57861252D01*
%TO.C,C18*%
X36271252Y-45360000D02*
X34848748Y-45360000D01*
X36271252Y-43540000D02*
X34848748Y-43540000D01*
%TO.C,C19*%
X44725000Y-57861252D02*
X44725000Y-56438748D01*
X42905000Y-57861252D02*
X42905000Y-56438748D01*
%TO.C,D3*%
X30045000Y-51890000D02*
X27105000Y-51890000D01*
X27105000Y-51890000D02*
X27105000Y-57330000D01*
X27105000Y-57330000D02*
X30045000Y-57330000D01*
X30045000Y-57330000D02*
X30045000Y-51890000D01*
X28575000Y-50870000D02*
X28575000Y-51890000D01*
X28575000Y-58350000D02*
X28575000Y-57330000D01*
X30045000Y-52790000D02*
X27105000Y-52790000D01*
X30045000Y-52910000D02*
X27105000Y-52910000D01*
X30045000Y-52670000D02*
X27105000Y-52670000D01*
%TO.C,D4*%
X19650000Y-74730000D02*
X19650000Y-77670000D01*
X19890000Y-74730000D02*
X19890000Y-77670000D01*
X19770000Y-74730000D02*
X19770000Y-77670000D01*
X25330000Y-76200000D02*
X24310000Y-76200000D01*
X17850000Y-76200000D02*
X18870000Y-76200000D01*
X24310000Y-74730000D02*
X18870000Y-74730000D01*
X24310000Y-77670000D02*
X24310000Y-74730000D01*
X18870000Y-77670000D02*
X24310000Y-77670000D01*
X18870000Y-74730000D02*
X18870000Y-77670000D01*
%TO.C,D5*%
X18870000Y-62030000D02*
X18870000Y-64970000D01*
X18870000Y-64970000D02*
X24310000Y-64970000D01*
X24310000Y-64970000D02*
X24310000Y-62030000D01*
X24310000Y-62030000D02*
X18870000Y-62030000D01*
X17850000Y-63500000D02*
X18870000Y-63500000D01*
X25330000Y-63500000D02*
X24310000Y-63500000D01*
X19770000Y-62030000D02*
X19770000Y-64970000D01*
X19890000Y-62030000D02*
X19890000Y-64970000D01*
X19650000Y-62030000D02*
X19650000Y-64970000D01*
%TO.C,J3*%
X15180000Y-73720000D02*
X17840000Y-73720000D01*
X15180000Y-68580000D02*
X15180000Y-73720000D01*
X17840000Y-68580000D02*
X17840000Y-73720000D01*
X15180000Y-68580000D02*
X17840000Y-68580000D01*
X15180000Y-67310000D02*
X15180000Y-65980000D01*
X15180000Y-65980000D02*
X16510000Y-65980000D01*
%TO.C,R18*%
X39905000Y-40232064D02*
X39905000Y-39777936D01*
X41375000Y-40232064D02*
X41375000Y-39777936D01*
%TO.C,R19*%
X27665000Y-41367064D02*
X27665000Y-39912936D01*
X29485000Y-41367064D02*
X29485000Y-39912936D01*
%TO.C,R20*%
X31945000Y-59417936D02*
X31945000Y-63772064D01*
X35365000Y-59417936D02*
X35365000Y-63772064D01*
%TO.C,R21*%
X41080000Y-59417936D02*
X41080000Y-63772064D01*
X37660000Y-59417936D02*
X37660000Y-63772064D01*
%TO.C,R22*%
X31945000Y-50527936D02*
X31945000Y-54882064D01*
X35365000Y-50527936D02*
X35365000Y-54882064D01*
%TO.C,R23*%
X41080000Y-50527936D02*
X41080000Y-54882064D01*
X37660000Y-50527936D02*
X37660000Y-54882064D01*
%TO.C,Q1*%
X33760000Y-42490000D02*
X37360000Y-42490000D01*
X33721522Y-42478478D02*
G75*
G02*
X35560000Y-38040000I1838478J1838478D01*
G01*
X37398478Y-42478478D02*
G75*
G03*
X35560000Y-38040000I-1838478J1838478D01*
G01*
%TO.C,Y1*%
X59815000Y-28590000D02*
X53415000Y-28590000D01*
X59815000Y-33640000D02*
X53415000Y-33640000D01*
X59815000Y-28590000D02*
G75*
G02*
X59815000Y-33640000I0J-2525000D01*
G01*
X53415000Y-28590000D02*
G75*
G03*
X53415000Y-33640000I0J-2525000D01*
G01*
%TO.C,DD1*%
X55455000Y-53500000D02*
X54305000Y-53500000D01*
X55455000Y-60800000D02*
X55455000Y-53500000D01*
X49955000Y-60800000D02*
X49955000Y-53500000D01*
%TO.C,DD2*%
X60115000Y-60800000D02*
X60115000Y-53500000D01*
X65615000Y-60800000D02*
X65615000Y-53500000D01*
X65615000Y-53500000D02*
X64465000Y-53500000D01*
%TO.C, *%
D10*
%TO.C,C1*%
X61428333Y-48037142D02*
X61380714Y-48084761D01*
X61237857Y-48132380D01*
X61142619Y-48132380D01*
X60999761Y-48084761D01*
X60904523Y-47989523D01*
X60856904Y-47894285D01*
X60809285Y-47703809D01*
X60809285Y-47560952D01*
X60856904Y-47370476D01*
X60904523Y-47275238D01*
X60999761Y-47180000D01*
X61142619Y-47132380D01*
X61237857Y-47132380D01*
X61380714Y-47180000D01*
X61428333Y-47227619D01*
X62380714Y-48132380D02*
X61809285Y-48132380D01*
X62095000Y-48132380D02*
X62095000Y-47132380D01*
X61999761Y-47275238D01*
X61904523Y-47370476D01*
X61809285Y-47418095D01*
%TO.C,C2*%
X63333333Y-35917142D02*
X63285714Y-35964761D01*
X63142857Y-36012380D01*
X63047619Y-36012380D01*
X62904761Y-35964761D01*
X62809523Y-35869523D01*
X62761904Y-35774285D01*
X62714285Y-35583809D01*
X62714285Y-35440952D01*
X62761904Y-35250476D01*
X62809523Y-35155238D01*
X62904761Y-35060000D01*
X63047619Y-35012380D01*
X63142857Y-35012380D01*
X63285714Y-35060000D01*
X63333333Y-35107619D01*
X63714285Y-35107619D02*
X63761904Y-35060000D01*
X63857142Y-35012380D01*
X64095238Y-35012380D01*
X64190476Y-35060000D01*
X64238095Y-35107619D01*
X64285714Y-35202857D01*
X64285714Y-35298095D01*
X64238095Y-35440952D01*
X63666666Y-36012380D01*
X64285714Y-36012380D01*
%TO.C,J1*%
X19156666Y-25522380D02*
X19156666Y-26236666D01*
X19109047Y-26379523D01*
X19013809Y-26474761D01*
X18870952Y-26522380D01*
X18775714Y-26522380D01*
X20156666Y-26522380D02*
X19585238Y-26522380D01*
X19870952Y-26522380D02*
X19870952Y-25522380D01*
X19775714Y-25665238D01*
X19680476Y-25760476D01*
X19585238Y-25808095D01*
%TO.C,U1*%
X78617380Y-43306904D02*
X79426904Y-43306904D01*
X79522142Y-43259285D01*
X79569761Y-43211666D01*
X79617380Y-43116428D01*
X79617380Y-42925952D01*
X79569761Y-42830714D01*
X79522142Y-42783095D01*
X79426904Y-42735476D01*
X78617380Y-42735476D01*
X79617380Y-41735476D02*
X79617380Y-42306904D01*
X79617380Y-42021190D02*
X78617380Y-42021190D01*
X78760238Y-42116428D01*
X78855476Y-42211666D01*
X78903095Y-42306904D01*
%TO.C,C3*%
X59203333Y-25122142D02*
X59155714Y-25169761D01*
X59012857Y-25217380D01*
X58917619Y-25217380D01*
X58774761Y-25169761D01*
X58679523Y-25074523D01*
X58631904Y-24979285D01*
X58584285Y-24788809D01*
X58584285Y-24645952D01*
X58631904Y-24455476D01*
X58679523Y-24360238D01*
X58774761Y-24265000D01*
X58917619Y-24217380D01*
X59012857Y-24217380D01*
X59155714Y-24265000D01*
X59203333Y-24312619D01*
X59536666Y-24217380D02*
X60155714Y-24217380D01*
X59822380Y-24598333D01*
X59965238Y-24598333D01*
X60060476Y-24645952D01*
X60108095Y-24693571D01*
X60155714Y-24788809D01*
X60155714Y-25026904D01*
X60108095Y-25122142D01*
X60060476Y-25169761D01*
X59965238Y-25217380D01*
X59679523Y-25217380D01*
X59584285Y-25169761D01*
X59536666Y-25122142D01*
%TO.C,C4*%
X53808333Y-25122142D02*
X53760714Y-25169761D01*
X53617857Y-25217380D01*
X53522619Y-25217380D01*
X53379761Y-25169761D01*
X53284523Y-25074523D01*
X53236904Y-24979285D01*
X53189285Y-24788809D01*
X53189285Y-24645952D01*
X53236904Y-24455476D01*
X53284523Y-24360238D01*
X53379761Y-24265000D01*
X53522619Y-24217380D01*
X53617857Y-24217380D01*
X53760714Y-24265000D01*
X53808333Y-24312619D01*
X54665476Y-24550714D02*
X54665476Y-25217380D01*
X54427380Y-24169761D02*
X54189285Y-24884047D01*
X54808333Y-24884047D01*
%TO.C,R1*%
X51903333Y-36012380D02*
X51570000Y-35536190D01*
X51331904Y-36012380D02*
X51331904Y-35012380D01*
X51712857Y-35012380D01*
X51808095Y-35060000D01*
X51855714Y-35107619D01*
X51903333Y-35202857D01*
X51903333Y-35345714D01*
X51855714Y-35440952D01*
X51808095Y-35488571D01*
X51712857Y-35536190D01*
X51331904Y-35536190D01*
X52855714Y-36012380D02*
X52284285Y-36012380D01*
X52570000Y-36012380D02*
X52570000Y-35012380D01*
X52474761Y-35155238D01*
X52379523Y-35250476D01*
X52284285Y-35298095D01*
%TO.C,C5*%
X20153333Y-28177142D02*
X20105714Y-28224761D01*
X19962857Y-28272380D01*
X19867619Y-28272380D01*
X19724761Y-28224761D01*
X19629523Y-28129523D01*
X19581904Y-28034285D01*
X19534285Y-27843809D01*
X19534285Y-27700952D01*
X19581904Y-27510476D01*
X19629523Y-27415238D01*
X19724761Y-27320000D01*
X19867619Y-27272380D01*
X19962857Y-27272380D01*
X20105714Y-27320000D01*
X20153333Y-27367619D01*
X21058095Y-27272380D02*
X20581904Y-27272380D01*
X20534285Y-27748571D01*
X20581904Y-27700952D01*
X20677142Y-27653333D01*
X20915238Y-27653333D01*
X21010476Y-27700952D01*
X21058095Y-27748571D01*
X21105714Y-27843809D01*
X21105714Y-28081904D01*
X21058095Y-28177142D01*
X21010476Y-28224761D01*
X20915238Y-28272380D01*
X20677142Y-28272380D01*
X20581904Y-28224761D01*
X20534285Y-28177142D01*
%TO.C,C6*%
X20153333Y-51037142D02*
X20105714Y-51084761D01*
X19962857Y-51132380D01*
X19867619Y-51132380D01*
X19724761Y-51084761D01*
X19629523Y-50989523D01*
X19581904Y-50894285D01*
X19534285Y-50703809D01*
X19534285Y-50560952D01*
X19581904Y-50370476D01*
X19629523Y-50275238D01*
X19724761Y-50180000D01*
X19867619Y-50132380D01*
X19962857Y-50132380D01*
X20105714Y-50180000D01*
X20153333Y-50227619D01*
X21010476Y-50132380D02*
X20820000Y-50132380D01*
X20724761Y-50180000D01*
X20677142Y-50227619D01*
X20581904Y-50370476D01*
X20534285Y-50560952D01*
X20534285Y-50941904D01*
X20581904Y-51037142D01*
X20629523Y-51084761D01*
X20724761Y-51132380D01*
X20915238Y-51132380D01*
X21010476Y-51084761D01*
X21058095Y-51037142D01*
X21105714Y-50941904D01*
X21105714Y-50703809D01*
X21058095Y-50608571D01*
X21010476Y-50560952D01*
X20915238Y-50513333D01*
X20724761Y-50513333D01*
X20629523Y-50560952D01*
X20581904Y-50608571D01*
X20534285Y-50703809D01*
%TO.C,C7*%
X40307142Y-71921666D02*
X40354761Y-71969285D01*
X40402380Y-72112142D01*
X40402380Y-72207380D01*
X40354761Y-72350238D01*
X40259523Y-72445476D01*
X40164285Y-72493095D01*
X39973809Y-72540714D01*
X39830952Y-72540714D01*
X39640476Y-72493095D01*
X39545238Y-72445476D01*
X39450000Y-72350238D01*
X39402380Y-72207380D01*
X39402380Y-72112142D01*
X39450000Y-71969285D01*
X39497619Y-71921666D01*
X39402380Y-71588333D02*
X39402380Y-70921666D01*
X40402380Y-71350238D01*
%TO.C,L1*%
X27122380Y-44616666D02*
X27122380Y-45092857D01*
X26122380Y-45092857D01*
X27122380Y-43759523D02*
X27122380Y-44330952D01*
X27122380Y-44045238D02*
X26122380Y-44045238D01*
X26265238Y-44140476D01*
X26360476Y-44235714D01*
X26408095Y-44330952D01*
%TO.C,R2*%
X44918333Y-64207380D02*
X44585000Y-63731190D01*
X44346904Y-64207380D02*
X44346904Y-63207380D01*
X44727857Y-63207380D01*
X44823095Y-63255000D01*
X44870714Y-63302619D01*
X44918333Y-63397857D01*
X44918333Y-63540714D01*
X44870714Y-63635952D01*
X44823095Y-63683571D01*
X44727857Y-63731190D01*
X44346904Y-63731190D01*
X45299285Y-63302619D02*
X45346904Y-63255000D01*
X45442142Y-63207380D01*
X45680238Y-63207380D01*
X45775476Y-63255000D01*
X45823095Y-63302619D01*
X45870714Y-63397857D01*
X45870714Y-63493095D01*
X45823095Y-63635952D01*
X45251666Y-64207380D01*
X45870714Y-64207380D01*
%TO.C,R3*%
X44918333Y-79192380D02*
X44585000Y-78716190D01*
X44346904Y-79192380D02*
X44346904Y-78192380D01*
X44727857Y-78192380D01*
X44823095Y-78240000D01*
X44870714Y-78287619D01*
X44918333Y-78382857D01*
X44918333Y-78525714D01*
X44870714Y-78620952D01*
X44823095Y-78668571D01*
X44727857Y-78716190D01*
X44346904Y-78716190D01*
X45251666Y-78192380D02*
X45870714Y-78192380D01*
X45537380Y-78573333D01*
X45680238Y-78573333D01*
X45775476Y-78620952D01*
X45823095Y-78668571D01*
X45870714Y-78763809D01*
X45870714Y-79001904D01*
X45823095Y-79097142D01*
X45775476Y-79144761D01*
X45680238Y-79192380D01*
X45394523Y-79192380D01*
X45299285Y-79144761D01*
X45251666Y-79097142D01*
%TO.C,C8*%
X82217142Y-71921666D02*
X82264761Y-71969285D01*
X82312380Y-72112142D01*
X82312380Y-72207380D01*
X82264761Y-72350238D01*
X82169523Y-72445476D01*
X82074285Y-72493095D01*
X81883809Y-72540714D01*
X81740952Y-72540714D01*
X81550476Y-72493095D01*
X81455238Y-72445476D01*
X81360000Y-72350238D01*
X81312380Y-72207380D01*
X81312380Y-72112142D01*
X81360000Y-71969285D01*
X81407619Y-71921666D01*
X81740952Y-71350238D02*
X81693333Y-71445476D01*
X81645714Y-71493095D01*
X81550476Y-71540714D01*
X81502857Y-71540714D01*
X81407619Y-71493095D01*
X81360000Y-71445476D01*
X81312380Y-71350238D01*
X81312380Y-71159761D01*
X81360000Y-71064523D01*
X81407619Y-71016904D01*
X81502857Y-70969285D01*
X81550476Y-70969285D01*
X81645714Y-71016904D01*
X81693333Y-71064523D01*
X81740952Y-71159761D01*
X81740952Y-71350238D01*
X81788571Y-71445476D01*
X81836190Y-71493095D01*
X81931428Y-71540714D01*
X82121904Y-71540714D01*
X82217142Y-71493095D01*
X82264761Y-71445476D01*
X82312380Y-71350238D01*
X82312380Y-71159761D01*
X82264761Y-71064523D01*
X82217142Y-71016904D01*
X82121904Y-70969285D01*
X81931428Y-70969285D01*
X81836190Y-71016904D01*
X81788571Y-71064523D01*
X81740952Y-71159761D01*
%TO.C,C9*%
X54277142Y-71921666D02*
X54324761Y-71969285D01*
X54372380Y-72112142D01*
X54372380Y-72207380D01*
X54324761Y-72350238D01*
X54229523Y-72445476D01*
X54134285Y-72493095D01*
X53943809Y-72540714D01*
X53800952Y-72540714D01*
X53610476Y-72493095D01*
X53515238Y-72445476D01*
X53420000Y-72350238D01*
X53372380Y-72207380D01*
X53372380Y-72112142D01*
X53420000Y-71969285D01*
X53467619Y-71921666D01*
X54372380Y-71445476D02*
X54372380Y-71255000D01*
X54324761Y-71159761D01*
X54277142Y-71112142D01*
X54134285Y-71016904D01*
X53943809Y-70969285D01*
X53562857Y-70969285D01*
X53467619Y-71016904D01*
X53420000Y-71064523D01*
X53372380Y-71159761D01*
X53372380Y-71350238D01*
X53420000Y-71445476D01*
X53467619Y-71493095D01*
X53562857Y-71540714D01*
X53800952Y-71540714D01*
X53896190Y-71493095D01*
X53943809Y-71445476D01*
X53991428Y-71350238D01*
X53991428Y-71159761D01*
X53943809Y-71064523D01*
X53896190Y-71016904D01*
X53800952Y-70969285D01*
%TO.C,C10*%
X68247142Y-72397857D02*
X68294761Y-72445476D01*
X68342380Y-72588333D01*
X68342380Y-72683571D01*
X68294761Y-72826428D01*
X68199523Y-72921666D01*
X68104285Y-72969285D01*
X67913809Y-73016904D01*
X67770952Y-73016904D01*
X67580476Y-72969285D01*
X67485238Y-72921666D01*
X67390000Y-72826428D01*
X67342380Y-72683571D01*
X67342380Y-72588333D01*
X67390000Y-72445476D01*
X67437619Y-72397857D01*
X68342380Y-71445476D02*
X68342380Y-72016904D01*
X68342380Y-71731190D02*
X67342380Y-71731190D01*
X67485238Y-71826428D01*
X67580476Y-71921666D01*
X67628095Y-72016904D01*
X67342380Y-70826428D02*
X67342380Y-70731190D01*
X67390000Y-70635952D01*
X67437619Y-70588333D01*
X67532857Y-70540714D01*
X67723333Y-70493095D01*
X67961428Y-70493095D01*
X68151904Y-70540714D01*
X68247142Y-70588333D01*
X68294761Y-70635952D01*
X68342380Y-70731190D01*
X68342380Y-70826428D01*
X68294761Y-70921666D01*
X68247142Y-70969285D01*
X68151904Y-71016904D01*
X67961428Y-71064523D01*
X67723333Y-71064523D01*
X67532857Y-71016904D01*
X67437619Y-70969285D01*
X67390000Y-70921666D01*
X67342380Y-70826428D01*
%TO.C,C11*%
X34592142Y-19897857D02*
X34639761Y-19945476D01*
X34687380Y-20088333D01*
X34687380Y-20183571D01*
X34639761Y-20326428D01*
X34544523Y-20421666D01*
X34449285Y-20469285D01*
X34258809Y-20516904D01*
X34115952Y-20516904D01*
X33925476Y-20469285D01*
X33830238Y-20421666D01*
X33735000Y-20326428D01*
X33687380Y-20183571D01*
X33687380Y-20088333D01*
X33735000Y-19945476D01*
X33782619Y-19897857D01*
X34687380Y-18945476D02*
X34687380Y-19516904D01*
X34687380Y-19231190D02*
X33687380Y-19231190D01*
X33830238Y-19326428D01*
X33925476Y-19421666D01*
X33973095Y-19516904D01*
X34687380Y-17993095D02*
X34687380Y-18564523D01*
X34687380Y-18278809D02*
X33687380Y-18278809D01*
X33830238Y-18374047D01*
X33925476Y-18469285D01*
X33973095Y-18564523D01*
%TO.C,D1*%
X27377380Y-35028095D02*
X26377380Y-35028095D01*
X26377380Y-34790000D01*
X26425000Y-34647142D01*
X26520238Y-34551904D01*
X26615476Y-34504285D01*
X26805952Y-34456666D01*
X26948809Y-34456666D01*
X27139285Y-34504285D01*
X27234523Y-34551904D01*
X27329761Y-34647142D01*
X27377380Y-34790000D01*
X27377380Y-35028095D01*
X27377380Y-33504285D02*
X27377380Y-34075714D01*
X27377380Y-33790000D02*
X26377380Y-33790000D01*
X26520238Y-33885238D01*
X26615476Y-33980476D01*
X26663095Y-34075714D01*
%TO.C,D2*%
X50061904Y-48332380D02*
X50061904Y-47332380D01*
X50300000Y-47332380D01*
X50442857Y-47380000D01*
X50538095Y-47475238D01*
X50585714Y-47570476D01*
X50633333Y-47760952D01*
X50633333Y-47903809D01*
X50585714Y-48094285D01*
X50538095Y-48189523D01*
X50442857Y-48284761D01*
X50300000Y-48332380D01*
X50061904Y-48332380D01*
X51014285Y-47427619D02*
X51061904Y-47380000D01*
X51157142Y-47332380D01*
X51395238Y-47332380D01*
X51490476Y-47380000D01*
X51538095Y-47427619D01*
X51585714Y-47522857D01*
X51585714Y-47618095D01*
X51538095Y-47760952D01*
X50966666Y-48332380D01*
X51585714Y-48332380D01*
%TO.C,J2*%
X44116666Y-24407380D02*
X44116666Y-25121666D01*
X44069047Y-25264523D01*
X43973809Y-25359761D01*
X43830952Y-25407380D01*
X43735714Y-25407380D01*
X44545238Y-24502619D02*
X44592857Y-24455000D01*
X44688095Y-24407380D01*
X44926190Y-24407380D01*
X45021428Y-24455000D01*
X45069047Y-24502619D01*
X45116666Y-24597857D01*
X45116666Y-24693095D01*
X45069047Y-24835952D01*
X44497619Y-25407380D01*
X45116666Y-25407380D01*
%TO.C,R4*%
X90003333Y-65857380D02*
X89670000Y-65381190D01*
X89431904Y-65857380D02*
X89431904Y-64857380D01*
X89812857Y-64857380D01*
X89908095Y-64905000D01*
X89955714Y-64952619D01*
X90003333Y-65047857D01*
X90003333Y-65190714D01*
X89955714Y-65285952D01*
X89908095Y-65333571D01*
X89812857Y-65381190D01*
X89431904Y-65381190D01*
X90860476Y-65190714D02*
X90860476Y-65857380D01*
X90622380Y-64809761D02*
X90384285Y-65524047D01*
X91003333Y-65524047D01*
%TO.C,R5*%
X86828333Y-79192380D02*
X86495000Y-78716190D01*
X86256904Y-79192380D02*
X86256904Y-78192380D01*
X86637857Y-78192380D01*
X86733095Y-78240000D01*
X86780714Y-78287619D01*
X86828333Y-78382857D01*
X86828333Y-78525714D01*
X86780714Y-78620952D01*
X86733095Y-78668571D01*
X86637857Y-78716190D01*
X86256904Y-78716190D01*
X87733095Y-78192380D02*
X87256904Y-78192380D01*
X87209285Y-78668571D01*
X87256904Y-78620952D01*
X87352142Y-78573333D01*
X87590238Y-78573333D01*
X87685476Y-78620952D01*
X87733095Y-78668571D01*
X87780714Y-78763809D01*
X87780714Y-79001904D01*
X87733095Y-79097142D01*
X87685476Y-79144761D01*
X87590238Y-79192380D01*
X87352142Y-79192380D01*
X87256904Y-79144761D01*
X87209285Y-79097142D01*
%TO.C,R6*%
X58888333Y-64207380D02*
X58555000Y-63731190D01*
X58316904Y-64207380D02*
X58316904Y-63207380D01*
X58697857Y-63207380D01*
X58793095Y-63255000D01*
X58840714Y-63302619D01*
X58888333Y-63397857D01*
X58888333Y-63540714D01*
X58840714Y-63635952D01*
X58793095Y-63683571D01*
X58697857Y-63731190D01*
X58316904Y-63731190D01*
X59745476Y-63207380D02*
X59555000Y-63207380D01*
X59459761Y-63255000D01*
X59412142Y-63302619D01*
X59316904Y-63445476D01*
X59269285Y-63635952D01*
X59269285Y-64016904D01*
X59316904Y-64112142D01*
X59364523Y-64159761D01*
X59459761Y-64207380D01*
X59650238Y-64207380D01*
X59745476Y-64159761D01*
X59793095Y-64112142D01*
X59840714Y-64016904D01*
X59840714Y-63778809D01*
X59793095Y-63683571D01*
X59745476Y-63635952D01*
X59650238Y-63588333D01*
X59459761Y-63588333D01*
X59364523Y-63635952D01*
X59316904Y-63683571D01*
X59269285Y-63778809D01*
%TO.C,R7*%
X58888333Y-79192380D02*
X58555000Y-78716190D01*
X58316904Y-79192380D02*
X58316904Y-78192380D01*
X58697857Y-78192380D01*
X58793095Y-78240000D01*
X58840714Y-78287619D01*
X58888333Y-78382857D01*
X58888333Y-78525714D01*
X58840714Y-78620952D01*
X58793095Y-78668571D01*
X58697857Y-78716190D01*
X58316904Y-78716190D01*
X59221666Y-78192380D02*
X59888333Y-78192380D01*
X59459761Y-79192380D01*
%TO.C,R8*%
X72858333Y-64207380D02*
X72525000Y-63731190D01*
X72286904Y-64207380D02*
X72286904Y-63207380D01*
X72667857Y-63207380D01*
X72763095Y-63255000D01*
X72810714Y-63302619D01*
X72858333Y-63397857D01*
X72858333Y-63540714D01*
X72810714Y-63635952D01*
X72763095Y-63683571D01*
X72667857Y-63731190D01*
X72286904Y-63731190D01*
X73429761Y-63635952D02*
X73334523Y-63588333D01*
X73286904Y-63540714D01*
X73239285Y-63445476D01*
X73239285Y-63397857D01*
X73286904Y-63302619D01*
X73334523Y-63255000D01*
X73429761Y-63207380D01*
X73620238Y-63207380D01*
X73715476Y-63255000D01*
X73763095Y-63302619D01*
X73810714Y-63397857D01*
X73810714Y-63445476D01*
X73763095Y-63540714D01*
X73715476Y-63588333D01*
X73620238Y-63635952D01*
X73429761Y-63635952D01*
X73334523Y-63683571D01*
X73286904Y-63731190D01*
X73239285Y-63826428D01*
X73239285Y-64016904D01*
X73286904Y-64112142D01*
X73334523Y-64159761D01*
X73429761Y-64207380D01*
X73620238Y-64207380D01*
X73715476Y-64159761D01*
X73763095Y-64112142D01*
X73810714Y-64016904D01*
X73810714Y-63826428D01*
X73763095Y-63731190D01*
X73715476Y-63683571D01*
X73620238Y-63635952D01*
%TO.C,R9*%
X72858333Y-79192380D02*
X72525000Y-78716190D01*
X72286904Y-79192380D02*
X72286904Y-78192380D01*
X72667857Y-78192380D01*
X72763095Y-78240000D01*
X72810714Y-78287619D01*
X72858333Y-78382857D01*
X72858333Y-78525714D01*
X72810714Y-78620952D01*
X72763095Y-78668571D01*
X72667857Y-78716190D01*
X72286904Y-78716190D01*
X73334523Y-79192380D02*
X73525000Y-79192380D01*
X73620238Y-79144761D01*
X73667857Y-79097142D01*
X73763095Y-78954285D01*
X73810714Y-78763809D01*
X73810714Y-78382857D01*
X73763095Y-78287619D01*
X73715476Y-78240000D01*
X73620238Y-78192380D01*
X73429761Y-78192380D01*
X73334523Y-78240000D01*
X73286904Y-78287619D01*
X73239285Y-78382857D01*
X73239285Y-78620952D01*
X73286904Y-78716190D01*
X73334523Y-78763809D01*
X73429761Y-78811428D01*
X73620238Y-78811428D01*
X73715476Y-78763809D01*
X73763095Y-78716190D01*
X73810714Y-78620952D01*
%TO.C,R10*%
X27377380Y-29852857D02*
X26901190Y-30186190D01*
X27377380Y-30424285D02*
X26377380Y-30424285D01*
X26377380Y-30043333D01*
X26425000Y-29948095D01*
X26472619Y-29900476D01*
X26567857Y-29852857D01*
X26710714Y-29852857D01*
X26805952Y-29900476D01*
X26853571Y-29948095D01*
X26901190Y-30043333D01*
X26901190Y-30424285D01*
X27377380Y-28900476D02*
X27377380Y-29471904D01*
X27377380Y-29186190D02*
X26377380Y-29186190D01*
X26520238Y-29281428D01*
X26615476Y-29376666D01*
X26663095Y-29471904D01*
X26377380Y-28281428D02*
X26377380Y-28186190D01*
X26425000Y-28090952D01*
X26472619Y-28043333D01*
X26567857Y-27995714D01*
X26758333Y-27948095D01*
X26996428Y-27948095D01*
X27186904Y-27995714D01*
X27282142Y-28043333D01*
X27329761Y-28090952D01*
X27377380Y-28186190D01*
X27377380Y-28281428D01*
X27329761Y-28376666D01*
X27282142Y-28424285D01*
X27186904Y-28471904D01*
X26996428Y-28519523D01*
X26758333Y-28519523D01*
X26567857Y-28471904D01*
X26472619Y-28424285D01*
X26425000Y-28376666D01*
X26377380Y-28281428D01*
%TO.C,R11*%
X54602142Y-48332380D02*
X54268809Y-47856190D01*
X54030714Y-48332380D02*
X54030714Y-47332380D01*
X54411666Y-47332380D01*
X54506904Y-47380000D01*
X54554523Y-47427619D01*
X54602142Y-47522857D01*
X54602142Y-47665714D01*
X54554523Y-47760952D01*
X54506904Y-47808571D01*
X54411666Y-47856190D01*
X54030714Y-47856190D01*
X55554523Y-48332380D02*
X54983095Y-48332380D01*
X55268809Y-48332380D02*
X55268809Y-47332380D01*
X55173571Y-47475238D01*
X55078333Y-47570476D01*
X54983095Y-47618095D01*
X56506904Y-48332380D02*
X55935476Y-48332380D01*
X56221190Y-48332380D02*
X56221190Y-47332380D01*
X56125952Y-47475238D01*
X56030714Y-47570476D01*
X55935476Y-47618095D01*
%TO.C,RV1*%
X36219761Y-24917380D02*
X35886428Y-24441190D01*
X35648333Y-24917380D02*
X35648333Y-23917380D01*
X36029285Y-23917380D01*
X36124523Y-23965000D01*
X36172142Y-24012619D01*
X36219761Y-24107857D01*
X36219761Y-24250714D01*
X36172142Y-24345952D01*
X36124523Y-24393571D01*
X36029285Y-24441190D01*
X35648333Y-24441190D01*
X36505476Y-23917380D02*
X36838809Y-24917380D01*
X37172142Y-23917380D01*
X38029285Y-24917380D02*
X37457857Y-24917380D01*
X37743571Y-24917380D02*
X37743571Y-23917380D01*
X37648333Y-24060238D01*
X37553095Y-24155476D01*
X37457857Y-24203095D01*
%TO.C,C12*%
X70477142Y-30837142D02*
X70429523Y-30884761D01*
X70286666Y-30932380D01*
X70191428Y-30932380D01*
X70048571Y-30884761D01*
X69953333Y-30789523D01*
X69905714Y-30694285D01*
X69858095Y-30503809D01*
X69858095Y-30360952D01*
X69905714Y-30170476D01*
X69953333Y-30075238D01*
X70048571Y-29980000D01*
X70191428Y-29932380D01*
X70286666Y-29932380D01*
X70429523Y-29980000D01*
X70477142Y-30027619D01*
X71429523Y-30932380D02*
X70858095Y-30932380D01*
X71143809Y-30932380D02*
X71143809Y-29932380D01*
X71048571Y-30075238D01*
X70953333Y-30170476D01*
X70858095Y-30218095D01*
X71810476Y-30027619D02*
X71858095Y-29980000D01*
X71953333Y-29932380D01*
X72191428Y-29932380D01*
X72286666Y-29980000D01*
X72334285Y-30027619D01*
X72381904Y-30122857D01*
X72381904Y-30218095D01*
X72334285Y-30360952D01*
X71762857Y-30932380D01*
X72381904Y-30932380D01*
%TO.C,C13*%
X85717142Y-30782142D02*
X85669523Y-30829761D01*
X85526666Y-30877380D01*
X85431428Y-30877380D01*
X85288571Y-30829761D01*
X85193333Y-30734523D01*
X85145714Y-30639285D01*
X85098095Y-30448809D01*
X85098095Y-30305952D01*
X85145714Y-30115476D01*
X85193333Y-30020238D01*
X85288571Y-29925000D01*
X85431428Y-29877380D01*
X85526666Y-29877380D01*
X85669523Y-29925000D01*
X85717142Y-29972619D01*
X86669523Y-30877380D02*
X86098095Y-30877380D01*
X86383809Y-30877380D02*
X86383809Y-29877380D01*
X86288571Y-30020238D01*
X86193333Y-30115476D01*
X86098095Y-30163095D01*
X87002857Y-29877380D02*
X87621904Y-29877380D01*
X87288571Y-30258333D01*
X87431428Y-30258333D01*
X87526666Y-30305952D01*
X87574285Y-30353571D01*
X87621904Y-30448809D01*
X87621904Y-30686904D01*
X87574285Y-30782142D01*
X87526666Y-30829761D01*
X87431428Y-30877380D01*
X87145714Y-30877380D01*
X87050476Y-30829761D01*
X87002857Y-30782142D01*
%TO.C,C14*%
X85717142Y-47292142D02*
X85669523Y-47339761D01*
X85526666Y-47387380D01*
X85431428Y-47387380D01*
X85288571Y-47339761D01*
X85193333Y-47244523D01*
X85145714Y-47149285D01*
X85098095Y-46958809D01*
X85098095Y-46815952D01*
X85145714Y-46625476D01*
X85193333Y-46530238D01*
X85288571Y-46435000D01*
X85431428Y-46387380D01*
X85526666Y-46387380D01*
X85669523Y-46435000D01*
X85717142Y-46482619D01*
X86669523Y-47387380D02*
X86098095Y-47387380D01*
X86383809Y-47387380D02*
X86383809Y-46387380D01*
X86288571Y-46530238D01*
X86193333Y-46625476D01*
X86098095Y-46673095D01*
X87526666Y-46720714D02*
X87526666Y-47387380D01*
X87288571Y-46339761D02*
X87050476Y-47054047D01*
X87669523Y-47054047D01*
%TO.C,C15*%
X85717142Y-63167142D02*
X85669523Y-63214761D01*
X85526666Y-63262380D01*
X85431428Y-63262380D01*
X85288571Y-63214761D01*
X85193333Y-63119523D01*
X85145714Y-63024285D01*
X85098095Y-62833809D01*
X85098095Y-62690952D01*
X85145714Y-62500476D01*
X85193333Y-62405238D01*
X85288571Y-62310000D01*
X85431428Y-62262380D01*
X85526666Y-62262380D01*
X85669523Y-62310000D01*
X85717142Y-62357619D01*
X86669523Y-63262380D02*
X86098095Y-63262380D01*
X86383809Y-63262380D02*
X86383809Y-62262380D01*
X86288571Y-62405238D01*
X86193333Y-62500476D01*
X86098095Y-62548095D01*
X87574285Y-62262380D02*
X87098095Y-62262380D01*
X87050476Y-62738571D01*
X87098095Y-62690952D01*
X87193333Y-62643333D01*
X87431428Y-62643333D01*
X87526666Y-62690952D01*
X87574285Y-62738571D01*
X87621904Y-62833809D01*
X87621904Y-63071904D01*
X87574285Y-63167142D01*
X87526666Y-63214761D01*
X87431428Y-63262380D01*
X87193333Y-63262380D01*
X87098095Y-63214761D01*
X87050476Y-63167142D01*
%TO.C,R12*%
X76192142Y-30932380D02*
X75858809Y-30456190D01*
X75620714Y-30932380D02*
X75620714Y-29932380D01*
X76001666Y-29932380D01*
X76096904Y-29980000D01*
X76144523Y-30027619D01*
X76192142Y-30122857D01*
X76192142Y-30265714D01*
X76144523Y-30360952D01*
X76096904Y-30408571D01*
X76001666Y-30456190D01*
X75620714Y-30456190D01*
X77144523Y-30932380D02*
X76573095Y-30932380D01*
X76858809Y-30932380D02*
X76858809Y-29932380D01*
X76763571Y-30075238D01*
X76668333Y-30170476D01*
X76573095Y-30218095D01*
X77525476Y-30027619D02*
X77573095Y-29980000D01*
X77668333Y-29932380D01*
X77906428Y-29932380D01*
X78001666Y-29980000D01*
X78049285Y-30027619D01*
X78096904Y-30122857D01*
X78096904Y-30218095D01*
X78049285Y-30360952D01*
X77477857Y-30932380D01*
X78096904Y-30932380D01*
%TO.C,R13*%
X80637142Y-30932380D02*
X80303809Y-30456190D01*
X80065714Y-30932380D02*
X80065714Y-29932380D01*
X80446666Y-29932380D01*
X80541904Y-29980000D01*
X80589523Y-30027619D01*
X80637142Y-30122857D01*
X80637142Y-30265714D01*
X80589523Y-30360952D01*
X80541904Y-30408571D01*
X80446666Y-30456190D01*
X80065714Y-30456190D01*
X81589523Y-30932380D02*
X81018095Y-30932380D01*
X81303809Y-30932380D02*
X81303809Y-29932380D01*
X81208571Y-30075238D01*
X81113333Y-30170476D01*
X81018095Y-30218095D01*
X81922857Y-29932380D02*
X82541904Y-29932380D01*
X82208571Y-30313333D01*
X82351428Y-30313333D01*
X82446666Y-30360952D01*
X82494285Y-30408571D01*
X82541904Y-30503809D01*
X82541904Y-30741904D01*
X82494285Y-30837142D01*
X82446666Y-30884761D01*
X82351428Y-30932380D01*
X82065714Y-30932380D01*
X81970476Y-30884761D01*
X81922857Y-30837142D01*
%TO.C,R14*%
X77542380Y-21597857D02*
X77066190Y-21931190D01*
X77542380Y-22169285D02*
X76542380Y-22169285D01*
X76542380Y-21788333D01*
X76590000Y-21693095D01*
X76637619Y-21645476D01*
X76732857Y-21597857D01*
X76875714Y-21597857D01*
X76970952Y-21645476D01*
X77018571Y-21693095D01*
X77066190Y-21788333D01*
X77066190Y-22169285D01*
X77542380Y-20645476D02*
X77542380Y-21216904D01*
X77542380Y-20931190D02*
X76542380Y-20931190D01*
X76685238Y-21026428D01*
X76780476Y-21121666D01*
X76828095Y-21216904D01*
X76875714Y-19788333D02*
X77542380Y-19788333D01*
X76494761Y-20026428D02*
X77209047Y-20264523D01*
X77209047Y-19645476D01*
%TO.C,R15*%
X80637142Y-47187380D02*
X80303809Y-46711190D01*
X80065714Y-47187380D02*
X80065714Y-46187380D01*
X80446666Y-46187380D01*
X80541904Y-46235000D01*
X80589523Y-46282619D01*
X80637142Y-46377857D01*
X80637142Y-46520714D01*
X80589523Y-46615952D01*
X80541904Y-46663571D01*
X80446666Y-46711190D01*
X80065714Y-46711190D01*
X81589523Y-47187380D02*
X81018095Y-47187380D01*
X81303809Y-47187380D02*
X81303809Y-46187380D01*
X81208571Y-46330238D01*
X81113333Y-46425476D01*
X81018095Y-46473095D01*
X82494285Y-46187380D02*
X82018095Y-46187380D01*
X81970476Y-46663571D01*
X82018095Y-46615952D01*
X82113333Y-46568333D01*
X82351428Y-46568333D01*
X82446666Y-46615952D01*
X82494285Y-46663571D01*
X82541904Y-46758809D01*
X82541904Y-46996904D01*
X82494285Y-47092142D01*
X82446666Y-47139761D01*
X82351428Y-47187380D01*
X82113333Y-47187380D01*
X82018095Y-47139761D01*
X81970476Y-47092142D01*
%TO.C,R16*%
X76192142Y-51507380D02*
X75858809Y-51031190D01*
X75620714Y-51507380D02*
X75620714Y-50507380D01*
X76001666Y-50507380D01*
X76096904Y-50555000D01*
X76144523Y-50602619D01*
X76192142Y-50697857D01*
X76192142Y-50840714D01*
X76144523Y-50935952D01*
X76096904Y-50983571D01*
X76001666Y-51031190D01*
X75620714Y-51031190D01*
X77144523Y-51507380D02*
X76573095Y-51507380D01*
X76858809Y-51507380D02*
X76858809Y-50507380D01*
X76763571Y-50650238D01*
X76668333Y-50745476D01*
X76573095Y-50793095D01*
X78001666Y-50507380D02*
X77811190Y-50507380D01*
X77715952Y-50555000D01*
X77668333Y-50602619D01*
X77573095Y-50745476D01*
X77525476Y-50935952D01*
X77525476Y-51316904D01*
X77573095Y-51412142D01*
X77620714Y-51459761D01*
X77715952Y-51507380D01*
X77906428Y-51507380D01*
X78001666Y-51459761D01*
X78049285Y-51412142D01*
X78096904Y-51316904D01*
X78096904Y-51078809D01*
X78049285Y-50983571D01*
X78001666Y-50935952D01*
X77906428Y-50888333D01*
X77715952Y-50888333D01*
X77620714Y-50935952D01*
X77573095Y-50983571D01*
X77525476Y-51078809D01*
%TO.C,R17*%
X76192142Y-57602380D02*
X75858809Y-57126190D01*
X75620714Y-57602380D02*
X75620714Y-56602380D01*
X76001666Y-56602380D01*
X76096904Y-56650000D01*
X76144523Y-56697619D01*
X76192142Y-56792857D01*
X76192142Y-56935714D01*
X76144523Y-57030952D01*
X76096904Y-57078571D01*
X76001666Y-57126190D01*
X75620714Y-57126190D01*
X77144523Y-57602380D02*
X76573095Y-57602380D01*
X76858809Y-57602380D02*
X76858809Y-56602380D01*
X76763571Y-56745238D01*
X76668333Y-56840476D01*
X76573095Y-56888095D01*
X77477857Y-56602380D02*
X78144523Y-56602380D01*
X77715952Y-57602380D01*
%TO.C,U2*%
X70358095Y-14902380D02*
X70358095Y-15711904D01*
X70405714Y-15807142D01*
X70453333Y-15854761D01*
X70548571Y-15902380D01*
X70739047Y-15902380D01*
X70834285Y-15854761D01*
X70881904Y-15807142D01*
X70929523Y-15711904D01*
X70929523Y-14902380D01*
X71358095Y-14997619D02*
X71405714Y-14950000D01*
X71500952Y-14902380D01*
X71739047Y-14902380D01*
X71834285Y-14950000D01*
X71881904Y-14997619D01*
X71929523Y-15092857D01*
X71929523Y-15188095D01*
X71881904Y-15330952D01*
X71310476Y-15902380D01*
X71929523Y-15902380D01*
%TO.C,U3*%
X85598095Y-14902380D02*
X85598095Y-15711904D01*
X85645714Y-15807142D01*
X85693333Y-15854761D01*
X85788571Y-15902380D01*
X85979047Y-15902380D01*
X86074285Y-15854761D01*
X86121904Y-15807142D01*
X86169523Y-15711904D01*
X86169523Y-14902380D01*
X86550476Y-14902380D02*
X87169523Y-14902380D01*
X86836190Y-15283333D01*
X86979047Y-15283333D01*
X87074285Y-15330952D01*
X87121904Y-15378571D01*
X87169523Y-15473809D01*
X87169523Y-15711904D01*
X87121904Y-15807142D01*
X87074285Y-15854761D01*
X86979047Y-15902380D01*
X86693333Y-15902380D01*
X86598095Y-15854761D01*
X86550476Y-15807142D01*
%TO.C,U4*%
X85598095Y-31412380D02*
X85598095Y-32221904D01*
X85645714Y-32317142D01*
X85693333Y-32364761D01*
X85788571Y-32412380D01*
X85979047Y-32412380D01*
X86074285Y-32364761D01*
X86121904Y-32317142D01*
X86169523Y-32221904D01*
X86169523Y-31412380D01*
X87074285Y-31745714D02*
X87074285Y-32412380D01*
X86836190Y-31364761D02*
X86598095Y-32079047D01*
X87217142Y-32079047D01*
%TO.C,U5*%
X85598095Y-47712380D02*
X85598095Y-48521904D01*
X85645714Y-48617142D01*
X85693333Y-48664761D01*
X85788571Y-48712380D01*
X85979047Y-48712380D01*
X86074285Y-48664761D01*
X86121904Y-48617142D01*
X86169523Y-48521904D01*
X86169523Y-47712380D01*
X87121904Y-47712380D02*
X86645714Y-47712380D01*
X86598095Y-48188571D01*
X86645714Y-48140952D01*
X86740952Y-48093333D01*
X86979047Y-48093333D01*
X87074285Y-48140952D01*
X87121904Y-48188571D01*
X87169523Y-48283809D01*
X87169523Y-48521904D01*
X87121904Y-48617142D01*
X87074285Y-48664761D01*
X86979047Y-48712380D01*
X86740952Y-48712380D01*
X86645714Y-48664761D01*
X86598095Y-48617142D01*
%TO.C,SW1*%
X43826666Y-67619761D02*
X43969523Y-67667380D01*
X44207619Y-67667380D01*
X44302857Y-67619761D01*
X44350476Y-67572142D01*
X44398095Y-67476904D01*
X44398095Y-67381666D01*
X44350476Y-67286428D01*
X44302857Y-67238809D01*
X44207619Y-67191190D01*
X44017142Y-67143571D01*
X43921904Y-67095952D01*
X43874285Y-67048333D01*
X43826666Y-66953095D01*
X43826666Y-66857857D01*
X43874285Y-66762619D01*
X43921904Y-66715000D01*
X44017142Y-66667380D01*
X44255238Y-66667380D01*
X44398095Y-66715000D01*
X44731428Y-66667380D02*
X44969523Y-67667380D01*
X45160000Y-66953095D01*
X45350476Y-67667380D01*
X45588571Y-66667380D01*
X46493333Y-67667380D02*
X45921904Y-67667380D01*
X46207619Y-67667380D02*
X46207619Y-66667380D01*
X46112380Y-66810238D01*
X46017142Y-66905476D01*
X45921904Y-66953095D01*
%TO.C,SW2*%
X85736666Y-67619761D02*
X85879523Y-67667380D01*
X86117619Y-67667380D01*
X86212857Y-67619761D01*
X86260476Y-67572142D01*
X86308095Y-67476904D01*
X86308095Y-67381666D01*
X86260476Y-67286428D01*
X86212857Y-67238809D01*
X86117619Y-67191190D01*
X85927142Y-67143571D01*
X85831904Y-67095952D01*
X85784285Y-67048333D01*
X85736666Y-66953095D01*
X85736666Y-66857857D01*
X85784285Y-66762619D01*
X85831904Y-66715000D01*
X85927142Y-66667380D01*
X86165238Y-66667380D01*
X86308095Y-66715000D01*
X86641428Y-66667380D02*
X86879523Y-67667380D01*
X87070000Y-66953095D01*
X87260476Y-67667380D01*
X87498571Y-66667380D01*
X87831904Y-66762619D02*
X87879523Y-66715000D01*
X87974761Y-66667380D01*
X88212857Y-66667380D01*
X88308095Y-66715000D01*
X88355714Y-66762619D01*
X88403333Y-66857857D01*
X88403333Y-66953095D01*
X88355714Y-67095952D01*
X87784285Y-67667380D01*
X88403333Y-67667380D01*
%TO.C,SW3*%
X57796666Y-67619761D02*
X57939523Y-67667380D01*
X58177619Y-67667380D01*
X58272857Y-67619761D01*
X58320476Y-67572142D01*
X58368095Y-67476904D01*
X58368095Y-67381666D01*
X58320476Y-67286428D01*
X58272857Y-67238809D01*
X58177619Y-67191190D01*
X57987142Y-67143571D01*
X57891904Y-67095952D01*
X57844285Y-67048333D01*
X57796666Y-66953095D01*
X57796666Y-66857857D01*
X57844285Y-66762619D01*
X57891904Y-66715000D01*
X57987142Y-66667380D01*
X58225238Y-66667380D01*
X58368095Y-66715000D01*
X58701428Y-66667380D02*
X58939523Y-67667380D01*
X59130000Y-66953095D01*
X59320476Y-67667380D01*
X59558571Y-66667380D01*
X59844285Y-66667380D02*
X60463333Y-66667380D01*
X60130000Y-67048333D01*
X60272857Y-67048333D01*
X60368095Y-67095952D01*
X60415714Y-67143571D01*
X60463333Y-67238809D01*
X60463333Y-67476904D01*
X60415714Y-67572142D01*
X60368095Y-67619761D01*
X60272857Y-67667380D01*
X59987142Y-67667380D01*
X59891904Y-67619761D01*
X59844285Y-67572142D01*
%TO.C,SW4*%
X71766666Y-67619761D02*
X71909523Y-67667380D01*
X72147619Y-67667380D01*
X72242857Y-67619761D01*
X72290476Y-67572142D01*
X72338095Y-67476904D01*
X72338095Y-67381666D01*
X72290476Y-67286428D01*
X72242857Y-67238809D01*
X72147619Y-67191190D01*
X71957142Y-67143571D01*
X71861904Y-67095952D01*
X71814285Y-67048333D01*
X71766666Y-66953095D01*
X71766666Y-66857857D01*
X71814285Y-66762619D01*
X71861904Y-66715000D01*
X71957142Y-66667380D01*
X72195238Y-66667380D01*
X72338095Y-66715000D01*
X72671428Y-66667380D02*
X72909523Y-67667380D01*
X73100000Y-66953095D01*
X73290476Y-67667380D01*
X73528571Y-66667380D01*
X74338095Y-67000714D02*
X74338095Y-67667380D01*
X74100000Y-66619761D02*
X73861904Y-67334047D01*
X74480952Y-67334047D01*
%TO.C,C16*%
X57142142Y-54332142D02*
X57094523Y-54379761D01*
X56951666Y-54427380D01*
X56856428Y-54427380D01*
X56713571Y-54379761D01*
X56618333Y-54284523D01*
X56570714Y-54189285D01*
X56523095Y-53998809D01*
X56523095Y-53855952D01*
X56570714Y-53665476D01*
X56618333Y-53570238D01*
X56713571Y-53475000D01*
X56856428Y-53427380D01*
X56951666Y-53427380D01*
X57094523Y-53475000D01*
X57142142Y-53522619D01*
X58094523Y-54427380D02*
X57523095Y-54427380D01*
X57808809Y-54427380D02*
X57808809Y-53427380D01*
X57713571Y-53570238D01*
X57618333Y-53665476D01*
X57523095Y-53713095D01*
X58951666Y-53427380D02*
X58761190Y-53427380D01*
X58665952Y-53475000D01*
X58618333Y-53522619D01*
X58523095Y-53665476D01*
X58475476Y-53855952D01*
X58475476Y-54236904D01*
X58523095Y-54332142D01*
X58570714Y-54379761D01*
X58665952Y-54427380D01*
X58856428Y-54427380D01*
X58951666Y-54379761D01*
X58999285Y-54332142D01*
X59046904Y-54236904D01*
X59046904Y-53998809D01*
X58999285Y-53903571D01*
X58951666Y-53855952D01*
X58856428Y-53808333D01*
X58665952Y-53808333D01*
X58570714Y-53855952D01*
X58523095Y-53903571D01*
X58475476Y-53998809D01*
%TO.C,C17*%
X67302142Y-60682142D02*
X67254523Y-60729761D01*
X67111666Y-60777380D01*
X67016428Y-60777380D01*
X66873571Y-60729761D01*
X66778333Y-60634523D01*
X66730714Y-60539285D01*
X66683095Y-60348809D01*
X66683095Y-60205952D01*
X66730714Y-60015476D01*
X66778333Y-59920238D01*
X66873571Y-59825000D01*
X67016428Y-59777380D01*
X67111666Y-59777380D01*
X67254523Y-59825000D01*
X67302142Y-59872619D01*
X68254523Y-60777380D02*
X67683095Y-60777380D01*
X67968809Y-60777380D02*
X67968809Y-59777380D01*
X67873571Y-59920238D01*
X67778333Y-60015476D01*
X67683095Y-60063095D01*
X68587857Y-59777380D02*
X69254523Y-59777380D01*
X68825952Y-60777380D01*
%TO.C,C18*%
X34917142Y-46657142D02*
X34869523Y-46704761D01*
X34726666Y-46752380D01*
X34631428Y-46752380D01*
X34488571Y-46704761D01*
X34393333Y-46609523D01*
X34345714Y-46514285D01*
X34298095Y-46323809D01*
X34298095Y-46180952D01*
X34345714Y-45990476D01*
X34393333Y-45895238D01*
X34488571Y-45800000D01*
X34631428Y-45752380D01*
X34726666Y-45752380D01*
X34869523Y-45800000D01*
X34917142Y-45847619D01*
X35869523Y-46752380D02*
X35298095Y-46752380D01*
X35583809Y-46752380D02*
X35583809Y-45752380D01*
X35488571Y-45895238D01*
X35393333Y-45990476D01*
X35298095Y-46038095D01*
X36440952Y-46180952D02*
X36345714Y-46133333D01*
X36298095Y-46085714D01*
X36250476Y-45990476D01*
X36250476Y-45942857D01*
X36298095Y-45847619D01*
X36345714Y-45800000D01*
X36440952Y-45752380D01*
X36631428Y-45752380D01*
X36726666Y-45800000D01*
X36774285Y-45847619D01*
X36821904Y-45942857D01*
X36821904Y-45990476D01*
X36774285Y-46085714D01*
X36726666Y-46133333D01*
X36631428Y-46180952D01*
X36440952Y-46180952D01*
X36345714Y-46228571D01*
X36298095Y-46276190D01*
X36250476Y-46371428D01*
X36250476Y-46561904D01*
X36298095Y-46657142D01*
X36345714Y-46704761D01*
X36440952Y-46752380D01*
X36631428Y-46752380D01*
X36726666Y-46704761D01*
X36774285Y-46657142D01*
X36821904Y-46561904D01*
X36821904Y-46371428D01*
X36774285Y-46276190D01*
X36726666Y-46228571D01*
X36631428Y-46180952D01*
%TO.C,C19*%
X42322142Y-57792857D02*
X42369761Y-57840476D01*
X42417380Y-57983333D01*
X42417380Y-58078571D01*
X42369761Y-58221428D01*
X42274523Y-58316666D01*
X42179285Y-58364285D01*
X41988809Y-58411904D01*
X41845952Y-58411904D01*
X41655476Y-58364285D01*
X41560238Y-58316666D01*
X41465000Y-58221428D01*
X41417380Y-58078571D01*
X41417380Y-57983333D01*
X41465000Y-57840476D01*
X41512619Y-57792857D01*
X42417380Y-56840476D02*
X42417380Y-57411904D01*
X42417380Y-57126190D02*
X41417380Y-57126190D01*
X41560238Y-57221428D01*
X41655476Y-57316666D01*
X41703095Y-57411904D01*
X42417380Y-56364285D02*
X42417380Y-56173809D01*
X42369761Y-56078571D01*
X42322142Y-56030952D01*
X42179285Y-55935714D01*
X41988809Y-55888095D01*
X41607857Y-55888095D01*
X41512619Y-55935714D01*
X41465000Y-55983333D01*
X41417380Y-56078571D01*
X41417380Y-56269047D01*
X41465000Y-56364285D01*
X41512619Y-56411904D01*
X41607857Y-56459523D01*
X41845952Y-56459523D01*
X41941190Y-56411904D01*
X41988809Y-56364285D01*
X42036428Y-56269047D01*
X42036428Y-56078571D01*
X41988809Y-55983333D01*
X41941190Y-55935714D01*
X41845952Y-55888095D01*
%TO.C,D3*%
X31497380Y-55348095D02*
X30497380Y-55348095D01*
X30497380Y-55110000D01*
X30545000Y-54967142D01*
X30640238Y-54871904D01*
X30735476Y-54824285D01*
X30925952Y-54776666D01*
X31068809Y-54776666D01*
X31259285Y-54824285D01*
X31354523Y-54871904D01*
X31449761Y-54967142D01*
X31497380Y-55110000D01*
X31497380Y-55348095D01*
X30497380Y-54443333D02*
X30497380Y-53824285D01*
X30878333Y-54157619D01*
X30878333Y-54014761D01*
X30925952Y-53919523D01*
X30973571Y-53871904D01*
X31068809Y-53824285D01*
X31306904Y-53824285D01*
X31402142Y-53871904D01*
X31449761Y-53919523D01*
X31497380Y-54014761D01*
X31497380Y-54300476D01*
X31449761Y-54395714D01*
X31402142Y-54443333D01*
X31127380Y-49791904D02*
X30127380Y-49791904D01*
X31127380Y-49220476D02*
X30555952Y-49649047D01*
X30127380Y-49220476D02*
X30698809Y-49791904D01*
%TO.C,D4*%
X20851904Y-74182380D02*
X20851904Y-73182380D01*
X21090000Y-73182380D01*
X21232857Y-73230000D01*
X21328095Y-73325238D01*
X21375714Y-73420476D01*
X21423333Y-73610952D01*
X21423333Y-73753809D01*
X21375714Y-73944285D01*
X21328095Y-74039523D01*
X21232857Y-74134761D01*
X21090000Y-74182380D01*
X20851904Y-74182380D01*
X22280476Y-73515714D02*
X22280476Y-74182380D01*
X22042380Y-73134761D02*
X21804285Y-73849047D01*
X22423333Y-73849047D01*
X16248095Y-74552380D02*
X16248095Y-73552380D01*
X16819523Y-74552380D02*
X16390952Y-73980952D01*
X16819523Y-73552380D02*
X16248095Y-74123809D01*
%TO.C,D5*%
X20851904Y-61482380D02*
X20851904Y-60482380D01*
X21090000Y-60482380D01*
X21232857Y-60530000D01*
X21328095Y-60625238D01*
X21375714Y-60720476D01*
X21423333Y-60910952D01*
X21423333Y-61053809D01*
X21375714Y-61244285D01*
X21328095Y-61339523D01*
X21232857Y-61434761D01*
X21090000Y-61482380D01*
X20851904Y-61482380D01*
X22328095Y-60482380D02*
X21851904Y-60482380D01*
X21804285Y-60958571D01*
X21851904Y-60910952D01*
X21947142Y-60863333D01*
X22185238Y-60863333D01*
X22280476Y-60910952D01*
X22328095Y-60958571D01*
X22375714Y-61053809D01*
X22375714Y-61291904D01*
X22328095Y-61387142D01*
X22280476Y-61434761D01*
X22185238Y-61482380D01*
X21947142Y-61482380D01*
X21851904Y-61434761D01*
X21804285Y-61387142D01*
X16248095Y-61852380D02*
X16248095Y-60852380D01*
X16819523Y-61852380D02*
X16390952Y-61280952D01*
X16819523Y-60852380D02*
X16248095Y-61423809D01*
%TO.C,J3*%
X16176666Y-64432380D02*
X16176666Y-65146666D01*
X16129047Y-65289523D01*
X16033809Y-65384761D01*
X15890952Y-65432380D01*
X15795714Y-65432380D01*
X16557619Y-64432380D02*
X17176666Y-64432380D01*
X16843333Y-64813333D01*
X16986190Y-64813333D01*
X17081428Y-64860952D01*
X17129047Y-64908571D01*
X17176666Y-65003809D01*
X17176666Y-65241904D01*
X17129047Y-65337142D01*
X17081428Y-65384761D01*
X16986190Y-65432380D01*
X16700476Y-65432380D01*
X16605238Y-65384761D01*
X16557619Y-65337142D01*
%TO.C,R18*%
X39442380Y-40647857D02*
X38966190Y-40981190D01*
X39442380Y-41219285D02*
X38442380Y-41219285D01*
X38442380Y-40838333D01*
X38490000Y-40743095D01*
X38537619Y-40695476D01*
X38632857Y-40647857D01*
X38775714Y-40647857D01*
X38870952Y-40695476D01*
X38918571Y-40743095D01*
X38966190Y-40838333D01*
X38966190Y-41219285D01*
X39442380Y-39695476D02*
X39442380Y-40266904D01*
X39442380Y-39981190D02*
X38442380Y-39981190D01*
X38585238Y-40076428D01*
X38680476Y-40171666D01*
X38728095Y-40266904D01*
X38870952Y-39124047D02*
X38823333Y-39219285D01*
X38775714Y-39266904D01*
X38680476Y-39314523D01*
X38632857Y-39314523D01*
X38537619Y-39266904D01*
X38490000Y-39219285D01*
X38442380Y-39124047D01*
X38442380Y-38933571D01*
X38490000Y-38838333D01*
X38537619Y-38790714D01*
X38632857Y-38743095D01*
X38680476Y-38743095D01*
X38775714Y-38790714D01*
X38823333Y-38838333D01*
X38870952Y-38933571D01*
X38870952Y-39124047D01*
X38918571Y-39219285D01*
X38966190Y-39266904D01*
X39061428Y-39314523D01*
X39251904Y-39314523D01*
X39347142Y-39266904D01*
X39394761Y-39219285D01*
X39442380Y-39124047D01*
X39442380Y-38933571D01*
X39394761Y-38838333D01*
X39347142Y-38790714D01*
X39251904Y-38743095D01*
X39061428Y-38743095D01*
X38966190Y-38790714D01*
X38918571Y-38838333D01*
X38870952Y-38933571D01*
%TO.C,R19*%
X27207380Y-41282857D02*
X26731190Y-41616190D01*
X27207380Y-41854285D02*
X26207380Y-41854285D01*
X26207380Y-41473333D01*
X26255000Y-41378095D01*
X26302619Y-41330476D01*
X26397857Y-41282857D01*
X26540714Y-41282857D01*
X26635952Y-41330476D01*
X26683571Y-41378095D01*
X26731190Y-41473333D01*
X26731190Y-41854285D01*
X27207380Y-40330476D02*
X27207380Y-40901904D01*
X27207380Y-40616190D02*
X26207380Y-40616190D01*
X26350238Y-40711428D01*
X26445476Y-40806666D01*
X26493095Y-40901904D01*
X27207380Y-39854285D02*
X27207380Y-39663809D01*
X27159761Y-39568571D01*
X27112142Y-39520952D01*
X26969285Y-39425714D01*
X26778809Y-39378095D01*
X26397857Y-39378095D01*
X26302619Y-39425714D01*
X26255000Y-39473333D01*
X26207380Y-39568571D01*
X26207380Y-39759047D01*
X26255000Y-39854285D01*
X26302619Y-39901904D01*
X26397857Y-39949523D01*
X26635952Y-39949523D01*
X26731190Y-39901904D01*
X26778809Y-39854285D01*
X26826428Y-39759047D01*
X26826428Y-39568571D01*
X26778809Y-39473333D01*
X26731190Y-39425714D01*
X26635952Y-39378095D01*
%TO.C,R20*%
X36727380Y-62237857D02*
X36251190Y-62571190D01*
X36727380Y-62809285D02*
X35727380Y-62809285D01*
X35727380Y-62428333D01*
X35775000Y-62333095D01*
X35822619Y-62285476D01*
X35917857Y-62237857D01*
X36060714Y-62237857D01*
X36155952Y-62285476D01*
X36203571Y-62333095D01*
X36251190Y-62428333D01*
X36251190Y-62809285D01*
X35822619Y-61856904D02*
X35775000Y-61809285D01*
X35727380Y-61714047D01*
X35727380Y-61475952D01*
X35775000Y-61380714D01*
X35822619Y-61333095D01*
X35917857Y-61285476D01*
X36013095Y-61285476D01*
X36155952Y-61333095D01*
X36727380Y-61904523D01*
X36727380Y-61285476D01*
X35727380Y-60666428D02*
X35727380Y-60571190D01*
X35775000Y-60475952D01*
X35822619Y-60428333D01*
X35917857Y-60380714D01*
X36108333Y-60333095D01*
X36346428Y-60333095D01*
X36536904Y-60380714D01*
X36632142Y-60428333D01*
X36679761Y-60475952D01*
X36727380Y-60571190D01*
X36727380Y-60666428D01*
X36679761Y-60761666D01*
X36632142Y-60809285D01*
X36536904Y-60856904D01*
X36346428Y-60904523D01*
X36108333Y-60904523D01*
X35917857Y-60856904D01*
X35822619Y-60809285D01*
X35775000Y-60761666D01*
X35727380Y-60666428D01*
%TO.C,R21*%
X42442380Y-62237857D02*
X41966190Y-62571190D01*
X42442380Y-62809285D02*
X41442380Y-62809285D01*
X41442380Y-62428333D01*
X41490000Y-62333095D01*
X41537619Y-62285476D01*
X41632857Y-62237857D01*
X41775714Y-62237857D01*
X41870952Y-62285476D01*
X41918571Y-62333095D01*
X41966190Y-62428333D01*
X41966190Y-62809285D01*
X41537619Y-61856904D02*
X41490000Y-61809285D01*
X41442380Y-61714047D01*
X41442380Y-61475952D01*
X41490000Y-61380714D01*
X41537619Y-61333095D01*
X41632857Y-61285476D01*
X41728095Y-61285476D01*
X41870952Y-61333095D01*
X42442380Y-61904523D01*
X42442380Y-61285476D01*
X42442380Y-60333095D02*
X42442380Y-60904523D01*
X42442380Y-60618809D02*
X41442380Y-60618809D01*
X41585238Y-60714047D01*
X41680476Y-60809285D01*
X41728095Y-60904523D01*
%TO.C,R22*%
X36727380Y-53347857D02*
X36251190Y-53681190D01*
X36727380Y-53919285D02*
X35727380Y-53919285D01*
X35727380Y-53538333D01*
X35775000Y-53443095D01*
X35822619Y-53395476D01*
X35917857Y-53347857D01*
X36060714Y-53347857D01*
X36155952Y-53395476D01*
X36203571Y-53443095D01*
X36251190Y-53538333D01*
X36251190Y-53919285D01*
X35822619Y-52966904D02*
X35775000Y-52919285D01*
X35727380Y-52824047D01*
X35727380Y-52585952D01*
X35775000Y-52490714D01*
X35822619Y-52443095D01*
X35917857Y-52395476D01*
X36013095Y-52395476D01*
X36155952Y-52443095D01*
X36727380Y-53014523D01*
X36727380Y-52395476D01*
X35822619Y-52014523D02*
X35775000Y-51966904D01*
X35727380Y-51871666D01*
X35727380Y-51633571D01*
X35775000Y-51538333D01*
X35822619Y-51490714D01*
X35917857Y-51443095D01*
X36013095Y-51443095D01*
X36155952Y-51490714D01*
X36727380Y-52062142D01*
X36727380Y-51443095D01*
%TO.C,R23*%
X42442380Y-53347857D02*
X41966190Y-53681190D01*
X42442380Y-53919285D02*
X41442380Y-53919285D01*
X41442380Y-53538333D01*
X41490000Y-53443095D01*
X41537619Y-53395476D01*
X41632857Y-53347857D01*
X41775714Y-53347857D01*
X41870952Y-53395476D01*
X41918571Y-53443095D01*
X41966190Y-53538333D01*
X41966190Y-53919285D01*
X41537619Y-52966904D02*
X41490000Y-52919285D01*
X41442380Y-52824047D01*
X41442380Y-52585952D01*
X41490000Y-52490714D01*
X41537619Y-52443095D01*
X41632857Y-52395476D01*
X41728095Y-52395476D01*
X41870952Y-52443095D01*
X42442380Y-53014523D01*
X42442380Y-52395476D01*
X41442380Y-52062142D02*
X41442380Y-51443095D01*
X41823333Y-51776428D01*
X41823333Y-51633571D01*
X41870952Y-51538333D01*
X41918571Y-51490714D01*
X42013809Y-51443095D01*
X42251904Y-51443095D01*
X42347142Y-51490714D01*
X42394761Y-51538333D01*
X42442380Y-51633571D01*
X42442380Y-51919285D01*
X42394761Y-52014523D01*
X42347142Y-52062142D01*
%TO.C,Q1*%
X35464761Y-37627619D02*
X35369523Y-37580000D01*
X35274285Y-37484761D01*
X35131428Y-37341904D01*
X35036190Y-37294285D01*
X34940952Y-37294285D01*
X34988571Y-37532380D02*
X34893333Y-37484761D01*
X34798095Y-37389523D01*
X34750476Y-37199047D01*
X34750476Y-36865714D01*
X34798095Y-36675238D01*
X34893333Y-36580000D01*
X34988571Y-36532380D01*
X35179047Y-36532380D01*
X35274285Y-36580000D01*
X35369523Y-36675238D01*
X35417142Y-36865714D01*
X35417142Y-37199047D01*
X35369523Y-37389523D01*
X35274285Y-37484761D01*
X35179047Y-37532380D01*
X34988571Y-37532380D01*
X36369523Y-37532380D02*
X35798095Y-37532380D01*
X36083809Y-37532380D02*
X36083809Y-36532380D01*
X35988571Y-36675238D01*
X35893333Y-36770476D01*
X35798095Y-36818095D01*
%TO.C,Y1*%
X49053809Y-31091190D02*
X49053809Y-31567380D01*
X48720476Y-30567380D02*
X49053809Y-31091190D01*
X49387142Y-30567380D01*
X50244285Y-31567380D02*
X49672857Y-31567380D01*
X49958571Y-31567380D02*
X49958571Y-30567380D01*
X49863333Y-30710238D01*
X49768095Y-30805476D01*
X49672857Y-30853095D01*
%TO.C,DD1*%
X49657380Y-58388095D02*
X48657380Y-58388095D01*
X48657380Y-58150000D01*
X48705000Y-58007142D01*
X48800238Y-57911904D01*
X48895476Y-57864285D01*
X49085952Y-57816666D01*
X49228809Y-57816666D01*
X49419285Y-57864285D01*
X49514523Y-57911904D01*
X49609761Y-58007142D01*
X49657380Y-58150000D01*
X49657380Y-58388095D01*
X49657380Y-57388095D02*
X48657380Y-57388095D01*
X48657380Y-57150000D01*
X48705000Y-57007142D01*
X48800238Y-56911904D01*
X48895476Y-56864285D01*
X49085952Y-56816666D01*
X49228809Y-56816666D01*
X49419285Y-56864285D01*
X49514523Y-56911904D01*
X49609761Y-57007142D01*
X49657380Y-57150000D01*
X49657380Y-57388095D01*
X49657380Y-55864285D02*
X49657380Y-56435714D01*
X49657380Y-56150000D02*
X48657380Y-56150000D01*
X48800238Y-56245238D01*
X48895476Y-56340476D01*
X48943095Y-56435714D01*
%TO.C,DD2*%
X59817380Y-58388095D02*
X58817380Y-58388095D01*
X58817380Y-58150000D01*
X58865000Y-58007142D01*
X58960238Y-57911904D01*
X59055476Y-57864285D01*
X59245952Y-57816666D01*
X59388809Y-57816666D01*
X59579285Y-57864285D01*
X59674523Y-57911904D01*
X59769761Y-58007142D01*
X59817380Y-58150000D01*
X59817380Y-58388095D01*
X59817380Y-57388095D02*
X58817380Y-57388095D01*
X58817380Y-57150000D01*
X58865000Y-57007142D01*
X58960238Y-56911904D01*
X59055476Y-56864285D01*
X59245952Y-56816666D01*
X59388809Y-56816666D01*
X59579285Y-56864285D01*
X59674523Y-56911904D01*
X59769761Y-57007142D01*
X59817380Y-57150000D01*
X59817380Y-57388095D01*
X58912619Y-56435714D02*
X58865000Y-56388095D01*
X58817380Y-56292857D01*
X58817380Y-56054761D01*
X58865000Y-55959523D01*
X58912619Y-55911904D01*
X59007857Y-55864285D01*
X59103095Y-55864285D01*
X59245952Y-55911904D01*
X59817380Y-56483333D01*
X59817380Y-55864285D01*
%TD*%
M02*
