M48
; DRILL file {KiCad (5.1.10)-1} date 08/11/21 22:10:20
; FORMAT={-:-/ absolute / inch / decimal}
; #@! TF.CreationDate,2021-08-11T22:10:20+03:00
; #@! TF.GenerationSoftware,Kicad,Pcbnew,(5.1.10)-1
; #@! TF.FileFunction,Plated,1,2,PTH
FMAT,2
INCH
T1C0.0157
T2C0.0295
T3C0.0315
T4C0.0394
T5C0.0433
%
G90
G05
T1
X0.6Y-1.425
X0.6Y-1.475
X0.6Y-1.525
X0.6Y-1.575
X0.6Y-1.625
X0.65Y-1.425
X0.65Y-1.475
X0.65Y-1.525
X0.65Y-1.575
X0.65Y-1.625
X0.7Y-1.425
X0.7Y-1.475
X0.75Y-1.425
X0.75Y-1.475
X0.8Y-1.425
X0.8Y-1.475
X0.9Y-1.2
X0.9Y-1.4
X0.95Y-1.2
X0.95Y-1.4
X0.95Y-2.05
X0.95Y-2.1
X0.95Y-2.3
X0.95Y-2.35
X1.0Y-1.1
X1.0Y-1.15
X1.0Y-1.2
X1.0Y-1.4
X1.0Y-2.05
X1.0Y-2.1
X1.0Y-2.3
X1.0Y-2.35
X1.05Y-1.1
X1.05Y-1.15
X1.05Y-1.2
X1.05Y-1.25
X1.05Y-1.3
X1.05Y-1.35
X1.05Y-1.4
X1.05Y-2.05
X1.05Y-2.1
X1.05Y-2.15
X1.05Y-2.2
X1.05Y-2.25
X1.05Y-2.3
X1.125Y-1.725
X1.25Y-1.75
X1.25Y-1.85
X1.25Y-1.9
X1.25Y-2.05
X1.275Y-0.9
X1.3Y-1.85
X1.3Y-1.9
X1.3Y-2.05
X1.35Y-1.85
X1.35Y-1.9
X1.35Y-2.05
X1.4Y-1.85
X1.4Y-1.9
X1.4Y-2.05
X1.45Y-1.85
X1.45Y-1.9
X1.45Y-1.95
X1.45Y-2.0
X1.45Y-2.05
X1.5Y-1.85
X1.5Y-1.9
X1.5Y-2.05
X1.5Y-2.95
X1.55Y-1.85
X1.55Y-1.9
X1.55Y-2.05
X1.6Y-0.975
X1.6Y-1.85
X1.6Y-1.9
X1.6Y-2.05
X1.675Y-3.025
X1.7Y-2.1
X1.775Y-2.025
X1.825Y-1.2
X1.85Y-1.05
X1.875Y-1.25
X1.9Y-1.125
X1.9Y-1.95
X1.925Y-1.325
X1.95Y-2.2
X1.975Y-1.05
X2.05Y-2.95
X2.2Y-2.175
X2.225Y-1.05
X2.225Y-3.025
X2.275Y-1.4
X2.275Y-2.0
X2.275Y-2.125
X2.325Y-1.65
X2.325Y-2.0
X2.325Y-2.125
X2.425Y-1.95
X2.475Y-2.2
X2.525Y-1.65
X2.6Y-2.95
X2.65Y-2.375
X2.675Y-1.125
X2.775Y-1.925
X2.775Y-2.0
X2.775Y-2.3
X2.775Y-2.4
X2.775Y-3.025
X2.925Y-1.2
X2.925Y-2.25
X3.05Y-1.2
X3.15Y-2.95
X3.3Y-1.125
X3.3Y-1.775
X3.325Y-3.025
X3.35Y-1.2
X3.35Y-1.55
X3.35Y-1.7
X3.35Y-2.3
X3.4Y-0.95
X3.45Y-1.55
X3.45Y-1.85
T2
X1.35Y-1.6
X1.4Y-1.55
X1.45Y-1.6
T3
X1.45Y-1.1
X1.45Y-1.3
X1.55Y-1.2
X1.725Y-1.525
X1.725Y-1.825
X1.825Y-1.525
X1.825Y-1.825
X1.925Y-1.525
X1.925Y-1.825
X2.025Y-1.525
X2.025Y-1.825
X2.125Y-1.525
X2.125Y-1.825
X2.1329Y-1.225
X2.225Y-1.525
X2.225Y-1.825
X2.325Y-1.225
X2.325Y-1.525
X2.325Y-1.825
X2.425Y-1.525
X2.425Y-1.825
X2.525Y-1.525
X2.525Y-1.825
X2.625Y-1.525
X2.625Y-1.825
X2.65Y-0.7
X2.65Y-0.8
X2.65Y-0.9
X2.65Y-1.0
X2.725Y-1.525
X2.725Y-1.825
X2.825Y-1.525
X2.825Y-1.825
X2.925Y-1.525
X2.925Y-1.825
X2.95Y-0.7
X2.95Y-0.8
X2.95Y-0.9
X2.95Y-1.0
X3.025Y-1.525
X3.025Y-1.825
X3.25Y-0.7
X3.25Y-0.8
X3.25Y-0.9
X3.25Y-1.0
X3.25Y-1.35
X3.25Y-1.45
X3.25Y-1.55
X3.25Y-1.65
X3.25Y-1.975
X3.25Y-2.075
X3.25Y-2.175
X3.25Y-2.275
X3.55Y-0.7
X3.55Y-0.8
X3.55Y-0.9
X3.55Y-1.0
X3.55Y-1.35
X3.55Y-1.45
X3.55Y-1.55
X3.55Y-1.65
X3.55Y-1.975
X3.55Y-2.075
X3.55Y-2.175
X3.55Y-2.275
T4
X0.65Y-2.65
X0.65Y-2.75
X0.65Y-2.85
T5
X0.65Y-2.5
X0.65Y-3.0
X1.05Y-2.5
X1.05Y-3.0
X1.125Y-1.95
X1.125Y-2.35
X1.65Y-2.725
X1.65Y-2.9022
X1.9059Y-2.725
X1.9059Y-2.9022
X2.2Y-2.725
X2.2Y-2.9022
X2.4559Y-2.725
X2.4559Y-2.9022
X2.75Y-2.725
X2.75Y-2.9022
X3.0059Y-2.725
X3.0059Y-2.9022
X3.3Y-2.725
X3.3Y-2.9022
X3.5559Y-2.725
X3.5559Y-2.9022
T4
G00X0.8638Y-0.7606
M15
G01X0.8638Y-0.8394
M16
G05
G00X0.9425Y-0.985
M15
G01X1.0213Y-0.985
M16
G05
G00X1.1Y-0.7606
M15
G01X1.1Y-0.8394
M16
G05
T0
M30
