%TF.GenerationSoftware,KiCad,Pcbnew,(5.1.10)-1*%
%TF.CreationDate,2021-08-11T22:10:23+03:00*%
%TF.ProjectId,ambient,616d6269-656e-4742-9e6b-696361645f70,rev?*%
%TF.SameCoordinates,Original*%
%TF.FileFunction,Paste,Top*%
%TF.FilePolarity,Positive*%
%FSLAX46Y46*%
G04 Gerber Fmt 4.6, Leading zero omitted, Abs format (unit mm)*
G04 Created by KiCad (PCBNEW (5.1.10)-1) date 2021-08-11 22:10:23*
%MOMM*%
%LPD*%
G01*
G04 APERTURE LIST*
%ADD10R,3.600000X2.700000*%
%ADD11R,0.610000X2.000000*%
%ADD12R,2.680000X3.600000*%
%ADD13R,1.000000X1.500000*%
G04 APERTURE END LIST*
%TO.C,C1*%
G36*
G01*
X59545000Y-50180001D02*
X59545000Y-48879999D01*
G75*
G02*
X59794999Y-48630000I249999J0D01*
G01*
X60445001Y-48630000D01*
G75*
G02*
X60695000Y-48879999I0J-249999D01*
G01*
X60695000Y-50180001D01*
G75*
G02*
X60445001Y-50430000I-249999J0D01*
G01*
X59794999Y-50430000D01*
G75*
G02*
X59545000Y-50180001I0J249999D01*
G01*
G37*
G36*
G01*
X62495000Y-50180001D02*
X62495000Y-48879999D01*
G75*
G02*
X62744999Y-48630000I249999J0D01*
G01*
X63395001Y-48630000D01*
G75*
G02*
X63645000Y-48879999I0J-249999D01*
G01*
X63645000Y-50180001D01*
G75*
G02*
X63395001Y-50430000I-249999J0D01*
G01*
X62744999Y-50430000D01*
G75*
G02*
X62495000Y-50180001I0J249999D01*
G01*
G37*
%TD*%
%TO.C,C2*%
G36*
G01*
X59425000Y-34909999D02*
X59425000Y-36210001D01*
G75*
G02*
X59175001Y-36460000I-249999J0D01*
G01*
X58524999Y-36460000D01*
G75*
G02*
X58275000Y-36210001I0J249999D01*
G01*
X58275000Y-34909999D01*
G75*
G02*
X58524999Y-34660000I249999J0D01*
G01*
X59175001Y-34660000D01*
G75*
G02*
X59425000Y-34909999I0J-249999D01*
G01*
G37*
G36*
G01*
X62375000Y-34909999D02*
X62375000Y-36210001D01*
G75*
G02*
X62125001Y-36460000I-249999J0D01*
G01*
X61474999Y-36460000D01*
G75*
G02*
X61225000Y-36210001I0J249999D01*
G01*
X61225000Y-34909999D01*
G75*
G02*
X61474999Y-34660000I249999J0D01*
G01*
X62125001Y-34660000D01*
G75*
G02*
X62375000Y-34909999I0J-249999D01*
G01*
G37*
%TD*%
%TO.C,C3*%
G36*
G01*
X60820000Y-26195000D02*
X60820000Y-27145000D01*
G75*
G02*
X60570000Y-27395000I-250000J0D01*
G01*
X60070000Y-27395000D01*
G75*
G02*
X59820000Y-27145000I0J250000D01*
G01*
X59820000Y-26195000D01*
G75*
G02*
X60070000Y-25945000I250000J0D01*
G01*
X60570000Y-25945000D01*
G75*
G02*
X60820000Y-26195000I0J-250000D01*
G01*
G37*
G36*
G01*
X58920000Y-26195000D02*
X58920000Y-27145000D01*
G75*
G02*
X58670000Y-27395000I-250000J0D01*
G01*
X58170000Y-27395000D01*
G75*
G02*
X57920000Y-27145000I0J250000D01*
G01*
X57920000Y-26195000D01*
G75*
G02*
X58170000Y-25945000I250000J0D01*
G01*
X58670000Y-25945000D01*
G75*
G02*
X58920000Y-26195000I0J-250000D01*
G01*
G37*
%TD*%
%TO.C,C4*%
G36*
G01*
X54425000Y-27145000D02*
X54425000Y-26195000D01*
G75*
G02*
X54675000Y-25945000I250000J0D01*
G01*
X55175000Y-25945000D01*
G75*
G02*
X55425000Y-26195000I0J-250000D01*
G01*
X55425000Y-27145000D01*
G75*
G02*
X55175000Y-27395000I-250000J0D01*
G01*
X54675000Y-27395000D01*
G75*
G02*
X54425000Y-27145000I0J250000D01*
G01*
G37*
G36*
G01*
X52525000Y-27145000D02*
X52525000Y-26195000D01*
G75*
G02*
X52775000Y-25945000I250000J0D01*
G01*
X53275000Y-25945000D01*
G75*
G02*
X53525000Y-26195000I0J-250000D01*
G01*
X53525000Y-27145000D01*
G75*
G02*
X53275000Y-27395000I-250000J0D01*
G01*
X52775000Y-27395000D01*
G75*
G02*
X52525000Y-27145000I0J250000D01*
G01*
G37*
%TD*%
%TO.C,R1*%
G36*
G01*
X53542500Y-36010002D02*
X53542500Y-35109998D01*
G75*
G02*
X53792498Y-34860000I249998J0D01*
G01*
X54317502Y-34860000D01*
G75*
G02*
X54567500Y-35109998I0J-249998D01*
G01*
X54567500Y-36010002D01*
G75*
G02*
X54317502Y-36260000I-249998J0D01*
G01*
X53792498Y-36260000D01*
G75*
G02*
X53542500Y-36010002I0J249998D01*
G01*
G37*
G36*
G01*
X55367500Y-36010002D02*
X55367500Y-35109998D01*
G75*
G02*
X55617498Y-34860000I249998J0D01*
G01*
X56142502Y-34860000D01*
G75*
G02*
X56392500Y-35109998I0J-249998D01*
G01*
X56392500Y-36010002D01*
G75*
G02*
X56142502Y-36260000I-249998J0D01*
G01*
X55617498Y-36260000D01*
G75*
G02*
X55367500Y-36010002I0J249998D01*
G01*
G37*
%TD*%
%TO.C,C5*%
G36*
G01*
X15320000Y-34020000D02*
X15320000Y-32020000D01*
G75*
G02*
X15570000Y-31770000I250000J0D01*
G01*
X18570000Y-31770000D01*
G75*
G02*
X18820000Y-32020000I0J-250000D01*
G01*
X18820000Y-34020000D01*
G75*
G02*
X18570000Y-34270000I-250000J0D01*
G01*
X15570000Y-34270000D01*
G75*
G02*
X15320000Y-34020000I0J250000D01*
G01*
G37*
G36*
G01*
X21820000Y-34020000D02*
X21820000Y-32020000D01*
G75*
G02*
X22070000Y-31770000I250000J0D01*
G01*
X25070000Y-31770000D01*
G75*
G02*
X25320000Y-32020000I0J-250000D01*
G01*
X25320000Y-34020000D01*
G75*
G02*
X25070000Y-34270000I-250000J0D01*
G01*
X22070000Y-34270000D01*
G75*
G02*
X21820000Y-34020000I0J250000D01*
G01*
G37*
%TD*%
%TO.C,C6*%
G36*
G01*
X21820000Y-56880000D02*
X21820000Y-54880000D01*
G75*
G02*
X22070000Y-54630000I250000J0D01*
G01*
X25070000Y-54630000D01*
G75*
G02*
X25320000Y-54880000I0J-250000D01*
G01*
X25320000Y-56880000D01*
G75*
G02*
X25070000Y-57130000I-250000J0D01*
G01*
X22070000Y-57130000D01*
G75*
G02*
X21820000Y-56880000I0J250000D01*
G01*
G37*
G36*
G01*
X15320000Y-56880000D02*
X15320000Y-54880000D01*
G75*
G02*
X15570000Y-54630000I250000J0D01*
G01*
X18570000Y-54630000D01*
G75*
G02*
X18820000Y-54880000I0J-250000D01*
G01*
X18820000Y-56880000D01*
G75*
G02*
X18570000Y-57130000I-250000J0D01*
G01*
X15570000Y-57130000D01*
G75*
G02*
X15320000Y-56880000I0J250000D01*
G01*
G37*
%TD*%
%TO.C,C7*%
G36*
G01*
X37449999Y-69705000D02*
X38750001Y-69705000D01*
G75*
G02*
X39000000Y-69954999I0J-249999D01*
G01*
X39000000Y-70605001D01*
G75*
G02*
X38750001Y-70855000I-249999J0D01*
G01*
X37449999Y-70855000D01*
G75*
G02*
X37200000Y-70605001I0J249999D01*
G01*
X37200000Y-69954999D01*
G75*
G02*
X37449999Y-69705000I249999J0D01*
G01*
G37*
G36*
G01*
X37449999Y-72655000D02*
X38750001Y-72655000D01*
G75*
G02*
X39000000Y-72904999I0J-249999D01*
G01*
X39000000Y-73555001D01*
G75*
G02*
X38750001Y-73805000I-249999J0D01*
G01*
X37449999Y-73805000D01*
G75*
G02*
X37200000Y-73555001I0J249999D01*
G01*
X37200000Y-72904999D01*
G75*
G02*
X37449999Y-72655000I249999J0D01*
G01*
G37*
%TD*%
D10*
%TO.C,L1*%
X20320000Y-40300000D03*
X20320000Y-48600000D03*
%TD*%
%TO.C,R2*%
G36*
G01*
X45485000Y-65855002D02*
X45485000Y-64954998D01*
G75*
G02*
X45734998Y-64705000I249998J0D01*
G01*
X46260002Y-64705000D01*
G75*
G02*
X46510000Y-64954998I0J-249998D01*
G01*
X46510000Y-65855002D01*
G75*
G02*
X46260002Y-66105000I-249998J0D01*
G01*
X45734998Y-66105000D01*
G75*
G02*
X45485000Y-65855002I0J249998D01*
G01*
G37*
G36*
G01*
X43660000Y-65855002D02*
X43660000Y-64954998D01*
G75*
G02*
X43909998Y-64705000I249998J0D01*
G01*
X44435002Y-64705000D01*
G75*
G02*
X44685000Y-64954998I0J-249998D01*
G01*
X44685000Y-65855002D01*
G75*
G02*
X44435002Y-66105000I-249998J0D01*
G01*
X43909998Y-66105000D01*
G75*
G02*
X43660000Y-65855002I0J249998D01*
G01*
G37*
%TD*%
%TO.C,R3*%
G36*
G01*
X43660000Y-77285002D02*
X43660000Y-76384998D01*
G75*
G02*
X43909998Y-76135000I249998J0D01*
G01*
X44435002Y-76135000D01*
G75*
G02*
X44685000Y-76384998I0J-249998D01*
G01*
X44685000Y-77285002D01*
G75*
G02*
X44435002Y-77535000I-249998J0D01*
G01*
X43909998Y-77535000D01*
G75*
G02*
X43660000Y-77285002I0J249998D01*
G01*
G37*
G36*
G01*
X45485000Y-77285002D02*
X45485000Y-76384998D01*
G75*
G02*
X45734998Y-76135000I249998J0D01*
G01*
X46260002Y-76135000D01*
G75*
G02*
X46510000Y-76384998I0J-249998D01*
G01*
X46510000Y-77285002D01*
G75*
G02*
X46260002Y-77535000I-249998J0D01*
G01*
X45734998Y-77535000D01*
G75*
G02*
X45485000Y-77285002I0J249998D01*
G01*
G37*
%TD*%
%TO.C,C8*%
G36*
G01*
X79359999Y-69705000D02*
X80660001Y-69705000D01*
G75*
G02*
X80910000Y-69954999I0J-249999D01*
G01*
X80910000Y-70605001D01*
G75*
G02*
X80660001Y-70855000I-249999J0D01*
G01*
X79359999Y-70855000D01*
G75*
G02*
X79110000Y-70605001I0J249999D01*
G01*
X79110000Y-69954999D01*
G75*
G02*
X79359999Y-69705000I249999J0D01*
G01*
G37*
G36*
G01*
X79359999Y-72655000D02*
X80660001Y-72655000D01*
G75*
G02*
X80910000Y-72904999I0J-249999D01*
G01*
X80910000Y-73555001D01*
G75*
G02*
X80660001Y-73805000I-249999J0D01*
G01*
X79359999Y-73805000D01*
G75*
G02*
X79110000Y-73555001I0J249999D01*
G01*
X79110000Y-72904999D01*
G75*
G02*
X79359999Y-72655000I249999J0D01*
G01*
G37*
%TD*%
%TO.C,C9*%
G36*
G01*
X51419999Y-72655000D02*
X52720001Y-72655000D01*
G75*
G02*
X52970000Y-72904999I0J-249999D01*
G01*
X52970000Y-73555001D01*
G75*
G02*
X52720001Y-73805000I-249999J0D01*
G01*
X51419999Y-73805000D01*
G75*
G02*
X51170000Y-73555001I0J249999D01*
G01*
X51170000Y-72904999D01*
G75*
G02*
X51419999Y-72655000I249999J0D01*
G01*
G37*
G36*
G01*
X51419999Y-69705000D02*
X52720001Y-69705000D01*
G75*
G02*
X52970000Y-69954999I0J-249999D01*
G01*
X52970000Y-70605001D01*
G75*
G02*
X52720001Y-70855000I-249999J0D01*
G01*
X51419999Y-70855000D01*
G75*
G02*
X51170000Y-70605001I0J249999D01*
G01*
X51170000Y-69954999D01*
G75*
G02*
X51419999Y-69705000I249999J0D01*
G01*
G37*
%TD*%
%TO.C,C10*%
G36*
G01*
X65389999Y-72655000D02*
X66690001Y-72655000D01*
G75*
G02*
X66940000Y-72904999I0J-249999D01*
G01*
X66940000Y-73555001D01*
G75*
G02*
X66690001Y-73805000I-249999J0D01*
G01*
X65389999Y-73805000D01*
G75*
G02*
X65140000Y-73555001I0J249999D01*
G01*
X65140000Y-72904999D01*
G75*
G02*
X65389999Y-72655000I249999J0D01*
G01*
G37*
G36*
G01*
X65389999Y-69705000D02*
X66690001Y-69705000D01*
G75*
G02*
X66940000Y-69954999I0J-249999D01*
G01*
X66940000Y-70605001D01*
G75*
G02*
X66690001Y-70855000I-249999J0D01*
G01*
X65389999Y-70855000D01*
G75*
G02*
X65140000Y-70605001I0J249999D01*
G01*
X65140000Y-69954999D01*
G75*
G02*
X65389999Y-69705000I249999J0D01*
G01*
G37*
%TD*%
%TO.C,C11*%
G36*
G01*
X31734999Y-17205000D02*
X33035001Y-17205000D01*
G75*
G02*
X33285000Y-17454999I0J-249999D01*
G01*
X33285000Y-18105001D01*
G75*
G02*
X33035001Y-18355000I-249999J0D01*
G01*
X31734999Y-18355000D01*
G75*
G02*
X31485000Y-18105001I0J249999D01*
G01*
X31485000Y-17454999D01*
G75*
G02*
X31734999Y-17205000I249999J0D01*
G01*
G37*
G36*
G01*
X31734999Y-20155000D02*
X33035001Y-20155000D01*
G75*
G02*
X33285000Y-20404999I0J-249999D01*
G01*
X33285000Y-21055001D01*
G75*
G02*
X33035001Y-21305000I-249999J0D01*
G01*
X31734999Y-21305000D01*
G75*
G02*
X31485000Y-21055001I0J249999D01*
G01*
X31485000Y-20404999D01*
G75*
G02*
X31734999Y-20155000I249999J0D01*
G01*
G37*
%TD*%
%TO.C,D1*%
G36*
G01*
X29031250Y-33840000D02*
X28118750Y-33840000D01*
G75*
G02*
X27875000Y-33596250I0J243750D01*
G01*
X27875000Y-33108750D01*
G75*
G02*
X28118750Y-32865000I243750J0D01*
G01*
X29031250Y-32865000D01*
G75*
G02*
X29275000Y-33108750I0J-243750D01*
G01*
X29275000Y-33596250D01*
G75*
G02*
X29031250Y-33840000I-243750J0D01*
G01*
G37*
G36*
G01*
X29031250Y-35715000D02*
X28118750Y-35715000D01*
G75*
G02*
X27875000Y-35471250I0J243750D01*
G01*
X27875000Y-34983750D01*
G75*
G02*
X28118750Y-34740000I243750J0D01*
G01*
X29031250Y-34740000D01*
G75*
G02*
X29275000Y-34983750I0J-243750D01*
G01*
X29275000Y-35471250D01*
G75*
G02*
X29031250Y-35715000I-243750J0D01*
G01*
G37*
%TD*%
%TO.C,D2*%
G36*
G01*
X49375000Y-49986250D02*
X49375000Y-49073750D01*
G75*
G02*
X49618750Y-48830000I243750J0D01*
G01*
X50106250Y-48830000D01*
G75*
G02*
X50350000Y-49073750I0J-243750D01*
G01*
X50350000Y-49986250D01*
G75*
G02*
X50106250Y-50230000I-243750J0D01*
G01*
X49618750Y-50230000D01*
G75*
G02*
X49375000Y-49986250I0J243750D01*
G01*
G37*
G36*
G01*
X51250000Y-49986250D02*
X51250000Y-49073750D01*
G75*
G02*
X51493750Y-48830000I243750J0D01*
G01*
X51981250Y-48830000D01*
G75*
G02*
X52225000Y-49073750I0J-243750D01*
G01*
X52225000Y-49986250D01*
G75*
G02*
X51981250Y-50230000I-243750J0D01*
G01*
X51493750Y-50230000D01*
G75*
G02*
X51250000Y-49986250I0J243750D01*
G01*
G37*
%TD*%
D11*
%TO.C,J2*%
X48950000Y-22755000D03*
X47950000Y-22755000D03*
X46950000Y-22755000D03*
X45950000Y-22755000D03*
X44950000Y-22755000D03*
X43950000Y-22755000D03*
X42950000Y-22755000D03*
X41950000Y-22755000D03*
X40950000Y-22755000D03*
X39950000Y-22755000D03*
D12*
X51940000Y-19955000D03*
X36960000Y-19955000D03*
%TD*%
%TO.C,R4*%
G36*
G01*
X85570000Y-65855002D02*
X85570000Y-64954998D01*
G75*
G02*
X85819998Y-64705000I249998J0D01*
G01*
X86345002Y-64705000D01*
G75*
G02*
X86595000Y-64954998I0J-249998D01*
G01*
X86595000Y-65855002D01*
G75*
G02*
X86345002Y-66105000I-249998J0D01*
G01*
X85819998Y-66105000D01*
G75*
G02*
X85570000Y-65855002I0J249998D01*
G01*
G37*
G36*
G01*
X87395000Y-65855002D02*
X87395000Y-64954998D01*
G75*
G02*
X87644998Y-64705000I249998J0D01*
G01*
X88170002Y-64705000D01*
G75*
G02*
X88420000Y-64954998I0J-249998D01*
G01*
X88420000Y-65855002D01*
G75*
G02*
X88170002Y-66105000I-249998J0D01*
G01*
X87644998Y-66105000D01*
G75*
G02*
X87395000Y-65855002I0J249998D01*
G01*
G37*
%TD*%
%TO.C,R5*%
G36*
G01*
X87395000Y-77285002D02*
X87395000Y-76384998D01*
G75*
G02*
X87644998Y-76135000I249998J0D01*
G01*
X88170002Y-76135000D01*
G75*
G02*
X88420000Y-76384998I0J-249998D01*
G01*
X88420000Y-77285002D01*
G75*
G02*
X88170002Y-77535000I-249998J0D01*
G01*
X87644998Y-77535000D01*
G75*
G02*
X87395000Y-77285002I0J249998D01*
G01*
G37*
G36*
G01*
X85570000Y-77285002D02*
X85570000Y-76384998D01*
G75*
G02*
X85819998Y-76135000I249998J0D01*
G01*
X86345002Y-76135000D01*
G75*
G02*
X86595000Y-76384998I0J-249998D01*
G01*
X86595000Y-77285002D01*
G75*
G02*
X86345002Y-77535000I-249998J0D01*
G01*
X85819998Y-77535000D01*
G75*
G02*
X85570000Y-77285002I0J249998D01*
G01*
G37*
%TD*%
%TO.C,R6*%
G36*
G01*
X59455000Y-65855002D02*
X59455000Y-64954998D01*
G75*
G02*
X59704998Y-64705000I249998J0D01*
G01*
X60230002Y-64705000D01*
G75*
G02*
X60480000Y-64954998I0J-249998D01*
G01*
X60480000Y-65855002D01*
G75*
G02*
X60230002Y-66105000I-249998J0D01*
G01*
X59704998Y-66105000D01*
G75*
G02*
X59455000Y-65855002I0J249998D01*
G01*
G37*
G36*
G01*
X57630000Y-65855002D02*
X57630000Y-64954998D01*
G75*
G02*
X57879998Y-64705000I249998J0D01*
G01*
X58405002Y-64705000D01*
G75*
G02*
X58655000Y-64954998I0J-249998D01*
G01*
X58655000Y-65855002D01*
G75*
G02*
X58405002Y-66105000I-249998J0D01*
G01*
X57879998Y-66105000D01*
G75*
G02*
X57630000Y-65855002I0J249998D01*
G01*
G37*
%TD*%
%TO.C,R7*%
G36*
G01*
X57630000Y-77285002D02*
X57630000Y-76384998D01*
G75*
G02*
X57879998Y-76135000I249998J0D01*
G01*
X58405002Y-76135000D01*
G75*
G02*
X58655000Y-76384998I0J-249998D01*
G01*
X58655000Y-77285002D01*
G75*
G02*
X58405002Y-77535000I-249998J0D01*
G01*
X57879998Y-77535000D01*
G75*
G02*
X57630000Y-77285002I0J249998D01*
G01*
G37*
G36*
G01*
X59455000Y-77285002D02*
X59455000Y-76384998D01*
G75*
G02*
X59704998Y-76135000I249998J0D01*
G01*
X60230002Y-76135000D01*
G75*
G02*
X60480000Y-76384998I0J-249998D01*
G01*
X60480000Y-77285002D01*
G75*
G02*
X60230002Y-77535000I-249998J0D01*
G01*
X59704998Y-77535000D01*
G75*
G02*
X59455000Y-77285002I0J249998D01*
G01*
G37*
%TD*%
%TO.C,R8*%
G36*
G01*
X73425000Y-65855002D02*
X73425000Y-64954998D01*
G75*
G02*
X73674998Y-64705000I249998J0D01*
G01*
X74200002Y-64705000D01*
G75*
G02*
X74450000Y-64954998I0J-249998D01*
G01*
X74450000Y-65855002D01*
G75*
G02*
X74200002Y-66105000I-249998J0D01*
G01*
X73674998Y-66105000D01*
G75*
G02*
X73425000Y-65855002I0J249998D01*
G01*
G37*
G36*
G01*
X71600000Y-65855002D02*
X71600000Y-64954998D01*
G75*
G02*
X71849998Y-64705000I249998J0D01*
G01*
X72375002Y-64705000D01*
G75*
G02*
X72625000Y-64954998I0J-249998D01*
G01*
X72625000Y-65855002D01*
G75*
G02*
X72375002Y-66105000I-249998J0D01*
G01*
X71849998Y-66105000D01*
G75*
G02*
X71600000Y-65855002I0J249998D01*
G01*
G37*
%TD*%
%TO.C,R9*%
G36*
G01*
X71600000Y-77285002D02*
X71600000Y-76384998D01*
G75*
G02*
X71849998Y-76135000I249998J0D01*
G01*
X72375002Y-76135000D01*
G75*
G02*
X72625000Y-76384998I0J-249998D01*
G01*
X72625000Y-77285002D01*
G75*
G02*
X72375002Y-77535000I-249998J0D01*
G01*
X71849998Y-77535000D01*
G75*
G02*
X71600000Y-77285002I0J249998D01*
G01*
G37*
G36*
G01*
X73425000Y-77285002D02*
X73425000Y-76384998D01*
G75*
G02*
X73674998Y-76135000I249998J0D01*
G01*
X74200002Y-76135000D01*
G75*
G02*
X74450000Y-76384998I0J-249998D01*
G01*
X74450000Y-77285002D01*
G75*
G02*
X74200002Y-77535000I-249998J0D01*
G01*
X73674998Y-77535000D01*
G75*
G02*
X73425000Y-77285002I0J249998D01*
G01*
G37*
%TD*%
%TO.C,R10*%
G36*
G01*
X29025002Y-30635000D02*
X28124998Y-30635000D01*
G75*
G02*
X27875000Y-30385002I0J249998D01*
G01*
X27875000Y-29859998D01*
G75*
G02*
X28124998Y-29610000I249998J0D01*
G01*
X29025002Y-29610000D01*
G75*
G02*
X29275000Y-29859998I0J-249998D01*
G01*
X29275000Y-30385002D01*
G75*
G02*
X29025002Y-30635000I-249998J0D01*
G01*
G37*
G36*
G01*
X29025002Y-28810000D02*
X28124998Y-28810000D01*
G75*
G02*
X27875000Y-28560002I0J249998D01*
G01*
X27875000Y-28034998D01*
G75*
G02*
X28124998Y-27785000I249998J0D01*
G01*
X29025002Y-27785000D01*
G75*
G02*
X29275000Y-28034998I0J-249998D01*
G01*
X29275000Y-28560002D01*
G75*
G02*
X29025002Y-28810000I-249998J0D01*
G01*
G37*
%TD*%
%TO.C,R11*%
G36*
G01*
X55645000Y-49980002D02*
X55645000Y-49079998D01*
G75*
G02*
X55894998Y-48830000I249998J0D01*
G01*
X56420002Y-48830000D01*
G75*
G02*
X56670000Y-49079998I0J-249998D01*
G01*
X56670000Y-49980002D01*
G75*
G02*
X56420002Y-50230000I-249998J0D01*
G01*
X55894998Y-50230000D01*
G75*
G02*
X55645000Y-49980002I0J249998D01*
G01*
G37*
G36*
G01*
X53820000Y-49980002D02*
X53820000Y-49079998D01*
G75*
G02*
X54069998Y-48830000I249998J0D01*
G01*
X54595002Y-48830000D01*
G75*
G02*
X54845000Y-49079998I0J-249998D01*
G01*
X54845000Y-49980002D01*
G75*
G02*
X54595002Y-50230000I-249998J0D01*
G01*
X54069998Y-50230000D01*
G75*
G02*
X53820000Y-49980002I0J249998D01*
G01*
G37*
%TD*%
%TO.C,C12*%
G36*
G01*
X73170000Y-27924999D02*
X73170000Y-29225001D01*
G75*
G02*
X72920001Y-29475000I-249999J0D01*
G01*
X72269999Y-29475000D01*
G75*
G02*
X72020000Y-29225001I0J249999D01*
G01*
X72020000Y-27924999D01*
G75*
G02*
X72269999Y-27675000I249999J0D01*
G01*
X72920001Y-27675000D01*
G75*
G02*
X73170000Y-27924999I0J-249999D01*
G01*
G37*
G36*
G01*
X70220000Y-27924999D02*
X70220000Y-29225001D01*
G75*
G02*
X69970001Y-29475000I-249999J0D01*
G01*
X69319999Y-29475000D01*
G75*
G02*
X69070000Y-29225001I0J249999D01*
G01*
X69070000Y-27924999D01*
G75*
G02*
X69319999Y-27675000I249999J0D01*
G01*
X69970001Y-27675000D01*
G75*
G02*
X70220000Y-27924999I0J-249999D01*
G01*
G37*
%TD*%
%TO.C,C13*%
G36*
G01*
X85460000Y-27924999D02*
X85460000Y-29225001D01*
G75*
G02*
X85210001Y-29475000I-249999J0D01*
G01*
X84559999Y-29475000D01*
G75*
G02*
X84310000Y-29225001I0J249999D01*
G01*
X84310000Y-27924999D01*
G75*
G02*
X84559999Y-27675000I249999J0D01*
G01*
X85210001Y-27675000D01*
G75*
G02*
X85460000Y-27924999I0J-249999D01*
G01*
G37*
G36*
G01*
X88410000Y-27924999D02*
X88410000Y-29225001D01*
G75*
G02*
X88160001Y-29475000I-249999J0D01*
G01*
X87509999Y-29475000D01*
G75*
G02*
X87260000Y-29225001I0J249999D01*
G01*
X87260000Y-27924999D01*
G75*
G02*
X87509999Y-27675000I249999J0D01*
G01*
X88160001Y-27675000D01*
G75*
G02*
X88410000Y-27924999I0J-249999D01*
G01*
G37*
%TD*%
%TO.C,C14*%
G36*
G01*
X88410000Y-44434999D02*
X88410000Y-45735001D01*
G75*
G02*
X88160001Y-45985000I-249999J0D01*
G01*
X87509999Y-45985000D01*
G75*
G02*
X87260000Y-45735001I0J249999D01*
G01*
X87260000Y-44434999D01*
G75*
G02*
X87509999Y-44185000I249999J0D01*
G01*
X88160001Y-44185000D01*
G75*
G02*
X88410000Y-44434999I0J-249999D01*
G01*
G37*
G36*
G01*
X85460000Y-44434999D02*
X85460000Y-45735001D01*
G75*
G02*
X85210001Y-45985000I-249999J0D01*
G01*
X84559999Y-45985000D01*
G75*
G02*
X84310000Y-45735001I0J249999D01*
G01*
X84310000Y-44434999D01*
G75*
G02*
X84559999Y-44185000I249999J0D01*
G01*
X85210001Y-44185000D01*
G75*
G02*
X85460000Y-44434999I0J-249999D01*
G01*
G37*
%TD*%
%TO.C,C15*%
G36*
G01*
X85460000Y-60309999D02*
X85460000Y-61610001D01*
G75*
G02*
X85210001Y-61860000I-249999J0D01*
G01*
X84559999Y-61860000D01*
G75*
G02*
X84310000Y-61610001I0J249999D01*
G01*
X84310000Y-60309999D01*
G75*
G02*
X84559999Y-60060000I249999J0D01*
G01*
X85210001Y-60060000D01*
G75*
G02*
X85460000Y-60309999I0J-249999D01*
G01*
G37*
G36*
G01*
X88410000Y-60309999D02*
X88410000Y-61610001D01*
G75*
G02*
X88160001Y-61860000I-249999J0D01*
G01*
X87509999Y-61860000D01*
G75*
G02*
X87260000Y-61610001I0J249999D01*
G01*
X87260000Y-60309999D01*
G75*
G02*
X87509999Y-60060000I249999J0D01*
G01*
X88160001Y-60060000D01*
G75*
G02*
X88410000Y-60309999I0J-249999D01*
G01*
G37*
%TD*%
%TO.C,R12*%
G36*
G01*
X77235000Y-29025002D02*
X77235000Y-28124998D01*
G75*
G02*
X77484998Y-27875000I249998J0D01*
G01*
X78010002Y-27875000D01*
G75*
G02*
X78260000Y-28124998I0J-249998D01*
G01*
X78260000Y-29025002D01*
G75*
G02*
X78010002Y-29275000I-249998J0D01*
G01*
X77484998Y-29275000D01*
G75*
G02*
X77235000Y-29025002I0J249998D01*
G01*
G37*
G36*
G01*
X75410000Y-29025002D02*
X75410000Y-28124998D01*
G75*
G02*
X75659998Y-27875000I249998J0D01*
G01*
X76185002Y-27875000D01*
G75*
G02*
X76435000Y-28124998I0J-249998D01*
G01*
X76435000Y-29025002D01*
G75*
G02*
X76185002Y-29275000I-249998J0D01*
G01*
X75659998Y-29275000D01*
G75*
G02*
X75410000Y-29025002I0J249998D01*
G01*
G37*
%TD*%
%TO.C,R13*%
G36*
G01*
X82705000Y-28124998D02*
X82705000Y-29025002D01*
G75*
G02*
X82455002Y-29275000I-249998J0D01*
G01*
X81929998Y-29275000D01*
G75*
G02*
X81680000Y-29025002I0J249998D01*
G01*
X81680000Y-28124998D01*
G75*
G02*
X81929998Y-27875000I249998J0D01*
G01*
X82455002Y-27875000D01*
G75*
G02*
X82705000Y-28124998I0J-249998D01*
G01*
G37*
G36*
G01*
X80880000Y-28124998D02*
X80880000Y-29025002D01*
G75*
G02*
X80630002Y-29275000I-249998J0D01*
G01*
X80104998Y-29275000D01*
G75*
G02*
X79855000Y-29025002I0J249998D01*
G01*
X79855000Y-28124998D01*
G75*
G02*
X80104998Y-27875000I249998J0D01*
G01*
X80630002Y-27875000D01*
G75*
G02*
X80880000Y-28124998I0J-249998D01*
G01*
G37*
%TD*%
%TO.C,R14*%
G36*
G01*
X79190002Y-20555000D02*
X78289998Y-20555000D01*
G75*
G02*
X78040000Y-20305002I0J249998D01*
G01*
X78040000Y-19779998D01*
G75*
G02*
X78289998Y-19530000I249998J0D01*
G01*
X79190002Y-19530000D01*
G75*
G02*
X79440000Y-19779998I0J-249998D01*
G01*
X79440000Y-20305002D01*
G75*
G02*
X79190002Y-20555000I-249998J0D01*
G01*
G37*
G36*
G01*
X79190002Y-22380000D02*
X78289998Y-22380000D01*
G75*
G02*
X78040000Y-22130002I0J249998D01*
G01*
X78040000Y-21604998D01*
G75*
G02*
X78289998Y-21355000I249998J0D01*
G01*
X79190002Y-21355000D01*
G75*
G02*
X79440000Y-21604998I0J-249998D01*
G01*
X79440000Y-22130002D01*
G75*
G02*
X79190002Y-22380000I-249998J0D01*
G01*
G37*
%TD*%
%TO.C,R15*%
G36*
G01*
X80880000Y-44634998D02*
X80880000Y-45535002D01*
G75*
G02*
X80630002Y-45785000I-249998J0D01*
G01*
X80104998Y-45785000D01*
G75*
G02*
X79855000Y-45535002I0J249998D01*
G01*
X79855000Y-44634998D01*
G75*
G02*
X80104998Y-44385000I249998J0D01*
G01*
X80630002Y-44385000D01*
G75*
G02*
X80880000Y-44634998I0J-249998D01*
G01*
G37*
G36*
G01*
X82705000Y-44634998D02*
X82705000Y-45535002D01*
G75*
G02*
X82455002Y-45785000I-249998J0D01*
G01*
X81929998Y-45785000D01*
G75*
G02*
X81680000Y-45535002I0J249998D01*
G01*
X81680000Y-44634998D01*
G75*
G02*
X81929998Y-44385000I249998J0D01*
G01*
X82455002Y-44385000D01*
G75*
G02*
X82705000Y-44634998I0J-249998D01*
G01*
G37*
%TD*%
%TO.C,R16*%
G36*
G01*
X75410000Y-53155002D02*
X75410000Y-52254998D01*
G75*
G02*
X75659998Y-52005000I249998J0D01*
G01*
X76185002Y-52005000D01*
G75*
G02*
X76435000Y-52254998I0J-249998D01*
G01*
X76435000Y-53155002D01*
G75*
G02*
X76185002Y-53405000I-249998J0D01*
G01*
X75659998Y-53405000D01*
G75*
G02*
X75410000Y-53155002I0J249998D01*
G01*
G37*
G36*
G01*
X77235000Y-53155002D02*
X77235000Y-52254998D01*
G75*
G02*
X77484998Y-52005000I249998J0D01*
G01*
X78010002Y-52005000D01*
G75*
G02*
X78260000Y-52254998I0J-249998D01*
G01*
X78260000Y-53155002D01*
G75*
G02*
X78010002Y-53405000I-249998J0D01*
G01*
X77484998Y-53405000D01*
G75*
G02*
X77235000Y-53155002I0J249998D01*
G01*
G37*
%TD*%
%TO.C,R17*%
G36*
G01*
X75410000Y-55695002D02*
X75410000Y-54794998D01*
G75*
G02*
X75659998Y-54545000I249998J0D01*
G01*
X76185002Y-54545000D01*
G75*
G02*
X76435000Y-54794998I0J-249998D01*
G01*
X76435000Y-55695002D01*
G75*
G02*
X76185002Y-55945000I-249998J0D01*
G01*
X75659998Y-55945000D01*
G75*
G02*
X75410000Y-55695002I0J249998D01*
G01*
G37*
G36*
G01*
X77235000Y-55695002D02*
X77235000Y-54794998D01*
G75*
G02*
X77484998Y-54545000I249998J0D01*
G01*
X78010002Y-54545000D01*
G75*
G02*
X78260000Y-54794998I0J-249998D01*
G01*
X78260000Y-55695002D01*
G75*
G02*
X78010002Y-55945000I-249998J0D01*
G01*
X77484998Y-55945000D01*
G75*
G02*
X77235000Y-55695002I0J249998D01*
G01*
G37*
%TD*%
%TO.C,C16*%
G36*
G01*
X58435001Y-56250000D02*
X57134999Y-56250000D01*
G75*
G02*
X56885000Y-56000001I0J249999D01*
G01*
X56885000Y-55349999D01*
G75*
G02*
X57134999Y-55100000I249999J0D01*
G01*
X58435001Y-55100000D01*
G75*
G02*
X58685000Y-55349999I0J-249999D01*
G01*
X58685000Y-56000001D01*
G75*
G02*
X58435001Y-56250000I-249999J0D01*
G01*
G37*
G36*
G01*
X58435001Y-59200000D02*
X57134999Y-59200000D01*
G75*
G02*
X56885000Y-58950001I0J249999D01*
G01*
X56885000Y-58299999D01*
G75*
G02*
X57134999Y-58050000I249999J0D01*
G01*
X58435001Y-58050000D01*
G75*
G02*
X58685000Y-58299999I0J-249999D01*
G01*
X58685000Y-58950001D01*
G75*
G02*
X58435001Y-59200000I-249999J0D01*
G01*
G37*
%TD*%
%TO.C,C17*%
G36*
G01*
X67294999Y-55100000D02*
X68595001Y-55100000D01*
G75*
G02*
X68845000Y-55349999I0J-249999D01*
G01*
X68845000Y-56000001D01*
G75*
G02*
X68595001Y-56250000I-249999J0D01*
G01*
X67294999Y-56250000D01*
G75*
G02*
X67045000Y-56000001I0J249999D01*
G01*
X67045000Y-55349999D01*
G75*
G02*
X67294999Y-55100000I249999J0D01*
G01*
G37*
G36*
G01*
X67294999Y-58050000D02*
X68595001Y-58050000D01*
G75*
G02*
X68845000Y-58299999I0J-249999D01*
G01*
X68845000Y-58950001D01*
G75*
G02*
X68595001Y-59200000I-249999J0D01*
G01*
X67294999Y-59200000D01*
G75*
G02*
X67045000Y-58950001I0J249999D01*
G01*
X67045000Y-58299999D01*
G75*
G02*
X67294999Y-58050000I249999J0D01*
G01*
G37*
%TD*%
%TO.C,C18*%
G36*
G01*
X37610000Y-43799999D02*
X37610000Y-45100001D01*
G75*
G02*
X37360001Y-45350000I-249999J0D01*
G01*
X36709999Y-45350000D01*
G75*
G02*
X36460000Y-45100001I0J249999D01*
G01*
X36460000Y-43799999D01*
G75*
G02*
X36709999Y-43550000I249999J0D01*
G01*
X37360001Y-43550000D01*
G75*
G02*
X37610000Y-43799999I0J-249999D01*
G01*
G37*
G36*
G01*
X34660000Y-43799999D02*
X34660000Y-45100001D01*
G75*
G02*
X34410001Y-45350000I-249999J0D01*
G01*
X33759999Y-45350000D01*
G75*
G02*
X33510000Y-45100001I0J249999D01*
G01*
X33510000Y-43799999D01*
G75*
G02*
X33759999Y-43550000I249999J0D01*
G01*
X34410001Y-43550000D01*
G75*
G02*
X34660000Y-43799999I0J-249999D01*
G01*
G37*
%TD*%
%TO.C,C19*%
G36*
G01*
X44465001Y-56250000D02*
X43164999Y-56250000D01*
G75*
G02*
X42915000Y-56000001I0J249999D01*
G01*
X42915000Y-55349999D01*
G75*
G02*
X43164999Y-55100000I249999J0D01*
G01*
X44465001Y-55100000D01*
G75*
G02*
X44715000Y-55349999I0J-249999D01*
G01*
X44715000Y-56000001D01*
G75*
G02*
X44465001Y-56250000I-249999J0D01*
G01*
G37*
G36*
G01*
X44465001Y-59200000D02*
X43164999Y-59200000D01*
G75*
G02*
X42915000Y-58950001I0J249999D01*
G01*
X42915000Y-58299999D01*
G75*
G02*
X43164999Y-58050000I249999J0D01*
G01*
X44465001Y-58050000D01*
G75*
G02*
X44715000Y-58299999I0J-249999D01*
G01*
X44715000Y-58950001D01*
G75*
G02*
X44465001Y-59200000I-249999J0D01*
G01*
G37*
%TD*%
%TO.C,R18*%
G36*
G01*
X41090002Y-41430000D02*
X40189998Y-41430000D01*
G75*
G02*
X39940000Y-41180002I0J249998D01*
G01*
X39940000Y-40654998D01*
G75*
G02*
X40189998Y-40405000I249998J0D01*
G01*
X41090002Y-40405000D01*
G75*
G02*
X41340000Y-40654998I0J-249998D01*
G01*
X41340000Y-41180002D01*
G75*
G02*
X41090002Y-41430000I-249998J0D01*
G01*
G37*
G36*
G01*
X41090002Y-39605000D02*
X40189998Y-39605000D01*
G75*
G02*
X39940000Y-39355002I0J249998D01*
G01*
X39940000Y-38829998D01*
G75*
G02*
X40189998Y-38580000I249998J0D01*
G01*
X41090002Y-38580000D01*
G75*
G02*
X41340000Y-38829998I0J-249998D01*
G01*
X41340000Y-39355002D01*
G75*
G02*
X41090002Y-39605000I-249998J0D01*
G01*
G37*
%TD*%
%TO.C,R19*%
G36*
G01*
X29200003Y-42665000D02*
X27949997Y-42665000D01*
G75*
G02*
X27700000Y-42415003I0J249997D01*
G01*
X27700000Y-41789997D01*
G75*
G02*
X27949997Y-41540000I249997J0D01*
G01*
X29200003Y-41540000D01*
G75*
G02*
X29450000Y-41789997I0J-249997D01*
G01*
X29450000Y-42415003D01*
G75*
G02*
X29200003Y-42665000I-249997J0D01*
G01*
G37*
G36*
G01*
X29200003Y-39740000D02*
X27949997Y-39740000D01*
G75*
G02*
X27700000Y-39490003I0J249997D01*
G01*
X27700000Y-38864997D01*
G75*
G02*
X27949997Y-38615000I249997J0D01*
G01*
X29200003Y-38615000D01*
G75*
G02*
X29450000Y-38864997I0J-249997D01*
G01*
X29450000Y-39490003D01*
G75*
G02*
X29200003Y-39740000I-249997J0D01*
G01*
G37*
%TD*%
%TO.C,R20*%
G36*
G01*
X32229999Y-63945000D02*
X35080001Y-63945000D01*
G75*
G02*
X35330000Y-64194999I0J-249999D01*
G01*
X35330000Y-64920001D01*
G75*
G02*
X35080001Y-65170000I-249999J0D01*
G01*
X32229999Y-65170000D01*
G75*
G02*
X31980000Y-64920001I0J249999D01*
G01*
X31980000Y-64194999D01*
G75*
G02*
X32229999Y-63945000I249999J0D01*
G01*
G37*
G36*
G01*
X32229999Y-58020000D02*
X35080001Y-58020000D01*
G75*
G02*
X35330000Y-58269999I0J-249999D01*
G01*
X35330000Y-58995001D01*
G75*
G02*
X35080001Y-59245000I-249999J0D01*
G01*
X32229999Y-59245000D01*
G75*
G02*
X31980000Y-58995001I0J249999D01*
G01*
X31980000Y-58269999D01*
G75*
G02*
X32229999Y-58020000I249999J0D01*
G01*
G37*
%TD*%
%TO.C,R21*%
G36*
G01*
X37944999Y-58020000D02*
X40795001Y-58020000D01*
G75*
G02*
X41045000Y-58269999I0J-249999D01*
G01*
X41045000Y-58995001D01*
G75*
G02*
X40795001Y-59245000I-249999J0D01*
G01*
X37944999Y-59245000D01*
G75*
G02*
X37695000Y-58995001I0J249999D01*
G01*
X37695000Y-58269999D01*
G75*
G02*
X37944999Y-58020000I249999J0D01*
G01*
G37*
G36*
G01*
X37944999Y-63945000D02*
X40795001Y-63945000D01*
G75*
G02*
X41045000Y-64194999I0J-249999D01*
G01*
X41045000Y-64920001D01*
G75*
G02*
X40795001Y-65170000I-249999J0D01*
G01*
X37944999Y-65170000D01*
G75*
G02*
X37695000Y-64920001I0J249999D01*
G01*
X37695000Y-64194999D01*
G75*
G02*
X37944999Y-63945000I249999J0D01*
G01*
G37*
%TD*%
%TO.C,R22*%
G36*
G01*
X32229999Y-55055000D02*
X35080001Y-55055000D01*
G75*
G02*
X35330000Y-55304999I0J-249999D01*
G01*
X35330000Y-56030001D01*
G75*
G02*
X35080001Y-56280000I-249999J0D01*
G01*
X32229999Y-56280000D01*
G75*
G02*
X31980000Y-56030001I0J249999D01*
G01*
X31980000Y-55304999D01*
G75*
G02*
X32229999Y-55055000I249999J0D01*
G01*
G37*
G36*
G01*
X32229999Y-49130000D02*
X35080001Y-49130000D01*
G75*
G02*
X35330000Y-49379999I0J-249999D01*
G01*
X35330000Y-50105001D01*
G75*
G02*
X35080001Y-50355000I-249999J0D01*
G01*
X32229999Y-50355000D01*
G75*
G02*
X31980000Y-50105001I0J249999D01*
G01*
X31980000Y-49379999D01*
G75*
G02*
X32229999Y-49130000I249999J0D01*
G01*
G37*
%TD*%
%TO.C,R23*%
G36*
G01*
X37944999Y-49130000D02*
X40795001Y-49130000D01*
G75*
G02*
X41045000Y-49379999I0J-249999D01*
G01*
X41045000Y-50105001D01*
G75*
G02*
X40795001Y-50355000I-249999J0D01*
G01*
X37944999Y-50355000D01*
G75*
G02*
X37695000Y-50105001I0J249999D01*
G01*
X37695000Y-49379999D01*
G75*
G02*
X37944999Y-49130000I249999J0D01*
G01*
G37*
G36*
G01*
X37944999Y-55055000D02*
X40795001Y-55055000D01*
G75*
G02*
X41045000Y-55304999I0J-249999D01*
G01*
X41045000Y-56030001D01*
G75*
G02*
X40795001Y-56280000I-249999J0D01*
G01*
X37944999Y-56280000D01*
G75*
G02*
X37695000Y-56030001I0J249999D01*
G01*
X37695000Y-55304999D01*
G75*
G02*
X37944999Y-55055000I249999J0D01*
G01*
G37*
%TD*%
D13*
%TO.C,DD1*%
X51105000Y-59600000D03*
X54305000Y-59600000D03*
X51105000Y-54700000D03*
X54305000Y-54700000D03*
%TD*%
%TO.C,DD2*%
X64465000Y-54700000D03*
X61265000Y-54700000D03*
X64465000Y-59600000D03*
X61265000Y-59600000D03*
%TD*%
M02*
