%TF.GenerationSoftware,KiCad,Pcbnew,(5.1.10)-1*%
%TF.CreationDate,2021-06-26T23:15:49+03:00*%
%TF.ProjectId,ambient,616d6269-656e-4742-9e6b-696361645f70,rev?*%
%TF.SameCoordinates,Original*%
%TF.FileFunction,Copper,L1,Top*%
%TF.FilePolarity,Positive*%
%FSLAX46Y46*%
G04 Gerber Fmt 4.6, Leading zero omitted, Abs format (unit mm)*
G04 Created by KiCad (PCBNEW (5.1.10)-1) date 2021-06-26 23:15:49*
%MOMM*%
%LPD*%
G01*
G04 APERTURE LIST*
%TA.AperFunction,ComponentPad*%
%ADD10R,3.500000X3.500000*%
%TD*%
%TA.AperFunction,ComponentPad*%
%ADD11R,1.600000X2.400000*%
%TD*%
%TA.AperFunction,ComponentPad*%
%ADD12O,1.600000X2.400000*%
%TD*%
%TA.AperFunction,ComponentPad*%
%ADD13C,1.500000*%
%TD*%
%TA.AperFunction,SMDPad,CuDef*%
%ADD14R,3.600000X2.700000*%
%TD*%
%TA.AperFunction,SMDPad,CuDef*%
%ADD15R,0.610000X2.000000*%
%TD*%
%TA.AperFunction,SMDPad,CuDef*%
%ADD16R,2.680000X3.600000*%
%TD*%
%TA.AperFunction,ComponentPad*%
%ADD17C,1.440000*%
%TD*%
%TA.AperFunction,ComponentPad*%
%ADD18O,2.400000X1.600000*%
%TD*%
%TA.AperFunction,ComponentPad*%
%ADD19R,2.400000X1.600000*%
%TD*%
%TA.AperFunction,ComponentPad*%
%ADD20C,2.000000*%
%TD*%
%TA.AperFunction,ComponentPad*%
%ADD21R,2.200000X2.200000*%
%TD*%
%TA.AperFunction,ComponentPad*%
%ADD22O,2.200000X2.200000*%
%TD*%
%TA.AperFunction,ComponentPad*%
%ADD23R,1.700000X1.700000*%
%TD*%
%TA.AperFunction,ComponentPad*%
%ADD24O,1.700000X1.700000*%
%TD*%
%TA.AperFunction,SMDPad,CuDef*%
%ADD25R,1.000000X1.500000*%
%TD*%
%TA.AperFunction,ComponentPad*%
%ADD26C,1.300000*%
%TD*%
%TA.AperFunction,ComponentPad*%
%ADD27R,1.300000X1.300000*%
%TD*%
%TA.AperFunction,ViaPad*%
%ADD28C,0.800000*%
%TD*%
%TA.AperFunction,Conductor*%
%ADD29C,0.250000*%
%TD*%
%TA.AperFunction,Conductor*%
%ADD30C,0.500000*%
%TD*%
%TA.AperFunction,Conductor*%
%ADD31C,2.000000*%
%TD*%
%TA.AperFunction,Conductor*%
%ADD32C,0.254000*%
%TD*%
%TA.AperFunction,Conductor*%
%ADD33C,0.100000*%
%TD*%
G04 APERTURE END LIST*
%TO.P,C1,1*%
%TO.N,VCC*%
%TA.AperFunction,SMDPad,CuDef*%
G36*
G01*
X59545000Y-50180001D02*
X59545000Y-48879999D01*
G75*
G02*
X59794999Y-48630000I249999J0D01*
G01*
X60445001Y-48630000D01*
G75*
G02*
X60695000Y-48879999I0J-249999D01*
G01*
X60695000Y-50180001D01*
G75*
G02*
X60445001Y-50430000I-249999J0D01*
G01*
X59794999Y-50430000D01*
G75*
G02*
X59545000Y-50180001I0J249999D01*
G01*
G37*
%TD.AperFunction*%
%TO.P,C1,2*%
%TO.N,GND*%
%TA.AperFunction,SMDPad,CuDef*%
G36*
G01*
X62495000Y-50180001D02*
X62495000Y-48879999D01*
G75*
G02*
X62744999Y-48630000I249999J0D01*
G01*
X63395001Y-48630000D01*
G75*
G02*
X63645000Y-48879999I0J-249999D01*
G01*
X63645000Y-50180001D01*
G75*
G02*
X63395001Y-50430000I-249999J0D01*
G01*
X62744999Y-50430000D01*
G75*
G02*
X62495000Y-50180001I0J249999D01*
G01*
G37*
%TD.AperFunction*%
%TD*%
%TO.P,C2,2*%
%TO.N,GND*%
%TA.AperFunction,SMDPad,CuDef*%
G36*
G01*
X59425000Y-34909999D02*
X59425000Y-36210001D01*
G75*
G02*
X59175001Y-36460000I-249999J0D01*
G01*
X58524999Y-36460000D01*
G75*
G02*
X58275000Y-36210001I0J249999D01*
G01*
X58275000Y-34909999D01*
G75*
G02*
X58524999Y-34660000I249999J0D01*
G01*
X59175001Y-34660000D01*
G75*
G02*
X59425000Y-34909999I0J-249999D01*
G01*
G37*
%TD.AperFunction*%
%TO.P,C2,1*%
%TO.N,VCC*%
%TA.AperFunction,SMDPad,CuDef*%
G36*
G01*
X62375000Y-34909999D02*
X62375000Y-36210001D01*
G75*
G02*
X62125001Y-36460000I-249999J0D01*
G01*
X61474999Y-36460000D01*
G75*
G02*
X61225000Y-36210001I0J249999D01*
G01*
X61225000Y-34909999D01*
G75*
G02*
X61474999Y-34660000I249999J0D01*
G01*
X62125001Y-34660000D01*
G75*
G02*
X62375000Y-34909999I0J-249999D01*
G01*
G37*
%TD.AperFunction*%
%TD*%
D10*
%TO.P,J1,1*%
%TO.N,+5V*%
X27940000Y-20320000D03*
%TO.P,J1,2*%
%TO.N,GND*%
%TA.AperFunction,ComponentPad*%
G36*
G01*
X20440000Y-21320000D02*
X20440000Y-19320000D01*
G75*
G02*
X21190000Y-18570000I750000J0D01*
G01*
X22690000Y-18570000D01*
G75*
G02*
X23440000Y-19320000I0J-750000D01*
G01*
X23440000Y-21320000D01*
G75*
G02*
X22690000Y-22070000I-750000J0D01*
G01*
X21190000Y-22070000D01*
G75*
G02*
X20440000Y-21320000I0J750000D01*
G01*
G37*
%TD.AperFunction*%
%TO.P,J1,3*%
%TO.N,N/C*%
%TA.AperFunction,ComponentPad*%
G36*
G01*
X23190000Y-25895000D02*
X23190000Y-24145000D01*
G75*
G02*
X24065000Y-23270000I875000J0D01*
G01*
X25815000Y-23270000D01*
G75*
G02*
X26690000Y-24145000I0J-875000D01*
G01*
X26690000Y-25895000D01*
G75*
G02*
X25815000Y-26770000I-875000J0D01*
G01*
X24065000Y-26770000D01*
G75*
G02*
X23190000Y-25895000I0J875000D01*
G01*
G37*
%TD.AperFunction*%
%TD*%
D11*
%TO.P,U1,1*%
%TO.N,RESET*%
X76835000Y-38735000D03*
D12*
%TO.P,U1,15*%
%TO.N,PREVIEW_ARRAY*%
X43815000Y-46355000D03*
%TO.P,U1,2*%
%TO.N,Net-(U1-Pad2)*%
X74295000Y-38735000D03*
%TO.P,U1,16*%
%TO.N,MAIN_ARRAY*%
X46355000Y-46355000D03*
%TO.P,U1,3*%
%TO.N,Net-(U1-Pad3)*%
X71755000Y-38735000D03*
%TO.P,U1,17*%
%TO.N,LCD_EN*%
X48895000Y-46355000D03*
%TO.P,U1,4*%
%TO.N,SELECT*%
X69215000Y-38735000D03*
%TO.P,U1,18*%
%TO.N,Net-(U1-Pad18)*%
X51435000Y-46355000D03*
%TO.P,U1,5*%
%TO.N,NEXT*%
X66675000Y-38735000D03*
%TO.P,U1,19*%
%TO.N,LED*%
X53975000Y-46355000D03*
%TO.P,U1,6*%
%TO.N,LCD_DB4*%
X64135000Y-38735000D03*
%TO.P,U1,20*%
%TO.N,VCC*%
X56515000Y-46355000D03*
%TO.P,U1,7*%
X61595000Y-38735000D03*
%TO.P,U1,21*%
X59055000Y-46355000D03*
%TO.P,U1,8*%
%TO.N,GND*%
X59055000Y-38735000D03*
%TO.P,U1,22*%
X61595000Y-46355000D03*
%TO.P,U1,9*%
%TO.N,XTAL1*%
X56515000Y-38735000D03*
%TO.P,U1,23*%
%TO.N,MODIFY*%
X64135000Y-46355000D03*
%TO.P,U1,10*%
%TO.N,XTAL2*%
X53975000Y-38735000D03*
%TO.P,U1,24*%
%TO.N,AMP_IN*%
X66675000Y-46355000D03*
%TO.P,U1,11*%
%TO.N,LCD_DB5*%
X51435000Y-38735000D03*
%TO.P,U1,25*%
%TO.N,Net-(U1-Pad25)*%
X69215000Y-46355000D03*
%TO.P,U1,12*%
%TO.N,LCD_DB6*%
X48895000Y-38735000D03*
%TO.P,U1,26*%
%TO.N,Net-(U1-Pad26)*%
X71755000Y-46355000D03*
%TO.P,U1,13*%
%TO.N,LCD_DB7*%
X46355000Y-38735000D03*
%TO.P,U1,27*%
%TO.N,SDA*%
X74295000Y-46355000D03*
%TO.P,U1,14*%
%TO.N,LCD_RS*%
X43815000Y-38735000D03*
%TO.P,U1,28*%
%TO.N,SCL*%
X76835000Y-46355000D03*
%TD*%
%TO.P,C3,1*%
%TO.N,XTAL1*%
%TA.AperFunction,SMDPad,CuDef*%
G36*
G01*
X60820000Y-26195000D02*
X60820000Y-27145000D01*
G75*
G02*
X60570000Y-27395000I-250000J0D01*
G01*
X60070000Y-27395000D01*
G75*
G02*
X59820000Y-27145000I0J250000D01*
G01*
X59820000Y-26195000D01*
G75*
G02*
X60070000Y-25945000I250000J0D01*
G01*
X60570000Y-25945000D01*
G75*
G02*
X60820000Y-26195000I0J-250000D01*
G01*
G37*
%TD.AperFunction*%
%TO.P,C3,2*%
%TO.N,GND*%
%TA.AperFunction,SMDPad,CuDef*%
G36*
G01*
X58920000Y-26195000D02*
X58920000Y-27145000D01*
G75*
G02*
X58670000Y-27395000I-250000J0D01*
G01*
X58170000Y-27395000D01*
G75*
G02*
X57920000Y-27145000I0J250000D01*
G01*
X57920000Y-26195000D01*
G75*
G02*
X58170000Y-25945000I250000J0D01*
G01*
X58670000Y-25945000D01*
G75*
G02*
X58920000Y-26195000I0J-250000D01*
G01*
G37*
%TD.AperFunction*%
%TD*%
%TO.P,C4,2*%
%TO.N,GND*%
%TA.AperFunction,SMDPad,CuDef*%
G36*
G01*
X54425000Y-27145000D02*
X54425000Y-26195000D01*
G75*
G02*
X54675000Y-25945000I250000J0D01*
G01*
X55175000Y-25945000D01*
G75*
G02*
X55425000Y-26195000I0J-250000D01*
G01*
X55425000Y-27145000D01*
G75*
G02*
X55175000Y-27395000I-250000J0D01*
G01*
X54675000Y-27395000D01*
G75*
G02*
X54425000Y-27145000I0J250000D01*
G01*
G37*
%TD.AperFunction*%
%TO.P,C4,1*%
%TO.N,XTAL2*%
%TA.AperFunction,SMDPad,CuDef*%
G36*
G01*
X52525000Y-27145000D02*
X52525000Y-26195000D01*
G75*
G02*
X52775000Y-25945000I250000J0D01*
G01*
X53275000Y-25945000D01*
G75*
G02*
X53525000Y-26195000I0J-250000D01*
G01*
X53525000Y-27145000D01*
G75*
G02*
X53275000Y-27395000I-250000J0D01*
G01*
X52775000Y-27395000D01*
G75*
G02*
X52525000Y-27145000I0J250000D01*
G01*
G37*
%TD.AperFunction*%
%TD*%
%TO.P,R1,1*%
%TO.N,XTAL2*%
%TA.AperFunction,SMDPad,CuDef*%
G36*
G01*
X53542500Y-36010001D02*
X53542500Y-35109999D01*
G75*
G02*
X53792499Y-34860000I249999J0D01*
G01*
X54317501Y-34860000D01*
G75*
G02*
X54567500Y-35109999I0J-249999D01*
G01*
X54567500Y-36010001D01*
G75*
G02*
X54317501Y-36260000I-249999J0D01*
G01*
X53792499Y-36260000D01*
G75*
G02*
X53542500Y-36010001I0J249999D01*
G01*
G37*
%TD.AperFunction*%
%TO.P,R1,2*%
%TO.N,XTAL1*%
%TA.AperFunction,SMDPad,CuDef*%
G36*
G01*
X55367500Y-36010001D02*
X55367500Y-35109999D01*
G75*
G02*
X55617499Y-34860000I249999J0D01*
G01*
X56142501Y-34860000D01*
G75*
G02*
X56392500Y-35109999I0J-249999D01*
G01*
X56392500Y-36010001D01*
G75*
G02*
X56142501Y-36260000I-249999J0D01*
G01*
X55617499Y-36260000D01*
G75*
G02*
X55367500Y-36010001I0J249999D01*
G01*
G37*
%TD.AperFunction*%
%TD*%
D13*
%TO.P,Y1,1*%
%TO.N,XTAL1*%
X59055000Y-31115000D03*
%TO.P,Y1,2*%
%TO.N,XTAL2*%
X54155000Y-31115000D03*
%TD*%
%TO.P,C5,1*%
%TO.N,+5V*%
%TA.AperFunction,SMDPad,CuDef*%
G36*
G01*
X15320000Y-34020000D02*
X15320000Y-32020000D01*
G75*
G02*
X15570000Y-31770000I250000J0D01*
G01*
X18570000Y-31770000D01*
G75*
G02*
X18820000Y-32020000I0J-250000D01*
G01*
X18820000Y-34020000D01*
G75*
G02*
X18570000Y-34270000I-250000J0D01*
G01*
X15570000Y-34270000D01*
G75*
G02*
X15320000Y-34020000I0J250000D01*
G01*
G37*
%TD.AperFunction*%
%TO.P,C5,2*%
%TO.N,GND*%
%TA.AperFunction,SMDPad,CuDef*%
G36*
G01*
X21820000Y-34020000D02*
X21820000Y-32020000D01*
G75*
G02*
X22070000Y-31770000I250000J0D01*
G01*
X25070000Y-31770000D01*
G75*
G02*
X25320000Y-32020000I0J-250000D01*
G01*
X25320000Y-34020000D01*
G75*
G02*
X25070000Y-34270000I-250000J0D01*
G01*
X22070000Y-34270000D01*
G75*
G02*
X21820000Y-34020000I0J250000D01*
G01*
G37*
%TD.AperFunction*%
%TD*%
%TO.P,C6,2*%
%TO.N,GND*%
%TA.AperFunction,SMDPad,CuDef*%
G36*
G01*
X21820000Y-56880000D02*
X21820000Y-54880000D01*
G75*
G02*
X22070000Y-54630000I250000J0D01*
G01*
X25070000Y-54630000D01*
G75*
G02*
X25320000Y-54880000I0J-250000D01*
G01*
X25320000Y-56880000D01*
G75*
G02*
X25070000Y-57130000I-250000J0D01*
G01*
X22070000Y-57130000D01*
G75*
G02*
X21820000Y-56880000I0J250000D01*
G01*
G37*
%TD.AperFunction*%
%TO.P,C6,1*%
%TO.N,VCC*%
%TA.AperFunction,SMDPad,CuDef*%
G36*
G01*
X15320000Y-56880000D02*
X15320000Y-54880000D01*
G75*
G02*
X15570000Y-54630000I250000J0D01*
G01*
X18570000Y-54630000D01*
G75*
G02*
X18820000Y-54880000I0J-250000D01*
G01*
X18820000Y-56880000D01*
G75*
G02*
X18570000Y-57130000I-250000J0D01*
G01*
X15570000Y-57130000D01*
G75*
G02*
X15320000Y-56880000I0J250000D01*
G01*
G37*
%TD.AperFunction*%
%TD*%
%TO.P,C7,1*%
%TO.N,RESET*%
%TA.AperFunction,SMDPad,CuDef*%
G36*
G01*
X37449999Y-69705000D02*
X38750001Y-69705000D01*
G75*
G02*
X39000000Y-69954999I0J-249999D01*
G01*
X39000000Y-70605001D01*
G75*
G02*
X38750001Y-70855000I-249999J0D01*
G01*
X37449999Y-70855000D01*
G75*
G02*
X37200000Y-70605001I0J249999D01*
G01*
X37200000Y-69954999D01*
G75*
G02*
X37449999Y-69705000I249999J0D01*
G01*
G37*
%TD.AperFunction*%
%TO.P,C7,2*%
%TO.N,GND*%
%TA.AperFunction,SMDPad,CuDef*%
G36*
G01*
X37449999Y-72655000D02*
X38750001Y-72655000D01*
G75*
G02*
X39000000Y-72904999I0J-249999D01*
G01*
X39000000Y-73555001D01*
G75*
G02*
X38750001Y-73805000I-249999J0D01*
G01*
X37449999Y-73805000D01*
G75*
G02*
X37200000Y-73555001I0J249999D01*
G01*
X37200000Y-72904999D01*
G75*
G02*
X37449999Y-72655000I249999J0D01*
G01*
G37*
%TD.AperFunction*%
%TD*%
D14*
%TO.P,L1,1*%
%TO.N,+5V*%
X20320000Y-40300000D03*
%TO.P,L1,2*%
%TO.N,VCC*%
X20320000Y-48600000D03*
%TD*%
%TO.P,R2,2*%
%TO.N,VCC*%
%TA.AperFunction,SMDPad,CuDef*%
G36*
G01*
X45485000Y-65855001D02*
X45485000Y-64954999D01*
G75*
G02*
X45734999Y-64705000I249999J0D01*
G01*
X46260001Y-64705000D01*
G75*
G02*
X46510000Y-64954999I0J-249999D01*
G01*
X46510000Y-65855001D01*
G75*
G02*
X46260001Y-66105000I-249999J0D01*
G01*
X45734999Y-66105000D01*
G75*
G02*
X45485000Y-65855001I0J249999D01*
G01*
G37*
%TD.AperFunction*%
%TO.P,R2,1*%
%TO.N,RESET*%
%TA.AperFunction,SMDPad,CuDef*%
G36*
G01*
X43660000Y-65855001D02*
X43660000Y-64954999D01*
G75*
G02*
X43909999Y-64705000I249999J0D01*
G01*
X44435001Y-64705000D01*
G75*
G02*
X44685000Y-64954999I0J-249999D01*
G01*
X44685000Y-65855001D01*
G75*
G02*
X44435001Y-66105000I-249999J0D01*
G01*
X43909999Y-66105000D01*
G75*
G02*
X43660000Y-65855001I0J249999D01*
G01*
G37*
%TD.AperFunction*%
%TD*%
%TO.P,R3,1*%
%TO.N,GND*%
%TA.AperFunction,SMDPad,CuDef*%
G36*
G01*
X43660000Y-77285001D02*
X43660000Y-76384999D01*
G75*
G02*
X43909999Y-76135000I249999J0D01*
G01*
X44435001Y-76135000D01*
G75*
G02*
X44685000Y-76384999I0J-249999D01*
G01*
X44685000Y-77285001D01*
G75*
G02*
X44435001Y-77535000I-249999J0D01*
G01*
X43909999Y-77535000D01*
G75*
G02*
X43660000Y-77285001I0J249999D01*
G01*
G37*
%TD.AperFunction*%
%TO.P,R3,2*%
%TO.N,Net-(R3-Pad2)*%
%TA.AperFunction,SMDPad,CuDef*%
G36*
G01*
X45485000Y-77285001D02*
X45485000Y-76384999D01*
G75*
G02*
X45734999Y-76135000I249999J0D01*
G01*
X46260001Y-76135000D01*
G75*
G02*
X46510000Y-76384999I0J-249999D01*
G01*
X46510000Y-77285001D01*
G75*
G02*
X46260001Y-77535000I-249999J0D01*
G01*
X45734999Y-77535000D01*
G75*
G02*
X45485000Y-77285001I0J249999D01*
G01*
G37*
%TD.AperFunction*%
%TD*%
%TO.P,C8,1*%
%TO.N,NEXT*%
%TA.AperFunction,SMDPad,CuDef*%
G36*
G01*
X79359999Y-69705000D02*
X80660001Y-69705000D01*
G75*
G02*
X80910000Y-69954999I0J-249999D01*
G01*
X80910000Y-70605001D01*
G75*
G02*
X80660001Y-70855000I-249999J0D01*
G01*
X79359999Y-70855000D01*
G75*
G02*
X79110000Y-70605001I0J249999D01*
G01*
X79110000Y-69954999D01*
G75*
G02*
X79359999Y-69705000I249999J0D01*
G01*
G37*
%TD.AperFunction*%
%TO.P,C8,2*%
%TO.N,GND*%
%TA.AperFunction,SMDPad,CuDef*%
G36*
G01*
X79359999Y-72655000D02*
X80660001Y-72655000D01*
G75*
G02*
X80910000Y-72904999I0J-249999D01*
G01*
X80910000Y-73555001D01*
G75*
G02*
X80660001Y-73805000I-249999J0D01*
G01*
X79359999Y-73805000D01*
G75*
G02*
X79110000Y-73555001I0J249999D01*
G01*
X79110000Y-72904999D01*
G75*
G02*
X79359999Y-72655000I249999J0D01*
G01*
G37*
%TD.AperFunction*%
%TD*%
%TO.P,C9,2*%
%TO.N,GND*%
%TA.AperFunction,SMDPad,CuDef*%
G36*
G01*
X51419999Y-72655000D02*
X52720001Y-72655000D01*
G75*
G02*
X52970000Y-72904999I0J-249999D01*
G01*
X52970000Y-73555001D01*
G75*
G02*
X52720001Y-73805000I-249999J0D01*
G01*
X51419999Y-73805000D01*
G75*
G02*
X51170000Y-73555001I0J249999D01*
G01*
X51170000Y-72904999D01*
G75*
G02*
X51419999Y-72655000I249999J0D01*
G01*
G37*
%TD.AperFunction*%
%TO.P,C9,1*%
%TO.N,SELECT*%
%TA.AperFunction,SMDPad,CuDef*%
G36*
G01*
X51419999Y-69705000D02*
X52720001Y-69705000D01*
G75*
G02*
X52970000Y-69954999I0J-249999D01*
G01*
X52970000Y-70605001D01*
G75*
G02*
X52720001Y-70855000I-249999J0D01*
G01*
X51419999Y-70855000D01*
G75*
G02*
X51170000Y-70605001I0J249999D01*
G01*
X51170000Y-69954999D01*
G75*
G02*
X51419999Y-69705000I249999J0D01*
G01*
G37*
%TD.AperFunction*%
%TD*%
%TO.P,C10,2*%
%TO.N,GND*%
%TA.AperFunction,SMDPad,CuDef*%
G36*
G01*
X65389999Y-72655000D02*
X66690001Y-72655000D01*
G75*
G02*
X66940000Y-72904999I0J-249999D01*
G01*
X66940000Y-73555001D01*
G75*
G02*
X66690001Y-73805000I-249999J0D01*
G01*
X65389999Y-73805000D01*
G75*
G02*
X65140000Y-73555001I0J249999D01*
G01*
X65140000Y-72904999D01*
G75*
G02*
X65389999Y-72655000I249999J0D01*
G01*
G37*
%TD.AperFunction*%
%TO.P,C10,1*%
%TO.N,MODIFY*%
%TA.AperFunction,SMDPad,CuDef*%
G36*
G01*
X65389999Y-69705000D02*
X66690001Y-69705000D01*
G75*
G02*
X66940000Y-69954999I0J-249999D01*
G01*
X66940000Y-70605001D01*
G75*
G02*
X66690001Y-70855000I-249999J0D01*
G01*
X65389999Y-70855000D01*
G75*
G02*
X65140000Y-70605001I0J249999D01*
G01*
X65140000Y-69954999D01*
G75*
G02*
X65389999Y-69705000I249999J0D01*
G01*
G37*
%TD.AperFunction*%
%TD*%
%TO.P,C11,1*%
%TO.N,VCC*%
%TA.AperFunction,SMDPad,CuDef*%
G36*
G01*
X31734999Y-17205000D02*
X33035001Y-17205000D01*
G75*
G02*
X33285000Y-17454999I0J-249999D01*
G01*
X33285000Y-18105001D01*
G75*
G02*
X33035001Y-18355000I-249999J0D01*
G01*
X31734999Y-18355000D01*
G75*
G02*
X31485000Y-18105001I0J249999D01*
G01*
X31485000Y-17454999D01*
G75*
G02*
X31734999Y-17205000I249999J0D01*
G01*
G37*
%TD.AperFunction*%
%TO.P,C11,2*%
%TO.N,GND*%
%TA.AperFunction,SMDPad,CuDef*%
G36*
G01*
X31734999Y-20155000D02*
X33035001Y-20155000D01*
G75*
G02*
X33285000Y-20404999I0J-249999D01*
G01*
X33285000Y-21055001D01*
G75*
G02*
X33035001Y-21305000I-249999J0D01*
G01*
X31734999Y-21305000D01*
G75*
G02*
X31485000Y-21055001I0J249999D01*
G01*
X31485000Y-20404999D01*
G75*
G02*
X31734999Y-20155000I249999J0D01*
G01*
G37*
%TD.AperFunction*%
%TD*%
%TO.P,D1,2*%
%TO.N,Net-(D1-Pad2)*%
%TA.AperFunction,SMDPad,CuDef*%
G36*
G01*
X29031250Y-33840000D02*
X28118750Y-33840000D01*
G75*
G02*
X27875000Y-33596250I0J243750D01*
G01*
X27875000Y-33108750D01*
G75*
G02*
X28118750Y-32865000I243750J0D01*
G01*
X29031250Y-32865000D01*
G75*
G02*
X29275000Y-33108750I0J-243750D01*
G01*
X29275000Y-33596250D01*
G75*
G02*
X29031250Y-33840000I-243750J0D01*
G01*
G37*
%TD.AperFunction*%
%TO.P,D1,1*%
%TO.N,GND*%
%TA.AperFunction,SMDPad,CuDef*%
G36*
G01*
X29031250Y-35715000D02*
X28118750Y-35715000D01*
G75*
G02*
X27875000Y-35471250I0J243750D01*
G01*
X27875000Y-34983750D01*
G75*
G02*
X28118750Y-34740000I243750J0D01*
G01*
X29031250Y-34740000D01*
G75*
G02*
X29275000Y-34983750I0J-243750D01*
G01*
X29275000Y-35471250D01*
G75*
G02*
X29031250Y-35715000I-243750J0D01*
G01*
G37*
%TD.AperFunction*%
%TD*%
%TO.P,D2,1*%
%TO.N,GND*%
%TA.AperFunction,SMDPad,CuDef*%
G36*
G01*
X49375000Y-49986250D02*
X49375000Y-49073750D01*
G75*
G02*
X49618750Y-48830000I243750J0D01*
G01*
X50106250Y-48830000D01*
G75*
G02*
X50350000Y-49073750I0J-243750D01*
G01*
X50350000Y-49986250D01*
G75*
G02*
X50106250Y-50230000I-243750J0D01*
G01*
X49618750Y-50230000D01*
G75*
G02*
X49375000Y-49986250I0J243750D01*
G01*
G37*
%TD.AperFunction*%
%TO.P,D2,2*%
%TO.N,Net-(D2-Pad2)*%
%TA.AperFunction,SMDPad,CuDef*%
G36*
G01*
X51250000Y-49986250D02*
X51250000Y-49073750D01*
G75*
G02*
X51493750Y-48830000I243750J0D01*
G01*
X51981250Y-48830000D01*
G75*
G02*
X52225000Y-49073750I0J-243750D01*
G01*
X52225000Y-49986250D01*
G75*
G02*
X51981250Y-50230000I-243750J0D01*
G01*
X51493750Y-50230000D01*
G75*
G02*
X51250000Y-49986250I0J243750D01*
G01*
G37*
%TD.AperFunction*%
%TD*%
D15*
%TO.P,J2,1*%
%TO.N,LCD_DB7*%
X48950000Y-22755000D03*
%TO.P,J2,2*%
%TO.N,LCD_DB6*%
X47950000Y-22755000D03*
%TO.P,J2,3*%
%TO.N,LCD_DB5*%
X46950000Y-22755000D03*
%TO.P,J2,4*%
%TO.N,LCD_DB4*%
X45950000Y-22755000D03*
%TO.P,J2,5*%
%TO.N,LCD_EN*%
X44950000Y-22755000D03*
%TO.P,J2,6*%
%TO.N,LCD_RS*%
X43950000Y-22755000D03*
%TO.P,J2,7*%
%TO.N,Net-(J2-Pad7)*%
X42950000Y-22755000D03*
%TO.P,J2,8*%
%TO.N,VCC*%
X41950000Y-22755000D03*
%TO.P,J2,9*%
%TO.N,GND*%
X40950000Y-22755000D03*
%TO.P,J2,10*%
%TO.N,Net-(J2-Pad10)*%
X39950000Y-22755000D03*
D16*
%TO.P,J2,MP*%
%TO.N,N/C*%
X51940000Y-19955000D03*
X36960000Y-19955000D03*
%TD*%
%TO.P,R4,1*%
%TO.N,NEXT*%
%TA.AperFunction,SMDPad,CuDef*%
G36*
G01*
X85570000Y-65855001D02*
X85570000Y-64954999D01*
G75*
G02*
X85819999Y-64705000I249999J0D01*
G01*
X86345001Y-64705000D01*
G75*
G02*
X86595000Y-64954999I0J-249999D01*
G01*
X86595000Y-65855001D01*
G75*
G02*
X86345001Y-66105000I-249999J0D01*
G01*
X85819999Y-66105000D01*
G75*
G02*
X85570000Y-65855001I0J249999D01*
G01*
G37*
%TD.AperFunction*%
%TO.P,R4,2*%
%TO.N,VCC*%
%TA.AperFunction,SMDPad,CuDef*%
G36*
G01*
X87395000Y-65855001D02*
X87395000Y-64954999D01*
G75*
G02*
X87644999Y-64705000I249999J0D01*
G01*
X88170001Y-64705000D01*
G75*
G02*
X88420000Y-64954999I0J-249999D01*
G01*
X88420000Y-65855001D01*
G75*
G02*
X88170001Y-66105000I-249999J0D01*
G01*
X87644999Y-66105000D01*
G75*
G02*
X87395000Y-65855001I0J249999D01*
G01*
G37*
%TD.AperFunction*%
%TD*%
%TO.P,R5,2*%
%TO.N,Net-(R5-Pad2)*%
%TA.AperFunction,SMDPad,CuDef*%
G36*
G01*
X87395000Y-77285001D02*
X87395000Y-76384999D01*
G75*
G02*
X87644999Y-76135000I249999J0D01*
G01*
X88170001Y-76135000D01*
G75*
G02*
X88420000Y-76384999I0J-249999D01*
G01*
X88420000Y-77285001D01*
G75*
G02*
X88170001Y-77535000I-249999J0D01*
G01*
X87644999Y-77535000D01*
G75*
G02*
X87395000Y-77285001I0J249999D01*
G01*
G37*
%TD.AperFunction*%
%TO.P,R5,1*%
%TO.N,GND*%
%TA.AperFunction,SMDPad,CuDef*%
G36*
G01*
X85570000Y-77285001D02*
X85570000Y-76384999D01*
G75*
G02*
X85819999Y-76135000I249999J0D01*
G01*
X86345001Y-76135000D01*
G75*
G02*
X86595000Y-76384999I0J-249999D01*
G01*
X86595000Y-77285001D01*
G75*
G02*
X86345001Y-77535000I-249999J0D01*
G01*
X85819999Y-77535000D01*
G75*
G02*
X85570000Y-77285001I0J249999D01*
G01*
G37*
%TD.AperFunction*%
%TD*%
%TO.P,R6,2*%
%TO.N,VCC*%
%TA.AperFunction,SMDPad,CuDef*%
G36*
G01*
X59455000Y-65855001D02*
X59455000Y-64954999D01*
G75*
G02*
X59704999Y-64705000I249999J0D01*
G01*
X60230001Y-64705000D01*
G75*
G02*
X60480000Y-64954999I0J-249999D01*
G01*
X60480000Y-65855001D01*
G75*
G02*
X60230001Y-66105000I-249999J0D01*
G01*
X59704999Y-66105000D01*
G75*
G02*
X59455000Y-65855001I0J249999D01*
G01*
G37*
%TD.AperFunction*%
%TO.P,R6,1*%
%TO.N,SELECT*%
%TA.AperFunction,SMDPad,CuDef*%
G36*
G01*
X57630000Y-65855001D02*
X57630000Y-64954999D01*
G75*
G02*
X57879999Y-64705000I249999J0D01*
G01*
X58405001Y-64705000D01*
G75*
G02*
X58655000Y-64954999I0J-249999D01*
G01*
X58655000Y-65855001D01*
G75*
G02*
X58405001Y-66105000I-249999J0D01*
G01*
X57879999Y-66105000D01*
G75*
G02*
X57630000Y-65855001I0J249999D01*
G01*
G37*
%TD.AperFunction*%
%TD*%
%TO.P,R7,1*%
%TO.N,GND*%
%TA.AperFunction,SMDPad,CuDef*%
G36*
G01*
X57630000Y-77285001D02*
X57630000Y-76384999D01*
G75*
G02*
X57879999Y-76135000I249999J0D01*
G01*
X58405001Y-76135000D01*
G75*
G02*
X58655000Y-76384999I0J-249999D01*
G01*
X58655000Y-77285001D01*
G75*
G02*
X58405001Y-77535000I-249999J0D01*
G01*
X57879999Y-77535000D01*
G75*
G02*
X57630000Y-77285001I0J249999D01*
G01*
G37*
%TD.AperFunction*%
%TO.P,R7,2*%
%TO.N,Net-(R7-Pad2)*%
%TA.AperFunction,SMDPad,CuDef*%
G36*
G01*
X59455000Y-77285001D02*
X59455000Y-76384999D01*
G75*
G02*
X59704999Y-76135000I249999J0D01*
G01*
X60230001Y-76135000D01*
G75*
G02*
X60480000Y-76384999I0J-249999D01*
G01*
X60480000Y-77285001D01*
G75*
G02*
X60230001Y-77535000I-249999J0D01*
G01*
X59704999Y-77535000D01*
G75*
G02*
X59455000Y-77285001I0J249999D01*
G01*
G37*
%TD.AperFunction*%
%TD*%
%TO.P,R8,2*%
%TO.N,VCC*%
%TA.AperFunction,SMDPad,CuDef*%
G36*
G01*
X73425000Y-65855001D02*
X73425000Y-64954999D01*
G75*
G02*
X73674999Y-64705000I249999J0D01*
G01*
X74200001Y-64705000D01*
G75*
G02*
X74450000Y-64954999I0J-249999D01*
G01*
X74450000Y-65855001D01*
G75*
G02*
X74200001Y-66105000I-249999J0D01*
G01*
X73674999Y-66105000D01*
G75*
G02*
X73425000Y-65855001I0J249999D01*
G01*
G37*
%TD.AperFunction*%
%TO.P,R8,1*%
%TO.N,MODIFY*%
%TA.AperFunction,SMDPad,CuDef*%
G36*
G01*
X71600000Y-65855001D02*
X71600000Y-64954999D01*
G75*
G02*
X71849999Y-64705000I249999J0D01*
G01*
X72375001Y-64705000D01*
G75*
G02*
X72625000Y-64954999I0J-249999D01*
G01*
X72625000Y-65855001D01*
G75*
G02*
X72375001Y-66105000I-249999J0D01*
G01*
X71849999Y-66105000D01*
G75*
G02*
X71600000Y-65855001I0J249999D01*
G01*
G37*
%TD.AperFunction*%
%TD*%
%TO.P,R9,1*%
%TO.N,GND*%
%TA.AperFunction,SMDPad,CuDef*%
G36*
G01*
X71600000Y-77285001D02*
X71600000Y-76384999D01*
G75*
G02*
X71849999Y-76135000I249999J0D01*
G01*
X72375001Y-76135000D01*
G75*
G02*
X72625000Y-76384999I0J-249999D01*
G01*
X72625000Y-77285001D01*
G75*
G02*
X72375001Y-77535000I-249999J0D01*
G01*
X71849999Y-77535000D01*
G75*
G02*
X71600000Y-77285001I0J249999D01*
G01*
G37*
%TD.AperFunction*%
%TO.P,R9,2*%
%TO.N,Net-(R9-Pad2)*%
%TA.AperFunction,SMDPad,CuDef*%
G36*
G01*
X73425000Y-77285001D02*
X73425000Y-76384999D01*
G75*
G02*
X73674999Y-76135000I249999J0D01*
G01*
X74200001Y-76135000D01*
G75*
G02*
X74450000Y-76384999I0J-249999D01*
G01*
X74450000Y-77285001D01*
G75*
G02*
X74200001Y-77535000I-249999J0D01*
G01*
X73674999Y-77535000D01*
G75*
G02*
X73425000Y-77285001I0J249999D01*
G01*
G37*
%TD.AperFunction*%
%TD*%
%TO.P,R10,1*%
%TO.N,Net-(D1-Pad2)*%
%TA.AperFunction,SMDPad,CuDef*%
G36*
G01*
X29025001Y-30635000D02*
X28124999Y-30635000D01*
G75*
G02*
X27875000Y-30385001I0J249999D01*
G01*
X27875000Y-29859999D01*
G75*
G02*
X28124999Y-29610000I249999J0D01*
G01*
X29025001Y-29610000D01*
G75*
G02*
X29275000Y-29859999I0J-249999D01*
G01*
X29275000Y-30385001D01*
G75*
G02*
X29025001Y-30635000I-249999J0D01*
G01*
G37*
%TD.AperFunction*%
%TO.P,R10,2*%
%TO.N,VCC*%
%TA.AperFunction,SMDPad,CuDef*%
G36*
G01*
X29025001Y-28810000D02*
X28124999Y-28810000D01*
G75*
G02*
X27875000Y-28560001I0J249999D01*
G01*
X27875000Y-28034999D01*
G75*
G02*
X28124999Y-27785000I249999J0D01*
G01*
X29025001Y-27785000D01*
G75*
G02*
X29275000Y-28034999I0J-249999D01*
G01*
X29275000Y-28560001D01*
G75*
G02*
X29025001Y-28810000I-249999J0D01*
G01*
G37*
%TD.AperFunction*%
%TD*%
%TO.P,R11,2*%
%TO.N,LED*%
%TA.AperFunction,SMDPad,CuDef*%
G36*
G01*
X55645000Y-49980001D02*
X55645000Y-49079999D01*
G75*
G02*
X55894999Y-48830000I249999J0D01*
G01*
X56420001Y-48830000D01*
G75*
G02*
X56670000Y-49079999I0J-249999D01*
G01*
X56670000Y-49980001D01*
G75*
G02*
X56420001Y-50230000I-249999J0D01*
G01*
X55894999Y-50230000D01*
G75*
G02*
X55645000Y-49980001I0J249999D01*
G01*
G37*
%TD.AperFunction*%
%TO.P,R11,1*%
%TO.N,Net-(D2-Pad2)*%
%TA.AperFunction,SMDPad,CuDef*%
G36*
G01*
X53820000Y-49980001D02*
X53820000Y-49079999D01*
G75*
G02*
X54069999Y-48830000I249999J0D01*
G01*
X54595001Y-48830000D01*
G75*
G02*
X54845000Y-49079999I0J-249999D01*
G01*
X54845000Y-49980001D01*
G75*
G02*
X54595001Y-50230000I-249999J0D01*
G01*
X54069999Y-50230000D01*
G75*
G02*
X53820000Y-49980001I0J249999D01*
G01*
G37*
%TD.AperFunction*%
%TD*%
D17*
%TO.P,RV1,3*%
%TO.N,GND*%
X36830000Y-27940000D03*
%TO.P,RV1,2*%
%TO.N,Net-(J2-Pad7)*%
X39370000Y-30480000D03*
%TO.P,RV1,1*%
%TO.N,VCC*%
X36830000Y-33020000D03*
%TD*%
%TO.P,C12,1*%
%TO.N,VCC*%
%TA.AperFunction,SMDPad,CuDef*%
G36*
G01*
X73170000Y-27924999D02*
X73170000Y-29225001D01*
G75*
G02*
X72920001Y-29475000I-249999J0D01*
G01*
X72269999Y-29475000D01*
G75*
G02*
X72020000Y-29225001I0J249999D01*
G01*
X72020000Y-27924999D01*
G75*
G02*
X72269999Y-27675000I249999J0D01*
G01*
X72920001Y-27675000D01*
G75*
G02*
X73170000Y-27924999I0J-249999D01*
G01*
G37*
%TD.AperFunction*%
%TO.P,C12,2*%
%TO.N,GND*%
%TA.AperFunction,SMDPad,CuDef*%
G36*
G01*
X70220000Y-27924999D02*
X70220000Y-29225001D01*
G75*
G02*
X69970001Y-29475000I-249999J0D01*
G01*
X69319999Y-29475000D01*
G75*
G02*
X69070000Y-29225001I0J249999D01*
G01*
X69070000Y-27924999D01*
G75*
G02*
X69319999Y-27675000I249999J0D01*
G01*
X69970001Y-27675000D01*
G75*
G02*
X70220000Y-27924999I0J-249999D01*
G01*
G37*
%TD.AperFunction*%
%TD*%
%TO.P,C13,2*%
%TO.N,GND*%
%TA.AperFunction,SMDPad,CuDef*%
G36*
G01*
X85460000Y-27924999D02*
X85460000Y-29225001D01*
G75*
G02*
X85210001Y-29475000I-249999J0D01*
G01*
X84559999Y-29475000D01*
G75*
G02*
X84310000Y-29225001I0J249999D01*
G01*
X84310000Y-27924999D01*
G75*
G02*
X84559999Y-27675000I249999J0D01*
G01*
X85210001Y-27675000D01*
G75*
G02*
X85460000Y-27924999I0J-249999D01*
G01*
G37*
%TD.AperFunction*%
%TO.P,C13,1*%
%TO.N,VCC*%
%TA.AperFunction,SMDPad,CuDef*%
G36*
G01*
X88410000Y-27924999D02*
X88410000Y-29225001D01*
G75*
G02*
X88160001Y-29475000I-249999J0D01*
G01*
X87509999Y-29475000D01*
G75*
G02*
X87260000Y-29225001I0J249999D01*
G01*
X87260000Y-27924999D01*
G75*
G02*
X87509999Y-27675000I249999J0D01*
G01*
X88160001Y-27675000D01*
G75*
G02*
X88410000Y-27924999I0J-249999D01*
G01*
G37*
%TD.AperFunction*%
%TD*%
%TO.P,C14,1*%
%TO.N,VCC*%
%TA.AperFunction,SMDPad,CuDef*%
G36*
G01*
X88410000Y-44434999D02*
X88410000Y-45735001D01*
G75*
G02*
X88160001Y-45985000I-249999J0D01*
G01*
X87509999Y-45985000D01*
G75*
G02*
X87260000Y-45735001I0J249999D01*
G01*
X87260000Y-44434999D01*
G75*
G02*
X87509999Y-44185000I249999J0D01*
G01*
X88160001Y-44185000D01*
G75*
G02*
X88410000Y-44434999I0J-249999D01*
G01*
G37*
%TD.AperFunction*%
%TO.P,C14,2*%
%TO.N,GND*%
%TA.AperFunction,SMDPad,CuDef*%
G36*
G01*
X85460000Y-44434999D02*
X85460000Y-45735001D01*
G75*
G02*
X85210001Y-45985000I-249999J0D01*
G01*
X84559999Y-45985000D01*
G75*
G02*
X84310000Y-45735001I0J249999D01*
G01*
X84310000Y-44434999D01*
G75*
G02*
X84559999Y-44185000I249999J0D01*
G01*
X85210001Y-44185000D01*
G75*
G02*
X85460000Y-44434999I0J-249999D01*
G01*
G37*
%TD.AperFunction*%
%TD*%
%TO.P,C15,2*%
%TO.N,GND*%
%TA.AperFunction,SMDPad,CuDef*%
G36*
G01*
X85460000Y-60309999D02*
X85460000Y-61610001D01*
G75*
G02*
X85210001Y-61860000I-249999J0D01*
G01*
X84559999Y-61860000D01*
G75*
G02*
X84310000Y-61610001I0J249999D01*
G01*
X84310000Y-60309999D01*
G75*
G02*
X84559999Y-60060000I249999J0D01*
G01*
X85210001Y-60060000D01*
G75*
G02*
X85460000Y-60309999I0J-249999D01*
G01*
G37*
%TD.AperFunction*%
%TO.P,C15,1*%
%TO.N,VCC*%
%TA.AperFunction,SMDPad,CuDef*%
G36*
G01*
X88410000Y-60309999D02*
X88410000Y-61610001D01*
G75*
G02*
X88160001Y-61860000I-249999J0D01*
G01*
X87509999Y-61860000D01*
G75*
G02*
X87260000Y-61610001I0J249999D01*
G01*
X87260000Y-60309999D01*
G75*
G02*
X87509999Y-60060000I249999J0D01*
G01*
X88160001Y-60060000D01*
G75*
G02*
X88410000Y-60309999I0J-249999D01*
G01*
G37*
%TD.AperFunction*%
%TD*%
%TO.P,R12,2*%
%TO.N,VCC*%
%TA.AperFunction,SMDPad,CuDef*%
G36*
G01*
X77235000Y-29025001D02*
X77235000Y-28124999D01*
G75*
G02*
X77484999Y-27875000I249999J0D01*
G01*
X78010001Y-27875000D01*
G75*
G02*
X78260000Y-28124999I0J-249999D01*
G01*
X78260000Y-29025001D01*
G75*
G02*
X78010001Y-29275000I-249999J0D01*
G01*
X77484999Y-29275000D01*
G75*
G02*
X77235000Y-29025001I0J249999D01*
G01*
G37*
%TD.AperFunction*%
%TO.P,R12,1*%
%TO.N,SDA*%
%TA.AperFunction,SMDPad,CuDef*%
G36*
G01*
X75410000Y-29025001D02*
X75410000Y-28124999D01*
G75*
G02*
X75659999Y-27875000I249999J0D01*
G01*
X76185001Y-27875000D01*
G75*
G02*
X76435000Y-28124999I0J-249999D01*
G01*
X76435000Y-29025001D01*
G75*
G02*
X76185001Y-29275000I-249999J0D01*
G01*
X75659999Y-29275000D01*
G75*
G02*
X75410000Y-29025001I0J249999D01*
G01*
G37*
%TD.AperFunction*%
%TD*%
%TO.P,R13,1*%
%TO.N,SCL*%
%TA.AperFunction,SMDPad,CuDef*%
G36*
G01*
X82705000Y-28124999D02*
X82705000Y-29025001D01*
G75*
G02*
X82455001Y-29275000I-249999J0D01*
G01*
X81929999Y-29275000D01*
G75*
G02*
X81680000Y-29025001I0J249999D01*
G01*
X81680000Y-28124999D01*
G75*
G02*
X81929999Y-27875000I249999J0D01*
G01*
X82455001Y-27875000D01*
G75*
G02*
X82705000Y-28124999I0J-249999D01*
G01*
G37*
%TD.AperFunction*%
%TO.P,R13,2*%
%TO.N,VCC*%
%TA.AperFunction,SMDPad,CuDef*%
G36*
G01*
X80880000Y-28124999D02*
X80880000Y-29025001D01*
G75*
G02*
X80630001Y-29275000I-249999J0D01*
G01*
X80104999Y-29275000D01*
G75*
G02*
X79855000Y-29025001I0J249999D01*
G01*
X79855000Y-28124999D01*
G75*
G02*
X80104999Y-27875000I249999J0D01*
G01*
X80630001Y-27875000D01*
G75*
G02*
X80880000Y-28124999I0J-249999D01*
G01*
G37*
%TD.AperFunction*%
%TD*%
%TO.P,R14,2*%
%TO.N,Net-(R14-Pad2)*%
%TA.AperFunction,SMDPad,CuDef*%
G36*
G01*
X79190001Y-20555000D02*
X78289999Y-20555000D01*
G75*
G02*
X78040000Y-20305001I0J249999D01*
G01*
X78040000Y-19779999D01*
G75*
G02*
X78289999Y-19530000I249999J0D01*
G01*
X79190001Y-19530000D01*
G75*
G02*
X79440000Y-19779999I0J-249999D01*
G01*
X79440000Y-20305001D01*
G75*
G02*
X79190001Y-20555000I-249999J0D01*
G01*
G37*
%TD.AperFunction*%
%TO.P,R14,1*%
%TO.N,VCC*%
%TA.AperFunction,SMDPad,CuDef*%
G36*
G01*
X79190001Y-22380000D02*
X78289999Y-22380000D01*
G75*
G02*
X78040000Y-22130001I0J249999D01*
G01*
X78040000Y-21604999D01*
G75*
G02*
X78289999Y-21355000I249999J0D01*
G01*
X79190001Y-21355000D01*
G75*
G02*
X79440000Y-21604999I0J-249999D01*
G01*
X79440000Y-22130001D01*
G75*
G02*
X79190001Y-22380000I-249999J0D01*
G01*
G37*
%TD.AperFunction*%
%TD*%
%TO.P,R15,2*%
%TO.N,Net-(R15-Pad2)*%
%TA.AperFunction,SMDPad,CuDef*%
G36*
G01*
X80880000Y-44634999D02*
X80880000Y-45535001D01*
G75*
G02*
X80630001Y-45785000I-249999J0D01*
G01*
X80104999Y-45785000D01*
G75*
G02*
X79855000Y-45535001I0J249999D01*
G01*
X79855000Y-44634999D01*
G75*
G02*
X80104999Y-44385000I249999J0D01*
G01*
X80630001Y-44385000D01*
G75*
G02*
X80880000Y-44634999I0J-249999D01*
G01*
G37*
%TD.AperFunction*%
%TO.P,R15,1*%
%TO.N,VCC*%
%TA.AperFunction,SMDPad,CuDef*%
G36*
G01*
X82705000Y-44634999D02*
X82705000Y-45535001D01*
G75*
G02*
X82455001Y-45785000I-249999J0D01*
G01*
X81929999Y-45785000D01*
G75*
G02*
X81680000Y-45535001I0J249999D01*
G01*
X81680000Y-44634999D01*
G75*
G02*
X81929999Y-44385000I249999J0D01*
G01*
X82455001Y-44385000D01*
G75*
G02*
X82705000Y-44634999I0J-249999D01*
G01*
G37*
%TD.AperFunction*%
%TD*%
%TO.P,R16,1*%
%TO.N,VCC*%
%TA.AperFunction,SMDPad,CuDef*%
G36*
G01*
X75410000Y-53155001D02*
X75410000Y-52254999D01*
G75*
G02*
X75659999Y-52005000I249999J0D01*
G01*
X76185001Y-52005000D01*
G75*
G02*
X76435000Y-52254999I0J-249999D01*
G01*
X76435000Y-53155001D01*
G75*
G02*
X76185001Y-53405000I-249999J0D01*
G01*
X75659999Y-53405000D01*
G75*
G02*
X75410000Y-53155001I0J249999D01*
G01*
G37*
%TD.AperFunction*%
%TO.P,R16,2*%
%TO.N,Net-(R16-Pad2)*%
%TA.AperFunction,SMDPad,CuDef*%
G36*
G01*
X77235000Y-53155001D02*
X77235000Y-52254999D01*
G75*
G02*
X77484999Y-52005000I249999J0D01*
G01*
X78010001Y-52005000D01*
G75*
G02*
X78260000Y-52254999I0J-249999D01*
G01*
X78260000Y-53155001D01*
G75*
G02*
X78010001Y-53405000I-249999J0D01*
G01*
X77484999Y-53405000D01*
G75*
G02*
X77235000Y-53155001I0J249999D01*
G01*
G37*
%TD.AperFunction*%
%TD*%
%TO.P,R17,1*%
%TO.N,VCC*%
%TA.AperFunction,SMDPad,CuDef*%
G36*
G01*
X75410000Y-55695001D02*
X75410000Y-54794999D01*
G75*
G02*
X75659999Y-54545000I249999J0D01*
G01*
X76185001Y-54545000D01*
G75*
G02*
X76435000Y-54794999I0J-249999D01*
G01*
X76435000Y-55695001D01*
G75*
G02*
X76185001Y-55945000I-249999J0D01*
G01*
X75659999Y-55945000D01*
G75*
G02*
X75410000Y-55695001I0J249999D01*
G01*
G37*
%TD.AperFunction*%
%TO.P,R17,2*%
%TO.N,Net-(R17-Pad2)*%
%TA.AperFunction,SMDPad,CuDef*%
G36*
G01*
X77235000Y-55695001D02*
X77235000Y-54794999D01*
G75*
G02*
X77484999Y-54545000I249999J0D01*
G01*
X78010001Y-54545000D01*
G75*
G02*
X78260000Y-54794999I0J-249999D01*
G01*
X78260000Y-55695001D01*
G75*
G02*
X78010001Y-55945000I-249999J0D01*
G01*
X77484999Y-55945000D01*
G75*
G02*
X77235000Y-55695001I0J249999D01*
G01*
G37*
%TD.AperFunction*%
%TD*%
D18*
%TO.P,U2,8*%
%TO.N,VCC*%
X74930000Y-17780000D03*
%TO.P,U2,4*%
%TO.N,GND*%
X67310000Y-25400000D03*
%TO.P,U2,7*%
X74930000Y-20320000D03*
%TO.P,U2,3*%
X67310000Y-22860000D03*
%TO.P,U2,6*%
%TO.N,SCL*%
X74930000Y-22860000D03*
%TO.P,U2,2*%
%TO.N,GND*%
X67310000Y-20320000D03*
%TO.P,U2,5*%
%TO.N,SDA*%
X74930000Y-25400000D03*
D19*
%TO.P,U2,1*%
%TO.N,GND*%
X67310000Y-17780000D03*
%TD*%
%TO.P,U3,1*%
%TO.N,Net-(R14-Pad2)*%
X82550000Y-17780000D03*
D18*
%TO.P,U3,5*%
%TO.N,SDA*%
X90170000Y-25400000D03*
%TO.P,U3,2*%
%TO.N,GND*%
X82550000Y-20320000D03*
%TO.P,U3,6*%
%TO.N,SCL*%
X90170000Y-22860000D03*
%TO.P,U3,3*%
%TO.N,GND*%
X82550000Y-22860000D03*
%TO.P,U3,7*%
X90170000Y-20320000D03*
%TO.P,U3,4*%
X82550000Y-25400000D03*
%TO.P,U3,8*%
%TO.N,VCC*%
X90170000Y-17780000D03*
%TD*%
%TO.P,U4,8*%
%TO.N,VCC*%
X90170000Y-34290000D03*
%TO.P,U4,4*%
%TO.N,GND*%
X82550000Y-41910000D03*
%TO.P,U4,7*%
X90170000Y-36830000D03*
%TO.P,U4,3*%
X82550000Y-39370000D03*
%TO.P,U4,6*%
%TO.N,SCL*%
X90170000Y-39370000D03*
%TO.P,U4,2*%
%TO.N,Net-(R15-Pad2)*%
X82550000Y-36830000D03*
%TO.P,U4,5*%
%TO.N,SDA*%
X90170000Y-41910000D03*
D19*
%TO.P,U4,1*%
%TO.N,GND*%
X82550000Y-34290000D03*
%TD*%
%TO.P,U5,1*%
%TO.N,Net-(R16-Pad2)*%
X82550000Y-50165000D03*
D18*
%TO.P,U5,5*%
%TO.N,SDA*%
X90170000Y-57785000D03*
%TO.P,U5,2*%
%TO.N,Net-(R17-Pad2)*%
X82550000Y-52705000D03*
%TO.P,U5,6*%
%TO.N,SCL*%
X90170000Y-55245000D03*
%TO.P,U5,3*%
%TO.N,GND*%
X82550000Y-55245000D03*
%TO.P,U5,7*%
X90170000Y-52705000D03*
%TO.P,U5,4*%
X82550000Y-57785000D03*
%TO.P,U5,8*%
%TO.N,VCC*%
X90170000Y-50165000D03*
%TD*%
D20*
%TO.P,SW1,2*%
%TO.N,Net-(R3-Pad2)*%
X41910000Y-73715000D03*
%TO.P,SW1,1*%
%TO.N,RESET*%
X41910000Y-69215000D03*
%TO.P,SW1,2*%
%TO.N,Net-(R3-Pad2)*%
X48410000Y-73715000D03*
%TO.P,SW1,1*%
%TO.N,RESET*%
X48410000Y-69215000D03*
%TD*%
%TO.P,SW2,1*%
%TO.N,NEXT*%
X90320000Y-69215000D03*
%TO.P,SW2,2*%
%TO.N,Net-(R5-Pad2)*%
X90320000Y-73715000D03*
%TO.P,SW2,1*%
%TO.N,NEXT*%
X83820000Y-69215000D03*
%TO.P,SW2,2*%
%TO.N,Net-(R5-Pad2)*%
X83820000Y-73715000D03*
%TD*%
%TO.P,SW3,2*%
%TO.N,Net-(R7-Pad2)*%
X55880000Y-73715000D03*
%TO.P,SW3,1*%
%TO.N,SELECT*%
X55880000Y-69215000D03*
%TO.P,SW3,2*%
%TO.N,Net-(R7-Pad2)*%
X62380000Y-73715000D03*
%TO.P,SW3,1*%
%TO.N,SELECT*%
X62380000Y-69215000D03*
%TD*%
%TO.P,SW4,1*%
%TO.N,MODIFY*%
X76350000Y-69215000D03*
%TO.P,SW4,2*%
%TO.N,Net-(R9-Pad2)*%
X76350000Y-73715000D03*
%TO.P,SW4,1*%
%TO.N,MODIFY*%
X69850000Y-69215000D03*
%TO.P,SW4,2*%
%TO.N,Net-(R9-Pad2)*%
X69850000Y-73715000D03*
%TD*%
%TO.P,C16,2*%
%TO.N,GND*%
%TA.AperFunction,SMDPad,CuDef*%
G36*
G01*
X57134999Y-58050000D02*
X58435001Y-58050000D01*
G75*
G02*
X58685000Y-58299999I0J-249999D01*
G01*
X58685000Y-58950001D01*
G75*
G02*
X58435001Y-59200000I-249999J0D01*
G01*
X57134999Y-59200000D01*
G75*
G02*
X56885000Y-58950001I0J249999D01*
G01*
X56885000Y-58299999D01*
G75*
G02*
X57134999Y-58050000I249999J0D01*
G01*
G37*
%TD.AperFunction*%
%TO.P,C16,1*%
%TO.N,VCC*%
%TA.AperFunction,SMDPad,CuDef*%
G36*
G01*
X57134999Y-55100000D02*
X58435001Y-55100000D01*
G75*
G02*
X58685000Y-55349999I0J-249999D01*
G01*
X58685000Y-56000001D01*
G75*
G02*
X58435001Y-56250000I-249999J0D01*
G01*
X57134999Y-56250000D01*
G75*
G02*
X56885000Y-56000001I0J249999D01*
G01*
X56885000Y-55349999D01*
G75*
G02*
X57134999Y-55100000I249999J0D01*
G01*
G37*
%TD.AperFunction*%
%TD*%
%TO.P,C17,1*%
%TO.N,VCC*%
%TA.AperFunction,SMDPad,CuDef*%
G36*
G01*
X67294999Y-55100000D02*
X68595001Y-55100000D01*
G75*
G02*
X68845000Y-55349999I0J-249999D01*
G01*
X68845000Y-56000001D01*
G75*
G02*
X68595001Y-56250000I-249999J0D01*
G01*
X67294999Y-56250000D01*
G75*
G02*
X67045000Y-56000001I0J249999D01*
G01*
X67045000Y-55349999D01*
G75*
G02*
X67294999Y-55100000I249999J0D01*
G01*
G37*
%TD.AperFunction*%
%TO.P,C17,2*%
%TO.N,GND*%
%TA.AperFunction,SMDPad,CuDef*%
G36*
G01*
X67294999Y-58050000D02*
X68595001Y-58050000D01*
G75*
G02*
X68845000Y-58299999I0J-249999D01*
G01*
X68845000Y-58950001D01*
G75*
G02*
X68595001Y-59200000I-249999J0D01*
G01*
X67294999Y-59200000D01*
G75*
G02*
X67045000Y-58950001I0J249999D01*
G01*
X67045000Y-58299999D01*
G75*
G02*
X67294999Y-58050000I249999J0D01*
G01*
G37*
%TD.AperFunction*%
%TD*%
%TO.P,C18,1*%
%TO.N,VCC*%
%TA.AperFunction,SMDPad,CuDef*%
G36*
G01*
X37610000Y-43799999D02*
X37610000Y-45100001D01*
G75*
G02*
X37360001Y-45350000I-249999J0D01*
G01*
X36709999Y-45350000D01*
G75*
G02*
X36460000Y-45100001I0J249999D01*
G01*
X36460000Y-43799999D01*
G75*
G02*
X36709999Y-43550000I249999J0D01*
G01*
X37360001Y-43550000D01*
G75*
G02*
X37610000Y-43799999I0J-249999D01*
G01*
G37*
%TD.AperFunction*%
%TO.P,C18,2*%
%TO.N,GND*%
%TA.AperFunction,SMDPad,CuDef*%
G36*
G01*
X34660000Y-43799999D02*
X34660000Y-45100001D01*
G75*
G02*
X34410001Y-45350000I-249999J0D01*
G01*
X33759999Y-45350000D01*
G75*
G02*
X33510000Y-45100001I0J249999D01*
G01*
X33510000Y-43799999D01*
G75*
G02*
X33759999Y-43550000I249999J0D01*
G01*
X34410001Y-43550000D01*
G75*
G02*
X34660000Y-43799999I0J-249999D01*
G01*
G37*
%TD.AperFunction*%
%TD*%
%TO.P,C19,2*%
%TO.N,GND*%
%TA.AperFunction,SMDPad,CuDef*%
G36*
G01*
X44465001Y-56250000D02*
X43164999Y-56250000D01*
G75*
G02*
X42915000Y-56000001I0J249999D01*
G01*
X42915000Y-55349999D01*
G75*
G02*
X43164999Y-55100000I249999J0D01*
G01*
X44465001Y-55100000D01*
G75*
G02*
X44715000Y-55349999I0J-249999D01*
G01*
X44715000Y-56000001D01*
G75*
G02*
X44465001Y-56250000I-249999J0D01*
G01*
G37*
%TD.AperFunction*%
%TO.P,C19,1*%
%TO.N,AMP_IN*%
%TA.AperFunction,SMDPad,CuDef*%
G36*
G01*
X44465001Y-59200000D02*
X43164999Y-59200000D01*
G75*
G02*
X42915000Y-58950001I0J249999D01*
G01*
X42915000Y-58299999D01*
G75*
G02*
X43164999Y-58050000I249999J0D01*
G01*
X44465001Y-58050000D01*
G75*
G02*
X44715000Y-58299999I0J-249999D01*
G01*
X44715000Y-58950001D01*
G75*
G02*
X44465001Y-59200000I-249999J0D01*
G01*
G37*
%TD.AperFunction*%
%TD*%
D21*
%TO.P,D3,1*%
%TO.N,ARRAY_DIN*%
X28575000Y-49530000D03*
D22*
%TO.P,D3,2*%
%TO.N,GND*%
X28575000Y-59690000D03*
%TD*%
%TO.P,D4,2*%
%TO.N,GND*%
X26670000Y-76200000D03*
D21*
%TO.P,D4,1*%
%TO.N,AMP_IN*%
X16510000Y-76200000D03*
%TD*%
%TO.P,D5,1*%
%TO.N,+5V*%
X16510000Y-63500000D03*
D22*
%TO.P,D5,2*%
%TO.N,GND*%
X26670000Y-63500000D03*
%TD*%
D23*
%TO.P,J3,1*%
%TO.N,+5V*%
X16510000Y-67310000D03*
D24*
%TO.P,J3,2*%
%TO.N,ARRAY_DIN*%
X16510000Y-69850000D03*
%TO.P,J3,3*%
%TO.N,AMP_IN*%
X16510000Y-72390000D03*
%TD*%
%TO.P,R18,1*%
%TO.N,MAIN_ARRAY*%
%TA.AperFunction,SMDPad,CuDef*%
G36*
G01*
X41090001Y-41430000D02*
X40189999Y-41430000D01*
G75*
G02*
X39940000Y-41180001I0J249999D01*
G01*
X39940000Y-40654999D01*
G75*
G02*
X40189999Y-40405000I249999J0D01*
G01*
X41090001Y-40405000D01*
G75*
G02*
X41340000Y-40654999I0J-249999D01*
G01*
X41340000Y-41180001D01*
G75*
G02*
X41090001Y-41430000I-249999J0D01*
G01*
G37*
%TD.AperFunction*%
%TO.P,R18,2*%
%TO.N,Net-(Q1-Pad2)*%
%TA.AperFunction,SMDPad,CuDef*%
G36*
G01*
X41090001Y-39605000D02*
X40189999Y-39605000D01*
G75*
G02*
X39940000Y-39355001I0J249999D01*
G01*
X39940000Y-38829999D01*
G75*
G02*
X40189999Y-38580000I249999J0D01*
G01*
X41090001Y-38580000D01*
G75*
G02*
X41340000Y-38829999I0J-249999D01*
G01*
X41340000Y-39355001D01*
G75*
G02*
X41090001Y-39605000I-249999J0D01*
G01*
G37*
%TD.AperFunction*%
%TD*%
%TO.P,R19,1*%
%TO.N,GND*%
%TA.AperFunction,SMDPad,CuDef*%
G36*
G01*
X29200001Y-42665000D02*
X27949999Y-42665000D01*
G75*
G02*
X27700000Y-42415001I0J249999D01*
G01*
X27700000Y-41789999D01*
G75*
G02*
X27949999Y-41540000I249999J0D01*
G01*
X29200001Y-41540000D01*
G75*
G02*
X29450000Y-41789999I0J-249999D01*
G01*
X29450000Y-42415001D01*
G75*
G02*
X29200001Y-42665000I-249999J0D01*
G01*
G37*
%TD.AperFunction*%
%TO.P,R19,2*%
%TO.N,ARRAY_DIN*%
%TA.AperFunction,SMDPad,CuDef*%
G36*
G01*
X29200001Y-39740000D02*
X27949999Y-39740000D01*
G75*
G02*
X27700000Y-39490001I0J249999D01*
G01*
X27700000Y-38864999D01*
G75*
G02*
X27949999Y-38615000I249999J0D01*
G01*
X29200001Y-38615000D01*
G75*
G02*
X29450000Y-38864999I0J-249999D01*
G01*
X29450000Y-39490001D01*
G75*
G02*
X29200001Y-39740000I-249999J0D01*
G01*
G37*
%TD.AperFunction*%
%TD*%
%TO.P,R20,2*%
%TO.N,AMP_IN*%
%TA.AperFunction,SMDPad,CuDef*%
G36*
G01*
X32230000Y-63945000D02*
X35080000Y-63945000D01*
G75*
G02*
X35330000Y-64195000I0J-250000D01*
G01*
X35330000Y-64920000D01*
G75*
G02*
X35080000Y-65170000I-250000J0D01*
G01*
X32230000Y-65170000D01*
G75*
G02*
X31980000Y-64920000I0J250000D01*
G01*
X31980000Y-64195000D01*
G75*
G02*
X32230000Y-63945000I250000J0D01*
G01*
G37*
%TD.AperFunction*%
%TO.P,R20,1*%
%TO.N,Net-(R20-Pad1)*%
%TA.AperFunction,SMDPad,CuDef*%
G36*
G01*
X32230000Y-58020000D02*
X35080000Y-58020000D01*
G75*
G02*
X35330000Y-58270000I0J-250000D01*
G01*
X35330000Y-58995000D01*
G75*
G02*
X35080000Y-59245000I-250000J0D01*
G01*
X32230000Y-59245000D01*
G75*
G02*
X31980000Y-58995000I0J250000D01*
G01*
X31980000Y-58270000D01*
G75*
G02*
X32230000Y-58020000I250000J0D01*
G01*
G37*
%TD.AperFunction*%
%TD*%
%TO.P,R21,1*%
%TO.N,Net-(R20-Pad1)*%
%TA.AperFunction,SMDPad,CuDef*%
G36*
G01*
X37945000Y-58020000D02*
X40795000Y-58020000D01*
G75*
G02*
X41045000Y-58270000I0J-250000D01*
G01*
X41045000Y-58995000D01*
G75*
G02*
X40795000Y-59245000I-250000J0D01*
G01*
X37945000Y-59245000D01*
G75*
G02*
X37695000Y-58995000I0J250000D01*
G01*
X37695000Y-58270000D01*
G75*
G02*
X37945000Y-58020000I250000J0D01*
G01*
G37*
%TD.AperFunction*%
%TO.P,R21,2*%
%TO.N,AMP_IN*%
%TA.AperFunction,SMDPad,CuDef*%
G36*
G01*
X37945000Y-63945000D02*
X40795000Y-63945000D01*
G75*
G02*
X41045000Y-64195000I0J-250000D01*
G01*
X41045000Y-64920000D01*
G75*
G02*
X40795000Y-65170000I-250000J0D01*
G01*
X37945000Y-65170000D01*
G75*
G02*
X37695000Y-64920000I0J250000D01*
G01*
X37695000Y-64195000D01*
G75*
G02*
X37945000Y-63945000I250000J0D01*
G01*
G37*
%TD.AperFunction*%
%TD*%
%TO.P,R22,2*%
%TO.N,Net-(R20-Pad1)*%
%TA.AperFunction,SMDPad,CuDef*%
G36*
G01*
X32230000Y-55055000D02*
X35080000Y-55055000D01*
G75*
G02*
X35330000Y-55305000I0J-250000D01*
G01*
X35330000Y-56030000D01*
G75*
G02*
X35080000Y-56280000I-250000J0D01*
G01*
X32230000Y-56280000D01*
G75*
G02*
X31980000Y-56030000I0J250000D01*
G01*
X31980000Y-55305000D01*
G75*
G02*
X32230000Y-55055000I250000J0D01*
G01*
G37*
%TD.AperFunction*%
%TO.P,R22,1*%
%TO.N,GND*%
%TA.AperFunction,SMDPad,CuDef*%
G36*
G01*
X32230000Y-49130000D02*
X35080000Y-49130000D01*
G75*
G02*
X35330000Y-49380000I0J-250000D01*
G01*
X35330000Y-50105000D01*
G75*
G02*
X35080000Y-50355000I-250000J0D01*
G01*
X32230000Y-50355000D01*
G75*
G02*
X31980000Y-50105000I0J250000D01*
G01*
X31980000Y-49380000D01*
G75*
G02*
X32230000Y-49130000I250000J0D01*
G01*
G37*
%TD.AperFunction*%
%TD*%
%TO.P,R23,1*%
%TO.N,GND*%
%TA.AperFunction,SMDPad,CuDef*%
G36*
G01*
X37945000Y-49130000D02*
X40795000Y-49130000D01*
G75*
G02*
X41045000Y-49380000I0J-250000D01*
G01*
X41045000Y-50105000D01*
G75*
G02*
X40795000Y-50355000I-250000J0D01*
G01*
X37945000Y-50355000D01*
G75*
G02*
X37695000Y-50105000I0J250000D01*
G01*
X37695000Y-49380000D01*
G75*
G02*
X37945000Y-49130000I250000J0D01*
G01*
G37*
%TD.AperFunction*%
%TO.P,R23,2*%
%TO.N,Net-(R20-Pad1)*%
%TA.AperFunction,SMDPad,CuDef*%
G36*
G01*
X37945000Y-55055000D02*
X40795000Y-55055000D01*
G75*
G02*
X41045000Y-55305000I0J-250000D01*
G01*
X41045000Y-56030000D01*
G75*
G02*
X40795000Y-56280000I-250000J0D01*
G01*
X37945000Y-56280000D01*
G75*
G02*
X37695000Y-56030000I0J250000D01*
G01*
X37695000Y-55305000D01*
G75*
G02*
X37945000Y-55055000I250000J0D01*
G01*
G37*
%TD.AperFunction*%
%TD*%
D25*
%TO.P,DD1,3*%
%TO.N,VCC*%
X54305000Y-54700000D03*
%TO.P,DD1,4*%
%TO.N,PREVIEW_ARRAY*%
X51105000Y-54700000D03*
%TO.P,DD1,2*%
%TO.N,GND*%
X54305000Y-59600000D03*
%TO.P,DD1,1*%
%TO.N,Net-(DD1-Pad1)*%
X51105000Y-59600000D03*
%TD*%
%TO.P,DD2,1*%
%TO.N,Net-(DD2-Pad1)*%
X61265000Y-59600000D03*
%TO.P,DD2,2*%
%TO.N,GND*%
X64465000Y-59600000D03*
%TO.P,DD2,4*%
%TO.N,Net-(DD1-Pad1)*%
X61265000Y-54700000D03*
%TO.P,DD2,3*%
%TO.N,VCC*%
X64465000Y-54700000D03*
%TD*%
D26*
%TO.P,Q1,2*%
%TO.N,Net-(Q1-Pad2)*%
X35560000Y-39370000D03*
%TO.P,Q1,3*%
%TO.N,VCC*%
X36830000Y-40640000D03*
D27*
%TO.P,Q1,1*%
%TO.N,ARRAY_DIN*%
X34290000Y-40640000D03*
%TD*%
D28*
%TO.N,VCC*%
X59055000Y-53975000D03*
X57785000Y-53975000D03*
%TO.N,+5V*%
X20320000Y-36195000D03*
X20320000Y-37465000D03*
X19050000Y-37465000D03*
X19050000Y-36195000D03*
X17780000Y-36195000D03*
X17780000Y-37465000D03*
X16510000Y-36195000D03*
X16510000Y-37465000D03*
X16510000Y-38735000D03*
X16510000Y-40005000D03*
X16510000Y-41275000D03*
X15240000Y-41275000D03*
X15240000Y-40005000D03*
X15240000Y-38735000D03*
X15240000Y-37465000D03*
X15240000Y-36195000D03*
%TO.N,GND*%
X26670000Y-31750000D03*
X26670000Y-33020000D03*
X26670000Y-34290000D03*
X26670000Y-35560000D03*
X25400000Y-35560000D03*
X25400000Y-30480000D03*
X26670000Y-30480000D03*
X25400000Y-29210000D03*
X26670000Y-29210000D03*
X26670000Y-27940000D03*
X25400000Y-27940000D03*
X31750000Y-44450000D03*
X33020000Y-48260000D03*
X34290000Y-48260000D03*
X35560000Y-48260000D03*
X36830000Y-48260000D03*
X38100000Y-48260000D03*
X39370000Y-48260000D03*
X40640000Y-48260000D03*
X40640000Y-46990000D03*
X39370000Y-46990000D03*
X38100000Y-46990000D03*
X36830000Y-46990000D03*
X35560000Y-46990000D03*
X34290000Y-46990000D03*
X33020000Y-46990000D03*
X24130000Y-35560000D03*
X22860000Y-35560000D03*
X24130000Y-30480000D03*
X22860000Y-30480000D03*
X32385000Y-22860000D03*
X36830000Y-49530000D03*
X36830000Y-50800000D03*
X36830000Y-52070000D03*
X35560000Y-52070000D03*
X34290000Y-52070000D03*
X33020000Y-52070000D03*
X38100000Y-52070000D03*
X39370000Y-52070000D03*
X40640000Y-52070000D03*
X43180000Y-53340000D03*
X48260000Y-49530000D03*
X61595000Y-49530000D03*
X56515000Y-26670000D03*
X57785000Y-35560000D03*
X42545000Y-76835000D03*
X56515000Y-76835000D03*
X70485000Y-76835000D03*
X84455000Y-76835000D03*
X38100000Y-74930000D03*
X52070000Y-74930000D03*
X66040000Y-74930000D03*
X80010000Y-74930000D03*
X83820000Y-45085000D03*
X83820000Y-28575000D03*
X67945000Y-28575000D03*
X26670000Y-52070000D03*
X25400000Y-52070000D03*
X25400000Y-53340000D03*
X26670000Y-53340000D03*
X26670000Y-54610000D03*
X26670000Y-55880000D03*
X26670000Y-57150000D03*
X26670000Y-58420000D03*
X25400000Y-58420000D03*
X25400000Y-59690000D03*
X24130000Y-58420000D03*
X24130000Y-59690000D03*
X24130000Y-52070000D03*
X24130000Y-53340000D03*
X40640000Y-24765000D03*
X55880000Y-59690000D03*
X66040000Y-59690000D03*
X28575000Y-43815000D03*
X85090000Y-58420000D03*
%TO.N,VCC*%
X59055000Y-50800000D03*
X57785000Y-50800000D03*
X74295000Y-30480000D03*
X77470000Y-30480000D03*
%TO.N,NEXT*%
X74295000Y-57150000D03*
X70485000Y-50800000D03*
%TO.N,SELECT*%
X70485000Y-48895000D03*
X70485000Y-60960000D03*
%TO.N,MODIFY*%
X70485000Y-58420000D03*
%TO.N,LCD_DB6*%
X48895000Y-33655000D03*
X48260000Y-28575000D03*
%TO.N,LCD_DB5*%
X46990000Y-26670000D03*
X50165000Y-26670000D03*
%TO.N,LCD_DB4*%
X64135000Y-41910000D03*
X59055000Y-41910000D03*
X47625000Y-31750000D03*
X46355000Y-30480000D03*
%TO.N,SCL*%
X86360000Y-24130000D03*
X85090000Y-30480000D03*
X85090000Y-39370000D03*
X87630000Y-39370000D03*
X85090000Y-43180000D03*
X87630000Y-46990000D03*
%TO.N,PREVIEW_ARRAY*%
X48260000Y-54610000D03*
X45085000Y-51435000D03*
%TD*%
D29*
%TO.N,GND*%
X28767500Y-41910000D02*
X28575000Y-42102500D01*
X31750000Y-44450000D02*
X34085000Y-44450000D01*
X25732500Y-35227500D02*
X25400000Y-35560000D01*
X28575000Y-35227500D02*
X25732500Y-35227500D01*
X43815000Y-53975000D02*
X43180000Y-53340000D01*
X43815000Y-55675000D02*
X43815000Y-53975000D01*
X49862500Y-49530000D02*
X48260000Y-49530000D01*
X54925000Y-26670000D02*
X56515000Y-26670000D01*
X56515000Y-26670000D02*
X58420000Y-26670000D01*
X57785000Y-35560000D02*
X58850000Y-35560000D01*
X86082500Y-76835000D02*
X84455000Y-76835000D01*
X72112500Y-76835000D02*
X70485000Y-76835000D01*
X58142500Y-76835000D02*
X56515000Y-76835000D01*
X44172500Y-76835000D02*
X42545000Y-76835000D01*
X38100000Y-73230000D02*
X38100000Y-74930000D01*
X52070000Y-73230000D02*
X52070000Y-74930000D01*
X66040000Y-73230000D02*
X66040000Y-74930000D01*
X80010000Y-73230000D02*
X80010000Y-74930000D01*
X83820000Y-45085000D02*
X84885000Y-45085000D01*
X83820000Y-28575000D02*
X84885000Y-28575000D01*
X69645000Y-28575000D02*
X67945000Y-28575000D01*
D30*
X40950000Y-24455000D02*
X40640000Y-24765000D01*
X40950000Y-22755000D02*
X40950000Y-24455000D01*
D29*
X32385000Y-20730000D02*
X32385000Y-22860000D01*
X54395000Y-59690000D02*
X54305000Y-59600000D01*
X55880000Y-59690000D02*
X54395000Y-59690000D01*
X56720000Y-59690000D02*
X57785000Y-58625000D01*
X55880000Y-59690000D02*
X56720000Y-59690000D01*
X64555000Y-59690000D02*
X64465000Y-59600000D01*
X66040000Y-59690000D02*
X64555000Y-59690000D01*
X66880000Y-59690000D02*
X67945000Y-58625000D01*
X66040000Y-59690000D02*
X66880000Y-59690000D01*
X28575000Y-42102500D02*
X28575000Y-43815000D01*
X84885000Y-58625000D02*
X85090000Y-58420000D01*
X84885000Y-60960000D02*
X84885000Y-58625000D01*
D30*
X61595000Y-49530000D02*
X63070000Y-49530000D01*
D29*
%TO.N,XTAL1*%
X56515000Y-36195000D02*
X55880000Y-35560000D01*
X56515000Y-38735000D02*
X56515000Y-36195000D01*
X60320000Y-29850000D02*
X59055000Y-31115000D01*
X60320000Y-26670000D02*
X60320000Y-29850000D01*
X59055000Y-32385000D02*
X55880000Y-35560000D01*
X59055000Y-31115000D02*
X59055000Y-32385000D01*
%TO.N,XTAL2*%
X54155000Y-35460000D02*
X54055000Y-35560000D01*
X54155000Y-31750000D02*
X54155000Y-35460000D01*
X53975000Y-35640000D02*
X54055000Y-35560000D01*
X53975000Y-38735000D02*
X53975000Y-35640000D01*
X53025000Y-26670000D02*
X53340000Y-26670000D01*
X53025000Y-29985000D02*
X54155000Y-31115000D01*
X53025000Y-26670000D02*
X53025000Y-29985000D01*
D30*
%TO.N,VCC*%
X56515000Y-46355000D02*
X59055000Y-46355000D01*
D29*
X58850000Y-46560000D02*
X59055000Y-46355000D01*
D30*
X61595000Y-38735000D02*
X61595000Y-41275000D01*
X61595000Y-41275000D02*
X59055000Y-43815000D01*
X59055000Y-43815000D02*
X59055000Y-46355000D01*
D29*
X61595000Y-35765000D02*
X61800000Y-35560000D01*
D30*
X61595000Y-38735000D02*
X61595000Y-35765000D01*
D29*
X17070000Y-55880000D02*
X17070000Y-51850000D01*
X74930000Y-17780000D02*
X74930000Y-17145000D01*
D30*
X41950000Y-22755000D02*
X41950000Y-15280000D01*
X72595000Y-28575000D02*
X72595000Y-15670000D01*
D29*
X37035000Y-40845000D02*
X36830000Y-40640000D01*
X37035000Y-44450000D02*
X37035000Y-40845000D01*
X41268189Y-39990001D02*
X41665010Y-39593180D01*
X37479999Y-39990001D02*
X41268189Y-39990001D01*
X36830000Y-40640000D02*
X37479999Y-39990001D01*
X41665010Y-39593180D02*
X41686820Y-39593180D01*
X41686820Y-39593180D02*
X41910000Y-39370000D01*
X41910000Y-39370000D02*
X41910000Y-38100000D01*
X41910000Y-38100000D02*
X40640000Y-36830000D01*
X40640000Y-36830000D02*
X38100000Y-36830000D01*
D30*
X45997500Y-65405000D02*
X45997500Y-60682500D01*
X51855000Y-57150000D02*
X54305000Y-54700000D01*
X49530000Y-57150000D02*
X51855000Y-57150000D01*
X45997500Y-60682500D02*
X49530000Y-57150000D01*
X66970000Y-54700000D02*
X67945000Y-55675000D01*
X64465000Y-54700000D02*
X66970000Y-54700000D01*
D29*
X64465000Y-54700000D02*
X64465000Y-54305000D01*
D30*
X64465000Y-54305000D02*
X63500000Y-53340000D01*
X63500000Y-53340000D02*
X60120000Y-53340000D01*
D29*
X78740000Y-21867500D02*
X77747500Y-21867500D01*
X77747500Y-21867500D02*
X76835000Y-20955000D01*
X76835000Y-20955000D02*
X76835000Y-17780000D01*
X87835000Y-28575000D02*
X90170000Y-28575000D01*
X90170000Y-28575000D02*
X90170000Y-34290000D01*
X87835000Y-45085000D02*
X90170000Y-45085000D01*
X90170000Y-45085000D02*
X90170000Y-50165000D01*
X77747500Y-28575000D02*
X80367500Y-28575000D01*
X77747500Y-30202500D02*
X77470000Y-30480000D01*
X77747500Y-28575000D02*
X77747500Y-30202500D01*
D30*
X73937500Y-65405000D02*
X75565000Y-65405000D01*
X75565000Y-65405000D02*
X78105000Y-67945000D01*
X78105000Y-67945000D02*
X78105000Y-74098002D01*
X78105000Y-74098002D02*
X78105000Y-78740000D01*
D29*
X59967500Y-65405000D02*
X61595000Y-65405000D01*
X61595000Y-65405000D02*
X64135000Y-67945000D01*
X64135000Y-67945000D02*
X64135000Y-78740000D01*
D30*
X45997500Y-65405000D02*
X47625000Y-65405000D01*
X47625000Y-65405000D02*
X50165000Y-67945000D01*
D29*
X75922500Y-55245000D02*
X75922500Y-52705000D01*
X75922500Y-51355000D02*
X82192500Y-45085000D01*
X75922500Y-52705000D02*
X75922500Y-51355000D01*
X75922500Y-55245000D02*
X76200000Y-55245000D01*
D30*
X67945000Y-55675000D02*
X69645000Y-55675000D01*
X73937500Y-59967500D02*
X73937500Y-65405000D01*
X69645000Y-55675000D02*
X73937500Y-59967500D01*
X50165000Y-77724000D02*
X51435000Y-78994000D01*
X50165000Y-67945000D02*
X50165000Y-77724000D01*
D29*
X70075000Y-55245000D02*
X69645000Y-55675000D01*
X75922500Y-55245000D02*
X70075000Y-55245000D01*
X59587500Y-53872500D02*
X59055000Y-53340000D01*
D30*
X60120000Y-53340000D02*
X59587500Y-53872500D01*
X57785000Y-50800000D02*
X59055000Y-50800000D01*
X59055000Y-48465000D02*
X60120000Y-49530000D01*
X59055000Y-46355000D02*
X59055000Y-48465000D01*
X60120000Y-49735000D02*
X59055000Y-50800000D01*
D29*
X60120000Y-49530000D02*
X60120000Y-49735000D01*
%TO.N,RESET*%
X48410000Y-69215000D02*
X41910000Y-69215000D01*
X41910000Y-69215000D02*
X38735000Y-69215000D01*
X38735000Y-69215000D02*
X38100000Y-69850000D01*
X38100000Y-69850000D02*
X38100000Y-70280000D01*
X44172500Y-66952500D02*
X41910000Y-69215000D01*
X44172500Y-65405000D02*
X44172500Y-66952500D01*
X44172500Y-65405000D02*
X44172500Y-61237500D01*
X44172500Y-61237500D02*
X45085000Y-60325000D01*
X45085000Y-60325000D02*
X45085000Y-59690000D01*
X45085000Y-59690000D02*
X46355000Y-58420000D01*
X46355000Y-58420000D02*
X46355000Y-53975000D01*
X71120000Y-52070000D02*
X73025000Y-50165000D01*
X73025000Y-50165000D02*
X73025000Y-44450000D01*
X73025000Y-44450000D02*
X76835000Y-40640000D01*
X76835000Y-40640000D02*
X76835000Y-38735000D01*
X46355000Y-53975000D02*
X47625000Y-52705000D01*
X47625000Y-52705000D02*
X70485000Y-52705000D01*
X70485000Y-52705000D02*
X71120000Y-52070000D01*
%TO.N,Net-(R3-Pad2)*%
X45997500Y-74047500D02*
X45665000Y-73715000D01*
X45997500Y-76835000D02*
X45997500Y-74047500D01*
X45665000Y-73715000D02*
X41910000Y-73715000D01*
X48410000Y-73715000D02*
X45665000Y-73715000D01*
%TO.N,NEXT*%
X90320000Y-69215000D02*
X83820000Y-69215000D01*
X81075000Y-69215000D02*
X80010000Y-70280000D01*
X83820000Y-69215000D02*
X81075000Y-69215000D01*
X86082500Y-66952500D02*
X83820000Y-69215000D01*
X86082500Y-65405000D02*
X86082500Y-66952500D01*
X86082500Y-65405000D02*
X86082500Y-64492500D01*
X86082500Y-64492500D02*
X80645000Y-59055000D01*
X80645000Y-59055000D02*
X78740000Y-57150000D01*
X78740000Y-57150000D02*
X75565000Y-57150000D01*
X75565000Y-57150000D02*
X74295000Y-57150000D01*
X74295000Y-57150000D02*
X74295000Y-57150000D01*
X66675000Y-38735000D02*
X66675000Y-40640000D01*
X70485000Y-50800000D02*
X70485000Y-50800000D01*
X66675000Y-40640000D02*
X67945000Y-41910000D01*
X67945000Y-41910000D02*
X67945000Y-48260000D01*
X67945000Y-48260000D02*
X70485000Y-50800000D01*
%TO.N,SELECT*%
X62380000Y-69215000D02*
X55880000Y-69215000D01*
X53135000Y-69215000D02*
X52070000Y-70280000D01*
X55880000Y-69215000D02*
X53135000Y-69215000D01*
X58142500Y-66952500D02*
X55880000Y-69215000D01*
X58142500Y-65405000D02*
X58142500Y-66952500D01*
X69215000Y-38735000D02*
X69215000Y-43180000D01*
X69215000Y-43180000D02*
X70485000Y-44450000D01*
X70485000Y-44450000D02*
X70485000Y-48895000D01*
X70485000Y-48895000D02*
X70485000Y-48895000D01*
X58142500Y-65405000D02*
X58142500Y-63777500D01*
X58142500Y-63777500D02*
X59690000Y-62230000D01*
X59690000Y-62230000D02*
X66675000Y-62230000D01*
X67945000Y-60960000D02*
X70485000Y-60960000D01*
X66675000Y-62230000D02*
X67945000Y-60960000D01*
%TO.N,MODIFY*%
X76350000Y-69215000D02*
X69850000Y-69215000D01*
X67105000Y-69215000D02*
X66040000Y-70280000D01*
X69850000Y-69215000D02*
X67105000Y-69215000D01*
X72112500Y-66952500D02*
X69850000Y-69215000D01*
X72112500Y-65405000D02*
X72112500Y-66952500D01*
X72112500Y-65405000D02*
X72112500Y-60047500D01*
X72112500Y-60047500D02*
X70485000Y-58420000D01*
X70485000Y-58420000D02*
X70485000Y-58420000D01*
%TO.N,Net-(D1-Pad2)*%
X28575000Y-30122500D02*
X28575000Y-33352500D01*
%TO.N,Net-(D2-Pad2)*%
X51737500Y-49530000D02*
X54332500Y-49530000D01*
%TO.N,LCD_DB7*%
X46355000Y-31750000D02*
X46355000Y-38735000D01*
X49530000Y-28575000D02*
X46355000Y-31750000D01*
X49530000Y-27940000D02*
X49530000Y-28575000D01*
X48950000Y-27360000D02*
X49530000Y-27940000D01*
X48950000Y-22755000D02*
X48950000Y-27360000D01*
%TO.N,LCD_DB6*%
X48895000Y-38735000D02*
X48895000Y-33655000D01*
X48895000Y-33655000D02*
X48895000Y-33655000D01*
X48260000Y-28575000D02*
X48260000Y-24130000D01*
X47950000Y-22755000D02*
X47950000Y-23820000D01*
X47950000Y-23820000D02*
X48260000Y-24130000D01*
%TO.N,LCD_DB5*%
X51435000Y-38735000D02*
X51435000Y-36195000D01*
X51435000Y-36195000D02*
X50165000Y-34925000D01*
X50165000Y-34925000D02*
X50165000Y-26670000D01*
X50165000Y-26670000D02*
X50165000Y-26670000D01*
X46950000Y-22755000D02*
X46950000Y-24725000D01*
X50165000Y-26670000D02*
X50165000Y-26670000D01*
X46990000Y-24765000D02*
X46950000Y-24725000D01*
X46990000Y-26670000D02*
X46990000Y-24765000D01*
%TO.N,LCD_DB4*%
X64135000Y-38735000D02*
X64135000Y-40640000D01*
X64135000Y-40640000D02*
X64135000Y-41910000D01*
X64135000Y-41910000D02*
X64135000Y-41910000D01*
X59055000Y-41910000D02*
X48895000Y-41910000D01*
X48895000Y-41910000D02*
X47625000Y-40640000D01*
X47625000Y-40640000D02*
X47625000Y-31750000D01*
X47625000Y-31750000D02*
X47625000Y-31750000D01*
X45950000Y-30075000D02*
X46355000Y-30480000D01*
X45950000Y-22755000D02*
X45950000Y-30075000D01*
%TO.N,LCD_EN*%
X44950000Y-23995000D02*
X44950000Y-22755000D01*
X45085000Y-24130000D02*
X44950000Y-23995000D01*
X45085000Y-40640000D02*
X45085000Y-24130000D01*
X48895000Y-44450000D02*
X45085000Y-40640000D01*
X48895000Y-46355000D02*
X48895000Y-44450000D01*
%TO.N,LCD_RS*%
X43950000Y-23995000D02*
X43950000Y-22755000D01*
X43815000Y-24130000D02*
X43950000Y-23995000D01*
X43815000Y-38735000D02*
X43815000Y-24130000D01*
%TO.N,Net-(J2-Pad7)*%
X42950000Y-26900000D02*
X42950000Y-22755000D01*
X39370000Y-30480000D02*
X42950000Y-26900000D01*
%TO.N,Net-(R5-Pad2)*%
X87907500Y-76835000D02*
X87907500Y-73937500D01*
X87685000Y-73715000D02*
X87050000Y-73715000D01*
X87907500Y-73937500D02*
X87685000Y-73715000D01*
X87050000Y-73715000D02*
X90320000Y-73715000D01*
X83820000Y-73715000D02*
X87050000Y-73715000D01*
%TO.N,Net-(R7-Pad2)*%
X59967500Y-74047500D02*
X59635000Y-73715000D01*
X59967500Y-76835000D02*
X59967500Y-74047500D01*
X59635000Y-73715000D02*
X62380000Y-73715000D01*
X55880000Y-73715000D02*
X59635000Y-73715000D01*
%TO.N,Net-(R9-Pad2)*%
X73937500Y-74047500D02*
X73605000Y-73715000D01*
X73937500Y-76835000D02*
X73937500Y-74047500D01*
X73605000Y-73715000D02*
X69850000Y-73715000D01*
X76350000Y-73715000D02*
X73605000Y-73715000D01*
%TO.N,LED*%
X53975000Y-47347500D02*
X56157500Y-49530000D01*
X53975000Y-46355000D02*
X53975000Y-47347500D01*
%TO.N,SDA*%
X75922500Y-28575000D02*
X75565000Y-28932500D01*
X74295000Y-45085000D02*
X74295000Y-46355000D01*
X78740000Y-40640000D02*
X74295000Y-45085000D01*
X78740000Y-36830000D02*
X78740000Y-40640000D01*
X75922500Y-34012500D02*
X78740000Y-36830000D01*
X75922500Y-28575000D02*
X75922500Y-34012500D01*
X88900000Y-25400000D02*
X90170000Y-25400000D01*
X74930000Y-25400000D02*
X76200000Y-25400000D01*
X76200000Y-25400000D02*
X77470000Y-26670000D01*
X87630000Y-26670000D02*
X88900000Y-25400000D01*
X77470000Y-26670000D02*
X86360000Y-26670000D01*
X86360000Y-26670000D02*
X87630000Y-26670000D01*
X87630000Y-57785000D02*
X90170000Y-57785000D01*
X86360000Y-56515000D02*
X87630000Y-57785000D01*
X90170000Y-41910000D02*
X86360000Y-41910000D01*
X86360000Y-41910000D02*
X86360000Y-56515000D01*
X86360000Y-26670000D02*
X86360000Y-41910000D01*
X75922500Y-28575000D02*
X75922500Y-28217500D01*
X74930000Y-27582500D02*
X75922500Y-28575000D01*
X74930000Y-25400000D02*
X74930000Y-27582500D01*
%TO.N,SCL*%
X76835000Y-46355000D02*
X77470000Y-46355000D01*
X76200000Y-22860000D02*
X74930000Y-22860000D01*
X77470000Y-24130000D02*
X76200000Y-22860000D01*
X88900000Y-22860000D02*
X87630000Y-24130000D01*
X87630000Y-24130000D02*
X86360000Y-24130000D01*
X90170000Y-22860000D02*
X88900000Y-22860000D01*
X86360000Y-24130000D02*
X77470000Y-24130000D01*
X82192500Y-30202500D02*
X82192500Y-28575000D01*
X79375000Y-33020000D02*
X82192500Y-30202500D01*
X79375000Y-41910000D02*
X79375000Y-33020000D01*
X76835000Y-44450000D02*
X79375000Y-41910000D01*
X76835000Y-46355000D02*
X76835000Y-44450000D01*
X82192500Y-30202500D02*
X84812500Y-30202500D01*
X84812500Y-30202500D02*
X85090000Y-30480000D01*
X85090000Y-30480000D02*
X85090000Y-30480000D01*
X85090000Y-30480000D02*
X85090000Y-39370000D01*
X85090000Y-39370000D02*
X85090000Y-39370000D01*
X87630000Y-39370000D02*
X90170000Y-39370000D01*
X85090000Y-39370000D02*
X85090000Y-42545000D01*
X85090000Y-42545000D02*
X85090000Y-43180000D01*
X85090000Y-43180000D02*
X85090000Y-43180000D01*
X88265000Y-55245000D02*
X90170000Y-55245000D01*
X87630000Y-54610000D02*
X88265000Y-55245000D01*
X87630000Y-46990000D02*
X87630000Y-54610000D01*
%TO.N,Net-(R14-Pad2)*%
X78740000Y-20042500D02*
X78740000Y-19050000D01*
X80010000Y-17780000D02*
X82550000Y-17780000D01*
X78740000Y-19050000D02*
X80010000Y-17780000D01*
%TO.N,Net-(R15-Pad2)*%
X80367500Y-45085000D02*
X80367500Y-37742500D01*
X81280000Y-36830000D02*
X82550000Y-36830000D01*
X80367500Y-37742500D02*
X81280000Y-36830000D01*
%TO.N,Net-(R16-Pad2)*%
X77747500Y-52705000D02*
X78740000Y-52705000D01*
X81280000Y-50165000D02*
X78740000Y-52705000D01*
X82550000Y-50165000D02*
X81280000Y-50165000D01*
%TO.N,Net-(R17-Pad2)*%
X77747500Y-55245000D02*
X78740000Y-55245000D01*
X82550000Y-52705000D02*
X81280000Y-52705000D01*
X81280000Y-52705000D02*
X78740000Y-55245000D01*
D31*
%TO.N,AMP_IN*%
X16510000Y-72390000D02*
X22860000Y-72390000D01*
D29*
X33655000Y-64557500D02*
X39370000Y-64557500D01*
X43815000Y-58625000D02*
X43815000Y-60325000D01*
X43815000Y-60325000D02*
X41910000Y-62230000D01*
X41910000Y-62230000D02*
X40640000Y-62230000D01*
X39370000Y-63500000D02*
X39370000Y-64557500D01*
X40640000Y-62230000D02*
X39370000Y-63500000D01*
X30692500Y-64557500D02*
X33655000Y-64557500D01*
D31*
X22860000Y-72390000D02*
X29845000Y-65405000D01*
D30*
X16510000Y-76200000D02*
X16510000Y-72390000D01*
D29*
X66675000Y-49530000D02*
X66675000Y-46355000D01*
X64135000Y-52070000D02*
X66675000Y-49530000D01*
X45720000Y-53340000D02*
X46990000Y-52070000D01*
X45720000Y-56720000D02*
X45720000Y-53340000D01*
X46990000Y-52070000D02*
X64135000Y-52070000D01*
X43815000Y-58625000D02*
X45720000Y-56720000D01*
%TO.N,ARRAY_DIN*%
X28575000Y-39177500D02*
X30287500Y-39177500D01*
X31750000Y-40640000D02*
X34290000Y-40640000D01*
X30287500Y-39177500D02*
X31750000Y-40640000D01*
X26670000Y-49530000D02*
X28575000Y-49530000D01*
X24130000Y-49530000D02*
X26670000Y-49530000D01*
X20320000Y-67310000D02*
X20320000Y-53340000D01*
X17780000Y-69850000D02*
X20320000Y-67310000D01*
X16510000Y-69850000D02*
X17780000Y-69850000D01*
X20320000Y-53340000D02*
X24130000Y-49530000D01*
X28575000Y-49530000D02*
X28575000Y-45720000D01*
X28575000Y-45720000D02*
X31750000Y-42545000D01*
X31750000Y-42545000D02*
X31750000Y-40640000D01*
%TO.N,Net-(DD1-Pad1)*%
X51105000Y-59600000D02*
X51105000Y-59385000D01*
X51105000Y-59385000D02*
X53340000Y-57150000D01*
X58815000Y-57150000D02*
X61265000Y-54700000D01*
X53340000Y-57150000D02*
X58815000Y-57150000D01*
%TO.N,PREVIEW_ARRAY*%
X43815000Y-46355000D02*
X43815000Y-50165000D01*
X43815000Y-50165000D02*
X44450000Y-50800000D01*
X44450000Y-50800000D02*
X44450000Y-50800000D01*
X51015000Y-54610000D02*
X51105000Y-54700000D01*
X48260000Y-54610000D02*
X51015000Y-54610000D01*
X44450000Y-50800000D02*
X45085000Y-51435000D01*
X45085000Y-51435000D02*
X45085000Y-51435000D01*
%TO.N,Net-(Q1-Pad2)*%
X36195000Y-38735000D02*
X40282500Y-38735000D01*
X35560000Y-39370000D02*
X36195000Y-38735000D01*
X40282500Y-38735000D02*
X40640000Y-39092500D01*
%TO.N,MAIN_ARRAY*%
X40640000Y-40917500D02*
X42822500Y-40917500D01*
X42822500Y-40917500D02*
X46355000Y-44450000D01*
X46355000Y-44450000D02*
X46355000Y-46355000D01*
%TD*%
D32*
%TO.N,GND*%
X27178000Y-36068000D02*
X22277606Y-36068000D01*
X21717000Y-35507394D01*
X21717000Y-34897928D01*
X21820000Y-34908072D01*
X23284250Y-34905000D01*
X23443000Y-34746250D01*
X23443000Y-33147000D01*
X23697000Y-33147000D01*
X23697000Y-34746250D01*
X23855750Y-34905000D01*
X25320000Y-34908072D01*
X25444482Y-34895812D01*
X25564180Y-34859502D01*
X25674494Y-34800537D01*
X25771185Y-34721185D01*
X25850537Y-34624494D01*
X25909502Y-34514180D01*
X25945812Y-34394482D01*
X25958072Y-34270000D01*
X25955000Y-33305750D01*
X25796250Y-33147000D01*
X23697000Y-33147000D01*
X23443000Y-33147000D01*
X23423000Y-33147000D01*
X23423000Y-32893000D01*
X23443000Y-32893000D01*
X23443000Y-31293750D01*
X23697000Y-31293750D01*
X23697000Y-32893000D01*
X25796250Y-32893000D01*
X25955000Y-32734250D01*
X25958072Y-31770000D01*
X25945812Y-31645518D01*
X25909502Y-31525820D01*
X25850537Y-31415506D01*
X25771185Y-31318815D01*
X25674494Y-31239463D01*
X25564180Y-31180498D01*
X25444482Y-31144188D01*
X25320000Y-31131928D01*
X23855750Y-31135000D01*
X23697000Y-31293750D01*
X23443000Y-31293750D01*
X23284250Y-31135000D01*
X21820000Y-31131928D01*
X21717000Y-31142072D01*
X21717000Y-30532606D01*
X24817606Y-27432000D01*
X27178000Y-27432000D01*
X27178000Y-36068000D01*
%TA.AperFunction,Conductor*%
D33*
G36*
X27178000Y-36068000D02*
G01*
X22277606Y-36068000D01*
X21717000Y-35507394D01*
X21717000Y-34897928D01*
X21820000Y-34908072D01*
X23284250Y-34905000D01*
X23443000Y-34746250D01*
X23443000Y-33147000D01*
X23697000Y-33147000D01*
X23697000Y-34746250D01*
X23855750Y-34905000D01*
X25320000Y-34908072D01*
X25444482Y-34895812D01*
X25564180Y-34859502D01*
X25674494Y-34800537D01*
X25771185Y-34721185D01*
X25850537Y-34624494D01*
X25909502Y-34514180D01*
X25945812Y-34394482D01*
X25958072Y-34270000D01*
X25955000Y-33305750D01*
X25796250Y-33147000D01*
X23697000Y-33147000D01*
X23443000Y-33147000D01*
X23423000Y-33147000D01*
X23423000Y-32893000D01*
X23443000Y-32893000D01*
X23443000Y-31293750D01*
X23697000Y-31293750D01*
X23697000Y-32893000D01*
X25796250Y-32893000D01*
X25955000Y-32734250D01*
X25958072Y-31770000D01*
X25945812Y-31645518D01*
X25909502Y-31525820D01*
X25850537Y-31415506D01*
X25771185Y-31318815D01*
X25674494Y-31239463D01*
X25564180Y-31180498D01*
X25444482Y-31144188D01*
X25320000Y-31131928D01*
X23855750Y-31135000D01*
X23697000Y-31293750D01*
X23443000Y-31293750D01*
X23284250Y-31135000D01*
X21820000Y-31131928D01*
X21717000Y-31142072D01*
X21717000Y-30532606D01*
X24817606Y-27432000D01*
X27178000Y-27432000D01*
X27178000Y-36068000D01*
G37*
%TD.AperFunction*%
%TD*%
D32*
%TO.N,GND*%
X41783000Y-52578000D02*
X31242000Y-52578000D01*
X31242000Y-50355000D01*
X31341928Y-50355000D01*
X31354188Y-50479482D01*
X31390498Y-50599180D01*
X31449463Y-50709494D01*
X31528815Y-50806185D01*
X31625506Y-50885537D01*
X31735820Y-50944502D01*
X31855518Y-50980812D01*
X31980000Y-50993072D01*
X33369250Y-50990000D01*
X33528000Y-50831250D01*
X33528000Y-49869500D01*
X33782000Y-49869500D01*
X33782000Y-50831250D01*
X33940750Y-50990000D01*
X35330000Y-50993072D01*
X35454482Y-50980812D01*
X35574180Y-50944502D01*
X35684494Y-50885537D01*
X35781185Y-50806185D01*
X35860537Y-50709494D01*
X35919502Y-50599180D01*
X35955812Y-50479482D01*
X35968072Y-50355000D01*
X37056928Y-50355000D01*
X37069188Y-50479482D01*
X37105498Y-50599180D01*
X37164463Y-50709494D01*
X37243815Y-50806185D01*
X37340506Y-50885537D01*
X37450820Y-50944502D01*
X37570518Y-50980812D01*
X37695000Y-50993072D01*
X39084250Y-50990000D01*
X39243000Y-50831250D01*
X39243000Y-49869500D01*
X39497000Y-49869500D01*
X39497000Y-50831250D01*
X39655750Y-50990000D01*
X41045000Y-50993072D01*
X41169482Y-50980812D01*
X41289180Y-50944502D01*
X41399494Y-50885537D01*
X41496185Y-50806185D01*
X41575537Y-50709494D01*
X41634502Y-50599180D01*
X41670812Y-50479482D01*
X41683072Y-50355000D01*
X41680000Y-50028250D01*
X41521250Y-49869500D01*
X39497000Y-49869500D01*
X39243000Y-49869500D01*
X37218750Y-49869500D01*
X37060000Y-50028250D01*
X37056928Y-50355000D01*
X35968072Y-50355000D01*
X35965000Y-50028250D01*
X35806250Y-49869500D01*
X33782000Y-49869500D01*
X33528000Y-49869500D01*
X31503750Y-49869500D01*
X31345000Y-50028250D01*
X31341928Y-50355000D01*
X31242000Y-50355000D01*
X31242000Y-49130000D01*
X31341928Y-49130000D01*
X31345000Y-49456750D01*
X31503750Y-49615500D01*
X33528000Y-49615500D01*
X33528000Y-48653750D01*
X33782000Y-48653750D01*
X33782000Y-49615500D01*
X35806250Y-49615500D01*
X35965000Y-49456750D01*
X35968072Y-49130000D01*
X37056928Y-49130000D01*
X37060000Y-49456750D01*
X37218750Y-49615500D01*
X39243000Y-49615500D01*
X39243000Y-48653750D01*
X39497000Y-48653750D01*
X39497000Y-49615500D01*
X41521250Y-49615500D01*
X41680000Y-49456750D01*
X41683072Y-49130000D01*
X41670812Y-49005518D01*
X41634502Y-48885820D01*
X41575537Y-48775506D01*
X41496185Y-48678815D01*
X41399494Y-48599463D01*
X41289180Y-48540498D01*
X41169482Y-48504188D01*
X41045000Y-48491928D01*
X39655750Y-48495000D01*
X39497000Y-48653750D01*
X39243000Y-48653750D01*
X39084250Y-48495000D01*
X37695000Y-48491928D01*
X37570518Y-48504188D01*
X37450820Y-48540498D01*
X37340506Y-48599463D01*
X37243815Y-48678815D01*
X37164463Y-48775506D01*
X37105498Y-48885820D01*
X37069188Y-49005518D01*
X37056928Y-49130000D01*
X35968072Y-49130000D01*
X35955812Y-49005518D01*
X35919502Y-48885820D01*
X35860537Y-48775506D01*
X35781185Y-48678815D01*
X35684494Y-48599463D01*
X35574180Y-48540498D01*
X35454482Y-48504188D01*
X35330000Y-48491928D01*
X33940750Y-48495000D01*
X33782000Y-48653750D01*
X33528000Y-48653750D01*
X33369250Y-48495000D01*
X31980000Y-48491928D01*
X31855518Y-48504188D01*
X31735820Y-48540498D01*
X31625506Y-48599463D01*
X31528815Y-48678815D01*
X31449463Y-48775506D01*
X31390498Y-48885820D01*
X31354188Y-49005518D01*
X31341928Y-49130000D01*
X31242000Y-49130000D01*
X31242000Y-46482000D01*
X41783000Y-46482000D01*
X41783000Y-52578000D01*
%TA.AperFunction,Conductor*%
D33*
G36*
X41783000Y-52578000D02*
G01*
X31242000Y-52578000D01*
X31242000Y-50355000D01*
X31341928Y-50355000D01*
X31354188Y-50479482D01*
X31390498Y-50599180D01*
X31449463Y-50709494D01*
X31528815Y-50806185D01*
X31625506Y-50885537D01*
X31735820Y-50944502D01*
X31855518Y-50980812D01*
X31980000Y-50993072D01*
X33369250Y-50990000D01*
X33528000Y-50831250D01*
X33528000Y-49869500D01*
X33782000Y-49869500D01*
X33782000Y-50831250D01*
X33940750Y-50990000D01*
X35330000Y-50993072D01*
X35454482Y-50980812D01*
X35574180Y-50944502D01*
X35684494Y-50885537D01*
X35781185Y-50806185D01*
X35860537Y-50709494D01*
X35919502Y-50599180D01*
X35955812Y-50479482D01*
X35968072Y-50355000D01*
X37056928Y-50355000D01*
X37069188Y-50479482D01*
X37105498Y-50599180D01*
X37164463Y-50709494D01*
X37243815Y-50806185D01*
X37340506Y-50885537D01*
X37450820Y-50944502D01*
X37570518Y-50980812D01*
X37695000Y-50993072D01*
X39084250Y-50990000D01*
X39243000Y-50831250D01*
X39243000Y-49869500D01*
X39497000Y-49869500D01*
X39497000Y-50831250D01*
X39655750Y-50990000D01*
X41045000Y-50993072D01*
X41169482Y-50980812D01*
X41289180Y-50944502D01*
X41399494Y-50885537D01*
X41496185Y-50806185D01*
X41575537Y-50709494D01*
X41634502Y-50599180D01*
X41670812Y-50479482D01*
X41683072Y-50355000D01*
X41680000Y-50028250D01*
X41521250Y-49869500D01*
X39497000Y-49869500D01*
X39243000Y-49869500D01*
X37218750Y-49869500D01*
X37060000Y-50028250D01*
X37056928Y-50355000D01*
X35968072Y-50355000D01*
X35965000Y-50028250D01*
X35806250Y-49869500D01*
X33782000Y-49869500D01*
X33528000Y-49869500D01*
X31503750Y-49869500D01*
X31345000Y-50028250D01*
X31341928Y-50355000D01*
X31242000Y-50355000D01*
X31242000Y-49130000D01*
X31341928Y-49130000D01*
X31345000Y-49456750D01*
X31503750Y-49615500D01*
X33528000Y-49615500D01*
X33528000Y-48653750D01*
X33782000Y-48653750D01*
X33782000Y-49615500D01*
X35806250Y-49615500D01*
X35965000Y-49456750D01*
X35968072Y-49130000D01*
X37056928Y-49130000D01*
X37060000Y-49456750D01*
X37218750Y-49615500D01*
X39243000Y-49615500D01*
X39243000Y-48653750D01*
X39497000Y-48653750D01*
X39497000Y-49615500D01*
X41521250Y-49615500D01*
X41680000Y-49456750D01*
X41683072Y-49130000D01*
X41670812Y-49005518D01*
X41634502Y-48885820D01*
X41575537Y-48775506D01*
X41496185Y-48678815D01*
X41399494Y-48599463D01*
X41289180Y-48540498D01*
X41169482Y-48504188D01*
X41045000Y-48491928D01*
X39655750Y-48495000D01*
X39497000Y-48653750D01*
X39243000Y-48653750D01*
X39084250Y-48495000D01*
X37695000Y-48491928D01*
X37570518Y-48504188D01*
X37450820Y-48540498D01*
X37340506Y-48599463D01*
X37243815Y-48678815D01*
X37164463Y-48775506D01*
X37105498Y-48885820D01*
X37069188Y-49005518D01*
X37056928Y-49130000D01*
X35968072Y-49130000D01*
X35955812Y-49005518D01*
X35919502Y-48885820D01*
X35860537Y-48775506D01*
X35781185Y-48678815D01*
X35684494Y-48599463D01*
X35574180Y-48540498D01*
X35454482Y-48504188D01*
X35330000Y-48491928D01*
X33940750Y-48495000D01*
X33782000Y-48653750D01*
X33528000Y-48653750D01*
X33369250Y-48495000D01*
X31980000Y-48491928D01*
X31855518Y-48504188D01*
X31735820Y-48540498D01*
X31625506Y-48599463D01*
X31528815Y-48678815D01*
X31449463Y-48775506D01*
X31390498Y-48885820D01*
X31354188Y-49005518D01*
X31341928Y-49130000D01*
X31242000Y-49130000D01*
X31242000Y-46482000D01*
X41783000Y-46482000D01*
X41783000Y-52578000D01*
G37*
%TD.AperFunction*%
%TD*%
D32*
%TO.N,Net-(R20-Pad1)*%
X41783000Y-60198000D02*
X31242000Y-60198000D01*
X31242000Y-59245000D01*
X31341928Y-59245000D01*
X31354188Y-59369482D01*
X31390498Y-59489180D01*
X31449463Y-59599494D01*
X31528815Y-59696185D01*
X31625506Y-59775537D01*
X31735820Y-59834502D01*
X31855518Y-59870812D01*
X31980000Y-59883072D01*
X33369250Y-59880000D01*
X33528000Y-59721250D01*
X33528000Y-58759500D01*
X33782000Y-58759500D01*
X33782000Y-59721250D01*
X33940750Y-59880000D01*
X35330000Y-59883072D01*
X35454482Y-59870812D01*
X35574180Y-59834502D01*
X35684494Y-59775537D01*
X35781185Y-59696185D01*
X35860537Y-59599494D01*
X35919502Y-59489180D01*
X35955812Y-59369482D01*
X35968072Y-59245000D01*
X37056928Y-59245000D01*
X37069188Y-59369482D01*
X37105498Y-59489180D01*
X37164463Y-59599494D01*
X37243815Y-59696185D01*
X37340506Y-59775537D01*
X37450820Y-59834502D01*
X37570518Y-59870812D01*
X37695000Y-59883072D01*
X39084250Y-59880000D01*
X39243000Y-59721250D01*
X39243000Y-58759500D01*
X39497000Y-58759500D01*
X39497000Y-59721250D01*
X39655750Y-59880000D01*
X41045000Y-59883072D01*
X41169482Y-59870812D01*
X41289180Y-59834502D01*
X41399494Y-59775537D01*
X41496185Y-59696185D01*
X41575537Y-59599494D01*
X41634502Y-59489180D01*
X41670812Y-59369482D01*
X41683072Y-59245000D01*
X41680000Y-58918250D01*
X41521250Y-58759500D01*
X39497000Y-58759500D01*
X39243000Y-58759500D01*
X37218750Y-58759500D01*
X37060000Y-58918250D01*
X37056928Y-59245000D01*
X35968072Y-59245000D01*
X35965000Y-58918250D01*
X35806250Y-58759500D01*
X33782000Y-58759500D01*
X33528000Y-58759500D01*
X31503750Y-58759500D01*
X31345000Y-58918250D01*
X31341928Y-59245000D01*
X31242000Y-59245000D01*
X31242000Y-58020000D01*
X31341928Y-58020000D01*
X31345000Y-58346750D01*
X31503750Y-58505500D01*
X33528000Y-58505500D01*
X33528000Y-57543750D01*
X33782000Y-57543750D01*
X33782000Y-58505500D01*
X35806250Y-58505500D01*
X35965000Y-58346750D01*
X35968072Y-58020000D01*
X37056928Y-58020000D01*
X37060000Y-58346750D01*
X37218750Y-58505500D01*
X39243000Y-58505500D01*
X39243000Y-57543750D01*
X39497000Y-57543750D01*
X39497000Y-58505500D01*
X41521250Y-58505500D01*
X41680000Y-58346750D01*
X41683072Y-58020000D01*
X41670812Y-57895518D01*
X41634502Y-57775820D01*
X41575537Y-57665506D01*
X41496185Y-57568815D01*
X41399494Y-57489463D01*
X41289180Y-57430498D01*
X41169482Y-57394188D01*
X41045000Y-57381928D01*
X39655750Y-57385000D01*
X39497000Y-57543750D01*
X39243000Y-57543750D01*
X39084250Y-57385000D01*
X37695000Y-57381928D01*
X37570518Y-57394188D01*
X37450820Y-57430498D01*
X37340506Y-57489463D01*
X37243815Y-57568815D01*
X37164463Y-57665506D01*
X37105498Y-57775820D01*
X37069188Y-57895518D01*
X37056928Y-58020000D01*
X35968072Y-58020000D01*
X35955812Y-57895518D01*
X35919502Y-57775820D01*
X35860537Y-57665506D01*
X35781185Y-57568815D01*
X35684494Y-57489463D01*
X35574180Y-57430498D01*
X35454482Y-57394188D01*
X35330000Y-57381928D01*
X33940750Y-57385000D01*
X33782000Y-57543750D01*
X33528000Y-57543750D01*
X33369250Y-57385000D01*
X31980000Y-57381928D01*
X31855518Y-57394188D01*
X31735820Y-57430498D01*
X31625506Y-57489463D01*
X31528815Y-57568815D01*
X31449463Y-57665506D01*
X31390498Y-57775820D01*
X31354188Y-57895518D01*
X31341928Y-58020000D01*
X31242000Y-58020000D01*
X31242000Y-56280000D01*
X31341928Y-56280000D01*
X31354188Y-56404482D01*
X31390498Y-56524180D01*
X31449463Y-56634494D01*
X31528815Y-56731185D01*
X31625506Y-56810537D01*
X31735820Y-56869502D01*
X31855518Y-56905812D01*
X31980000Y-56918072D01*
X33369250Y-56915000D01*
X33528000Y-56756250D01*
X33528000Y-55794500D01*
X33782000Y-55794500D01*
X33782000Y-56756250D01*
X33940750Y-56915000D01*
X35330000Y-56918072D01*
X35454482Y-56905812D01*
X35574180Y-56869502D01*
X35684494Y-56810537D01*
X35781185Y-56731185D01*
X35860537Y-56634494D01*
X35919502Y-56524180D01*
X35955812Y-56404482D01*
X35968072Y-56280000D01*
X37056928Y-56280000D01*
X37069188Y-56404482D01*
X37105498Y-56524180D01*
X37164463Y-56634494D01*
X37243815Y-56731185D01*
X37340506Y-56810537D01*
X37450820Y-56869502D01*
X37570518Y-56905812D01*
X37695000Y-56918072D01*
X39084250Y-56915000D01*
X39243000Y-56756250D01*
X39243000Y-55794500D01*
X39497000Y-55794500D01*
X39497000Y-56756250D01*
X39655750Y-56915000D01*
X41045000Y-56918072D01*
X41169482Y-56905812D01*
X41289180Y-56869502D01*
X41399494Y-56810537D01*
X41496185Y-56731185D01*
X41575537Y-56634494D01*
X41634502Y-56524180D01*
X41670812Y-56404482D01*
X41683072Y-56280000D01*
X41680000Y-55953250D01*
X41521250Y-55794500D01*
X39497000Y-55794500D01*
X39243000Y-55794500D01*
X37218750Y-55794500D01*
X37060000Y-55953250D01*
X37056928Y-56280000D01*
X35968072Y-56280000D01*
X35965000Y-55953250D01*
X35806250Y-55794500D01*
X33782000Y-55794500D01*
X33528000Y-55794500D01*
X31503750Y-55794500D01*
X31345000Y-55953250D01*
X31341928Y-56280000D01*
X31242000Y-56280000D01*
X31242000Y-55055000D01*
X31341928Y-55055000D01*
X31345000Y-55381750D01*
X31503750Y-55540500D01*
X33528000Y-55540500D01*
X33528000Y-54578750D01*
X33782000Y-54578750D01*
X33782000Y-55540500D01*
X35806250Y-55540500D01*
X35965000Y-55381750D01*
X35968072Y-55055000D01*
X37056928Y-55055000D01*
X37060000Y-55381750D01*
X37218750Y-55540500D01*
X39243000Y-55540500D01*
X39243000Y-54578750D01*
X39497000Y-54578750D01*
X39497000Y-55540500D01*
X41521250Y-55540500D01*
X41680000Y-55381750D01*
X41683072Y-55055000D01*
X41670812Y-54930518D01*
X41634502Y-54810820D01*
X41575537Y-54700506D01*
X41496185Y-54603815D01*
X41399494Y-54524463D01*
X41289180Y-54465498D01*
X41169482Y-54429188D01*
X41045000Y-54416928D01*
X39655750Y-54420000D01*
X39497000Y-54578750D01*
X39243000Y-54578750D01*
X39084250Y-54420000D01*
X37695000Y-54416928D01*
X37570518Y-54429188D01*
X37450820Y-54465498D01*
X37340506Y-54524463D01*
X37243815Y-54603815D01*
X37164463Y-54700506D01*
X37105498Y-54810820D01*
X37069188Y-54930518D01*
X37056928Y-55055000D01*
X35968072Y-55055000D01*
X35955812Y-54930518D01*
X35919502Y-54810820D01*
X35860537Y-54700506D01*
X35781185Y-54603815D01*
X35684494Y-54524463D01*
X35574180Y-54465498D01*
X35454482Y-54429188D01*
X35330000Y-54416928D01*
X33940750Y-54420000D01*
X33782000Y-54578750D01*
X33528000Y-54578750D01*
X33369250Y-54420000D01*
X31980000Y-54416928D01*
X31855518Y-54429188D01*
X31735820Y-54465498D01*
X31625506Y-54524463D01*
X31528815Y-54603815D01*
X31449463Y-54700506D01*
X31390498Y-54810820D01*
X31354188Y-54930518D01*
X31341928Y-55055000D01*
X31242000Y-55055000D01*
X31242000Y-54102000D01*
X41783000Y-54102000D01*
X41783000Y-60198000D01*
%TA.AperFunction,Conductor*%
D33*
G36*
X41783000Y-60198000D02*
G01*
X31242000Y-60198000D01*
X31242000Y-59245000D01*
X31341928Y-59245000D01*
X31354188Y-59369482D01*
X31390498Y-59489180D01*
X31449463Y-59599494D01*
X31528815Y-59696185D01*
X31625506Y-59775537D01*
X31735820Y-59834502D01*
X31855518Y-59870812D01*
X31980000Y-59883072D01*
X33369250Y-59880000D01*
X33528000Y-59721250D01*
X33528000Y-58759500D01*
X33782000Y-58759500D01*
X33782000Y-59721250D01*
X33940750Y-59880000D01*
X35330000Y-59883072D01*
X35454482Y-59870812D01*
X35574180Y-59834502D01*
X35684494Y-59775537D01*
X35781185Y-59696185D01*
X35860537Y-59599494D01*
X35919502Y-59489180D01*
X35955812Y-59369482D01*
X35968072Y-59245000D01*
X37056928Y-59245000D01*
X37069188Y-59369482D01*
X37105498Y-59489180D01*
X37164463Y-59599494D01*
X37243815Y-59696185D01*
X37340506Y-59775537D01*
X37450820Y-59834502D01*
X37570518Y-59870812D01*
X37695000Y-59883072D01*
X39084250Y-59880000D01*
X39243000Y-59721250D01*
X39243000Y-58759500D01*
X39497000Y-58759500D01*
X39497000Y-59721250D01*
X39655750Y-59880000D01*
X41045000Y-59883072D01*
X41169482Y-59870812D01*
X41289180Y-59834502D01*
X41399494Y-59775537D01*
X41496185Y-59696185D01*
X41575537Y-59599494D01*
X41634502Y-59489180D01*
X41670812Y-59369482D01*
X41683072Y-59245000D01*
X41680000Y-58918250D01*
X41521250Y-58759500D01*
X39497000Y-58759500D01*
X39243000Y-58759500D01*
X37218750Y-58759500D01*
X37060000Y-58918250D01*
X37056928Y-59245000D01*
X35968072Y-59245000D01*
X35965000Y-58918250D01*
X35806250Y-58759500D01*
X33782000Y-58759500D01*
X33528000Y-58759500D01*
X31503750Y-58759500D01*
X31345000Y-58918250D01*
X31341928Y-59245000D01*
X31242000Y-59245000D01*
X31242000Y-58020000D01*
X31341928Y-58020000D01*
X31345000Y-58346750D01*
X31503750Y-58505500D01*
X33528000Y-58505500D01*
X33528000Y-57543750D01*
X33782000Y-57543750D01*
X33782000Y-58505500D01*
X35806250Y-58505500D01*
X35965000Y-58346750D01*
X35968072Y-58020000D01*
X37056928Y-58020000D01*
X37060000Y-58346750D01*
X37218750Y-58505500D01*
X39243000Y-58505500D01*
X39243000Y-57543750D01*
X39497000Y-57543750D01*
X39497000Y-58505500D01*
X41521250Y-58505500D01*
X41680000Y-58346750D01*
X41683072Y-58020000D01*
X41670812Y-57895518D01*
X41634502Y-57775820D01*
X41575537Y-57665506D01*
X41496185Y-57568815D01*
X41399494Y-57489463D01*
X41289180Y-57430498D01*
X41169482Y-57394188D01*
X41045000Y-57381928D01*
X39655750Y-57385000D01*
X39497000Y-57543750D01*
X39243000Y-57543750D01*
X39084250Y-57385000D01*
X37695000Y-57381928D01*
X37570518Y-57394188D01*
X37450820Y-57430498D01*
X37340506Y-57489463D01*
X37243815Y-57568815D01*
X37164463Y-57665506D01*
X37105498Y-57775820D01*
X37069188Y-57895518D01*
X37056928Y-58020000D01*
X35968072Y-58020000D01*
X35955812Y-57895518D01*
X35919502Y-57775820D01*
X35860537Y-57665506D01*
X35781185Y-57568815D01*
X35684494Y-57489463D01*
X35574180Y-57430498D01*
X35454482Y-57394188D01*
X35330000Y-57381928D01*
X33940750Y-57385000D01*
X33782000Y-57543750D01*
X33528000Y-57543750D01*
X33369250Y-57385000D01*
X31980000Y-57381928D01*
X31855518Y-57394188D01*
X31735820Y-57430498D01*
X31625506Y-57489463D01*
X31528815Y-57568815D01*
X31449463Y-57665506D01*
X31390498Y-57775820D01*
X31354188Y-57895518D01*
X31341928Y-58020000D01*
X31242000Y-58020000D01*
X31242000Y-56280000D01*
X31341928Y-56280000D01*
X31354188Y-56404482D01*
X31390498Y-56524180D01*
X31449463Y-56634494D01*
X31528815Y-56731185D01*
X31625506Y-56810537D01*
X31735820Y-56869502D01*
X31855518Y-56905812D01*
X31980000Y-56918072D01*
X33369250Y-56915000D01*
X33528000Y-56756250D01*
X33528000Y-55794500D01*
X33782000Y-55794500D01*
X33782000Y-56756250D01*
X33940750Y-56915000D01*
X35330000Y-56918072D01*
X35454482Y-56905812D01*
X35574180Y-56869502D01*
X35684494Y-56810537D01*
X35781185Y-56731185D01*
X35860537Y-56634494D01*
X35919502Y-56524180D01*
X35955812Y-56404482D01*
X35968072Y-56280000D01*
X37056928Y-56280000D01*
X37069188Y-56404482D01*
X37105498Y-56524180D01*
X37164463Y-56634494D01*
X37243815Y-56731185D01*
X37340506Y-56810537D01*
X37450820Y-56869502D01*
X37570518Y-56905812D01*
X37695000Y-56918072D01*
X39084250Y-56915000D01*
X39243000Y-56756250D01*
X39243000Y-55794500D01*
X39497000Y-55794500D01*
X39497000Y-56756250D01*
X39655750Y-56915000D01*
X41045000Y-56918072D01*
X41169482Y-56905812D01*
X41289180Y-56869502D01*
X41399494Y-56810537D01*
X41496185Y-56731185D01*
X41575537Y-56634494D01*
X41634502Y-56524180D01*
X41670812Y-56404482D01*
X41683072Y-56280000D01*
X41680000Y-55953250D01*
X41521250Y-55794500D01*
X39497000Y-55794500D01*
X39243000Y-55794500D01*
X37218750Y-55794500D01*
X37060000Y-55953250D01*
X37056928Y-56280000D01*
X35968072Y-56280000D01*
X35965000Y-55953250D01*
X35806250Y-55794500D01*
X33782000Y-55794500D01*
X33528000Y-55794500D01*
X31503750Y-55794500D01*
X31345000Y-55953250D01*
X31341928Y-56280000D01*
X31242000Y-56280000D01*
X31242000Y-55055000D01*
X31341928Y-55055000D01*
X31345000Y-55381750D01*
X31503750Y-55540500D01*
X33528000Y-55540500D01*
X33528000Y-54578750D01*
X33782000Y-54578750D01*
X33782000Y-55540500D01*
X35806250Y-55540500D01*
X35965000Y-55381750D01*
X35968072Y-55055000D01*
X37056928Y-55055000D01*
X37060000Y-55381750D01*
X37218750Y-55540500D01*
X39243000Y-55540500D01*
X39243000Y-54578750D01*
X39497000Y-54578750D01*
X39497000Y-55540500D01*
X41521250Y-55540500D01*
X41680000Y-55381750D01*
X41683072Y-55055000D01*
X41670812Y-54930518D01*
X41634502Y-54810820D01*
X41575537Y-54700506D01*
X41496185Y-54603815D01*
X41399494Y-54524463D01*
X41289180Y-54465498D01*
X41169482Y-54429188D01*
X41045000Y-54416928D01*
X39655750Y-54420000D01*
X39497000Y-54578750D01*
X39243000Y-54578750D01*
X39084250Y-54420000D01*
X37695000Y-54416928D01*
X37570518Y-54429188D01*
X37450820Y-54465498D01*
X37340506Y-54524463D01*
X37243815Y-54603815D01*
X37164463Y-54700506D01*
X37105498Y-54810820D01*
X37069188Y-54930518D01*
X37056928Y-55055000D01*
X35968072Y-55055000D01*
X35955812Y-54930518D01*
X35919502Y-54810820D01*
X35860537Y-54700506D01*
X35781185Y-54603815D01*
X35684494Y-54524463D01*
X35574180Y-54465498D01*
X35454482Y-54429188D01*
X35330000Y-54416928D01*
X33940750Y-54420000D01*
X33782000Y-54578750D01*
X33528000Y-54578750D01*
X33369250Y-54420000D01*
X31980000Y-54416928D01*
X31855518Y-54429188D01*
X31735820Y-54465498D01*
X31625506Y-54524463D01*
X31528815Y-54603815D01*
X31449463Y-54700506D01*
X31390498Y-54810820D01*
X31354188Y-54930518D01*
X31341928Y-55055000D01*
X31242000Y-55055000D01*
X31242000Y-54102000D01*
X41783000Y-54102000D01*
X41783000Y-60198000D01*
G37*
%TD.AperFunction*%
%TD*%
D32*
%TO.N,AMP_IN*%
X41783000Y-66548000D02*
X29337000Y-66548000D01*
X29337000Y-65170000D01*
X31341928Y-65170000D01*
X31354188Y-65294482D01*
X31390498Y-65414180D01*
X31449463Y-65524494D01*
X31528815Y-65621185D01*
X31625506Y-65700537D01*
X31735820Y-65759502D01*
X31855518Y-65795812D01*
X31980000Y-65808072D01*
X33369250Y-65805000D01*
X33528000Y-65646250D01*
X33528000Y-64684500D01*
X33782000Y-64684500D01*
X33782000Y-65646250D01*
X33940750Y-65805000D01*
X35330000Y-65808072D01*
X35454482Y-65795812D01*
X35574180Y-65759502D01*
X35684494Y-65700537D01*
X35781185Y-65621185D01*
X35860537Y-65524494D01*
X35919502Y-65414180D01*
X35955812Y-65294482D01*
X35968072Y-65170000D01*
X37056928Y-65170000D01*
X37069188Y-65294482D01*
X37105498Y-65414180D01*
X37164463Y-65524494D01*
X37243815Y-65621185D01*
X37340506Y-65700537D01*
X37450820Y-65759502D01*
X37570518Y-65795812D01*
X37695000Y-65808072D01*
X39084250Y-65805000D01*
X39243000Y-65646250D01*
X39243000Y-64684500D01*
X39497000Y-64684500D01*
X39497000Y-65646250D01*
X39655750Y-65805000D01*
X41045000Y-65808072D01*
X41169482Y-65795812D01*
X41289180Y-65759502D01*
X41399494Y-65700537D01*
X41496185Y-65621185D01*
X41575537Y-65524494D01*
X41634502Y-65414180D01*
X41670812Y-65294482D01*
X41683072Y-65170000D01*
X41680000Y-64843250D01*
X41521250Y-64684500D01*
X39497000Y-64684500D01*
X39243000Y-64684500D01*
X37218750Y-64684500D01*
X37060000Y-64843250D01*
X37056928Y-65170000D01*
X35968072Y-65170000D01*
X35965000Y-64843250D01*
X35806250Y-64684500D01*
X33782000Y-64684500D01*
X33528000Y-64684500D01*
X31503750Y-64684500D01*
X31345000Y-64843250D01*
X31341928Y-65170000D01*
X29337000Y-65170000D01*
X29337000Y-64187606D01*
X29579606Y-63945000D01*
X31341928Y-63945000D01*
X31345000Y-64271750D01*
X31503750Y-64430500D01*
X33528000Y-64430500D01*
X33528000Y-63468750D01*
X33782000Y-63468750D01*
X33782000Y-64430500D01*
X35806250Y-64430500D01*
X35965000Y-64271750D01*
X35968072Y-63945000D01*
X37056928Y-63945000D01*
X37060000Y-64271750D01*
X37218750Y-64430500D01*
X39243000Y-64430500D01*
X39243000Y-63468750D01*
X39497000Y-63468750D01*
X39497000Y-64430500D01*
X41521250Y-64430500D01*
X41680000Y-64271750D01*
X41683072Y-63945000D01*
X41670812Y-63820518D01*
X41634502Y-63700820D01*
X41575537Y-63590506D01*
X41496185Y-63493815D01*
X41399494Y-63414463D01*
X41289180Y-63355498D01*
X41169482Y-63319188D01*
X41045000Y-63306928D01*
X39655750Y-63310000D01*
X39497000Y-63468750D01*
X39243000Y-63468750D01*
X39084250Y-63310000D01*
X37695000Y-63306928D01*
X37570518Y-63319188D01*
X37450820Y-63355498D01*
X37340506Y-63414463D01*
X37243815Y-63493815D01*
X37164463Y-63590506D01*
X37105498Y-63700820D01*
X37069188Y-63820518D01*
X37056928Y-63945000D01*
X35968072Y-63945000D01*
X35955812Y-63820518D01*
X35919502Y-63700820D01*
X35860537Y-63590506D01*
X35781185Y-63493815D01*
X35684494Y-63414463D01*
X35574180Y-63355498D01*
X35454482Y-63319188D01*
X35330000Y-63306928D01*
X33940750Y-63310000D01*
X33782000Y-63468750D01*
X33528000Y-63468750D01*
X33369250Y-63310000D01*
X31980000Y-63306928D01*
X31855518Y-63319188D01*
X31735820Y-63355498D01*
X31625506Y-63414463D01*
X31528815Y-63493815D01*
X31449463Y-63590506D01*
X31390498Y-63700820D01*
X31354188Y-63820518D01*
X31341928Y-63945000D01*
X29579606Y-63945000D01*
X31167606Y-62357000D01*
X41783000Y-62357000D01*
X41783000Y-66548000D01*
%TA.AperFunction,Conductor*%
D33*
G36*
X41783000Y-66548000D02*
G01*
X29337000Y-66548000D01*
X29337000Y-65170000D01*
X31341928Y-65170000D01*
X31354188Y-65294482D01*
X31390498Y-65414180D01*
X31449463Y-65524494D01*
X31528815Y-65621185D01*
X31625506Y-65700537D01*
X31735820Y-65759502D01*
X31855518Y-65795812D01*
X31980000Y-65808072D01*
X33369250Y-65805000D01*
X33528000Y-65646250D01*
X33528000Y-64684500D01*
X33782000Y-64684500D01*
X33782000Y-65646250D01*
X33940750Y-65805000D01*
X35330000Y-65808072D01*
X35454482Y-65795812D01*
X35574180Y-65759502D01*
X35684494Y-65700537D01*
X35781185Y-65621185D01*
X35860537Y-65524494D01*
X35919502Y-65414180D01*
X35955812Y-65294482D01*
X35968072Y-65170000D01*
X37056928Y-65170000D01*
X37069188Y-65294482D01*
X37105498Y-65414180D01*
X37164463Y-65524494D01*
X37243815Y-65621185D01*
X37340506Y-65700537D01*
X37450820Y-65759502D01*
X37570518Y-65795812D01*
X37695000Y-65808072D01*
X39084250Y-65805000D01*
X39243000Y-65646250D01*
X39243000Y-64684500D01*
X39497000Y-64684500D01*
X39497000Y-65646250D01*
X39655750Y-65805000D01*
X41045000Y-65808072D01*
X41169482Y-65795812D01*
X41289180Y-65759502D01*
X41399494Y-65700537D01*
X41496185Y-65621185D01*
X41575537Y-65524494D01*
X41634502Y-65414180D01*
X41670812Y-65294482D01*
X41683072Y-65170000D01*
X41680000Y-64843250D01*
X41521250Y-64684500D01*
X39497000Y-64684500D01*
X39243000Y-64684500D01*
X37218750Y-64684500D01*
X37060000Y-64843250D01*
X37056928Y-65170000D01*
X35968072Y-65170000D01*
X35965000Y-64843250D01*
X35806250Y-64684500D01*
X33782000Y-64684500D01*
X33528000Y-64684500D01*
X31503750Y-64684500D01*
X31345000Y-64843250D01*
X31341928Y-65170000D01*
X29337000Y-65170000D01*
X29337000Y-64187606D01*
X29579606Y-63945000D01*
X31341928Y-63945000D01*
X31345000Y-64271750D01*
X31503750Y-64430500D01*
X33528000Y-64430500D01*
X33528000Y-63468750D01*
X33782000Y-63468750D01*
X33782000Y-64430500D01*
X35806250Y-64430500D01*
X35965000Y-64271750D01*
X35968072Y-63945000D01*
X37056928Y-63945000D01*
X37060000Y-64271750D01*
X37218750Y-64430500D01*
X39243000Y-64430500D01*
X39243000Y-63468750D01*
X39497000Y-63468750D01*
X39497000Y-64430500D01*
X41521250Y-64430500D01*
X41680000Y-64271750D01*
X41683072Y-63945000D01*
X41670812Y-63820518D01*
X41634502Y-63700820D01*
X41575537Y-63590506D01*
X41496185Y-63493815D01*
X41399494Y-63414463D01*
X41289180Y-63355498D01*
X41169482Y-63319188D01*
X41045000Y-63306928D01*
X39655750Y-63310000D01*
X39497000Y-63468750D01*
X39243000Y-63468750D01*
X39084250Y-63310000D01*
X37695000Y-63306928D01*
X37570518Y-63319188D01*
X37450820Y-63355498D01*
X37340506Y-63414463D01*
X37243815Y-63493815D01*
X37164463Y-63590506D01*
X37105498Y-63700820D01*
X37069188Y-63820518D01*
X37056928Y-63945000D01*
X35968072Y-63945000D01*
X35955812Y-63820518D01*
X35919502Y-63700820D01*
X35860537Y-63590506D01*
X35781185Y-63493815D01*
X35684494Y-63414463D01*
X35574180Y-63355498D01*
X35454482Y-63319188D01*
X35330000Y-63306928D01*
X33940750Y-63310000D01*
X33782000Y-63468750D01*
X33528000Y-63468750D01*
X33369250Y-63310000D01*
X31980000Y-63306928D01*
X31855518Y-63319188D01*
X31735820Y-63355498D01*
X31625506Y-63414463D01*
X31528815Y-63493815D01*
X31449463Y-63590506D01*
X31390498Y-63700820D01*
X31354188Y-63820518D01*
X31341928Y-63945000D01*
X29579606Y-63945000D01*
X31167606Y-62357000D01*
X41783000Y-62357000D01*
X41783000Y-66548000D01*
G37*
%TD.AperFunction*%
%TD*%
D32*
%TO.N,+5V*%
X30988000Y-16977693D02*
X30914528Y-17115149D01*
X30863992Y-17281745D01*
X30846928Y-17454999D01*
X30846928Y-18105001D01*
X30863992Y-18278255D01*
X30914528Y-18444851D01*
X30988000Y-18582307D01*
X30988000Y-19927693D01*
X30914528Y-20065149D01*
X30863992Y-20231745D01*
X30846928Y-20404999D01*
X30846928Y-21055001D01*
X30863992Y-21228255D01*
X30914528Y-21394851D01*
X30988000Y-21532307D01*
X30988000Y-21537394D01*
X30427394Y-22098000D01*
X30325314Y-22098000D01*
X30328072Y-22070000D01*
X30325000Y-20605750D01*
X30166250Y-20447000D01*
X28067000Y-20447000D01*
X28067000Y-20467000D01*
X27813000Y-20467000D01*
X27813000Y-20447000D01*
X25713750Y-20447000D01*
X25555000Y-20605750D01*
X25552991Y-21563385D01*
X24892000Y-20902394D01*
X24892000Y-18570000D01*
X25551928Y-18570000D01*
X25555000Y-20034250D01*
X25713750Y-20193000D01*
X27813000Y-20193000D01*
X27813000Y-18093750D01*
X28067000Y-18093750D01*
X28067000Y-20193000D01*
X30166250Y-20193000D01*
X30325000Y-20034250D01*
X30328072Y-18570000D01*
X30315812Y-18445518D01*
X30279502Y-18325820D01*
X30220537Y-18215506D01*
X30141185Y-18118815D01*
X30044494Y-18039463D01*
X29934180Y-17980498D01*
X29814482Y-17944188D01*
X29690000Y-17931928D01*
X28225750Y-17935000D01*
X28067000Y-18093750D01*
X27813000Y-18093750D01*
X27654250Y-17935000D01*
X26190000Y-17931928D01*
X26065518Y-17944188D01*
X25945820Y-17980498D01*
X25835506Y-18039463D01*
X25738815Y-18118815D01*
X25659463Y-18215506D01*
X25600498Y-18325820D01*
X25564188Y-18445518D01*
X25551928Y-18570000D01*
X24892000Y-18570000D01*
X24892000Y-17780000D01*
X24889560Y-17755224D01*
X24882333Y-17731399D01*
X24870597Y-17709443D01*
X24854803Y-17690197D01*
X24219803Y-17055197D01*
X24200557Y-17039403D01*
X24178601Y-17027667D01*
X24154776Y-17020440D01*
X24130000Y-17018000D01*
X20320000Y-17018000D01*
X20295224Y-17020440D01*
X20271399Y-17027667D01*
X20249443Y-17039403D01*
X20230197Y-17055197D01*
X19595197Y-17690197D01*
X19579403Y-17709443D01*
X19567667Y-17731399D01*
X19560440Y-17755224D01*
X19558000Y-17780000D01*
X19558000Y-22860000D01*
X19560440Y-22884776D01*
X19567667Y-22908601D01*
X19579403Y-22930557D01*
X19595197Y-22949803D01*
X20828000Y-24182606D01*
X20828000Y-36195000D01*
X20830440Y-36219776D01*
X20837667Y-36243601D01*
X20849403Y-36265557D01*
X20865197Y-36284803D01*
X23368000Y-38787606D01*
X23368000Y-41857394D01*
X22172394Y-43053000D01*
X15913452Y-43053000D01*
X14630000Y-42197365D01*
X14630000Y-41650000D01*
X17881928Y-41650000D01*
X17894188Y-41774482D01*
X17930498Y-41894180D01*
X17989463Y-42004494D01*
X18068815Y-42101185D01*
X18165506Y-42180537D01*
X18275820Y-42239502D01*
X18395518Y-42275812D01*
X18520000Y-42288072D01*
X20034250Y-42285000D01*
X20193000Y-42126250D01*
X20193000Y-40427000D01*
X20447000Y-40427000D01*
X20447000Y-42126250D01*
X20605750Y-42285000D01*
X22120000Y-42288072D01*
X22244482Y-42275812D01*
X22364180Y-42239502D01*
X22474494Y-42180537D01*
X22571185Y-42101185D01*
X22650537Y-42004494D01*
X22709502Y-41894180D01*
X22745812Y-41774482D01*
X22758072Y-41650000D01*
X22755000Y-40585750D01*
X22596250Y-40427000D01*
X20447000Y-40427000D01*
X20193000Y-40427000D01*
X18043750Y-40427000D01*
X17885000Y-40585750D01*
X17881928Y-41650000D01*
X14630000Y-41650000D01*
X14630000Y-38950000D01*
X17881928Y-38950000D01*
X17885000Y-40014250D01*
X18043750Y-40173000D01*
X20193000Y-40173000D01*
X20193000Y-38473750D01*
X20447000Y-38473750D01*
X20447000Y-40173000D01*
X22596250Y-40173000D01*
X22755000Y-40014250D01*
X22758072Y-38950000D01*
X22745812Y-38825518D01*
X22709502Y-38705820D01*
X22650537Y-38595506D01*
X22571185Y-38498815D01*
X22474494Y-38419463D01*
X22364180Y-38360498D01*
X22244482Y-38324188D01*
X22120000Y-38311928D01*
X20605750Y-38315000D01*
X20447000Y-38473750D01*
X20193000Y-38473750D01*
X20034250Y-38315000D01*
X18520000Y-38311928D01*
X18395518Y-38324188D01*
X18275820Y-38360498D01*
X18165506Y-38419463D01*
X18068815Y-38498815D01*
X17989463Y-38595506D01*
X17930498Y-38705820D01*
X17894188Y-38825518D01*
X17881928Y-38950000D01*
X14630000Y-38950000D01*
X14630000Y-34270000D01*
X14681928Y-34270000D01*
X14694188Y-34394482D01*
X14730498Y-34514180D01*
X14789463Y-34624494D01*
X14868815Y-34721185D01*
X14965506Y-34800537D01*
X15075820Y-34859502D01*
X15195518Y-34895812D01*
X15320000Y-34908072D01*
X16784250Y-34905000D01*
X16943000Y-34746250D01*
X16943000Y-33147000D01*
X17197000Y-33147000D01*
X17197000Y-34746250D01*
X17355750Y-34905000D01*
X18820000Y-34908072D01*
X18944482Y-34895812D01*
X19064180Y-34859502D01*
X19174494Y-34800537D01*
X19271185Y-34721185D01*
X19350537Y-34624494D01*
X19409502Y-34514180D01*
X19445812Y-34394482D01*
X19458072Y-34270000D01*
X19455000Y-33305750D01*
X19296250Y-33147000D01*
X17197000Y-33147000D01*
X16943000Y-33147000D01*
X14843750Y-33147000D01*
X14685000Y-33305750D01*
X14681928Y-34270000D01*
X14630000Y-34270000D01*
X14630000Y-31770000D01*
X14681928Y-31770000D01*
X14685000Y-32734250D01*
X14843750Y-32893000D01*
X16943000Y-32893000D01*
X16943000Y-31293750D01*
X17197000Y-31293750D01*
X17197000Y-32893000D01*
X19296250Y-32893000D01*
X19455000Y-32734250D01*
X19458072Y-31770000D01*
X19445812Y-31645518D01*
X19409502Y-31525820D01*
X19350537Y-31415506D01*
X19271185Y-31318815D01*
X19174494Y-31239463D01*
X19064180Y-31180498D01*
X18944482Y-31144188D01*
X18820000Y-31131928D01*
X17355750Y-31135000D01*
X17197000Y-31293750D01*
X16943000Y-31293750D01*
X16784250Y-31135000D01*
X15320000Y-31131928D01*
X15195518Y-31144188D01*
X15075820Y-31180498D01*
X14965506Y-31239463D01*
X14868815Y-31318815D01*
X14789463Y-31415506D01*
X14730498Y-31525820D01*
X14694188Y-31645518D01*
X14681928Y-31770000D01*
X14630000Y-31770000D01*
X14630000Y-14630000D01*
X30988000Y-14630000D01*
X30988000Y-16977693D01*
%TA.AperFunction,Conductor*%
D33*
G36*
X30988000Y-16977693D02*
G01*
X30914528Y-17115149D01*
X30863992Y-17281745D01*
X30846928Y-17454999D01*
X30846928Y-18105001D01*
X30863992Y-18278255D01*
X30914528Y-18444851D01*
X30988000Y-18582307D01*
X30988000Y-19927693D01*
X30914528Y-20065149D01*
X30863992Y-20231745D01*
X30846928Y-20404999D01*
X30846928Y-21055001D01*
X30863992Y-21228255D01*
X30914528Y-21394851D01*
X30988000Y-21532307D01*
X30988000Y-21537394D01*
X30427394Y-22098000D01*
X30325314Y-22098000D01*
X30328072Y-22070000D01*
X30325000Y-20605750D01*
X30166250Y-20447000D01*
X28067000Y-20447000D01*
X28067000Y-20467000D01*
X27813000Y-20467000D01*
X27813000Y-20447000D01*
X25713750Y-20447000D01*
X25555000Y-20605750D01*
X25552991Y-21563385D01*
X24892000Y-20902394D01*
X24892000Y-18570000D01*
X25551928Y-18570000D01*
X25555000Y-20034250D01*
X25713750Y-20193000D01*
X27813000Y-20193000D01*
X27813000Y-18093750D01*
X28067000Y-18093750D01*
X28067000Y-20193000D01*
X30166250Y-20193000D01*
X30325000Y-20034250D01*
X30328072Y-18570000D01*
X30315812Y-18445518D01*
X30279502Y-18325820D01*
X30220537Y-18215506D01*
X30141185Y-18118815D01*
X30044494Y-18039463D01*
X29934180Y-17980498D01*
X29814482Y-17944188D01*
X29690000Y-17931928D01*
X28225750Y-17935000D01*
X28067000Y-18093750D01*
X27813000Y-18093750D01*
X27654250Y-17935000D01*
X26190000Y-17931928D01*
X26065518Y-17944188D01*
X25945820Y-17980498D01*
X25835506Y-18039463D01*
X25738815Y-18118815D01*
X25659463Y-18215506D01*
X25600498Y-18325820D01*
X25564188Y-18445518D01*
X25551928Y-18570000D01*
X24892000Y-18570000D01*
X24892000Y-17780000D01*
X24889560Y-17755224D01*
X24882333Y-17731399D01*
X24870597Y-17709443D01*
X24854803Y-17690197D01*
X24219803Y-17055197D01*
X24200557Y-17039403D01*
X24178601Y-17027667D01*
X24154776Y-17020440D01*
X24130000Y-17018000D01*
X20320000Y-17018000D01*
X20295224Y-17020440D01*
X20271399Y-17027667D01*
X20249443Y-17039403D01*
X20230197Y-17055197D01*
X19595197Y-17690197D01*
X19579403Y-17709443D01*
X19567667Y-17731399D01*
X19560440Y-17755224D01*
X19558000Y-17780000D01*
X19558000Y-22860000D01*
X19560440Y-22884776D01*
X19567667Y-22908601D01*
X19579403Y-22930557D01*
X19595197Y-22949803D01*
X20828000Y-24182606D01*
X20828000Y-36195000D01*
X20830440Y-36219776D01*
X20837667Y-36243601D01*
X20849403Y-36265557D01*
X20865197Y-36284803D01*
X23368000Y-38787606D01*
X23368000Y-41857394D01*
X22172394Y-43053000D01*
X15913452Y-43053000D01*
X14630000Y-42197365D01*
X14630000Y-41650000D01*
X17881928Y-41650000D01*
X17894188Y-41774482D01*
X17930498Y-41894180D01*
X17989463Y-42004494D01*
X18068815Y-42101185D01*
X18165506Y-42180537D01*
X18275820Y-42239502D01*
X18395518Y-42275812D01*
X18520000Y-42288072D01*
X20034250Y-42285000D01*
X20193000Y-42126250D01*
X20193000Y-40427000D01*
X20447000Y-40427000D01*
X20447000Y-42126250D01*
X20605750Y-42285000D01*
X22120000Y-42288072D01*
X22244482Y-42275812D01*
X22364180Y-42239502D01*
X22474494Y-42180537D01*
X22571185Y-42101185D01*
X22650537Y-42004494D01*
X22709502Y-41894180D01*
X22745812Y-41774482D01*
X22758072Y-41650000D01*
X22755000Y-40585750D01*
X22596250Y-40427000D01*
X20447000Y-40427000D01*
X20193000Y-40427000D01*
X18043750Y-40427000D01*
X17885000Y-40585750D01*
X17881928Y-41650000D01*
X14630000Y-41650000D01*
X14630000Y-38950000D01*
X17881928Y-38950000D01*
X17885000Y-40014250D01*
X18043750Y-40173000D01*
X20193000Y-40173000D01*
X20193000Y-38473750D01*
X20447000Y-38473750D01*
X20447000Y-40173000D01*
X22596250Y-40173000D01*
X22755000Y-40014250D01*
X22758072Y-38950000D01*
X22745812Y-38825518D01*
X22709502Y-38705820D01*
X22650537Y-38595506D01*
X22571185Y-38498815D01*
X22474494Y-38419463D01*
X22364180Y-38360498D01*
X22244482Y-38324188D01*
X22120000Y-38311928D01*
X20605750Y-38315000D01*
X20447000Y-38473750D01*
X20193000Y-38473750D01*
X20034250Y-38315000D01*
X18520000Y-38311928D01*
X18395518Y-38324188D01*
X18275820Y-38360498D01*
X18165506Y-38419463D01*
X18068815Y-38498815D01*
X17989463Y-38595506D01*
X17930498Y-38705820D01*
X17894188Y-38825518D01*
X17881928Y-38950000D01*
X14630000Y-38950000D01*
X14630000Y-34270000D01*
X14681928Y-34270000D01*
X14694188Y-34394482D01*
X14730498Y-34514180D01*
X14789463Y-34624494D01*
X14868815Y-34721185D01*
X14965506Y-34800537D01*
X15075820Y-34859502D01*
X15195518Y-34895812D01*
X15320000Y-34908072D01*
X16784250Y-34905000D01*
X16943000Y-34746250D01*
X16943000Y-33147000D01*
X17197000Y-33147000D01*
X17197000Y-34746250D01*
X17355750Y-34905000D01*
X18820000Y-34908072D01*
X18944482Y-34895812D01*
X19064180Y-34859502D01*
X19174494Y-34800537D01*
X19271185Y-34721185D01*
X19350537Y-34624494D01*
X19409502Y-34514180D01*
X19445812Y-34394482D01*
X19458072Y-34270000D01*
X19455000Y-33305750D01*
X19296250Y-33147000D01*
X17197000Y-33147000D01*
X16943000Y-33147000D01*
X14843750Y-33147000D01*
X14685000Y-33305750D01*
X14681928Y-34270000D01*
X14630000Y-34270000D01*
X14630000Y-31770000D01*
X14681928Y-31770000D01*
X14685000Y-32734250D01*
X14843750Y-32893000D01*
X16943000Y-32893000D01*
X16943000Y-31293750D01*
X17197000Y-31293750D01*
X17197000Y-32893000D01*
X19296250Y-32893000D01*
X19455000Y-32734250D01*
X19458072Y-31770000D01*
X19445812Y-31645518D01*
X19409502Y-31525820D01*
X19350537Y-31415506D01*
X19271185Y-31318815D01*
X19174494Y-31239463D01*
X19064180Y-31180498D01*
X18944482Y-31144188D01*
X18820000Y-31131928D01*
X17355750Y-31135000D01*
X17197000Y-31293750D01*
X16943000Y-31293750D01*
X16784250Y-31135000D01*
X15320000Y-31131928D01*
X15195518Y-31144188D01*
X15075820Y-31180498D01*
X14965506Y-31239463D01*
X14868815Y-31318815D01*
X14789463Y-31415506D01*
X14730498Y-31525820D01*
X14694188Y-31645518D01*
X14681928Y-31770000D01*
X14630000Y-31770000D01*
X14630000Y-14630000D01*
X30988000Y-14630000D01*
X30988000Y-16977693D01*
G37*
%TD.AperFunction*%
%TD*%
D32*
%TO.N,GND*%
X27813000Y-52757606D02*
X27813000Y-57097394D01*
X25347394Y-59563000D01*
X22277606Y-59563000D01*
X21082000Y-58367394D01*
X21082000Y-57130000D01*
X21181928Y-57130000D01*
X21194188Y-57254482D01*
X21230498Y-57374180D01*
X21289463Y-57484494D01*
X21368815Y-57581185D01*
X21465506Y-57660537D01*
X21575820Y-57719502D01*
X21695518Y-57755812D01*
X21820000Y-57768072D01*
X23284250Y-57765000D01*
X23443000Y-57606250D01*
X23443000Y-56007000D01*
X23697000Y-56007000D01*
X23697000Y-57606250D01*
X23855750Y-57765000D01*
X25320000Y-57768072D01*
X25444482Y-57755812D01*
X25564180Y-57719502D01*
X25674494Y-57660537D01*
X25771185Y-57581185D01*
X25850537Y-57484494D01*
X25909502Y-57374180D01*
X25945812Y-57254482D01*
X25958072Y-57130000D01*
X25955000Y-56165750D01*
X25796250Y-56007000D01*
X23697000Y-56007000D01*
X23443000Y-56007000D01*
X21343750Y-56007000D01*
X21185000Y-56165750D01*
X21181928Y-57130000D01*
X21082000Y-57130000D01*
X21082000Y-54630000D01*
X21181928Y-54630000D01*
X21185000Y-55594250D01*
X21343750Y-55753000D01*
X23443000Y-55753000D01*
X23443000Y-54153750D01*
X23697000Y-54153750D01*
X23697000Y-55753000D01*
X25796250Y-55753000D01*
X25955000Y-55594250D01*
X25958072Y-54630000D01*
X25945812Y-54505518D01*
X25909502Y-54385820D01*
X25850537Y-54275506D01*
X25771185Y-54178815D01*
X25674494Y-54099463D01*
X25564180Y-54040498D01*
X25444482Y-54004188D01*
X25320000Y-53991928D01*
X23855750Y-53995000D01*
X23697000Y-54153750D01*
X23443000Y-54153750D01*
X23284250Y-53995000D01*
X21820000Y-53991928D01*
X21695518Y-54004188D01*
X21575820Y-54040498D01*
X21465506Y-54099463D01*
X21368815Y-54178815D01*
X21289463Y-54275506D01*
X21230498Y-54385820D01*
X21194188Y-54505518D01*
X21181928Y-54630000D01*
X21082000Y-54630000D01*
X21082000Y-54027606D01*
X24182606Y-50927000D01*
X25982394Y-50927000D01*
X27813000Y-52757606D01*
%TA.AperFunction,Conductor*%
D33*
G36*
X27813000Y-52757606D02*
G01*
X27813000Y-57097394D01*
X25347394Y-59563000D01*
X22277606Y-59563000D01*
X21082000Y-58367394D01*
X21082000Y-57130000D01*
X21181928Y-57130000D01*
X21194188Y-57254482D01*
X21230498Y-57374180D01*
X21289463Y-57484494D01*
X21368815Y-57581185D01*
X21465506Y-57660537D01*
X21575820Y-57719502D01*
X21695518Y-57755812D01*
X21820000Y-57768072D01*
X23284250Y-57765000D01*
X23443000Y-57606250D01*
X23443000Y-56007000D01*
X23697000Y-56007000D01*
X23697000Y-57606250D01*
X23855750Y-57765000D01*
X25320000Y-57768072D01*
X25444482Y-57755812D01*
X25564180Y-57719502D01*
X25674494Y-57660537D01*
X25771185Y-57581185D01*
X25850537Y-57484494D01*
X25909502Y-57374180D01*
X25945812Y-57254482D01*
X25958072Y-57130000D01*
X25955000Y-56165750D01*
X25796250Y-56007000D01*
X23697000Y-56007000D01*
X23443000Y-56007000D01*
X21343750Y-56007000D01*
X21185000Y-56165750D01*
X21181928Y-57130000D01*
X21082000Y-57130000D01*
X21082000Y-54630000D01*
X21181928Y-54630000D01*
X21185000Y-55594250D01*
X21343750Y-55753000D01*
X23443000Y-55753000D01*
X23443000Y-54153750D01*
X23697000Y-54153750D01*
X23697000Y-55753000D01*
X25796250Y-55753000D01*
X25955000Y-55594250D01*
X25958072Y-54630000D01*
X25945812Y-54505518D01*
X25909502Y-54385820D01*
X25850537Y-54275506D01*
X25771185Y-54178815D01*
X25674494Y-54099463D01*
X25564180Y-54040498D01*
X25444482Y-54004188D01*
X25320000Y-53991928D01*
X23855750Y-53995000D01*
X23697000Y-54153750D01*
X23443000Y-54153750D01*
X23284250Y-53995000D01*
X21820000Y-53991928D01*
X21695518Y-54004188D01*
X21575820Y-54040498D01*
X21465506Y-54099463D01*
X21368815Y-54178815D01*
X21289463Y-54275506D01*
X21230498Y-54385820D01*
X21194188Y-54505518D01*
X21181928Y-54630000D01*
X21082000Y-54630000D01*
X21082000Y-54027606D01*
X24182606Y-50927000D01*
X25982394Y-50927000D01*
X27813000Y-52757606D01*
G37*
%TD.AperFunction*%
%TD*%
D32*
%TO.N,VCC*%
X24003000Y-45772606D02*
X24003000Y-48207394D01*
X22756639Y-49453755D01*
X22755000Y-48885750D01*
X22596250Y-48727000D01*
X20447000Y-48727000D01*
X20447000Y-50426250D01*
X20605750Y-50585000D01*
X21623330Y-50587064D01*
X19595197Y-52615197D01*
X19579403Y-52634443D01*
X19567667Y-52656399D01*
X19560440Y-52680224D01*
X19558000Y-52705000D01*
X19558000Y-53322984D01*
X19556324Y-53340000D01*
X19558000Y-53357016D01*
X19558000Y-57732394D01*
X18362394Y-58928000D01*
X15292606Y-58928000D01*
X14630000Y-58265394D01*
X14630000Y-57130000D01*
X14681928Y-57130000D01*
X14694188Y-57254482D01*
X14730498Y-57374180D01*
X14789463Y-57484494D01*
X14868815Y-57581185D01*
X14965506Y-57660537D01*
X15075820Y-57719502D01*
X15195518Y-57755812D01*
X15320000Y-57768072D01*
X16784250Y-57765000D01*
X16943000Y-57606250D01*
X16943000Y-56007000D01*
X17197000Y-56007000D01*
X17197000Y-57606250D01*
X17355750Y-57765000D01*
X18820000Y-57768072D01*
X18944482Y-57755812D01*
X19064180Y-57719502D01*
X19174494Y-57660537D01*
X19271185Y-57581185D01*
X19350537Y-57484494D01*
X19409502Y-57374180D01*
X19445812Y-57254482D01*
X19458072Y-57130000D01*
X19455000Y-56165750D01*
X19296250Y-56007000D01*
X17197000Y-56007000D01*
X16943000Y-56007000D01*
X14843750Y-56007000D01*
X14685000Y-56165750D01*
X14681928Y-57130000D01*
X14630000Y-57130000D01*
X14630000Y-54630000D01*
X14681928Y-54630000D01*
X14685000Y-55594250D01*
X14843750Y-55753000D01*
X16943000Y-55753000D01*
X16943000Y-54153750D01*
X17197000Y-54153750D01*
X17197000Y-55753000D01*
X19296250Y-55753000D01*
X19455000Y-55594250D01*
X19458072Y-54630000D01*
X19445812Y-54505518D01*
X19409502Y-54385820D01*
X19350537Y-54275506D01*
X19271185Y-54178815D01*
X19174494Y-54099463D01*
X19064180Y-54040498D01*
X18944482Y-54004188D01*
X18820000Y-53991928D01*
X17355750Y-53995000D01*
X17197000Y-54153750D01*
X16943000Y-54153750D01*
X16784250Y-53995000D01*
X15320000Y-53991928D01*
X15195518Y-54004188D01*
X15075820Y-54040498D01*
X14965506Y-54099463D01*
X14868815Y-54178815D01*
X14789463Y-54275506D01*
X14730498Y-54385820D01*
X14694188Y-54505518D01*
X14681928Y-54630000D01*
X14630000Y-54630000D01*
X14630000Y-49950000D01*
X17881928Y-49950000D01*
X17894188Y-50074482D01*
X17930498Y-50194180D01*
X17989463Y-50304494D01*
X18068815Y-50401185D01*
X18165506Y-50480537D01*
X18275820Y-50539502D01*
X18395518Y-50575812D01*
X18520000Y-50588072D01*
X20034250Y-50585000D01*
X20193000Y-50426250D01*
X20193000Y-48727000D01*
X18043750Y-48727000D01*
X17885000Y-48885750D01*
X17881928Y-49950000D01*
X14630000Y-49950000D01*
X14630000Y-47250000D01*
X17881928Y-47250000D01*
X17885000Y-48314250D01*
X18043750Y-48473000D01*
X20193000Y-48473000D01*
X20193000Y-46773750D01*
X20447000Y-46773750D01*
X20447000Y-48473000D01*
X22596250Y-48473000D01*
X22755000Y-48314250D01*
X22758072Y-47250000D01*
X22745812Y-47125518D01*
X22709502Y-47005820D01*
X22650537Y-46895506D01*
X22571185Y-46798815D01*
X22474494Y-46719463D01*
X22364180Y-46660498D01*
X22244482Y-46624188D01*
X22120000Y-46611928D01*
X20605750Y-46615000D01*
X20447000Y-46773750D01*
X20193000Y-46773750D01*
X20034250Y-46615000D01*
X18520000Y-46611928D01*
X18395518Y-46624188D01*
X18275820Y-46660498D01*
X18165506Y-46719463D01*
X18068815Y-46798815D01*
X17989463Y-46895506D01*
X17930498Y-47005820D01*
X17894188Y-47125518D01*
X17881928Y-47250000D01*
X14630000Y-47250000D01*
X14630000Y-45874606D01*
X15292606Y-45212000D01*
X23442394Y-45212000D01*
X24003000Y-45772606D01*
%TA.AperFunction,Conductor*%
D33*
G36*
X24003000Y-45772606D02*
G01*
X24003000Y-48207394D01*
X22756639Y-49453755D01*
X22755000Y-48885750D01*
X22596250Y-48727000D01*
X20447000Y-48727000D01*
X20447000Y-50426250D01*
X20605750Y-50585000D01*
X21623330Y-50587064D01*
X19595197Y-52615197D01*
X19579403Y-52634443D01*
X19567667Y-52656399D01*
X19560440Y-52680224D01*
X19558000Y-52705000D01*
X19558000Y-53322984D01*
X19556324Y-53340000D01*
X19558000Y-53357016D01*
X19558000Y-57732394D01*
X18362394Y-58928000D01*
X15292606Y-58928000D01*
X14630000Y-58265394D01*
X14630000Y-57130000D01*
X14681928Y-57130000D01*
X14694188Y-57254482D01*
X14730498Y-57374180D01*
X14789463Y-57484494D01*
X14868815Y-57581185D01*
X14965506Y-57660537D01*
X15075820Y-57719502D01*
X15195518Y-57755812D01*
X15320000Y-57768072D01*
X16784250Y-57765000D01*
X16943000Y-57606250D01*
X16943000Y-56007000D01*
X17197000Y-56007000D01*
X17197000Y-57606250D01*
X17355750Y-57765000D01*
X18820000Y-57768072D01*
X18944482Y-57755812D01*
X19064180Y-57719502D01*
X19174494Y-57660537D01*
X19271185Y-57581185D01*
X19350537Y-57484494D01*
X19409502Y-57374180D01*
X19445812Y-57254482D01*
X19458072Y-57130000D01*
X19455000Y-56165750D01*
X19296250Y-56007000D01*
X17197000Y-56007000D01*
X16943000Y-56007000D01*
X14843750Y-56007000D01*
X14685000Y-56165750D01*
X14681928Y-57130000D01*
X14630000Y-57130000D01*
X14630000Y-54630000D01*
X14681928Y-54630000D01*
X14685000Y-55594250D01*
X14843750Y-55753000D01*
X16943000Y-55753000D01*
X16943000Y-54153750D01*
X17197000Y-54153750D01*
X17197000Y-55753000D01*
X19296250Y-55753000D01*
X19455000Y-55594250D01*
X19458072Y-54630000D01*
X19445812Y-54505518D01*
X19409502Y-54385820D01*
X19350537Y-54275506D01*
X19271185Y-54178815D01*
X19174494Y-54099463D01*
X19064180Y-54040498D01*
X18944482Y-54004188D01*
X18820000Y-53991928D01*
X17355750Y-53995000D01*
X17197000Y-54153750D01*
X16943000Y-54153750D01*
X16784250Y-53995000D01*
X15320000Y-53991928D01*
X15195518Y-54004188D01*
X15075820Y-54040498D01*
X14965506Y-54099463D01*
X14868815Y-54178815D01*
X14789463Y-54275506D01*
X14730498Y-54385820D01*
X14694188Y-54505518D01*
X14681928Y-54630000D01*
X14630000Y-54630000D01*
X14630000Y-49950000D01*
X17881928Y-49950000D01*
X17894188Y-50074482D01*
X17930498Y-50194180D01*
X17989463Y-50304494D01*
X18068815Y-50401185D01*
X18165506Y-50480537D01*
X18275820Y-50539502D01*
X18395518Y-50575812D01*
X18520000Y-50588072D01*
X20034250Y-50585000D01*
X20193000Y-50426250D01*
X20193000Y-48727000D01*
X18043750Y-48727000D01*
X17885000Y-48885750D01*
X17881928Y-49950000D01*
X14630000Y-49950000D01*
X14630000Y-47250000D01*
X17881928Y-47250000D01*
X17885000Y-48314250D01*
X18043750Y-48473000D01*
X20193000Y-48473000D01*
X20193000Y-46773750D01*
X20447000Y-46773750D01*
X20447000Y-48473000D01*
X22596250Y-48473000D01*
X22755000Y-48314250D01*
X22758072Y-47250000D01*
X22745812Y-47125518D01*
X22709502Y-47005820D01*
X22650537Y-46895506D01*
X22571185Y-46798815D01*
X22474494Y-46719463D01*
X22364180Y-46660498D01*
X22244482Y-46624188D01*
X22120000Y-46611928D01*
X20605750Y-46615000D01*
X20447000Y-46773750D01*
X20193000Y-46773750D01*
X20034250Y-46615000D01*
X18520000Y-46611928D01*
X18395518Y-46624188D01*
X18275820Y-46660498D01*
X18165506Y-46719463D01*
X18068815Y-46798815D01*
X17989463Y-46895506D01*
X17930498Y-47005820D01*
X17894188Y-47125518D01*
X17881928Y-47250000D01*
X14630000Y-47250000D01*
X14630000Y-45874606D01*
X15292606Y-45212000D01*
X23442394Y-45212000D01*
X24003000Y-45772606D01*
G37*
%TD.AperFunction*%
%TD*%
D32*
%TO.N,VCC*%
X77343000Y-18362394D02*
X76782394Y-18923000D01*
X76201646Y-18923000D01*
X76232839Y-18902601D01*
X76434500Y-18704895D01*
X76593715Y-18471646D01*
X76704367Y-18211818D01*
X76721904Y-18129039D01*
X76599915Y-17907000D01*
X75057000Y-17907000D01*
X75057000Y-17927000D01*
X74803000Y-17927000D01*
X74803000Y-17907000D01*
X73260085Y-17907000D01*
X73138096Y-18129039D01*
X73155633Y-18211818D01*
X73266285Y-18471646D01*
X73425500Y-18704895D01*
X73627161Y-18902601D01*
X73658354Y-18923000D01*
X72451039Y-18923000D01*
X71257408Y-17430961D01*
X73138096Y-17430961D01*
X73260085Y-17653000D01*
X74803000Y-17653000D01*
X74803000Y-16345000D01*
X75057000Y-16345000D01*
X75057000Y-17653000D01*
X76599915Y-17653000D01*
X76721904Y-17430961D01*
X76704367Y-17348182D01*
X76593715Y-17088354D01*
X76434500Y-16855105D01*
X76232839Y-16657399D01*
X75996483Y-16502834D01*
X75734514Y-16397350D01*
X75457000Y-16345000D01*
X75057000Y-16345000D01*
X74803000Y-16345000D01*
X74403000Y-16345000D01*
X74125486Y-16397350D01*
X73863517Y-16502834D01*
X73627161Y-16657399D01*
X73425500Y-16855105D01*
X73266285Y-17088354D01*
X73155633Y-17348182D01*
X73138096Y-17430961D01*
X71257408Y-17430961D01*
X69949170Y-15795664D01*
X69931787Y-15777841D01*
X69911261Y-15763752D01*
X69888380Y-15753938D01*
X69864025Y-15748777D01*
X69850000Y-15748000D01*
X36830000Y-15748000D01*
X36805224Y-15750440D01*
X36781399Y-15757667D01*
X36759443Y-15769403D01*
X36740197Y-15785197D01*
X34835197Y-17690197D01*
X34819403Y-17709443D01*
X34807667Y-17731399D01*
X34800440Y-17755224D01*
X34798000Y-17780000D01*
X34798000Y-22225000D01*
X34800440Y-22249776D01*
X34807667Y-22273601D01*
X34819403Y-22295557D01*
X34835197Y-22314803D01*
X36068000Y-23547606D01*
X36068000Y-25982394D01*
X34835197Y-27215197D01*
X34819403Y-27234443D01*
X34807667Y-27256399D01*
X34800440Y-27280224D01*
X34798000Y-27305000D01*
X34798000Y-29210000D01*
X34800440Y-29234776D01*
X34807667Y-29258601D01*
X34819403Y-29280557D01*
X34835197Y-29299803D01*
X36105197Y-30569803D01*
X36124443Y-30585597D01*
X36146399Y-30597333D01*
X36170224Y-30604560D01*
X36195000Y-30607000D01*
X36777394Y-30607000D01*
X39243000Y-33072606D01*
X39243000Y-36777394D01*
X38047394Y-37973000D01*
X36212027Y-37973000D01*
X36195000Y-37971323D01*
X36177973Y-37973000D01*
X33072606Y-37973000D01*
X31242000Y-36142394D01*
X31242000Y-33955560D01*
X36074045Y-33955560D01*
X36135932Y-34191368D01*
X36377790Y-34304266D01*
X36637027Y-34367811D01*
X36903680Y-34379561D01*
X37167501Y-34339063D01*
X37418353Y-34247875D01*
X37524068Y-34191368D01*
X37585955Y-33955560D01*
X36830000Y-33199605D01*
X36074045Y-33955560D01*
X31242000Y-33955560D01*
X31242000Y-33093680D01*
X35470439Y-33093680D01*
X35510937Y-33357501D01*
X35602125Y-33608353D01*
X35658632Y-33714068D01*
X35894440Y-33775955D01*
X36650395Y-33020000D01*
X37009605Y-33020000D01*
X37765560Y-33775955D01*
X38001368Y-33714068D01*
X38114266Y-33472210D01*
X38177811Y-33212973D01*
X38189561Y-32946320D01*
X38149063Y-32682499D01*
X38057875Y-32431647D01*
X38001368Y-32325932D01*
X37765560Y-32264045D01*
X37009605Y-33020000D01*
X36650395Y-33020000D01*
X35894440Y-32264045D01*
X35658632Y-32325932D01*
X35545734Y-32567790D01*
X35482189Y-32827027D01*
X35470439Y-33093680D01*
X31242000Y-33093680D01*
X31242000Y-32084440D01*
X36074045Y-32084440D01*
X36830000Y-32840395D01*
X37585955Y-32084440D01*
X37524068Y-31848632D01*
X37282210Y-31735734D01*
X37022973Y-31672189D01*
X36756320Y-31660439D01*
X36492499Y-31700937D01*
X36241647Y-31792125D01*
X36135932Y-31848632D01*
X36074045Y-32084440D01*
X31242000Y-32084440D01*
X31242000Y-29845000D01*
X31239560Y-29820224D01*
X31232333Y-29796399D01*
X31220597Y-29774443D01*
X31204803Y-29755197D01*
X29934803Y-28485197D01*
X29915557Y-28469403D01*
X29893601Y-28457667D01*
X29869776Y-28450440D01*
X29845000Y-28448000D01*
X29774750Y-28448000D01*
X29751250Y-28424500D01*
X28702000Y-28424500D01*
X28702000Y-28444500D01*
X28624106Y-28444500D01*
X28428000Y-28248394D01*
X28428000Y-28170500D01*
X28448000Y-28170500D01*
X28448000Y-27308750D01*
X28702000Y-27308750D01*
X28702000Y-28170500D01*
X29751250Y-28170500D01*
X29910000Y-28011750D01*
X29913072Y-27785000D01*
X29900812Y-27660518D01*
X29864502Y-27540820D01*
X29805537Y-27430506D01*
X29726185Y-27333815D01*
X29629494Y-27254463D01*
X29519180Y-27195498D01*
X29399482Y-27159188D01*
X29275000Y-27146928D01*
X28860750Y-27150000D01*
X28702000Y-27308750D01*
X28448000Y-27308750D01*
X28289250Y-27150000D01*
X28067000Y-27148352D01*
X28067000Y-26722606D01*
X30532606Y-24257000D01*
X33020000Y-24257000D01*
X33044776Y-24254560D01*
X33068601Y-24247333D01*
X33090557Y-24235597D01*
X33109803Y-24219803D01*
X33744803Y-23584803D01*
X33760597Y-23565557D01*
X33772333Y-23543601D01*
X33779560Y-23519776D01*
X33782000Y-23495000D01*
X33782000Y-21532307D01*
X33855472Y-21394851D01*
X33906008Y-21228255D01*
X33923072Y-21055001D01*
X33923072Y-20404999D01*
X33906008Y-20231745D01*
X33855472Y-20065149D01*
X33782000Y-19927693D01*
X33782000Y-19050000D01*
X33779560Y-19025224D01*
X33772333Y-19001399D01*
X33760597Y-18979443D01*
X33744803Y-18960197D01*
X33725557Y-18944403D01*
X33703601Y-18932667D01*
X33679776Y-18925440D01*
X33655000Y-18923000D01*
X33569407Y-18923000D01*
X33639494Y-18885537D01*
X33736185Y-18806185D01*
X33815537Y-18709494D01*
X33874502Y-18599180D01*
X33910812Y-18479482D01*
X33923072Y-18355000D01*
X33920000Y-18065750D01*
X33761250Y-17907000D01*
X32512000Y-17907000D01*
X32512000Y-17927000D01*
X32258000Y-17927000D01*
X32258000Y-17907000D01*
X32238000Y-17907000D01*
X32238000Y-17653000D01*
X32258000Y-17653000D01*
X32258000Y-16728750D01*
X32512000Y-16728750D01*
X32512000Y-17653000D01*
X33761250Y-17653000D01*
X33920000Y-17494250D01*
X33923072Y-17205000D01*
X33910812Y-17080518D01*
X33874502Y-16960820D01*
X33815537Y-16850506D01*
X33736185Y-16753815D01*
X33639494Y-16674463D01*
X33529180Y-16615498D01*
X33409482Y-16579188D01*
X33285000Y-16566928D01*
X32670750Y-16570000D01*
X32512000Y-16728750D01*
X32258000Y-16728750D01*
X32099250Y-16570000D01*
X31877000Y-16568888D01*
X31877000Y-16562606D01*
X33809606Y-14630000D01*
X77343000Y-14630000D01*
X77343000Y-18362394D01*
%TA.AperFunction,Conductor*%
D33*
G36*
X77343000Y-18362394D02*
G01*
X76782394Y-18923000D01*
X76201646Y-18923000D01*
X76232839Y-18902601D01*
X76434500Y-18704895D01*
X76593715Y-18471646D01*
X76704367Y-18211818D01*
X76721904Y-18129039D01*
X76599915Y-17907000D01*
X75057000Y-17907000D01*
X75057000Y-17927000D01*
X74803000Y-17927000D01*
X74803000Y-17907000D01*
X73260085Y-17907000D01*
X73138096Y-18129039D01*
X73155633Y-18211818D01*
X73266285Y-18471646D01*
X73425500Y-18704895D01*
X73627161Y-18902601D01*
X73658354Y-18923000D01*
X72451039Y-18923000D01*
X71257408Y-17430961D01*
X73138096Y-17430961D01*
X73260085Y-17653000D01*
X74803000Y-17653000D01*
X74803000Y-16345000D01*
X75057000Y-16345000D01*
X75057000Y-17653000D01*
X76599915Y-17653000D01*
X76721904Y-17430961D01*
X76704367Y-17348182D01*
X76593715Y-17088354D01*
X76434500Y-16855105D01*
X76232839Y-16657399D01*
X75996483Y-16502834D01*
X75734514Y-16397350D01*
X75457000Y-16345000D01*
X75057000Y-16345000D01*
X74803000Y-16345000D01*
X74403000Y-16345000D01*
X74125486Y-16397350D01*
X73863517Y-16502834D01*
X73627161Y-16657399D01*
X73425500Y-16855105D01*
X73266285Y-17088354D01*
X73155633Y-17348182D01*
X73138096Y-17430961D01*
X71257408Y-17430961D01*
X69949170Y-15795664D01*
X69931787Y-15777841D01*
X69911261Y-15763752D01*
X69888380Y-15753938D01*
X69864025Y-15748777D01*
X69850000Y-15748000D01*
X36830000Y-15748000D01*
X36805224Y-15750440D01*
X36781399Y-15757667D01*
X36759443Y-15769403D01*
X36740197Y-15785197D01*
X34835197Y-17690197D01*
X34819403Y-17709443D01*
X34807667Y-17731399D01*
X34800440Y-17755224D01*
X34798000Y-17780000D01*
X34798000Y-22225000D01*
X34800440Y-22249776D01*
X34807667Y-22273601D01*
X34819403Y-22295557D01*
X34835197Y-22314803D01*
X36068000Y-23547606D01*
X36068000Y-25982394D01*
X34835197Y-27215197D01*
X34819403Y-27234443D01*
X34807667Y-27256399D01*
X34800440Y-27280224D01*
X34798000Y-27305000D01*
X34798000Y-29210000D01*
X34800440Y-29234776D01*
X34807667Y-29258601D01*
X34819403Y-29280557D01*
X34835197Y-29299803D01*
X36105197Y-30569803D01*
X36124443Y-30585597D01*
X36146399Y-30597333D01*
X36170224Y-30604560D01*
X36195000Y-30607000D01*
X36777394Y-30607000D01*
X39243000Y-33072606D01*
X39243000Y-36777394D01*
X38047394Y-37973000D01*
X36212027Y-37973000D01*
X36195000Y-37971323D01*
X36177973Y-37973000D01*
X33072606Y-37973000D01*
X31242000Y-36142394D01*
X31242000Y-33955560D01*
X36074045Y-33955560D01*
X36135932Y-34191368D01*
X36377790Y-34304266D01*
X36637027Y-34367811D01*
X36903680Y-34379561D01*
X37167501Y-34339063D01*
X37418353Y-34247875D01*
X37524068Y-34191368D01*
X37585955Y-33955560D01*
X36830000Y-33199605D01*
X36074045Y-33955560D01*
X31242000Y-33955560D01*
X31242000Y-33093680D01*
X35470439Y-33093680D01*
X35510937Y-33357501D01*
X35602125Y-33608353D01*
X35658632Y-33714068D01*
X35894440Y-33775955D01*
X36650395Y-33020000D01*
X37009605Y-33020000D01*
X37765560Y-33775955D01*
X38001368Y-33714068D01*
X38114266Y-33472210D01*
X38177811Y-33212973D01*
X38189561Y-32946320D01*
X38149063Y-32682499D01*
X38057875Y-32431647D01*
X38001368Y-32325932D01*
X37765560Y-32264045D01*
X37009605Y-33020000D01*
X36650395Y-33020000D01*
X35894440Y-32264045D01*
X35658632Y-32325932D01*
X35545734Y-32567790D01*
X35482189Y-32827027D01*
X35470439Y-33093680D01*
X31242000Y-33093680D01*
X31242000Y-32084440D01*
X36074045Y-32084440D01*
X36830000Y-32840395D01*
X37585955Y-32084440D01*
X37524068Y-31848632D01*
X37282210Y-31735734D01*
X37022973Y-31672189D01*
X36756320Y-31660439D01*
X36492499Y-31700937D01*
X36241647Y-31792125D01*
X36135932Y-31848632D01*
X36074045Y-32084440D01*
X31242000Y-32084440D01*
X31242000Y-29845000D01*
X31239560Y-29820224D01*
X31232333Y-29796399D01*
X31220597Y-29774443D01*
X31204803Y-29755197D01*
X29934803Y-28485197D01*
X29915557Y-28469403D01*
X29893601Y-28457667D01*
X29869776Y-28450440D01*
X29845000Y-28448000D01*
X29774750Y-28448000D01*
X29751250Y-28424500D01*
X28702000Y-28424500D01*
X28702000Y-28444500D01*
X28624106Y-28444500D01*
X28428000Y-28248394D01*
X28428000Y-28170500D01*
X28448000Y-28170500D01*
X28448000Y-27308750D01*
X28702000Y-27308750D01*
X28702000Y-28170500D01*
X29751250Y-28170500D01*
X29910000Y-28011750D01*
X29913072Y-27785000D01*
X29900812Y-27660518D01*
X29864502Y-27540820D01*
X29805537Y-27430506D01*
X29726185Y-27333815D01*
X29629494Y-27254463D01*
X29519180Y-27195498D01*
X29399482Y-27159188D01*
X29275000Y-27146928D01*
X28860750Y-27150000D01*
X28702000Y-27308750D01*
X28448000Y-27308750D01*
X28289250Y-27150000D01*
X28067000Y-27148352D01*
X28067000Y-26722606D01*
X30532606Y-24257000D01*
X33020000Y-24257000D01*
X33044776Y-24254560D01*
X33068601Y-24247333D01*
X33090557Y-24235597D01*
X33109803Y-24219803D01*
X33744803Y-23584803D01*
X33760597Y-23565557D01*
X33772333Y-23543601D01*
X33779560Y-23519776D01*
X33782000Y-23495000D01*
X33782000Y-21532307D01*
X33855472Y-21394851D01*
X33906008Y-21228255D01*
X33923072Y-21055001D01*
X33923072Y-20404999D01*
X33906008Y-20231745D01*
X33855472Y-20065149D01*
X33782000Y-19927693D01*
X33782000Y-19050000D01*
X33779560Y-19025224D01*
X33772333Y-19001399D01*
X33760597Y-18979443D01*
X33744803Y-18960197D01*
X33725557Y-18944403D01*
X33703601Y-18932667D01*
X33679776Y-18925440D01*
X33655000Y-18923000D01*
X33569407Y-18923000D01*
X33639494Y-18885537D01*
X33736185Y-18806185D01*
X33815537Y-18709494D01*
X33874502Y-18599180D01*
X33910812Y-18479482D01*
X33923072Y-18355000D01*
X33920000Y-18065750D01*
X33761250Y-17907000D01*
X32512000Y-17907000D01*
X32512000Y-17927000D01*
X32258000Y-17927000D01*
X32258000Y-17907000D01*
X32238000Y-17907000D01*
X32238000Y-17653000D01*
X32258000Y-17653000D01*
X32258000Y-16728750D01*
X32512000Y-16728750D01*
X32512000Y-17653000D01*
X33761250Y-17653000D01*
X33920000Y-17494250D01*
X33923072Y-17205000D01*
X33910812Y-17080518D01*
X33874502Y-16960820D01*
X33815537Y-16850506D01*
X33736185Y-16753815D01*
X33639494Y-16674463D01*
X33529180Y-16615498D01*
X33409482Y-16579188D01*
X33285000Y-16566928D01*
X32670750Y-16570000D01*
X32512000Y-16728750D01*
X32258000Y-16728750D01*
X32099250Y-16570000D01*
X31877000Y-16568888D01*
X31877000Y-16562606D01*
X33809606Y-14630000D01*
X77343000Y-14630000D01*
X77343000Y-18362394D01*
G37*
%TD.AperFunction*%
%TD*%
D32*
%TO.N,VCC*%
X93320000Y-17625394D02*
X92657394Y-18288000D01*
X91911924Y-18288000D01*
X91944367Y-18211818D01*
X91961904Y-18129039D01*
X91839915Y-17907000D01*
X90297000Y-17907000D01*
X90297000Y-17927000D01*
X90043000Y-17927000D01*
X90043000Y-17907000D01*
X88500085Y-17907000D01*
X88378096Y-18129039D01*
X88395633Y-18211818D01*
X88428076Y-18288000D01*
X88317606Y-18288000D01*
X87460567Y-17430961D01*
X88378096Y-17430961D01*
X88500085Y-17653000D01*
X90043000Y-17653000D01*
X90043000Y-16345000D01*
X90297000Y-16345000D01*
X90297000Y-17653000D01*
X91839915Y-17653000D01*
X91961904Y-17430961D01*
X91944367Y-17348182D01*
X91833715Y-17088354D01*
X91674500Y-16855105D01*
X91472839Y-16657399D01*
X91236483Y-16502834D01*
X90974514Y-16397350D01*
X90697000Y-16345000D01*
X90297000Y-16345000D01*
X90043000Y-16345000D01*
X89643000Y-16345000D01*
X89365486Y-16397350D01*
X89103517Y-16502834D01*
X88867161Y-16657399D01*
X88665500Y-16855105D01*
X88506285Y-17088354D01*
X88395633Y-17348182D01*
X88378096Y-17430961D01*
X87460567Y-17430961D01*
X85814803Y-15785197D01*
X85795557Y-15769403D01*
X85773601Y-15757667D01*
X85749776Y-15750440D01*
X85725000Y-15748000D01*
X78105000Y-15748000D01*
X78080224Y-15750440D01*
X78056399Y-15757667D01*
X78034443Y-15769403D01*
X78015197Y-15785197D01*
X77417394Y-16383000D01*
X76962000Y-16383000D01*
X76962000Y-14630000D01*
X93320000Y-14630000D01*
X93320000Y-17625394D01*
%TA.AperFunction,Conductor*%
D33*
G36*
X93320000Y-17625394D02*
G01*
X92657394Y-18288000D01*
X91911924Y-18288000D01*
X91944367Y-18211818D01*
X91961904Y-18129039D01*
X91839915Y-17907000D01*
X90297000Y-17907000D01*
X90297000Y-17927000D01*
X90043000Y-17927000D01*
X90043000Y-17907000D01*
X88500085Y-17907000D01*
X88378096Y-18129039D01*
X88395633Y-18211818D01*
X88428076Y-18288000D01*
X88317606Y-18288000D01*
X87460567Y-17430961D01*
X88378096Y-17430961D01*
X88500085Y-17653000D01*
X90043000Y-17653000D01*
X90043000Y-16345000D01*
X90297000Y-16345000D01*
X90297000Y-17653000D01*
X91839915Y-17653000D01*
X91961904Y-17430961D01*
X91944367Y-17348182D01*
X91833715Y-17088354D01*
X91674500Y-16855105D01*
X91472839Y-16657399D01*
X91236483Y-16502834D01*
X90974514Y-16397350D01*
X90697000Y-16345000D01*
X90297000Y-16345000D01*
X90043000Y-16345000D01*
X89643000Y-16345000D01*
X89365486Y-16397350D01*
X89103517Y-16502834D01*
X88867161Y-16657399D01*
X88665500Y-16855105D01*
X88506285Y-17088354D01*
X88395633Y-17348182D01*
X88378096Y-17430961D01*
X87460567Y-17430961D01*
X85814803Y-15785197D01*
X85795557Y-15769403D01*
X85773601Y-15757667D01*
X85749776Y-15750440D01*
X85725000Y-15748000D01*
X78105000Y-15748000D01*
X78080224Y-15750440D01*
X78056399Y-15757667D01*
X78034443Y-15769403D01*
X78015197Y-15785197D01*
X77417394Y-16383000D01*
X76962000Y-16383000D01*
X76962000Y-14630000D01*
X93320000Y-14630000D01*
X93320000Y-17625394D01*
G37*
%TD.AperFunction*%
%TD*%
D32*
%TO.N,VCC*%
X64680197Y-16420197D02*
X64664403Y-16439443D01*
X64652667Y-16461399D01*
X64645440Y-16485224D01*
X64643000Y-16510000D01*
X64643000Y-28575000D01*
X64645440Y-28599776D01*
X64652667Y-28623601D01*
X64664403Y-28645557D01*
X64680197Y-28664803D01*
X66585197Y-30569803D01*
X66604443Y-30585597D01*
X66626399Y-30597333D01*
X66650224Y-30604560D01*
X66675000Y-30607000D01*
X71120000Y-30607000D01*
X71144776Y-30604560D01*
X71168601Y-30597333D01*
X71190557Y-30585597D01*
X71209803Y-30569803D01*
X71736253Y-30043353D01*
X71775820Y-30064502D01*
X71895518Y-30100812D01*
X72020000Y-30113072D01*
X72309250Y-30110000D01*
X72468000Y-29951250D01*
X72468000Y-28702000D01*
X72722000Y-28702000D01*
X72722000Y-29951250D01*
X72880750Y-30110000D01*
X73170000Y-30113072D01*
X73294482Y-30100812D01*
X73414180Y-30064502D01*
X73524494Y-30005537D01*
X73621185Y-29926185D01*
X73700537Y-29829494D01*
X73759502Y-29719180D01*
X73795812Y-29599482D01*
X73808072Y-29475000D01*
X73805000Y-28860750D01*
X73646250Y-28702000D01*
X72722000Y-28702000D01*
X72468000Y-28702000D01*
X72448000Y-28702000D01*
X72448000Y-28448000D01*
X72468000Y-28448000D01*
X72468000Y-27198750D01*
X72309250Y-27040000D01*
X72200758Y-27038848D01*
X72442606Y-26797000D01*
X72972394Y-26797000D01*
X73216946Y-27041552D01*
X73170000Y-27036928D01*
X72880750Y-27040000D01*
X72722000Y-27198750D01*
X72722000Y-28448000D01*
X73646250Y-28448000D01*
X73805000Y-28289250D01*
X73808072Y-27675000D01*
X73803448Y-27628054D01*
X74168000Y-27992606D01*
X74168000Y-29210000D01*
X74170440Y-29234776D01*
X74177667Y-29258601D01*
X74189403Y-29280557D01*
X74205197Y-29299803D01*
X74803000Y-29897606D01*
X74803000Y-34237394D01*
X72972394Y-36068000D01*
X63011112Y-36068000D01*
X63010000Y-35845750D01*
X62851250Y-35687000D01*
X61927000Y-35687000D01*
X61927000Y-35707000D01*
X61921606Y-35707000D01*
X61653000Y-35438394D01*
X61653000Y-35433000D01*
X61673000Y-35433000D01*
X61673000Y-34183750D01*
X61927000Y-34183750D01*
X61927000Y-35433000D01*
X62851250Y-35433000D01*
X63010000Y-35274250D01*
X63013072Y-34660000D01*
X63000812Y-34535518D01*
X62964502Y-34415820D01*
X62905537Y-34305506D01*
X62826185Y-34208815D01*
X62729494Y-34129463D01*
X62619180Y-34070498D01*
X62499482Y-34034188D01*
X62375000Y-34021928D01*
X62085750Y-34025000D01*
X61927000Y-34183750D01*
X61673000Y-34183750D01*
X61514250Y-34025000D01*
X61225000Y-34021928D01*
X61100518Y-34034188D01*
X61087000Y-34038289D01*
X61087000Y-31802606D01*
X63589803Y-29299803D01*
X63605597Y-29280557D01*
X63617333Y-29258601D01*
X63624560Y-29234776D01*
X63627000Y-29210000D01*
X63627000Y-16510000D01*
X63624560Y-16485224D01*
X63617333Y-16461399D01*
X63605597Y-16439443D01*
X63589803Y-16420197D01*
X62536606Y-15367000D01*
X65733394Y-15367000D01*
X64680197Y-16420197D01*
%TA.AperFunction,Conductor*%
D33*
G36*
X64680197Y-16420197D02*
G01*
X64664403Y-16439443D01*
X64652667Y-16461399D01*
X64645440Y-16485224D01*
X64643000Y-16510000D01*
X64643000Y-28575000D01*
X64645440Y-28599776D01*
X64652667Y-28623601D01*
X64664403Y-28645557D01*
X64680197Y-28664803D01*
X66585197Y-30569803D01*
X66604443Y-30585597D01*
X66626399Y-30597333D01*
X66650224Y-30604560D01*
X66675000Y-30607000D01*
X71120000Y-30607000D01*
X71144776Y-30604560D01*
X71168601Y-30597333D01*
X71190557Y-30585597D01*
X71209803Y-30569803D01*
X71736253Y-30043353D01*
X71775820Y-30064502D01*
X71895518Y-30100812D01*
X72020000Y-30113072D01*
X72309250Y-30110000D01*
X72468000Y-29951250D01*
X72468000Y-28702000D01*
X72722000Y-28702000D01*
X72722000Y-29951250D01*
X72880750Y-30110000D01*
X73170000Y-30113072D01*
X73294482Y-30100812D01*
X73414180Y-30064502D01*
X73524494Y-30005537D01*
X73621185Y-29926185D01*
X73700537Y-29829494D01*
X73759502Y-29719180D01*
X73795812Y-29599482D01*
X73808072Y-29475000D01*
X73805000Y-28860750D01*
X73646250Y-28702000D01*
X72722000Y-28702000D01*
X72468000Y-28702000D01*
X72448000Y-28702000D01*
X72448000Y-28448000D01*
X72468000Y-28448000D01*
X72468000Y-27198750D01*
X72309250Y-27040000D01*
X72200758Y-27038848D01*
X72442606Y-26797000D01*
X72972394Y-26797000D01*
X73216946Y-27041552D01*
X73170000Y-27036928D01*
X72880750Y-27040000D01*
X72722000Y-27198750D01*
X72722000Y-28448000D01*
X73646250Y-28448000D01*
X73805000Y-28289250D01*
X73808072Y-27675000D01*
X73803448Y-27628054D01*
X74168000Y-27992606D01*
X74168000Y-29210000D01*
X74170440Y-29234776D01*
X74177667Y-29258601D01*
X74189403Y-29280557D01*
X74205197Y-29299803D01*
X74803000Y-29897606D01*
X74803000Y-34237394D01*
X72972394Y-36068000D01*
X63011112Y-36068000D01*
X63010000Y-35845750D01*
X62851250Y-35687000D01*
X61927000Y-35687000D01*
X61927000Y-35707000D01*
X61921606Y-35707000D01*
X61653000Y-35438394D01*
X61653000Y-35433000D01*
X61673000Y-35433000D01*
X61673000Y-34183750D01*
X61927000Y-34183750D01*
X61927000Y-35433000D01*
X62851250Y-35433000D01*
X63010000Y-35274250D01*
X63013072Y-34660000D01*
X63000812Y-34535518D01*
X62964502Y-34415820D01*
X62905537Y-34305506D01*
X62826185Y-34208815D01*
X62729494Y-34129463D01*
X62619180Y-34070498D01*
X62499482Y-34034188D01*
X62375000Y-34021928D01*
X62085750Y-34025000D01*
X61927000Y-34183750D01*
X61673000Y-34183750D01*
X61514250Y-34025000D01*
X61225000Y-34021928D01*
X61100518Y-34034188D01*
X61087000Y-34038289D01*
X61087000Y-31802606D01*
X63589803Y-29299803D01*
X63605597Y-29280557D01*
X63617333Y-29258601D01*
X63624560Y-29234776D01*
X63627000Y-29210000D01*
X63627000Y-16510000D01*
X63624560Y-16485224D01*
X63617333Y-16461399D01*
X63605597Y-16439443D01*
X63589803Y-16420197D01*
X62536606Y-15367000D01*
X65733394Y-15367000D01*
X64680197Y-16420197D01*
G37*
%TD.AperFunction*%
%TD*%
D32*
%TO.N,VCC*%
X32893000Y-37973000D02*
X27305000Y-37973000D01*
X27280224Y-37975440D01*
X27256399Y-37982667D01*
X27234443Y-37994403D01*
X27215197Y-38010197D01*
X25945197Y-39280197D01*
X25929403Y-39299443D01*
X25917667Y-39321399D01*
X25910440Y-39345224D01*
X25908000Y-39370000D01*
X25908000Y-46937394D01*
X24712394Y-48133000D01*
X24191039Y-48133000D01*
X21760180Y-45094426D01*
X24219803Y-42634803D01*
X24235597Y-42615557D01*
X24247333Y-42593601D01*
X24254560Y-42569776D01*
X24257000Y-42545000D01*
X24257000Y-38787606D01*
X26087606Y-36957000D01*
X29210000Y-36957000D01*
X29234776Y-36954560D01*
X29258601Y-36947333D01*
X29280557Y-36935597D01*
X29299803Y-36919803D01*
X31167606Y-35052000D01*
X32893000Y-35052000D01*
X32893000Y-37973000D01*
%TA.AperFunction,Conductor*%
D33*
G36*
X32893000Y-37973000D02*
G01*
X27305000Y-37973000D01*
X27280224Y-37975440D01*
X27256399Y-37982667D01*
X27234443Y-37994403D01*
X27215197Y-38010197D01*
X25945197Y-39280197D01*
X25929403Y-39299443D01*
X25917667Y-39321399D01*
X25910440Y-39345224D01*
X25908000Y-39370000D01*
X25908000Y-46937394D01*
X24712394Y-48133000D01*
X24191039Y-48133000D01*
X21760180Y-45094426D01*
X24219803Y-42634803D01*
X24235597Y-42615557D01*
X24247333Y-42593601D01*
X24254560Y-42569776D01*
X24257000Y-42545000D01*
X24257000Y-38787606D01*
X26087606Y-36957000D01*
X29210000Y-36957000D01*
X29234776Y-36954560D01*
X29258601Y-36947333D01*
X29280557Y-36935597D01*
X29299803Y-36919803D01*
X31167606Y-35052000D01*
X32893000Y-35052000D01*
X32893000Y-37973000D01*
G37*
%TD.AperFunction*%
%TD*%
D32*
%TO.N,VCC*%
X93320001Y-66520393D02*
X92657394Y-67183000D01*
X88317606Y-67183000D01*
X87757000Y-66622394D01*
X87757000Y-66604750D01*
X87780500Y-66581250D01*
X87780500Y-65532000D01*
X88034500Y-65532000D01*
X88034500Y-66581250D01*
X88193250Y-66740000D01*
X88420000Y-66743072D01*
X88544482Y-66730812D01*
X88664180Y-66694502D01*
X88774494Y-66635537D01*
X88871185Y-66556185D01*
X88950537Y-66459494D01*
X89009502Y-66349180D01*
X89045812Y-66229482D01*
X89058072Y-66105000D01*
X89055000Y-65690750D01*
X88896250Y-65532000D01*
X88034500Y-65532000D01*
X87780500Y-65532000D01*
X87760500Y-65532000D01*
X87760500Y-65278000D01*
X87780500Y-65278000D01*
X87780500Y-64228750D01*
X88034500Y-64228750D01*
X88034500Y-65278000D01*
X88896250Y-65278000D01*
X89055000Y-65119250D01*
X89058072Y-64705000D01*
X89045812Y-64580518D01*
X89009502Y-64460820D01*
X88950537Y-64350506D01*
X88871185Y-64253815D01*
X88774494Y-64174463D01*
X88664180Y-64115498D01*
X88544482Y-64079188D01*
X88420000Y-64066928D01*
X88193250Y-64070000D01*
X88034500Y-64228750D01*
X87780500Y-64228750D01*
X87757000Y-64205250D01*
X87757000Y-62865000D01*
X87754560Y-62840224D01*
X87747333Y-62816399D01*
X87735597Y-62794443D01*
X87719803Y-62775197D01*
X87440758Y-62496152D01*
X87549250Y-62495000D01*
X87708000Y-62336250D01*
X87708000Y-61087000D01*
X87962000Y-61087000D01*
X87962000Y-62336250D01*
X88120750Y-62495000D01*
X88410000Y-62498072D01*
X88534482Y-62485812D01*
X88654180Y-62449502D01*
X88764494Y-62390537D01*
X88861185Y-62311185D01*
X88940537Y-62214494D01*
X88999502Y-62104180D01*
X89035812Y-61984482D01*
X89048072Y-61860000D01*
X89045000Y-61245750D01*
X88886250Y-61087000D01*
X87962000Y-61087000D01*
X87708000Y-61087000D01*
X87688000Y-61087000D01*
X87688000Y-60833000D01*
X87708000Y-60833000D01*
X87708000Y-60813000D01*
X87962000Y-60813000D01*
X87962000Y-60833000D01*
X88886250Y-60833000D01*
X89045000Y-60674250D01*
X89048072Y-60060000D01*
X89035812Y-59935518D01*
X88999860Y-59817000D01*
X92075000Y-59817000D01*
X92099776Y-59814560D01*
X92123601Y-59807333D01*
X92145557Y-59795597D01*
X92164803Y-59779803D01*
X92799803Y-59144803D01*
X92815597Y-59125557D01*
X92827333Y-59103601D01*
X92834560Y-59079776D01*
X92837000Y-59055000D01*
X92837000Y-52070000D01*
X92834560Y-52045224D01*
X92827333Y-52021399D01*
X92815597Y-51999443D01*
X92799803Y-51980197D01*
X92164803Y-51345197D01*
X92145557Y-51329403D01*
X92123601Y-51317667D01*
X92099776Y-51310440D01*
X92075000Y-51308000D01*
X91441646Y-51308000D01*
X91472839Y-51287601D01*
X91674500Y-51089895D01*
X91833715Y-50856646D01*
X91944367Y-50596818D01*
X91961904Y-50514039D01*
X91839915Y-50292000D01*
X90297000Y-50292000D01*
X90297000Y-50312000D01*
X90043000Y-50312000D01*
X90043000Y-50292000D01*
X90023000Y-50292000D01*
X90023000Y-50038000D01*
X90043000Y-50038000D01*
X90043000Y-48730000D01*
X90297000Y-48730000D01*
X90297000Y-50038000D01*
X91839915Y-50038000D01*
X91961904Y-49815961D01*
X91944367Y-49733182D01*
X91833715Y-49473354D01*
X91674500Y-49240105D01*
X91472839Y-49042399D01*
X91236483Y-48887834D01*
X90974514Y-48782350D01*
X90697000Y-48730000D01*
X90297000Y-48730000D01*
X90043000Y-48730000D01*
X89643000Y-48730000D01*
X89365486Y-48782350D01*
X89103517Y-48887834D01*
X88867161Y-49042399D01*
X88665500Y-49240105D01*
X88506285Y-49473354D01*
X88395633Y-49733182D01*
X88392000Y-49750331D01*
X88392000Y-47691711D01*
X88433937Y-47649774D01*
X88547205Y-47480256D01*
X88625226Y-47291898D01*
X88665000Y-47091939D01*
X88665000Y-46888061D01*
X88625226Y-46688102D01*
X88586656Y-46594985D01*
X88654180Y-46574502D01*
X88764494Y-46515537D01*
X88861185Y-46436185D01*
X88940537Y-46339494D01*
X88999502Y-46229180D01*
X89035812Y-46109482D01*
X89048072Y-45985000D01*
X89045000Y-45370750D01*
X88886250Y-45212000D01*
X88392000Y-45212000D01*
X88392000Y-44958000D01*
X88886250Y-44958000D01*
X89045000Y-44799250D01*
X89048072Y-44185000D01*
X89035812Y-44060518D01*
X88999860Y-43942000D01*
X92075000Y-43942000D01*
X92099776Y-43939560D01*
X92123601Y-43932333D01*
X92145557Y-43920597D01*
X92164803Y-43904803D01*
X92799803Y-43269803D01*
X92815597Y-43250557D01*
X92827333Y-43228601D01*
X92834560Y-43204776D01*
X92837000Y-43180000D01*
X92837000Y-36195000D01*
X92834560Y-36170224D01*
X92827333Y-36146399D01*
X92815597Y-36124443D01*
X92799803Y-36105197D01*
X92164803Y-35470197D01*
X92145557Y-35454403D01*
X92123601Y-35442667D01*
X92099776Y-35435440D01*
X92075000Y-35433000D01*
X91441646Y-35433000D01*
X91472839Y-35412601D01*
X91674500Y-35214895D01*
X91833715Y-34981646D01*
X91944367Y-34721818D01*
X91961904Y-34639039D01*
X91839915Y-34417000D01*
X90297000Y-34417000D01*
X90297000Y-34437000D01*
X90043000Y-34437000D01*
X90043000Y-34417000D01*
X90023000Y-34417000D01*
X90023000Y-34163000D01*
X90043000Y-34163000D01*
X90043000Y-32855000D01*
X90297000Y-32855000D01*
X90297000Y-34163000D01*
X91839915Y-34163000D01*
X91961904Y-33940961D01*
X91944367Y-33858182D01*
X91833715Y-33598354D01*
X91674500Y-33365105D01*
X91472839Y-33167399D01*
X91236483Y-33012834D01*
X90974514Y-32907350D01*
X90697000Y-32855000D01*
X90297000Y-32855000D01*
X90043000Y-32855000D01*
X89643000Y-32855000D01*
X89365486Y-32907350D01*
X89103517Y-33012834D01*
X88867161Y-33167399D01*
X88665500Y-33365105D01*
X88506285Y-33598354D01*
X88395633Y-33858182D01*
X88392000Y-33875331D01*
X88392000Y-30112881D01*
X88410000Y-30113072D01*
X88534482Y-30100812D01*
X88654180Y-30064502D01*
X88764494Y-30005537D01*
X88861185Y-29926185D01*
X88940537Y-29829494D01*
X88999502Y-29719180D01*
X89035812Y-29599482D01*
X89048072Y-29475000D01*
X89045000Y-28860750D01*
X88886250Y-28702000D01*
X88392000Y-28702000D01*
X88392000Y-28448000D01*
X88886250Y-28448000D01*
X89045000Y-28289250D01*
X89048072Y-27675000D01*
X89035812Y-27550518D01*
X88999860Y-27432000D01*
X92075000Y-27432000D01*
X92099776Y-27429560D01*
X92123601Y-27422333D01*
X92145557Y-27410597D01*
X92164803Y-27394803D01*
X92799803Y-26759803D01*
X92815597Y-26740557D01*
X92827333Y-26718601D01*
X92834560Y-26694776D01*
X92837000Y-26670000D01*
X92837000Y-19050000D01*
X92834560Y-19025224D01*
X92827333Y-19001399D01*
X92815597Y-18979443D01*
X92799803Y-18960197D01*
X92202000Y-18362394D01*
X92202000Y-14630000D01*
X93320000Y-14630000D01*
X93320001Y-66520393D01*
%TA.AperFunction,Conductor*%
D33*
G36*
X93320001Y-66520393D02*
G01*
X92657394Y-67183000D01*
X88317606Y-67183000D01*
X87757000Y-66622394D01*
X87757000Y-66604750D01*
X87780500Y-66581250D01*
X87780500Y-65532000D01*
X88034500Y-65532000D01*
X88034500Y-66581250D01*
X88193250Y-66740000D01*
X88420000Y-66743072D01*
X88544482Y-66730812D01*
X88664180Y-66694502D01*
X88774494Y-66635537D01*
X88871185Y-66556185D01*
X88950537Y-66459494D01*
X89009502Y-66349180D01*
X89045812Y-66229482D01*
X89058072Y-66105000D01*
X89055000Y-65690750D01*
X88896250Y-65532000D01*
X88034500Y-65532000D01*
X87780500Y-65532000D01*
X87760500Y-65532000D01*
X87760500Y-65278000D01*
X87780500Y-65278000D01*
X87780500Y-64228750D01*
X88034500Y-64228750D01*
X88034500Y-65278000D01*
X88896250Y-65278000D01*
X89055000Y-65119250D01*
X89058072Y-64705000D01*
X89045812Y-64580518D01*
X89009502Y-64460820D01*
X88950537Y-64350506D01*
X88871185Y-64253815D01*
X88774494Y-64174463D01*
X88664180Y-64115498D01*
X88544482Y-64079188D01*
X88420000Y-64066928D01*
X88193250Y-64070000D01*
X88034500Y-64228750D01*
X87780500Y-64228750D01*
X87757000Y-64205250D01*
X87757000Y-62865000D01*
X87754560Y-62840224D01*
X87747333Y-62816399D01*
X87735597Y-62794443D01*
X87719803Y-62775197D01*
X87440758Y-62496152D01*
X87549250Y-62495000D01*
X87708000Y-62336250D01*
X87708000Y-61087000D01*
X87962000Y-61087000D01*
X87962000Y-62336250D01*
X88120750Y-62495000D01*
X88410000Y-62498072D01*
X88534482Y-62485812D01*
X88654180Y-62449502D01*
X88764494Y-62390537D01*
X88861185Y-62311185D01*
X88940537Y-62214494D01*
X88999502Y-62104180D01*
X89035812Y-61984482D01*
X89048072Y-61860000D01*
X89045000Y-61245750D01*
X88886250Y-61087000D01*
X87962000Y-61087000D01*
X87708000Y-61087000D01*
X87688000Y-61087000D01*
X87688000Y-60833000D01*
X87708000Y-60833000D01*
X87708000Y-60813000D01*
X87962000Y-60813000D01*
X87962000Y-60833000D01*
X88886250Y-60833000D01*
X89045000Y-60674250D01*
X89048072Y-60060000D01*
X89035812Y-59935518D01*
X88999860Y-59817000D01*
X92075000Y-59817000D01*
X92099776Y-59814560D01*
X92123601Y-59807333D01*
X92145557Y-59795597D01*
X92164803Y-59779803D01*
X92799803Y-59144803D01*
X92815597Y-59125557D01*
X92827333Y-59103601D01*
X92834560Y-59079776D01*
X92837000Y-59055000D01*
X92837000Y-52070000D01*
X92834560Y-52045224D01*
X92827333Y-52021399D01*
X92815597Y-51999443D01*
X92799803Y-51980197D01*
X92164803Y-51345197D01*
X92145557Y-51329403D01*
X92123601Y-51317667D01*
X92099776Y-51310440D01*
X92075000Y-51308000D01*
X91441646Y-51308000D01*
X91472839Y-51287601D01*
X91674500Y-51089895D01*
X91833715Y-50856646D01*
X91944367Y-50596818D01*
X91961904Y-50514039D01*
X91839915Y-50292000D01*
X90297000Y-50292000D01*
X90297000Y-50312000D01*
X90043000Y-50312000D01*
X90043000Y-50292000D01*
X90023000Y-50292000D01*
X90023000Y-50038000D01*
X90043000Y-50038000D01*
X90043000Y-48730000D01*
X90297000Y-48730000D01*
X90297000Y-50038000D01*
X91839915Y-50038000D01*
X91961904Y-49815961D01*
X91944367Y-49733182D01*
X91833715Y-49473354D01*
X91674500Y-49240105D01*
X91472839Y-49042399D01*
X91236483Y-48887834D01*
X90974514Y-48782350D01*
X90697000Y-48730000D01*
X90297000Y-48730000D01*
X90043000Y-48730000D01*
X89643000Y-48730000D01*
X89365486Y-48782350D01*
X89103517Y-48887834D01*
X88867161Y-49042399D01*
X88665500Y-49240105D01*
X88506285Y-49473354D01*
X88395633Y-49733182D01*
X88392000Y-49750331D01*
X88392000Y-47691711D01*
X88433937Y-47649774D01*
X88547205Y-47480256D01*
X88625226Y-47291898D01*
X88665000Y-47091939D01*
X88665000Y-46888061D01*
X88625226Y-46688102D01*
X88586656Y-46594985D01*
X88654180Y-46574502D01*
X88764494Y-46515537D01*
X88861185Y-46436185D01*
X88940537Y-46339494D01*
X88999502Y-46229180D01*
X89035812Y-46109482D01*
X89048072Y-45985000D01*
X89045000Y-45370750D01*
X88886250Y-45212000D01*
X88392000Y-45212000D01*
X88392000Y-44958000D01*
X88886250Y-44958000D01*
X89045000Y-44799250D01*
X89048072Y-44185000D01*
X89035812Y-44060518D01*
X88999860Y-43942000D01*
X92075000Y-43942000D01*
X92099776Y-43939560D01*
X92123601Y-43932333D01*
X92145557Y-43920597D01*
X92164803Y-43904803D01*
X92799803Y-43269803D01*
X92815597Y-43250557D01*
X92827333Y-43228601D01*
X92834560Y-43204776D01*
X92837000Y-43180000D01*
X92837000Y-36195000D01*
X92834560Y-36170224D01*
X92827333Y-36146399D01*
X92815597Y-36124443D01*
X92799803Y-36105197D01*
X92164803Y-35470197D01*
X92145557Y-35454403D01*
X92123601Y-35442667D01*
X92099776Y-35435440D01*
X92075000Y-35433000D01*
X91441646Y-35433000D01*
X91472839Y-35412601D01*
X91674500Y-35214895D01*
X91833715Y-34981646D01*
X91944367Y-34721818D01*
X91961904Y-34639039D01*
X91839915Y-34417000D01*
X90297000Y-34417000D01*
X90297000Y-34437000D01*
X90043000Y-34437000D01*
X90043000Y-34417000D01*
X90023000Y-34417000D01*
X90023000Y-34163000D01*
X90043000Y-34163000D01*
X90043000Y-32855000D01*
X90297000Y-32855000D01*
X90297000Y-34163000D01*
X91839915Y-34163000D01*
X91961904Y-33940961D01*
X91944367Y-33858182D01*
X91833715Y-33598354D01*
X91674500Y-33365105D01*
X91472839Y-33167399D01*
X91236483Y-33012834D01*
X90974514Y-32907350D01*
X90697000Y-32855000D01*
X90297000Y-32855000D01*
X90043000Y-32855000D01*
X89643000Y-32855000D01*
X89365486Y-32907350D01*
X89103517Y-33012834D01*
X88867161Y-33167399D01*
X88665500Y-33365105D01*
X88506285Y-33598354D01*
X88395633Y-33858182D01*
X88392000Y-33875331D01*
X88392000Y-30112881D01*
X88410000Y-30113072D01*
X88534482Y-30100812D01*
X88654180Y-30064502D01*
X88764494Y-30005537D01*
X88861185Y-29926185D01*
X88940537Y-29829494D01*
X88999502Y-29719180D01*
X89035812Y-29599482D01*
X89048072Y-29475000D01*
X89045000Y-28860750D01*
X88886250Y-28702000D01*
X88392000Y-28702000D01*
X88392000Y-28448000D01*
X88886250Y-28448000D01*
X89045000Y-28289250D01*
X89048072Y-27675000D01*
X89035812Y-27550518D01*
X88999860Y-27432000D01*
X92075000Y-27432000D01*
X92099776Y-27429560D01*
X92123601Y-27422333D01*
X92145557Y-27410597D01*
X92164803Y-27394803D01*
X92799803Y-26759803D01*
X92815597Y-26740557D01*
X92827333Y-26718601D01*
X92834560Y-26694776D01*
X92837000Y-26670000D01*
X92837000Y-19050000D01*
X92834560Y-19025224D01*
X92827333Y-19001399D01*
X92815597Y-18979443D01*
X92799803Y-18960197D01*
X92202000Y-18362394D01*
X92202000Y-14630000D01*
X93320000Y-14630000D01*
X93320001Y-66520393D01*
G37*
%TD.AperFunction*%
%TD*%
D32*
%TO.N,VCC*%
X93320001Y-78707572D02*
X93320000Y-78707582D01*
X93320000Y-79350000D01*
X51589606Y-79350000D01*
X50471606Y-78232000D01*
X90170000Y-78232000D01*
X90194776Y-78229560D01*
X90218601Y-78222333D01*
X90240557Y-78210597D01*
X90259803Y-78194803D01*
X92799803Y-75654803D01*
X92815597Y-75635557D01*
X92827333Y-75613601D01*
X92834560Y-75589776D01*
X92837000Y-75565000D01*
X92837000Y-67945000D01*
X92834560Y-67920224D01*
X92827333Y-67896399D01*
X92815597Y-67874443D01*
X92799803Y-67855197D01*
X92202000Y-67257394D01*
X92202000Y-66092606D01*
X93320001Y-64974605D01*
X93320001Y-78707572D01*
%TA.AperFunction,Conductor*%
D33*
G36*
X93320001Y-78707572D02*
G01*
X93320000Y-78707582D01*
X93320000Y-79350000D01*
X51589606Y-79350000D01*
X50471606Y-78232000D01*
X90170000Y-78232000D01*
X90194776Y-78229560D01*
X90218601Y-78222333D01*
X90240557Y-78210597D01*
X90259803Y-78194803D01*
X92799803Y-75654803D01*
X92815597Y-75635557D01*
X92827333Y-75613601D01*
X92834560Y-75589776D01*
X92837000Y-75565000D01*
X92837000Y-67945000D01*
X92834560Y-67920224D01*
X92827333Y-67896399D01*
X92815597Y-67874443D01*
X92799803Y-67855197D01*
X92202000Y-67257394D01*
X92202000Y-66092606D01*
X93320001Y-64974605D01*
X93320001Y-78707572D01*
G37*
%TD.AperFunction*%
%TD*%
D32*
%TO.N,VCC*%
X58958972Y-54526422D02*
X58929180Y-54510498D01*
X58809482Y-54474188D01*
X58685000Y-54461928D01*
X58070750Y-54465000D01*
X57912000Y-54623750D01*
X57912000Y-55548000D01*
X57932000Y-55548000D01*
X57932000Y-55553394D01*
X57732394Y-55753000D01*
X57638000Y-55753000D01*
X57638000Y-55548000D01*
X57658000Y-55548000D01*
X57658000Y-54623750D01*
X57499250Y-54465000D01*
X56885000Y-54461928D01*
X56760518Y-54474188D01*
X56640820Y-54510498D01*
X56530506Y-54569463D01*
X56433815Y-54648815D01*
X56354463Y-54745506D01*
X56295498Y-54855820D01*
X56259188Y-54975518D01*
X56246928Y-55100000D01*
X56247119Y-55118000D01*
X55440875Y-55118000D01*
X55440000Y-54985750D01*
X55281250Y-54827000D01*
X54432000Y-54827000D01*
X54432000Y-54847000D01*
X54178000Y-54847000D01*
X54178000Y-54827000D01*
X54158000Y-54827000D01*
X54158000Y-54573000D01*
X54178000Y-54573000D01*
X54178000Y-54553000D01*
X54432000Y-54553000D01*
X54432000Y-54573000D01*
X55281250Y-54573000D01*
X55440000Y-54414250D01*
X55443072Y-53950000D01*
X55430812Y-53825518D01*
X55394502Y-53705820D01*
X55335537Y-53595506D01*
X55256185Y-53498815D01*
X55217418Y-53467000D01*
X60018394Y-53467000D01*
X58958972Y-54526422D01*
%TA.AperFunction,Conductor*%
D33*
G36*
X58958972Y-54526422D02*
G01*
X58929180Y-54510498D01*
X58809482Y-54474188D01*
X58685000Y-54461928D01*
X58070750Y-54465000D01*
X57912000Y-54623750D01*
X57912000Y-55548000D01*
X57932000Y-55548000D01*
X57932000Y-55553394D01*
X57732394Y-55753000D01*
X57638000Y-55753000D01*
X57638000Y-55548000D01*
X57658000Y-55548000D01*
X57658000Y-54623750D01*
X57499250Y-54465000D01*
X56885000Y-54461928D01*
X56760518Y-54474188D01*
X56640820Y-54510498D01*
X56530506Y-54569463D01*
X56433815Y-54648815D01*
X56354463Y-54745506D01*
X56295498Y-54855820D01*
X56259188Y-54975518D01*
X56246928Y-55100000D01*
X56247119Y-55118000D01*
X55440875Y-55118000D01*
X55440000Y-54985750D01*
X55281250Y-54827000D01*
X54432000Y-54827000D01*
X54432000Y-54847000D01*
X54178000Y-54847000D01*
X54178000Y-54827000D01*
X54158000Y-54827000D01*
X54158000Y-54573000D01*
X54178000Y-54573000D01*
X54178000Y-54553000D01*
X54432000Y-54553000D01*
X54432000Y-54573000D01*
X55281250Y-54573000D01*
X55440000Y-54414250D01*
X55443072Y-53950000D01*
X55430812Y-53825518D01*
X55394502Y-53705820D01*
X55335537Y-53595506D01*
X55256185Y-53498815D01*
X55217418Y-53467000D01*
X60018394Y-53467000D01*
X58958972Y-54526422D01*
G37*
%TD.AperFunction*%
%TD*%
M02*
